%TF.GenerationSoftware,KiCad,Pcbnew,9.0.7*%
%TF.CreationDate,2026-03-09T20:46:40-05:00*%
%TF.ProjectId,fsae_pcb,66736165-5f70-4636-922e-6b696361645f,rev?*%
%TF.SameCoordinates,Original*%
%TF.FileFunction,Copper,L1,Top*%
%TF.FilePolarity,Positive*%
%FSLAX46Y46*%
G04 Gerber Fmt 4.6, Leading zero omitted, Abs format (unit mm)*
G04 Created by KiCad (PCBNEW 9.0.7) date 2026-03-09 20:46:40*
%MOMM*%
%LPD*%
G01*
G04 APERTURE LIST*
G04 Aperture macros list*
%AMRoundRect*
0 Rectangle with rounded corners*
0 $1 Rounding radius*
0 $2 $3 $4 $5 $6 $7 $8 $9 X,Y pos of 4 corners*
0 Add a 4 corners polygon primitive as box body*
4,1,4,$2,$3,$4,$5,$6,$7,$8,$9,$2,$3,0*
0 Add four circle primitives for the rounded corners*
1,1,$1+$1,$2,$3*
1,1,$1+$1,$4,$5*
1,1,$1+$1,$6,$7*
1,1,$1+$1,$8,$9*
0 Add four rect primitives between the rounded corners*
20,1,$1+$1,$2,$3,$4,$5,0*
20,1,$1+$1,$4,$5,$6,$7,0*
20,1,$1+$1,$6,$7,$8,$9,0*
20,1,$1+$1,$8,$9,$2,$3,0*%
G04 Aperture macros list end*
%TA.AperFunction,SMDPad,CuDef*%
%ADD10R,2.900000X5.400000*%
%TD*%
%TA.AperFunction,SMDPad,CuDef*%
%ADD11RoundRect,0.250000X-0.262500X-0.450000X0.262500X-0.450000X0.262500X0.450000X-0.262500X0.450000X0*%
%TD*%
%TA.AperFunction,ComponentPad*%
%ADD12R,1.700000X1.700000*%
%TD*%
%TA.AperFunction,ComponentPad*%
%ADD13C,1.700000*%
%TD*%
%TA.AperFunction,ComponentPad*%
%ADD14C,5.000000*%
%TD*%
%TA.AperFunction,ComponentPad*%
%ADD15R,1.800000X1.800000*%
%TD*%
%TA.AperFunction,ComponentPad*%
%ADD16C,1.800000*%
%TD*%
%TA.AperFunction,ComponentPad*%
%ADD17RoundRect,0.500000X-0.500000X-0.500000X0.500000X-0.500000X0.500000X0.500000X-0.500000X0.500000X0*%
%TD*%
%TA.AperFunction,ComponentPad*%
%ADD18C,2.000000*%
%TD*%
%TA.AperFunction,ComponentPad*%
%ADD19RoundRect,0.250000X-1.050000X1.050000X-1.050000X-1.050000X1.050000X-1.050000X1.050000X1.050000X0*%
%TD*%
%TA.AperFunction,ComponentPad*%
%ADD20C,2.600000*%
%TD*%
%TA.AperFunction,SMDPad,CuDef*%
%ADD21RoundRect,0.250000X-0.250000X-0.475000X0.250000X-0.475000X0.250000X0.475000X-0.250000X0.475000X0*%
%TD*%
%TA.AperFunction,SMDPad,CuDef*%
%ADD22RoundRect,0.150000X-0.825000X-0.150000X0.825000X-0.150000X0.825000X0.150000X-0.825000X0.150000X0*%
%TD*%
%TA.AperFunction,HeatsinkPad*%
%ADD23R,2.290000X3.000000*%
%TD*%
%TA.AperFunction,ComponentPad*%
%ADD24C,1.500000*%
%TD*%
%TA.AperFunction,SMDPad,CuDef*%
%ADD25RoundRect,0.150000X-0.875000X-0.150000X0.875000X-0.150000X0.875000X0.150000X-0.875000X0.150000X0*%
%TD*%
%TA.AperFunction,SMDPad,CuDef*%
%ADD26RoundRect,0.250000X-1.000000X-0.650000X1.000000X-0.650000X1.000000X0.650000X-1.000000X0.650000X0*%
%TD*%
%TA.AperFunction,SMDPad,CuDef*%
%ADD27RoundRect,0.250000X-0.325000X-1.100000X0.325000X-1.100000X0.325000X1.100000X-0.325000X1.100000X0*%
%TD*%
%TA.AperFunction,ComponentPad*%
%ADD28R,1.727200X1.727200*%
%TD*%
%TA.AperFunction,ComponentPad*%
%ADD29O,1.727200X1.727200*%
%TD*%
%TA.AperFunction,ComponentPad*%
%ADD30RoundRect,0.250001X-0.499999X-0.499999X0.499999X-0.499999X0.499999X0.499999X-0.499999X0.499999X0*%
%TD*%
%TA.AperFunction,ViaPad*%
%ADD31C,0.600000*%
%TD*%
%TA.AperFunction,Conductor*%
%ADD32C,0.200000*%
%TD*%
G04 APERTURE END LIST*
D10*
%TO.P,L1,1,1*%
%TO.N,Net-(D2-K)*%
X72650000Y-62500000D03*
%TO.P,L1,2,2*%
%TO.N,+5V*%
X82350000Y-62500000D03*
%TD*%
D11*
%TO.P,R_FB2,1*%
%TO.N,Net-(U3-FB)*%
X57000000Y-61000000D03*
%TO.P,R_FB2,2*%
%TO.N,GND*%
X58825000Y-61000000D03*
%TD*%
D12*
%TO.P,JP1,1,Pin_1*%
%TO.N,Net-(J4-Pin_2)*%
X45000000Y-46665000D03*
D13*
%TO.P,JP1,2,Pin_2*%
%TO.N,Net-(J4-Pin_1)*%
X45000000Y-49205000D03*
%TD*%
D14*
%TO.P,MH2,1*%
%TO.N,N/C*%
X91500000Y-27500000D03*
%TD*%
D11*
%TO.P,R_FB1,1*%
%TO.N,+5V*%
X56587500Y-57500000D03*
%TO.P,R_FB1,2*%
%TO.N,Net-(U3-FB)*%
X58412500Y-57500000D03*
%TD*%
D15*
%TO.P,LED2,1,K*%
%TO.N,Net-(LED2-K)*%
X45230000Y-57440000D03*
D16*
%TO.P,LED2,2,A*%
%TO.N,+3V3*%
X47770000Y-57440000D03*
%TD*%
D17*
%TO.P,F1,1*%
%TO.N,Net-(D1-K)*%
X46000000Y-76500000D03*
X51000000Y-76500000D03*
D18*
%TO.P,F1,2*%
%TO.N,Net-(U3-EN)*%
X61000000Y-76500000D03*
X66000000Y-76500000D03*
%TD*%
D19*
%TO.P,J4,1,Pin_1*%
%TO.N,Net-(J4-Pin_1)*%
X36500000Y-42940000D03*
D20*
%TO.P,J4,2,Pin_2*%
%TO.N,Net-(J4-Pin_2)*%
X36500000Y-48020000D03*
%TO.P,J4,3,Pin_3*%
%TO.N,GND*%
X36500000Y-53100000D03*
%TD*%
D21*
%TO.P,C11,1*%
%TO.N,+3V3*%
X59050000Y-33500000D03*
%TO.P,C11,2*%
%TO.N,GND*%
X60950000Y-33500000D03*
%TD*%
%TO.P,C1,1*%
%TO.N,Net-(U1-OSC1)*%
X66050000Y-57500000D03*
%TO.P,C1,2*%
%TO.N,GND*%
X67950000Y-57500000D03*
%TD*%
D11*
%TO.P,R2,1*%
%TO.N,Net-(LED2-K)*%
X52087500Y-57000000D03*
%TO.P,R2,2*%
%TO.N,Net-(U1-~{RX0BF})*%
X53912500Y-57000000D03*
%TD*%
D21*
%TO.P,C21,1*%
%TO.N,Net-(U3-COMP)*%
X66050000Y-61000000D03*
%TO.P,C21,2*%
%TO.N,GND*%
X67950000Y-61000000D03*
%TD*%
D22*
%TO.P,U3,1,SW*%
%TO.N,Net-(D2-K)*%
X54955000Y-64345000D03*
%TO.P,U3,2,EN*%
%TO.N,Net-(U3-EN)*%
X54955000Y-65615000D03*
%TO.P,U3,3,COMP*%
%TO.N,Net-(U3-COMP)*%
X54955000Y-66885000D03*
%TO.P,U3,4,FB*%
%TO.N,Net-(U3-FB)*%
X54955000Y-68155000D03*
%TO.P,U3,5,GND*%
%TO.N,GND*%
X59905000Y-68155000D03*
%TO.P,U3,6,FREQ*%
%TO.N,Net-(U3-EN)*%
X59905000Y-66885000D03*
%TO.P,U3,7,VIN*%
X59905000Y-65615000D03*
%TO.P,U3,8,BST*%
%TO.N,Net-(U3-BST)*%
X59905000Y-64345000D03*
D23*
%TO.P,U3,9,EPAD*%
%TO.N,GND*%
X57430000Y-66250000D03*
%TD*%
D21*
%TO.P,C5,1*%
%TO.N,Net-(U3-EN)*%
X52550000Y-61500000D03*
%TO.P,C5,2*%
%TO.N,GND*%
X54450000Y-61500000D03*
%TD*%
%TO.P,C4,1*%
%TO.N,+3V3*%
X61550000Y-57500000D03*
%TO.P,C4,2*%
%TO.N,GND*%
X63450000Y-57500000D03*
%TD*%
%TO.P,C2,1*%
%TO.N,Net-(U1-OSC2)*%
X71100000Y-52500000D03*
%TO.P,C2,2*%
%TO.N,GND*%
X73000000Y-52500000D03*
%TD*%
D24*
%TO.P,Y1,1,1*%
%TO.N,Net-(U1-OSC2)*%
X53000000Y-46500000D03*
%TO.P,Y1,2,2*%
%TO.N,Net-(U1-OSC1)*%
X53000000Y-51380000D03*
%TD*%
D21*
%TO.P,C3,1*%
%TO.N,+3V3*%
X61550000Y-61000000D03*
%TO.P,C3,2*%
%TO.N,GND*%
X63450000Y-61000000D03*
%TD*%
D25*
%TO.P,U1,1,TXCAN*%
%TO.N,Net-(U1-TXCAN)*%
X58350000Y-43360000D03*
%TO.P,U1,2,RXCAN*%
%TO.N,Net-(U1-RXCAN)*%
X58350000Y-44630000D03*
%TO.P,U1,3,CLKOUT/SOF*%
%TO.N,unconnected-(U1-CLKOUT{slash}SOF-Pad3)*%
X58350000Y-45900000D03*
%TO.P,U1,4,~{TX0RTS}*%
%TO.N,unconnected-(U1-~{TX0RTS}-Pad4)*%
X58350000Y-47170000D03*
%TO.P,U1,5,~{TX1RTS}*%
%TO.N,unconnected-(U1-~{TX1RTS}-Pad5)*%
X58350000Y-48440000D03*
%TO.P,U1,6,~{TX2RTS}*%
%TO.N,+3V3*%
X58350000Y-49710000D03*
%TO.P,U1,7,OSC2*%
%TO.N,Net-(U1-OSC2)*%
X58350000Y-50980000D03*
%TO.P,U1,8,OSC1*%
%TO.N,Net-(U1-OSC1)*%
X58350000Y-52250000D03*
%TO.P,U1,9,VSS*%
%TO.N,GND*%
X58350000Y-53520000D03*
%TO.P,U1,10,~{RX1BF}*%
%TO.N,unconnected-(U1-~{RX1BF}-Pad10)*%
X67650000Y-53520000D03*
%TO.P,U1,11,~{RX0BF}*%
%TO.N,Net-(U1-~{RX0BF})*%
X67650000Y-52250000D03*
%TO.P,U1,12,~{INT}*%
%TO.N,/MCP_INT*%
X67650000Y-50980000D03*
%TO.P,U1,13,SCK*%
%TO.N,/SPI_SCK*%
X67650000Y-49710000D03*
%TO.P,U1,14,SI*%
%TO.N,/SPI_MOSI*%
X67650000Y-48440000D03*
%TO.P,U1,15,SO*%
%TO.N,/SPI_MISO*%
X67650000Y-47170000D03*
%TO.P,U1,16,~{CS}*%
%TO.N,/SPI_CE0*%
X67650000Y-45900000D03*
%TO.P,U1,17,~{RESET}*%
%TO.N,Net-(U1-~{RESET})*%
X67650000Y-44630000D03*
%TO.P,U1,18,VDD*%
%TO.N,+3V3*%
X67650000Y-43360000D03*
%TD*%
D22*
%TO.P,U2,1,D*%
%TO.N,Net-(U1-TXCAN)*%
X73050000Y-44000000D03*
%TO.P,U2,2,GND*%
%TO.N,GND*%
X73050000Y-45270000D03*
%TO.P,U2,3,VCC*%
%TO.N,+3V3*%
X73050000Y-46540000D03*
%TO.P,U2,4,R*%
%TO.N,Net-(U1-RXCAN)*%
X73050000Y-47810000D03*
%TO.P,U2,5,Vref*%
%TO.N,Net-(U2-Vref)*%
X78000000Y-47810000D03*
%TO.P,U2,6,CANL*%
%TO.N,Net-(J4-Pin_2)*%
X78000000Y-46540000D03*
%TO.P,U2,7,CANH*%
%TO.N,Net-(J4-Pin_1)*%
X78000000Y-45270000D03*
%TO.P,U2,8,Rs*%
%TO.N,GND*%
X78000000Y-44000000D03*
%TD*%
D14*
%TO.P,MH1,1*%
%TO.N,N/C*%
X33500000Y-27500000D03*
%TD*%
D21*
%TO.P,C12,1*%
%TO.N,Net-(U3-BST)*%
X67050000Y-33500000D03*
%TO.P,C12,2*%
%TO.N,GND*%
X68950000Y-33500000D03*
%TD*%
D26*
%TO.P,D2,1,K*%
%TO.N,Net-(D2-K)*%
X46000000Y-69500000D03*
%TO.P,D2,2,A*%
%TO.N,GND*%
X50000000Y-69500000D03*
%TD*%
D21*
%TO.P,C14,1*%
%TO.N,+3V3*%
X50550000Y-33500000D03*
%TO.P,C14,2*%
%TO.N,GND*%
X52450000Y-33500000D03*
%TD*%
D14*
%TO.P,MH3,1*%
%TO.N,N/C*%
X33500000Y-76500000D03*
%TD*%
D19*
%TO.P,J5,1,Pin_1*%
%TO.N,+12V*%
X36827500Y-62455000D03*
D20*
%TO.P,J5,2,Pin_2*%
%TO.N,GND*%
X36827500Y-67535000D03*
%TD*%
D21*
%TO.P,C10,1*%
%TO.N,+3V3*%
X42550000Y-33500000D03*
%TO.P,C10,2*%
%TO.N,GND*%
X44450000Y-33500000D03*
%TD*%
D12*
%TO.P,J7,1,Pin_1*%
%TO.N,/DIP_USB_DP*%
X91500000Y-42500000D03*
D13*
%TO.P,J7,2,Pin_2*%
%TO.N,+5V*%
X91500000Y-45040000D03*
%TO.P,J7,3,Pin_3*%
%TO.N,GND*%
X91500000Y-47580000D03*
%TO.P,J7,4,Pin_4*%
%TO.N,/DISP_USB_DM*%
X91500000Y-50120000D03*
%TD*%
D14*
%TO.P,MH4,1*%
%TO.N,N/C*%
X91500000Y-76500000D03*
%TD*%
D21*
%TO.P,C6,1*%
%TO.N,Net-(U2-Vref)*%
X58050000Y-39500000D03*
%TO.P,C6,2*%
%TO.N,GND*%
X59950000Y-39500000D03*
%TD*%
D11*
%TO.P,R1,1*%
%TO.N,+3V3*%
X51587500Y-40500000D03*
%TO.P,R1,2*%
%TO.N,Net-(LED1-A)*%
X53412500Y-40500000D03*
%TD*%
D27*
%TO.P,C8,1*%
%TO.N,+5V*%
X71025000Y-39000000D03*
%TO.P,C8,2*%
%TO.N,GND*%
X73975000Y-39000000D03*
%TD*%
D21*
%TO.P,C9,1*%
%TO.N,Net-(D2-K)*%
X83550000Y-52500000D03*
%TO.P,C9,2*%
%TO.N,Net-(U3-BST)*%
X85450000Y-52500000D03*
%TD*%
D28*
%TO.P,J1,1,Pin_1*%
%TO.N,+3V3*%
X38640000Y-29040000D03*
D29*
%TO.P,J1,2,Pin_2*%
%TO.N,+5V*%
X38640000Y-26500000D03*
%TO.P,J1,3,Pin_3*%
%TO.N,unconnected-(J1-Pin_3-Pad3)*%
X41180000Y-29040000D03*
%TO.P,J1,4,Pin_4*%
%TO.N,+5V*%
X41180000Y-26500000D03*
%TO.P,J1,5,Pin_5*%
%TO.N,unconnected-(J1-Pin_5-Pad5)*%
X43720000Y-29040000D03*
%TO.P,J1,6,Pin_6*%
%TO.N,GND*%
X43720000Y-26500000D03*
%TO.P,J1,7,Pin_7*%
%TO.N,unconnected-(J1-Pin_7-Pad7)*%
X46260000Y-29040000D03*
%TO.P,J1,8,Pin_8*%
%TO.N,/GPS_RX*%
X46260000Y-26500000D03*
%TO.P,J1,9,Pin_9*%
%TO.N,GND*%
X48800000Y-29040000D03*
%TO.P,J1,10,Pin_10*%
%TO.N,/GPS_TX*%
X48800000Y-26500000D03*
%TO.P,J1,11,Pin_11*%
%TO.N,/BTN1*%
X51340000Y-29040000D03*
%TO.P,J1,12,Pin_12*%
%TO.N,unconnected-(J1-Pin_12-Pad12)*%
X51340000Y-26500000D03*
%TO.P,J1,13,Pin_13*%
%TO.N,/BTN2*%
X53880000Y-29040000D03*
%TO.P,J1,14,Pin_14*%
%TO.N,GND*%
X53880000Y-26500000D03*
%TO.P,J1,15,Pin_15*%
%TO.N,/BTN3*%
X56420000Y-29040000D03*
%TO.P,J1,16,Pin_16*%
%TO.N,/LED_DB1*%
X56420000Y-26500000D03*
%TO.P,J1,17,Pin_17*%
%TO.N,+3V3*%
X58960000Y-29040000D03*
%TO.P,J1,18,Pin_18*%
%TO.N,/LED_DB2*%
X58960000Y-26500000D03*
%TO.P,J1,19,Pin_19*%
%TO.N,/SPI_MOSI*%
X61500000Y-29040000D03*
%TO.P,J1,20,Pin_20*%
%TO.N,GND*%
X61500000Y-26500000D03*
%TO.P,J1,21,Pin_21*%
%TO.N,/SPI_MISO*%
X64040000Y-29040000D03*
%TO.P,J1,22,Pin_22*%
%TO.N,/MCP_INT*%
X64040000Y-26500000D03*
%TO.P,J1,23,Pin_23*%
%TO.N,/SPI_SCK*%
X66580000Y-29040000D03*
%TO.P,J1,24,Pin_24*%
%TO.N,/SPI_CE0*%
X66580000Y-26500000D03*
%TO.P,J1,25,Pin_25*%
%TO.N,GND*%
X69120000Y-29040000D03*
%TO.P,J1,26,Pin_26*%
%TO.N,unconnected-(J1-Pin_26-Pad26)*%
X69120000Y-26500000D03*
%TO.P,J1,27,Pin_27*%
%TO.N,unconnected-(J1-Pin_27-Pad27)*%
X71660000Y-29040000D03*
%TO.P,J1,28,Pin_28*%
%TO.N,unconnected-(J1-Pin_28-Pad28)*%
X71660000Y-26500000D03*
%TO.P,J1,29,Pin_29*%
%TO.N,/LED_DB3*%
X74200000Y-29040000D03*
%TO.P,J1,30,Pin_30*%
%TO.N,GND*%
X74200000Y-26500000D03*
%TO.P,J1,31,Pin_31*%
%TO.N,unconnected-(J1-Pin_31-Pad31)*%
X76740000Y-29040000D03*
%TO.P,J1,32,Pin_32*%
%TO.N,unconnected-(J1-Pin_32-Pad32)*%
X76740000Y-26500000D03*
%TO.P,J1,33,Pin_33*%
%TO.N,unconnected-(J1-Pin_33-Pad33)*%
X79280000Y-29040000D03*
%TO.P,J1,34,Pin_34*%
%TO.N,GND*%
X79280000Y-26500000D03*
%TO.P,J1,35,Pin_35*%
%TO.N,unconnected-(J1-Pin_35-Pad35)*%
X81820000Y-29040000D03*
%TO.P,J1,36,Pin_36*%
%TO.N,unconnected-(J1-Pin_36-Pad36)*%
X81820000Y-26500000D03*
%TO.P,J1,37,Pin_37*%
%TO.N,unconnected-(J1-Pin_37-Pad37)*%
X84360000Y-29040000D03*
%TO.P,J1,38,Pin_38*%
%TO.N,unconnected-(J1-Pin_38-Pad38)*%
X84360000Y-26500000D03*
%TO.P,J1,39,Pin_39*%
%TO.N,GND*%
X86900000Y-29040000D03*
%TO.P,J1,40,Pin_40*%
%TO.N,unconnected-(J1-Pin_40-Pad40)*%
X86900000Y-26500000D03*
%TD*%
D11*
%TO.P,R3,1*%
%TO.N,Net-(J4-Pin_1)*%
X83587500Y-47000000D03*
%TO.P,R3,2*%
%TO.N,Net-(J4-Pin_2)*%
X85412500Y-47000000D03*
%TD*%
D27*
%TO.P,C7,1*%
%TO.N,Net-(U3-EN)*%
X64525000Y-66500000D03*
%TO.P,C7,2*%
%TO.N,GND*%
X67475000Y-66500000D03*
%TD*%
D15*
%TO.P,LED1,1,K*%
%TO.N,GND*%
X81960000Y-36500000D03*
D16*
%TO.P,LED1,2,A*%
%TO.N,Net-(LED1-A)*%
X84500000Y-36500000D03*
%TD*%
D11*
%TO.P,R4,1*%
%TO.N,+3V3*%
X75175000Y-33500000D03*
%TO.P,R4,2*%
%TO.N,Net-(U1-~{RESET})*%
X77000000Y-33500000D03*
%TD*%
D30*
%TO.P,J2,1,Pin_1*%
%TO.N,/LED_DB1*%
X73000000Y-72500000D03*
D24*
%TO.P,J2,2,Pin_2*%
%TO.N,/LED_DB2*%
X76000000Y-72500000D03*
%TO.P,J2,3,Pin_3*%
%TO.N,/LED_DB3*%
X79000000Y-72500000D03*
%TO.P,J2,4,Pin_4*%
%TO.N,/BTN1*%
X82000000Y-72500000D03*
%TO.P,J2,5,Pin_5*%
%TO.N,/BTN2*%
X73000000Y-75500000D03*
%TO.P,J2,6,Pin_6*%
%TO.N,/BTN3*%
X76000000Y-75500000D03*
%TO.P,J2,7,Pin_7*%
%TO.N,+3V3*%
X79000000Y-75500000D03*
%TO.P,J2,8,Pin_8*%
%TO.N,GND*%
X82000000Y-75500000D03*
%TD*%
D12*
%TO.P,J6,1,Pin_1*%
%TO.N,+5V*%
X91500000Y-34725000D03*
D13*
%TO.P,J6,2,Pin_2*%
%TO.N,GND*%
X91500000Y-37265000D03*
%TD*%
D26*
%TO.P,D1,1,K*%
%TO.N,Net-(D1-K)*%
X46000000Y-64000000D03*
%TO.P,D1,2,A*%
%TO.N,+12V*%
X50000000Y-64000000D03*
%TD*%
D12*
%TO.P,J3,1,Pin_1*%
%TO.N,+3V3*%
X91500000Y-56500000D03*
D13*
%TO.P,J3,2,Pin_2*%
%TO.N,GND*%
X91500000Y-59040000D03*
%TO.P,J3,3,Pin_3*%
%TO.N,/GPS_TX*%
X91500000Y-61580000D03*
%TO.P,J3,4,Pin_4*%
%TO.N,/GPS_RX*%
X91500000Y-64120000D03*
%TO.P,J3,5,Pin_5*%
%TO.N,/SDA*%
X91500000Y-66660000D03*
%TO.P,J3,6,Pin_6*%
%TO.N,/SCL*%
X91500000Y-69200000D03*
%TD*%
D21*
%TO.P,C13,1*%
%TO.N,+5V*%
X77050000Y-52500000D03*
%TO.P,C13,2*%
%TO.N,GND*%
X78950000Y-52500000D03*
%TD*%
D31*
%TO.N,Net-(U1-~{RESET})*%
X75880800Y-34720500D03*
X75412000Y-43475000D03*
%TO.N,Net-(U1-~{RX0BF})*%
X61412900Y-52739300D03*
X60689000Y-55188200D03*
%TO.N,Net-(J4-Pin_2)*%
X46588100Y-45250700D03*
%TO.N,/GPS_TX*%
X88255300Y-27770000D03*
%TO.N,/MCP_INT*%
X64153000Y-48189600D03*
%TO.N,/SPI_SCK*%
X65826700Y-49963700D03*
%TO.N,/SPI_MOSI*%
X66067900Y-48671300D03*
%TO.N,/SPI_MISO*%
X65035700Y-47014000D03*
%TO.N,/GPS_RX*%
X93288700Y-24255000D03*
%TO.N,/BTN1*%
X65781500Y-69696200D03*
%TO.N,/SPI_CE0*%
X66061800Y-45982900D03*
%TO.N,Net-(D1-K)*%
X48215700Y-64043000D03*
%TO.N,Net-(D2-K)*%
X82315700Y-53230000D03*
X82028100Y-58522600D03*
%TO.N,Net-(U3-BST)*%
X66006700Y-33359200D03*
X66029100Y-47820600D03*
X60816900Y-50397300D03*
X61690700Y-64334100D03*
%TO.N,+5V*%
X81763200Y-57440000D03*
X55333500Y-57523500D03*
X82079900Y-49288400D03*
X54733500Y-40228300D03*
%TO.N,Net-(U2-Vref)*%
X79629300Y-47708400D03*
X78801100Y-40963900D03*
%TO.N,Net-(U3-EN)*%
X61647300Y-66857800D03*
X59767300Y-62853000D03*
%TO.N,+3V3*%
X70930900Y-46676900D03*
X50692400Y-39604800D03*
X74149500Y-33760000D03*
X41533600Y-33760000D03*
X72698500Y-54593000D03*
%TO.N,GND*%
X75459900Y-45270000D03*
X75453000Y-51461600D03*
%TD*%
D32*
%TO.N,Net-(U1-TXCAN)*%
X71781500Y-42731500D02*
X73050000Y-44000000D01*
X66613800Y-42731500D02*
X71781500Y-42731500D01*
X66215200Y-43130100D02*
X66613800Y-42731500D01*
X66215200Y-43130200D02*
X66215200Y-43130100D01*
X58579800Y-43130200D02*
X66215200Y-43130200D01*
X58350000Y-43360000D02*
X58579800Y-43130200D01*
%TO.N,Net-(U1-RXCAN)*%
X63618700Y-44630000D02*
X58350000Y-44630000D01*
X65598700Y-46610000D02*
X63618700Y-44630000D01*
X66415500Y-46610000D02*
X65598700Y-46610000D01*
X66490500Y-46535000D02*
X66415500Y-46610000D01*
X69938200Y-46535000D02*
X66490500Y-46535000D01*
X71213200Y-47810000D02*
X69938200Y-46535000D01*
X73050000Y-47810000D02*
X71213200Y-47810000D01*
%TO.N,Net-(U3-FB)*%
X58412500Y-59587500D02*
X57000000Y-61000000D01*
X58412500Y-57500000D02*
X58412500Y-59587500D01*
X51332900Y-62742000D02*
X51568300Y-62977400D01*
X51332900Y-60642600D02*
X51332900Y-62742000D01*
X51926800Y-60048700D02*
X51332900Y-60642600D01*
X56048700Y-60048700D02*
X51926800Y-60048700D01*
X57000000Y-61000000D02*
X56048700Y-60048700D01*
X54534000Y-68155000D02*
X54955000Y-68155000D01*
X51734600Y-65355600D02*
X54534000Y-68155000D01*
X51734600Y-63143700D02*
X51734600Y-65355600D01*
X51568300Y-62977400D02*
X51734600Y-63143700D01*
X51568300Y-62977400D02*
X51734600Y-63143700D01*
%TO.N,Net-(U1-~{RESET})*%
X77000000Y-33601300D02*
X77000000Y-33500000D01*
X75880800Y-34720500D02*
X77000000Y-33601300D01*
X74257000Y-44630000D02*
X67650000Y-44630000D01*
X75412000Y-43475000D02*
X74257000Y-44630000D01*
%TO.N,Net-(U1-~{RX0BF})*%
X55724300Y-55188200D02*
X53912500Y-57000000D01*
X60689000Y-55188200D02*
X55724300Y-55188200D01*
X67160700Y-52739300D02*
X67650000Y-52250000D01*
X61412900Y-52739300D02*
X67160700Y-52739300D01*
%TO.N,Net-(LED2-K)*%
X51285500Y-56198000D02*
X52087500Y-57000000D01*
X47298200Y-56198000D02*
X51285500Y-56198000D01*
X46431700Y-57064500D02*
X47298200Y-56198000D01*
X46431700Y-57440000D02*
X46431700Y-57064500D01*
X45230000Y-57440000D02*
X46431700Y-57440000D01*
%TO.N,Net-(LED1-A)*%
X84500000Y-36784000D02*
X84500000Y-36500000D01*
X82646000Y-38638000D02*
X84500000Y-36784000D01*
X77860100Y-38638000D02*
X82646000Y-38638000D01*
X75428600Y-41069500D02*
X77860100Y-38638000D01*
X53982000Y-41069500D02*
X75428600Y-41069500D01*
X53412500Y-40500000D02*
X53982000Y-41069500D01*
%TO.N,Net-(J4-Pin_1)*%
X77655100Y-45270000D02*
X78000000Y-45270000D01*
X76664200Y-46260900D02*
X77655100Y-45270000D01*
X76664200Y-48100600D02*
X76664200Y-46260900D01*
X77000500Y-48436900D02*
X76664200Y-48100600D01*
X82150600Y-48436900D02*
X77000500Y-48436900D01*
X83587500Y-47000000D02*
X82150600Y-48436900D01*
X43419200Y-42940000D02*
X47342100Y-46862900D01*
X36500000Y-42940000D02*
X43419200Y-42940000D01*
X47342100Y-46862900D02*
X45000000Y-49205000D01*
X66122500Y-42563700D02*
X65957700Y-42728500D01*
X66122500Y-42563700D02*
X65957700Y-42728500D01*
X51476500Y-42728500D02*
X47342100Y-46862900D01*
X65957700Y-42728500D02*
X51476500Y-42728500D01*
X78344700Y-45270000D02*
X78000000Y-45270000D01*
X79332200Y-44282500D02*
X78344700Y-45270000D01*
X79332200Y-43658100D02*
X79332200Y-44282500D01*
X78003900Y-42329800D02*
X79332200Y-43658100D01*
X66356400Y-42329800D02*
X78003900Y-42329800D01*
X66122500Y-42563700D02*
X66356400Y-42329800D01*
%TO.N,Net-(J4-Pin_2)*%
X42493300Y-48020000D02*
X43848300Y-46665000D01*
X36500000Y-48020000D02*
X42493300Y-48020000D01*
X45000000Y-46665000D02*
X43848300Y-46665000D01*
X84366900Y-45954400D02*
X79768800Y-45954400D01*
X85412500Y-47000000D02*
X84366900Y-45954400D01*
X78585600Y-45954400D02*
X78000000Y-46540000D01*
X79768800Y-45954400D02*
X78585600Y-45954400D01*
X65956200Y-42162000D02*
X65791400Y-42326800D01*
X65956200Y-42162000D02*
X65791400Y-42326800D01*
X49512000Y-42326800D02*
X46588100Y-45250700D01*
X65791400Y-42326800D02*
X49512000Y-42326800D01*
X79768800Y-43525900D02*
X79768800Y-45954400D01*
X78171000Y-41928100D02*
X79768800Y-43525900D01*
X66190100Y-41928100D02*
X78171000Y-41928100D01*
X65956200Y-42162000D02*
X66190100Y-41928100D01*
%TO.N,/GPS_TX*%
X48800000Y-26500000D02*
X49965300Y-26500000D01*
X88255300Y-26123100D02*
X88255300Y-27770000D01*
X87463000Y-25330800D02*
X88255300Y-26123100D01*
X50772300Y-25330800D02*
X87463000Y-25330800D01*
X49965300Y-26137800D02*
X50772300Y-25330800D01*
X49965300Y-26500000D02*
X49965300Y-26137800D01*
X88255300Y-27770000D02*
X87605300Y-27770000D01*
X87605300Y-27770000D02*
X88255300Y-27770000D01*
%TO.N,/MCP_INT*%
X64153000Y-49189300D02*
X64153000Y-48189600D01*
X65943700Y-50980000D02*
X64153000Y-49189300D01*
X67650000Y-50980000D02*
X65943700Y-50980000D01*
%TO.N,/SPI_SCK*%
X66080400Y-49710000D02*
X67650000Y-49710000D01*
X65826700Y-49963700D02*
X66080400Y-49710000D01*
%TO.N,/SPI_MOSI*%
X67418700Y-48671300D02*
X66067900Y-48671300D01*
X67650000Y-48440000D02*
X67418700Y-48671300D01*
%TO.N,/SPI_MISO*%
X65191700Y-47170000D02*
X65035700Y-47014000D01*
X67650000Y-47170000D02*
X65191700Y-47170000D01*
X65035700Y-47014000D02*
X65191700Y-47170000D01*
X65191700Y-47170000D02*
X65035700Y-47014000D01*
%TO.N,/GPS_RX*%
X46260000Y-26500000D02*
X47425300Y-26500000D01*
X49308100Y-24255000D02*
X93288700Y-24255000D01*
X47425300Y-26137800D02*
X49308100Y-24255000D01*
X47425300Y-26500000D02*
X47425300Y-26137800D01*
%TO.N,/BTN1*%
X79196200Y-69696200D02*
X82000000Y-72500000D01*
X65781500Y-69696200D02*
X79196200Y-69696200D01*
%TO.N,/SPI_CE0*%
X66144700Y-45900000D02*
X67650000Y-45900000D01*
X66061800Y-45982900D02*
X66144700Y-45900000D01*
%TO.N,Net-(D1-K)*%
X46043000Y-64043000D02*
X46000000Y-64000000D01*
X48215700Y-64043000D02*
X46043000Y-64043000D01*
X51000000Y-76500000D02*
X46000000Y-76500000D01*
%TO.N,+12V*%
X48455000Y-62455000D02*
X50000000Y-64000000D01*
X36827500Y-62455000D02*
X48455000Y-62455000D01*
%TO.N,Net-(U3-COMP)*%
X54604800Y-66885000D02*
X54955000Y-66885000D01*
X52350100Y-64630300D02*
X54604800Y-66885000D01*
X52350100Y-62991000D02*
X52350100Y-64630300D01*
X51734600Y-62375500D02*
X52350100Y-62991000D01*
X51734600Y-60808900D02*
X51734600Y-62375500D01*
X52093100Y-60450400D02*
X51734600Y-60808900D01*
X53060400Y-60450400D02*
X52093100Y-60450400D01*
X53500000Y-60890000D02*
X53060400Y-60450400D01*
X53500000Y-62096800D02*
X53500000Y-60890000D01*
X53940300Y-62537100D02*
X53500000Y-62096800D01*
X59232400Y-62537100D02*
X53940300Y-62537100D01*
X59518200Y-62251300D02*
X59232400Y-62537100D01*
X60016500Y-62251300D02*
X59518200Y-62251300D01*
X60302300Y-62537100D02*
X60016500Y-62251300D01*
X64512900Y-62537100D02*
X60302300Y-62537100D01*
X66050000Y-61000000D02*
X64512900Y-62537100D01*
%TO.N,Net-(D2-K)*%
X83045700Y-52500000D02*
X82315700Y-53230000D01*
X83550000Y-52500000D02*
X83045700Y-52500000D01*
X78379100Y-58522600D02*
X74401700Y-62500000D01*
X82028100Y-58522600D02*
X78379100Y-58522600D01*
X73525900Y-62500000D02*
X74401700Y-62500000D01*
X73525900Y-62500000D02*
X72650000Y-62500000D01*
X69057300Y-69094400D02*
X72650000Y-65501700D01*
X61180800Y-69094400D02*
X69057300Y-69094400D01*
X59553600Y-70721600D02*
X61180800Y-69094400D01*
X47221600Y-70721600D02*
X59553600Y-70721600D01*
X46000000Y-69500000D02*
X47221600Y-70721600D01*
X72650000Y-62500000D02*
X72650000Y-64000800D01*
X72650000Y-64000800D02*
X72650000Y-65501700D01*
X55571700Y-63728300D02*
X54955000Y-64345000D01*
X72377500Y-63728300D02*
X55571700Y-63728300D01*
X72650000Y-64000800D02*
X72377500Y-63728300D01*
%TO.N,Net-(U3-BST)*%
X66909200Y-33359200D02*
X67050000Y-33500000D01*
X66006700Y-33359200D02*
X66909200Y-33359200D01*
X68695300Y-47820600D02*
X66029100Y-47820600D01*
X69545800Y-48671100D02*
X68695300Y-47820600D01*
X76651900Y-48671100D02*
X69545800Y-48671100D01*
X81813700Y-53832900D02*
X76651900Y-48671100D01*
X84117100Y-53832900D02*
X81813700Y-53832900D01*
X85450000Y-52500000D02*
X84117100Y-53832900D01*
X63671400Y-47542800D02*
X60816900Y-50397300D01*
X64480500Y-47542800D02*
X63671400Y-47542800D01*
X64758300Y-47820600D02*
X64480500Y-47542800D01*
X66029100Y-47820600D02*
X64758300Y-47820600D01*
X59915900Y-64334100D02*
X59905000Y-64345000D01*
X61690700Y-64334100D02*
X59915900Y-64334100D01*
X61690700Y-64334100D02*
X61413400Y-64334100D01*
X61413400Y-64334100D02*
X61690700Y-64334100D01*
X60816900Y-50397300D02*
X60038900Y-50397300D01*
X60038900Y-50397300D02*
X60816900Y-50397300D01*
%TO.N,+5V*%
X41180000Y-26500000D02*
X38640000Y-26500000D01*
X56564000Y-57523500D02*
X56587500Y-57500000D01*
X55333500Y-57523500D02*
X56564000Y-57523500D01*
X82350000Y-62500000D02*
X82350000Y-59498300D01*
X74677300Y-57440000D02*
X81763200Y-57440000D01*
X72087400Y-54850100D02*
X74677300Y-57440000D01*
X72087400Y-54353100D02*
X72087400Y-54850100D01*
X72563900Y-53876600D02*
X72087400Y-54353100D01*
X75673400Y-53876600D02*
X72563900Y-53876600D01*
X77050000Y-52500000D02*
X75673400Y-53876600D01*
X82629800Y-59218500D02*
X82350000Y-59498300D01*
X82629800Y-58273400D02*
X82629800Y-59218500D01*
X81796400Y-57440000D02*
X82629800Y-58273400D01*
X81763200Y-57440000D02*
X81796400Y-57440000D01*
X87251600Y-49288400D02*
X91500000Y-45040000D01*
X82079900Y-49288400D02*
X87251600Y-49288400D01*
X55050600Y-40545400D02*
X54733500Y-40228300D01*
X69479600Y-40545400D02*
X55050600Y-40545400D01*
X71025000Y-39000000D02*
X69479600Y-40545400D01*
X72692800Y-40667800D02*
X71025000Y-39000000D01*
X75035800Y-40667800D02*
X72692800Y-40667800D01*
X77467300Y-38236300D02*
X75035800Y-40667800D01*
X82469000Y-38236300D02*
X77467300Y-38236300D01*
X83298300Y-37407000D02*
X82469000Y-38236300D01*
X83298300Y-35922600D02*
X83298300Y-37407000D01*
X84495900Y-34725000D02*
X83298300Y-35922600D01*
X91500000Y-34725000D02*
X84495900Y-34725000D01*
%TO.N,Net-(U2-Vref)*%
X78101600Y-47708400D02*
X78000000Y-47810000D01*
X79629300Y-47708400D02*
X78101600Y-47708400D01*
X78238600Y-41526400D02*
X78801100Y-40963900D01*
X52872500Y-41526400D02*
X78238600Y-41526400D01*
X52553200Y-41207100D02*
X52872500Y-41526400D01*
X52553200Y-39795400D02*
X52553200Y-41207100D01*
X52937200Y-39411400D02*
X52553200Y-39795400D01*
X57961400Y-39411400D02*
X52937200Y-39411400D01*
X58050000Y-39500000D02*
X57961400Y-39411400D01*
%TO.N,Net-(U3-EN)*%
X61000000Y-76500000D02*
X66000000Y-76500000D01*
X64525000Y-66500000D02*
X59905000Y-66500000D01*
X59905000Y-66857800D02*
X61690700Y-66857800D01*
X59905000Y-66500000D02*
X59905000Y-66857800D01*
X59905000Y-66857800D02*
X59905000Y-66885000D01*
X59905000Y-65615000D02*
X59905000Y-65674400D01*
X59905000Y-65674400D02*
X59905000Y-66500000D01*
X52550000Y-62198100D02*
X52550000Y-61500000D01*
X53652900Y-63301000D02*
X52550000Y-62198100D01*
X61690700Y-66857800D02*
X61647300Y-66857800D01*
X53652900Y-64710100D02*
X53652900Y-63301000D01*
X54557800Y-65615000D02*
X53652900Y-64710100D01*
X54955000Y-65615000D02*
X54557800Y-65615000D01*
X59319300Y-63301000D02*
X59767300Y-62853000D01*
X53652900Y-63301000D02*
X59319300Y-63301000D01*
X59767300Y-62853000D02*
X59515300Y-63105000D01*
X59515300Y-63105000D02*
X59767300Y-62853000D01*
%TO.N,+3V3*%
X71067800Y-46540000D02*
X73050000Y-46540000D01*
X70930900Y-46676900D02*
X71067800Y-46540000D01*
X74915000Y-33760000D02*
X75175000Y-33500000D01*
X74149500Y-33760000D02*
X74915000Y-33760000D01*
X61550000Y-61000000D02*
X61550000Y-57500000D01*
X57962100Y-32412100D02*
X59050000Y-33500000D01*
X48833000Y-58503000D02*
X47770000Y-57440000D01*
X57087200Y-58503000D02*
X48833000Y-58503000D01*
X57500000Y-58090200D02*
X57087200Y-58503000D01*
X57500000Y-56884300D02*
X57500000Y-58090200D01*
X57941800Y-56442500D02*
X57500000Y-56884300D01*
X60492500Y-56442500D02*
X57941800Y-56442500D01*
X61550000Y-57500000D02*
X60492500Y-56442500D01*
X58960000Y-31414200D02*
X57962100Y-32412100D01*
X58960000Y-29040000D02*
X58960000Y-31414200D01*
X71803700Y-31414200D02*
X74149500Y-33760000D01*
X58960000Y-31414200D02*
X71803700Y-31414200D01*
X50692400Y-39604900D02*
X50692400Y-39604800D01*
X51587500Y-40500000D02*
X50692400Y-39604900D01*
X42290000Y-33760000D02*
X42550000Y-33500000D01*
X41533600Y-33760000D02*
X42290000Y-33760000D01*
X74605500Y-56500000D02*
X72698500Y-54593000D01*
X91500000Y-56500000D02*
X74605500Y-56500000D01*
X51637900Y-32412100D02*
X57962100Y-32412100D01*
X50550000Y-33500000D02*
X51637900Y-32412100D01*
X50692400Y-39604800D02*
X47568800Y-36481200D01*
X50550000Y-33500000D02*
X47568800Y-36481200D01*
X45531200Y-36481200D02*
X42550000Y-33500000D01*
X47568800Y-36481200D02*
X45531200Y-36481200D01*
X67202100Y-43360000D02*
X66271600Y-44290500D01*
X67650000Y-43360000D02*
X67202100Y-43360000D01*
X69487400Y-45233400D02*
X70930900Y-46676900D01*
X66543600Y-45233400D02*
X69487400Y-45233400D01*
X66271600Y-44961400D02*
X66543600Y-45233400D01*
X66271600Y-44290500D02*
X66271600Y-44961400D01*
X65976100Y-43995000D02*
X66271600Y-44290500D01*
X57277900Y-43995000D02*
X65976100Y-43995000D01*
X57002800Y-44270100D02*
X57277900Y-43995000D01*
X57002800Y-48787200D02*
X57002800Y-44270100D01*
X57925600Y-49710000D02*
X57002800Y-48787200D01*
X58350000Y-49710000D02*
X57925600Y-49710000D01*
%TO.N,Net-(U1-OSC2)*%
X57480000Y-50980000D02*
X58350000Y-50980000D01*
X53000000Y-46500000D02*
X57480000Y-50980000D01*
X70215000Y-51615000D02*
X71100000Y-52500000D01*
X58985000Y-51615000D02*
X70215000Y-51615000D01*
X58350000Y-50980000D02*
X58985000Y-51615000D01*
%TO.N,Net-(U1-OSC1)*%
X53870000Y-52250000D02*
X58350000Y-52250000D01*
X53000000Y-51380000D02*
X53870000Y-52250000D01*
X65322800Y-57500000D02*
X66050000Y-57500000D01*
X60072800Y-52250000D02*
X65322800Y-57500000D01*
X58350000Y-52250000D02*
X60072800Y-52250000D01*
%TO.N,GND*%
X76729900Y-44000000D02*
X75459900Y-45270000D01*
X78000000Y-44000000D02*
X76729900Y-44000000D01*
X75459900Y-45270000D02*
X73050000Y-45270000D01*
X63450000Y-57059800D02*
X63450000Y-57500000D01*
X59910200Y-53520000D02*
X63450000Y-57059800D01*
X58350000Y-53520000D02*
X59910200Y-53520000D01*
X57430000Y-66250000D02*
X57957000Y-66776900D01*
X59335000Y-68155000D02*
X59905000Y-68155000D01*
X57957000Y-66776900D02*
X59335000Y-68155000D01*
X55233900Y-69500000D02*
X50000000Y-69500000D01*
X57957000Y-66776900D02*
X55233900Y-69500000D01*
X48035000Y-67535000D02*
X50000000Y-69500000D01*
X36827500Y-67535000D02*
X48035000Y-67535000D01*
X74200000Y-26500000D02*
X75365300Y-26500000D01*
X79280000Y-26500000D02*
X78114700Y-26500000D01*
X77911600Y-51461600D02*
X75453000Y-51461600D01*
X78950000Y-52500000D02*
X77911600Y-51461600D01*
X79127200Y-27874700D02*
X78114700Y-26862200D01*
X84860800Y-27874700D02*
X79127200Y-27874700D01*
X85734700Y-28748600D02*
X84860800Y-27874700D01*
X85734700Y-29040000D02*
X85734700Y-28748600D01*
X78114700Y-26862200D02*
X78114700Y-26500000D01*
X86900000Y-29040000D02*
X85734700Y-29040000D01*
X43720000Y-26500000D02*
X44885300Y-26500000D01*
X55000500Y-62050500D02*
X54450000Y-61500000D01*
X57774500Y-62050500D02*
X55000500Y-62050500D01*
X58825000Y-61000000D02*
X57774500Y-62050500D01*
X77286300Y-27690600D02*
X75365300Y-27690600D01*
X78114700Y-26862200D02*
X77286300Y-27690600D01*
X69120000Y-29040000D02*
X70285300Y-29040000D01*
X75365300Y-26500000D02*
X75365300Y-27690600D01*
X47634700Y-28736200D02*
X47634700Y-29040000D01*
X46563800Y-27665300D02*
X47634700Y-28736200D01*
X45759200Y-27665300D02*
X46563800Y-27665300D01*
X44885300Y-26791400D02*
X45759200Y-27665300D01*
X44885300Y-26500000D02*
X44885300Y-26791400D01*
X61988400Y-34538400D02*
X60950000Y-33500000D01*
X67911600Y-34538400D02*
X61988400Y-34538400D01*
X68950000Y-33500000D02*
X67911600Y-34538400D01*
X48217400Y-29040000D02*
X47634700Y-29040000D01*
X48217400Y-29732600D02*
X44450000Y-33500000D01*
X48217400Y-29040000D02*
X48217400Y-29732600D01*
X73975000Y-36839900D02*
X73975000Y-39000000D01*
X71272500Y-27690600D02*
X70285300Y-28677800D01*
X75365300Y-27690600D02*
X71272500Y-27690600D01*
X61500000Y-26500000D02*
X62665300Y-26500000D01*
X70285300Y-28677800D02*
X70285300Y-29040000D01*
X74038400Y-51461600D02*
X73000000Y-52500000D01*
X75453000Y-51461600D02*
X74038400Y-51461600D01*
X68000000Y-57500000D02*
X67950000Y-57500000D01*
X73000000Y-52500000D02*
X68000000Y-57500000D01*
X53880000Y-26500000D02*
X52881000Y-26500000D01*
X48217400Y-29040000D02*
X48800000Y-29040000D01*
X48800000Y-29040000D02*
X49965300Y-29040000D01*
X69272800Y-27665300D02*
X70285300Y-28677800D01*
X63539200Y-27665300D02*
X69272800Y-27665300D01*
X62665300Y-26791400D02*
X63539200Y-27665300D01*
X52881000Y-26832600D02*
X52881000Y-26500000D01*
X53640700Y-27592300D02*
X52881000Y-26832600D01*
X62665300Y-26500000D02*
X62665300Y-26791400D01*
X59922300Y-34527700D02*
X60950000Y-33500000D01*
X53477700Y-34527700D02*
X59922300Y-34527700D01*
X52450000Y-33500000D02*
X53477700Y-34527700D01*
X52505300Y-28727700D02*
X53640700Y-27592300D01*
X52505300Y-29522700D02*
X52505300Y-28727700D01*
X51822700Y-30205300D02*
X52505300Y-29522700D01*
X50839200Y-30205300D02*
X51822700Y-30205300D01*
X49965300Y-29331400D02*
X50839200Y-30205300D01*
X49965300Y-29040000D02*
X49965300Y-29331400D01*
X53715600Y-27667200D02*
X53640700Y-27592300D01*
X61789500Y-27667200D02*
X53715600Y-27667200D01*
X62665300Y-26791400D02*
X61789500Y-27667200D01*
X63279500Y-36170500D02*
X68950000Y-36170500D01*
X59950000Y-39500000D02*
X63279500Y-36170500D01*
X74314900Y-36500000D02*
X81960000Y-36500000D01*
X73975000Y-36839900D02*
X74314900Y-36500000D01*
X69619400Y-36839900D02*
X73975000Y-36839900D01*
X68950000Y-36170500D02*
X69619400Y-36839900D01*
X68950000Y-33500000D02*
X68950000Y-36170500D01*
X64487600Y-58537600D02*
X66912400Y-58537600D01*
X63450000Y-57500000D02*
X64487600Y-58537600D01*
X67950000Y-57500000D02*
X66912400Y-58537600D01*
X65820000Y-68155000D02*
X67475000Y-66500000D01*
X59905000Y-68155000D02*
X65820000Y-68155000D01*
X57930000Y-53100000D02*
X58350000Y-53520000D01*
X36500000Y-53100000D02*
X57930000Y-53100000D01*
X66912400Y-58537600D02*
X66912400Y-59250000D01*
X64487600Y-59962400D02*
X63450000Y-61000000D01*
X66912400Y-59962400D02*
X64487600Y-59962400D01*
X66912400Y-59250000D02*
X66912400Y-59962400D01*
X66912400Y-59962400D02*
X67950000Y-61000000D01*
X60182800Y-61849600D02*
X59850200Y-61849600D01*
X60396200Y-62063000D02*
X60182800Y-61849600D01*
X62387000Y-62063000D02*
X60396200Y-62063000D01*
X63450000Y-61000000D02*
X62387000Y-62063000D01*
X59674600Y-61849600D02*
X58825000Y-61000000D01*
X59850200Y-61849600D02*
X59674600Y-61849600D01*
%TD*%
M02*
