%TF.GenerationSoftware,KiCad,Pcbnew,9.0.7*%
%TF.CreationDate,2026-03-09T20:46:40-05:00*%
%TF.ProjectId,fsae_pcb,66736165-5f70-4636-922e-6b696361645f,rev?*%
%TF.SameCoordinates,Original*%
%TF.FileFunction,Copper,L2,Bot*%
%TF.FilePolarity,Positive*%
%FSLAX46Y46*%
G04 Gerber Fmt 4.6, Leading zero omitted, Abs format (unit mm)*
G04 Created by KiCad (PCBNEW 9.0.7) date 2026-03-09 20:46:40*
%MOMM*%
%LPD*%
G01*
G04 APERTURE LIST*
G04 Aperture macros list*
%AMRoundRect*
0 Rectangle with rounded corners*
0 $1 Rounding radius*
0 $2 $3 $4 $5 $6 $7 $8 $9 X,Y pos of 4 corners*
0 Add a 4 corners polygon primitive as box body*
4,1,4,$2,$3,$4,$5,$6,$7,$8,$9,$2,$3,0*
0 Add four circle primitives for the rounded corners*
1,1,$1+$1,$2,$3*
1,1,$1+$1,$4,$5*
1,1,$1+$1,$6,$7*
1,1,$1+$1,$8,$9*
0 Add four rect primitives between the rounded corners*
20,1,$1+$1,$2,$3,$4,$5,0*
20,1,$1+$1,$4,$5,$6,$7,0*
20,1,$1+$1,$6,$7,$8,$9,0*
20,1,$1+$1,$8,$9,$2,$3,0*%
G04 Aperture macros list end*
%TA.AperFunction,ComponentPad*%
%ADD10R,1.700000X1.700000*%
%TD*%
%TA.AperFunction,ComponentPad*%
%ADD11C,1.700000*%
%TD*%
%TA.AperFunction,ComponentPad*%
%ADD12C,5.000000*%
%TD*%
%TA.AperFunction,ComponentPad*%
%ADD13R,1.800000X1.800000*%
%TD*%
%TA.AperFunction,ComponentPad*%
%ADD14C,1.800000*%
%TD*%
%TA.AperFunction,ComponentPad*%
%ADD15RoundRect,0.500000X-0.500000X-0.500000X0.500000X-0.500000X0.500000X0.500000X-0.500000X0.500000X0*%
%TD*%
%TA.AperFunction,ComponentPad*%
%ADD16C,2.000000*%
%TD*%
%TA.AperFunction,ComponentPad*%
%ADD17RoundRect,0.250000X-1.050000X1.050000X-1.050000X-1.050000X1.050000X-1.050000X1.050000X1.050000X0*%
%TD*%
%TA.AperFunction,ComponentPad*%
%ADD18C,2.600000*%
%TD*%
%TA.AperFunction,ComponentPad*%
%ADD19C,1.500000*%
%TD*%
%TA.AperFunction,ComponentPad*%
%ADD20R,1.727200X1.727200*%
%TD*%
%TA.AperFunction,ComponentPad*%
%ADD21O,1.727200X1.727200*%
%TD*%
%TA.AperFunction,ComponentPad*%
%ADD22RoundRect,0.250001X-0.499999X-0.499999X0.499999X-0.499999X0.499999X0.499999X-0.499999X0.499999X0*%
%TD*%
%TA.AperFunction,ViaPad*%
%ADD23C,0.600000*%
%TD*%
%TA.AperFunction,Conductor*%
%ADD24C,0.200000*%
%TD*%
G04 APERTURE END LIST*
D10*
%TO.P,JP1,1,Pin_1*%
%TO.N,Net-(J4-Pin_2)*%
X45000000Y-46665000D03*
D11*
%TO.P,JP1,2,Pin_2*%
%TO.N,Net-(J4-Pin_1)*%
X45000000Y-49205000D03*
%TD*%
D12*
%TO.P,MH2,1*%
%TO.N,N/C*%
X91500000Y-27500000D03*
%TD*%
D13*
%TO.P,LED2,1,K*%
%TO.N,Net-(LED2-K)*%
X45230000Y-57440000D03*
D14*
%TO.P,LED2,2,A*%
%TO.N,+3V3*%
X47770000Y-57440000D03*
%TD*%
D15*
%TO.P,F1,1*%
%TO.N,Net-(D1-K)*%
X46000000Y-76500000D03*
X51000000Y-76500000D03*
D16*
%TO.P,F1,2*%
%TO.N,Net-(U3-EN)*%
X61000000Y-76500000D03*
X66000000Y-76500000D03*
%TD*%
D17*
%TO.P,J4,1,Pin_1*%
%TO.N,Net-(J4-Pin_1)*%
X36500000Y-42940000D03*
D18*
%TO.P,J4,2,Pin_2*%
%TO.N,Net-(J4-Pin_2)*%
X36500000Y-48020000D03*
%TO.P,J4,3,Pin_3*%
%TO.N,GND*%
X36500000Y-53100000D03*
%TD*%
D19*
%TO.P,Y1,1,1*%
%TO.N,Net-(U1-OSC2)*%
X53000000Y-46500000D03*
%TO.P,Y1,2,2*%
%TO.N,Net-(U1-OSC1)*%
X53000000Y-51380000D03*
%TD*%
D12*
%TO.P,MH1,1*%
%TO.N,N/C*%
X33500000Y-27500000D03*
%TD*%
%TO.P,MH3,1*%
%TO.N,N/C*%
X33500000Y-76500000D03*
%TD*%
D17*
%TO.P,J5,1,Pin_1*%
%TO.N,+12V*%
X36827500Y-62455000D03*
D18*
%TO.P,J5,2,Pin_2*%
%TO.N,GND*%
X36827500Y-67535000D03*
%TD*%
D10*
%TO.P,J7,1,Pin_1*%
%TO.N,/DIP_USB_DP*%
X91500000Y-42500000D03*
D11*
%TO.P,J7,2,Pin_2*%
%TO.N,+5V*%
X91500000Y-45040000D03*
%TO.P,J7,3,Pin_3*%
%TO.N,GND*%
X91500000Y-47580000D03*
%TO.P,J7,4,Pin_4*%
%TO.N,/DISP_USB_DM*%
X91500000Y-50120000D03*
%TD*%
D12*
%TO.P,MH4,1*%
%TO.N,N/C*%
X91500000Y-76500000D03*
%TD*%
D20*
%TO.P,J1,1,Pin_1*%
%TO.N,+3V3*%
X38640000Y-29040000D03*
D21*
%TO.P,J1,2,Pin_2*%
%TO.N,+5V*%
X38640000Y-26500000D03*
%TO.P,J1,3,Pin_3*%
%TO.N,unconnected-(J1-Pin_3-Pad3)*%
X41180000Y-29040000D03*
%TO.P,J1,4,Pin_4*%
%TO.N,+5V*%
X41180000Y-26500000D03*
%TO.P,J1,5,Pin_5*%
%TO.N,unconnected-(J1-Pin_5-Pad5)*%
X43720000Y-29040000D03*
%TO.P,J1,6,Pin_6*%
%TO.N,GND*%
X43720000Y-26500000D03*
%TO.P,J1,7,Pin_7*%
%TO.N,unconnected-(J1-Pin_7-Pad7)*%
X46260000Y-29040000D03*
%TO.P,J1,8,Pin_8*%
%TO.N,/GPS_RX*%
X46260000Y-26500000D03*
%TO.P,J1,9,Pin_9*%
%TO.N,GND*%
X48800000Y-29040000D03*
%TO.P,J1,10,Pin_10*%
%TO.N,/GPS_TX*%
X48800000Y-26500000D03*
%TO.P,J1,11,Pin_11*%
%TO.N,/BTN1*%
X51340000Y-29040000D03*
%TO.P,J1,12,Pin_12*%
%TO.N,unconnected-(J1-Pin_12-Pad12)*%
X51340000Y-26500000D03*
%TO.P,J1,13,Pin_13*%
%TO.N,/BTN2*%
X53880000Y-29040000D03*
%TO.P,J1,14,Pin_14*%
%TO.N,GND*%
X53880000Y-26500000D03*
%TO.P,J1,15,Pin_15*%
%TO.N,/BTN3*%
X56420000Y-29040000D03*
%TO.P,J1,16,Pin_16*%
%TO.N,/LED_DB1*%
X56420000Y-26500000D03*
%TO.P,J1,17,Pin_17*%
%TO.N,+3V3*%
X58960000Y-29040000D03*
%TO.P,J1,18,Pin_18*%
%TO.N,/LED_DB2*%
X58960000Y-26500000D03*
%TO.P,J1,19,Pin_19*%
%TO.N,/SPI_MOSI*%
X61500000Y-29040000D03*
%TO.P,J1,20,Pin_20*%
%TO.N,GND*%
X61500000Y-26500000D03*
%TO.P,J1,21,Pin_21*%
%TO.N,/SPI_MISO*%
X64040000Y-29040000D03*
%TO.P,J1,22,Pin_22*%
%TO.N,/MCP_INT*%
X64040000Y-26500000D03*
%TO.P,J1,23,Pin_23*%
%TO.N,/SPI_SCK*%
X66580000Y-29040000D03*
%TO.P,J1,24,Pin_24*%
%TO.N,/SPI_CE0*%
X66580000Y-26500000D03*
%TO.P,J1,25,Pin_25*%
%TO.N,GND*%
X69120000Y-29040000D03*
%TO.P,J1,26,Pin_26*%
%TO.N,unconnected-(J1-Pin_26-Pad26)*%
X69120000Y-26500000D03*
%TO.P,J1,27,Pin_27*%
%TO.N,unconnected-(J1-Pin_27-Pad27)*%
X71660000Y-29040000D03*
%TO.P,J1,28,Pin_28*%
%TO.N,unconnected-(J1-Pin_28-Pad28)*%
X71660000Y-26500000D03*
%TO.P,J1,29,Pin_29*%
%TO.N,/LED_DB3*%
X74200000Y-29040000D03*
%TO.P,J1,30,Pin_30*%
%TO.N,GND*%
X74200000Y-26500000D03*
%TO.P,J1,31,Pin_31*%
%TO.N,unconnected-(J1-Pin_31-Pad31)*%
X76740000Y-29040000D03*
%TO.P,J1,32,Pin_32*%
%TO.N,unconnected-(J1-Pin_32-Pad32)*%
X76740000Y-26500000D03*
%TO.P,J1,33,Pin_33*%
%TO.N,unconnected-(J1-Pin_33-Pad33)*%
X79280000Y-29040000D03*
%TO.P,J1,34,Pin_34*%
%TO.N,GND*%
X79280000Y-26500000D03*
%TO.P,J1,35,Pin_35*%
%TO.N,unconnected-(J1-Pin_35-Pad35)*%
X81820000Y-29040000D03*
%TO.P,J1,36,Pin_36*%
%TO.N,unconnected-(J1-Pin_36-Pad36)*%
X81820000Y-26500000D03*
%TO.P,J1,37,Pin_37*%
%TO.N,unconnected-(J1-Pin_37-Pad37)*%
X84360000Y-29040000D03*
%TO.P,J1,38,Pin_38*%
%TO.N,unconnected-(J1-Pin_38-Pad38)*%
X84360000Y-26500000D03*
%TO.P,J1,39,Pin_39*%
%TO.N,GND*%
X86900000Y-29040000D03*
%TO.P,J1,40,Pin_40*%
%TO.N,unconnected-(J1-Pin_40-Pad40)*%
X86900000Y-26500000D03*
%TD*%
D13*
%TO.P,LED1,1,K*%
%TO.N,GND*%
X81960000Y-36500000D03*
D14*
%TO.P,LED1,2,A*%
%TO.N,Net-(LED1-A)*%
X84500000Y-36500000D03*
%TD*%
D22*
%TO.P,J2,1,Pin_1*%
%TO.N,/LED_DB1*%
X73000000Y-72500000D03*
D19*
%TO.P,J2,2,Pin_2*%
%TO.N,/LED_DB2*%
X76000000Y-72500000D03*
%TO.P,J2,3,Pin_3*%
%TO.N,/LED_DB3*%
X79000000Y-72500000D03*
%TO.P,J2,4,Pin_4*%
%TO.N,/BTN1*%
X82000000Y-72500000D03*
%TO.P,J2,5,Pin_5*%
%TO.N,/BTN2*%
X73000000Y-75500000D03*
%TO.P,J2,6,Pin_6*%
%TO.N,/BTN3*%
X76000000Y-75500000D03*
%TO.P,J2,7,Pin_7*%
%TO.N,+3V3*%
X79000000Y-75500000D03*
%TO.P,J2,8,Pin_8*%
%TO.N,GND*%
X82000000Y-75500000D03*
%TD*%
D10*
%TO.P,J6,1,Pin_1*%
%TO.N,+5V*%
X91500000Y-34725000D03*
D11*
%TO.P,J6,2,Pin_2*%
%TO.N,GND*%
X91500000Y-37265000D03*
%TD*%
D10*
%TO.P,J3,1,Pin_1*%
%TO.N,+3V3*%
X91500000Y-56500000D03*
D11*
%TO.P,J3,2,Pin_2*%
%TO.N,GND*%
X91500000Y-59040000D03*
%TO.P,J3,3,Pin_3*%
%TO.N,/GPS_TX*%
X91500000Y-61580000D03*
%TO.P,J3,4,Pin_4*%
%TO.N,/GPS_RX*%
X91500000Y-64120000D03*
%TO.P,J3,5,Pin_5*%
%TO.N,/SDA*%
X91500000Y-66660000D03*
%TO.P,J3,6,Pin_6*%
%TO.N,/SCL*%
X91500000Y-69200000D03*
%TD*%
D23*
%TO.N,Net-(U1-~{RESET})*%
X75880800Y-34720500D03*
X75412000Y-43475000D03*
%TO.N,Net-(U1-~{RX0BF})*%
X61412900Y-52739300D03*
X60689000Y-55188200D03*
%TO.N,Net-(J4-Pin_2)*%
X46588100Y-45250700D03*
%TO.N,/GPS_TX*%
X88255300Y-27770000D03*
%TO.N,/MCP_INT*%
X64153000Y-48189600D03*
%TO.N,/SPI_SCK*%
X65826700Y-49963700D03*
%TO.N,/SPI_MOSI*%
X66067900Y-48671300D03*
%TO.N,/SPI_MISO*%
X65035700Y-47014000D03*
%TO.N,/GPS_RX*%
X93288700Y-24255000D03*
%TO.N,/BTN1*%
X65781500Y-69696200D03*
%TO.N,/SPI_CE0*%
X66061800Y-45982900D03*
%TO.N,Net-(D1-K)*%
X48215700Y-64043000D03*
%TO.N,Net-(D2-K)*%
X82315700Y-53230000D03*
X82028100Y-58522600D03*
%TO.N,Net-(U3-BST)*%
X66006700Y-33359200D03*
X66029100Y-47820600D03*
X60816900Y-50397300D03*
X61690700Y-64334100D03*
%TO.N,+5V*%
X81763200Y-57440000D03*
X55333500Y-57523500D03*
X82079900Y-49288400D03*
X54733500Y-40228300D03*
%TO.N,Net-(U2-Vref)*%
X79629300Y-47708400D03*
X78801100Y-40963900D03*
%TO.N,Net-(U3-EN)*%
X61647300Y-66857800D03*
X59767300Y-62853000D03*
%TO.N,+3V3*%
X70930900Y-46676900D03*
X50692400Y-39604800D03*
X74149500Y-33760000D03*
X41533600Y-33760000D03*
X72698500Y-54593000D03*
%TO.N,GND*%
X75459900Y-45270000D03*
X75453000Y-51461600D03*
%TD*%
D24*
%TO.N,Net-(U1-~{RESET})*%
X75880800Y-43006200D02*
X75880800Y-34720500D01*
X75412000Y-43475000D02*
X75880800Y-43006200D01*
%TO.N,Net-(U1-~{RX0BF})*%
X61412900Y-54464300D02*
X60689000Y-55188200D01*
X61412900Y-52739300D02*
X61412900Y-54464300D01*
%TO.N,Net-(J4-Pin_2)*%
X46151700Y-45687100D02*
X46151700Y-46665000D01*
X46588100Y-45250700D02*
X46151700Y-45687100D01*
X45000000Y-46665000D02*
X46151700Y-46665000D01*
%TO.N,/GPS_TX*%
X86522000Y-27770000D02*
X88255300Y-27770000D01*
X85734700Y-28557300D02*
X86522000Y-27770000D01*
X85734700Y-55814700D02*
X85734700Y-28557300D01*
X91500000Y-61580000D02*
X85734700Y-55814700D01*
X88255300Y-27770000D02*
X87605300Y-27770000D01*
X87605300Y-27770000D02*
X88255300Y-27770000D01*
%TO.N,/LED_DB1*%
X56420000Y-26500000D02*
X56420000Y-27665300D01*
X56057800Y-27665300D02*
X56420000Y-27665300D01*
X55206700Y-28516400D02*
X56057800Y-27665300D01*
X55206700Y-30966000D02*
X55206700Y-28516400D01*
X56420000Y-32179300D02*
X55206700Y-30966000D01*
X56420000Y-43776000D02*
X56420000Y-32179300D01*
X73000000Y-60356000D02*
X56420000Y-43776000D01*
X73000000Y-72500000D02*
X73000000Y-60356000D01*
%TO.N,/LED_DB2*%
X58960000Y-26500000D02*
X58960000Y-27665300D01*
X76000000Y-61477500D02*
X76000000Y-72500000D01*
X60125300Y-45602800D02*
X76000000Y-61477500D01*
X60125300Y-28539200D02*
X60125300Y-45602800D01*
X59251400Y-27665300D02*
X60125300Y-28539200D01*
X58960000Y-27665300D02*
X59251400Y-27665300D01*
%TO.N,/MCP_INT*%
X64040000Y-26500000D02*
X64040000Y-27665300D01*
X63677800Y-27665300D02*
X64040000Y-27665300D01*
X62849400Y-28493700D02*
X63677800Y-27665300D01*
X62849400Y-46974600D02*
X62849400Y-28493700D01*
X64267500Y-48392700D02*
X62849400Y-46974600D01*
X64153000Y-48278200D02*
X64153000Y-48189600D01*
X64267500Y-48392700D02*
X64153000Y-48278200D01*
%TO.N,/SPI_SCK*%
X66580000Y-29040000D02*
X66580000Y-30205300D01*
X66693700Y-30319000D02*
X66580000Y-30205300D01*
X66693700Y-42665600D02*
X66693700Y-30319000D01*
X66860000Y-42831900D02*
X66693700Y-42665600D01*
X66860000Y-42831900D02*
X66693700Y-42665600D01*
X67095400Y-43067300D02*
X66860000Y-42831900D01*
X67095400Y-48695000D02*
X67095400Y-43067300D01*
X65826700Y-49963700D02*
X67095400Y-48695000D01*
%TO.N,/SPI_MOSI*%
X65929900Y-48809300D02*
X66067900Y-48671300D01*
X63907500Y-48809300D02*
X65929900Y-48809300D01*
X61500000Y-46401800D02*
X63907500Y-48809300D01*
X61500000Y-30205300D02*
X61500000Y-46401800D01*
X61500000Y-29040000D02*
X61500000Y-30205300D01*
%TO.N,/SPI_MISO*%
X64040000Y-46018300D02*
X65035700Y-47014000D01*
X64040000Y-29040000D02*
X64040000Y-46018300D01*
X65035700Y-47014000D02*
X65191700Y-47170000D01*
X65191700Y-47170000D02*
X65035700Y-47014000D01*
%TO.N,/BTN2*%
X53880000Y-29040000D02*
X53880000Y-30205300D01*
X53880000Y-30773300D02*
X53880000Y-30205300D01*
X56018300Y-32911600D02*
X53880000Y-30773300D01*
X56018300Y-44179800D02*
X56018300Y-32911600D01*
X71060200Y-59221700D02*
X56018300Y-44179800D01*
X71060200Y-73560200D02*
X71060200Y-59221700D01*
X73000000Y-75500000D02*
X71060200Y-73560200D01*
%TO.N,/LED_DB3*%
X74801600Y-30806900D02*
X74200000Y-30205300D01*
X74801600Y-54622100D02*
X74801600Y-30806900D01*
X79000000Y-58820500D02*
X74801600Y-54622100D01*
X79000000Y-72500000D02*
X79000000Y-58820500D01*
X74200000Y-29040000D02*
X74200000Y-30205300D01*
%TO.N,/BTN3*%
X56420000Y-29040000D02*
X56420000Y-30205300D01*
X74647100Y-74147100D02*
X76000000Y-75500000D01*
X74647100Y-61043100D02*
X74647100Y-74147100D01*
X56903000Y-43299000D02*
X74647100Y-61043100D01*
X56903000Y-30688300D02*
X56903000Y-43299000D01*
X56420000Y-30205300D02*
X56903000Y-30688300D01*
%TO.N,/GPS_RX*%
X94315400Y-25281700D02*
X93288700Y-24255000D01*
X94315400Y-61304600D02*
X94315400Y-25281700D01*
X91500000Y-64120000D02*
X94315400Y-61304600D01*
%TO.N,/BTN1*%
X51340000Y-29040000D02*
X51340000Y-30205300D01*
X55616600Y-34481900D02*
X51340000Y-30205300D01*
X55616600Y-44463700D02*
X55616600Y-34481900D01*
X60948500Y-49795600D02*
X55616600Y-44463700D01*
X61066100Y-49795600D02*
X60948500Y-49795600D01*
X61418600Y-50148100D02*
X61066100Y-49795600D01*
X61418600Y-50265700D02*
X61418600Y-50148100D01*
X65781500Y-54628600D02*
X61418600Y-50265700D01*
X65781500Y-69696200D02*
X65781500Y-54628600D01*
%TO.N,/SPI_CE0*%
X66217800Y-27665300D02*
X66580000Y-27665300D01*
X65404000Y-28479100D02*
X66217800Y-27665300D01*
X65404000Y-45325100D02*
X65404000Y-28479100D01*
X66061800Y-45982900D02*
X65404000Y-45325100D01*
X66580000Y-26500000D02*
X66580000Y-27665300D01*
%TO.N,Net-(D1-K)*%
X46000000Y-66258700D02*
X48215700Y-64043000D01*
X46000000Y-76500000D02*
X46000000Y-66258700D01*
%TO.N,Net-(D2-K)*%
X82365000Y-58185700D02*
X82028100Y-58522600D01*
X82365000Y-53279300D02*
X82365000Y-58185700D01*
X82315700Y-53230000D02*
X82365000Y-53279300D01*
%TO.N,Net-(U3-BST)*%
X66006700Y-42746800D02*
X66006700Y-33359200D01*
X66693700Y-43433800D02*
X66006700Y-42746800D01*
X66693700Y-47156000D02*
X66693700Y-43433800D01*
X66029100Y-47820600D02*
X66693700Y-47156000D01*
X61690700Y-64334100D02*
X61413400Y-64334100D01*
X61413400Y-64334100D02*
X61690700Y-64334100D01*
X60816900Y-50397300D02*
X60038900Y-50397300D01*
X60038900Y-50397300D02*
X60816900Y-50397300D01*
X60038900Y-51175300D02*
X60816900Y-50397300D01*
X60038900Y-62273700D02*
X60038900Y-51175300D01*
X61690700Y-63925500D02*
X60038900Y-62273700D01*
X61690700Y-64334100D02*
X61690700Y-63925500D01*
%TO.N,+5V*%
X91500000Y-34725000D02*
X91500000Y-35876700D01*
X41180000Y-26500000D02*
X41180000Y-27665300D01*
X81693600Y-49674700D02*
X82079900Y-49288400D01*
X81693600Y-57370400D02*
X81693600Y-49674700D01*
X81763200Y-57440000D02*
X81693600Y-57370400D01*
X54733500Y-56923500D02*
X55333500Y-57523500D01*
X54733500Y-40228300D02*
X54733500Y-56923500D01*
X53257200Y-40228300D02*
X54733500Y-40228300D01*
X42345300Y-29316400D02*
X53257200Y-40228300D01*
X42345300Y-28539200D02*
X42345300Y-29316400D01*
X41471400Y-27665300D02*
X42345300Y-28539200D01*
X41180000Y-27665300D02*
X41471400Y-27665300D01*
X90348300Y-43888300D02*
X91500000Y-45040000D01*
X90348300Y-41525000D02*
X90348300Y-43888300D01*
X92651700Y-39221600D02*
X90348300Y-41525000D01*
X92651700Y-36740400D02*
X92651700Y-39221600D01*
X91788000Y-35876700D02*
X92651700Y-36740400D01*
X91500000Y-35876700D02*
X91788000Y-35876700D01*
%TO.N,Net-(U2-Vref)*%
X79629300Y-41792100D02*
X79629300Y-47708400D01*
X78801100Y-40963900D02*
X79629300Y-41792100D01*
%TO.N,Net-(U3-EN)*%
X59767300Y-64977800D02*
X61647300Y-66857800D01*
X59767300Y-62853000D02*
X59767300Y-64977800D01*
X61647300Y-75852700D02*
X61000000Y-76500000D01*
X61647300Y-66857800D02*
X61647300Y-75852700D01*
X59767300Y-62853000D02*
X59515300Y-63105000D01*
X59515300Y-63105000D02*
X59767300Y-62853000D01*
%TO.N,+3V3*%
X72698500Y-48444500D02*
X70930900Y-46676900D01*
X72698500Y-54593000D02*
X72698500Y-48444500D01*
X41533600Y-33098900D02*
X41533600Y-33760000D01*
X38640000Y-30205300D02*
X41533600Y-33098900D01*
X38640000Y-29040000D02*
X38640000Y-30205300D01*
X77333900Y-73833900D02*
X79000000Y-75500000D01*
X77333800Y-73833900D02*
X77333900Y-73833900D01*
X77333800Y-59228300D02*
X77333800Y-73833900D01*
X72698500Y-54593000D02*
X77333800Y-59228300D01*
X47770000Y-42527200D02*
X50692400Y-39604800D01*
X47770000Y-57440000D02*
X47770000Y-42527200D01*
X70930900Y-36978600D02*
X70930900Y-46676900D01*
X74149500Y-33760000D02*
X70930900Y-36978600D01*
%TO.N,GND*%
X75459900Y-51454700D02*
X75453000Y-51461600D01*
X75459900Y-45270000D02*
X75459900Y-51454700D01*
X35192600Y-65900100D02*
X36827500Y-67535000D01*
X35192600Y-54407400D02*
X35192600Y-65900100D01*
X36500000Y-53100000D02*
X35192600Y-54407400D01*
X91500000Y-47580000D02*
X90348300Y-47580000D01*
X90348300Y-57888300D02*
X90348300Y-47580000D01*
X91500000Y-59040000D02*
X90348300Y-57888300D01*
X90348300Y-37265000D02*
X91500000Y-37265000D01*
X90348300Y-33653600D02*
X86900000Y-30205300D01*
X90348300Y-37265000D02*
X90348300Y-33653600D01*
X79642200Y-27665300D02*
X79280000Y-27665300D01*
X80550000Y-28573100D02*
X79642200Y-27665300D01*
X80550000Y-33888300D02*
X80550000Y-28573100D01*
X81960000Y-35298300D02*
X80550000Y-33888300D01*
X81960000Y-36500000D02*
X81960000Y-35298300D01*
X79280000Y-26500000D02*
X79280000Y-27665300D01*
X81960000Y-46299900D02*
X81960000Y-36500000D01*
X76171100Y-52088800D02*
X81960000Y-46299900D01*
X76174800Y-52092600D02*
X76171100Y-52088800D01*
X76174800Y-52097500D02*
X76174800Y-52092600D01*
X80912200Y-56834900D02*
X76174800Y-52097500D01*
X80912200Y-74412200D02*
X80912200Y-56834900D01*
X82000000Y-75500000D02*
X80912200Y-74412200D01*
X75538900Y-51461600D02*
X75453000Y-51461600D01*
X75758000Y-51680700D02*
X75538900Y-51461600D01*
X75762900Y-51680700D02*
X75758000Y-51680700D01*
X76171100Y-52088800D02*
X75762900Y-51680700D01*
X86900000Y-29040000D02*
X86900000Y-30205300D01*
X89946600Y-47178300D02*
X90348300Y-47580000D01*
X89946600Y-37666700D02*
X89946600Y-47178300D01*
X90348300Y-37265000D02*
X89946600Y-37666700D01*
%TD*%
%TA.AperFunction,Conductor*%
%TO.N,GND*%
G36*
X92678798Y-23520185D02*
G01*
X92724553Y-23572989D01*
X92734497Y-23642147D01*
X92705472Y-23705703D01*
X92699440Y-23712181D01*
X92666913Y-23744707D01*
X92666910Y-23744711D01*
X92579309Y-23875814D01*
X92579302Y-23875827D01*
X92518964Y-24021498D01*
X92518961Y-24021510D01*
X92488200Y-24176153D01*
X92488200Y-24333846D01*
X92517047Y-24478871D01*
X92510820Y-24548463D01*
X92467957Y-24603640D01*
X92402067Y-24626884D01*
X92354478Y-24620104D01*
X92331967Y-24612227D01*
X92331953Y-24612223D01*
X92003397Y-24537233D01*
X92003381Y-24537231D01*
X91668508Y-24499500D01*
X91668504Y-24499500D01*
X91331496Y-24499500D01*
X91331491Y-24499500D01*
X90996618Y-24537231D01*
X90996602Y-24537233D01*
X90668046Y-24612223D01*
X90668034Y-24612227D01*
X90349945Y-24723532D01*
X90046316Y-24869752D01*
X89760962Y-25049053D01*
X89497477Y-25259174D01*
X89259174Y-25497477D01*
X89049053Y-25760962D01*
X88869752Y-26046316D01*
X88723532Y-26349945D01*
X88612227Y-26668034D01*
X88612223Y-26668046D01*
X88561160Y-26891772D01*
X88557624Y-26898091D01*
X88557244Y-26905324D01*
X88540796Y-26928177D01*
X88527051Y-26952751D01*
X88520659Y-26956156D01*
X88516430Y-26962034D01*
X88490241Y-26972366D01*
X88465390Y-26985609D01*
X88456579Y-26985646D01*
X88451436Y-26987676D01*
X88416486Y-26985818D01*
X88416191Y-26985820D01*
X88415496Y-26985682D01*
X88334142Y-26969500D01*
X88333745Y-26969500D01*
X88327430Y-26968250D01*
X88301582Y-26954759D01*
X88274546Y-26943836D01*
X88270972Y-26938784D01*
X88265489Y-26935922D01*
X88251038Y-26910601D01*
X88234199Y-26886793D01*
X88233905Y-26880579D01*
X88230858Y-26875239D01*
X88232332Y-26847243D01*
X88231258Y-26824478D01*
X88229749Y-26824239D01*
X88264100Y-26607356D01*
X88264100Y-26392643D01*
X88252435Y-26318997D01*
X88230511Y-26180573D01*
X88164161Y-25976367D01*
X88164161Y-25976366D01*
X88080266Y-25811715D01*
X88066683Y-25785056D01*
X87940477Y-25611349D01*
X87788651Y-25459523D01*
X87614944Y-25333317D01*
X87423633Y-25235838D01*
X87423630Y-25235837D01*
X87219428Y-25169489D01*
X87113392Y-25152694D01*
X87007357Y-25135900D01*
X86792643Y-25135900D01*
X86721953Y-25147096D01*
X86580571Y-25169489D01*
X86376369Y-25235837D01*
X86376366Y-25235838D01*
X86185055Y-25333317D01*
X86085949Y-25405322D01*
X86011349Y-25459523D01*
X86011347Y-25459525D01*
X86011346Y-25459525D01*
X85859525Y-25611346D01*
X85859525Y-25611347D01*
X85859523Y-25611349D01*
X85733318Y-25785055D01*
X85730453Y-25788998D01*
X85728562Y-25787624D01*
X85683848Y-25828030D01*
X85614911Y-25839411D01*
X85550765Y-25811715D01*
X85530488Y-25788314D01*
X85529547Y-25788998D01*
X85526682Y-25785055D01*
X85400477Y-25611349D01*
X85248651Y-25459523D01*
X85074944Y-25333317D01*
X84883633Y-25235838D01*
X84883630Y-25235837D01*
X84679428Y-25169489D01*
X84573392Y-25152694D01*
X84467357Y-25135900D01*
X84252643Y-25135900D01*
X84181953Y-25147096D01*
X84040571Y-25169489D01*
X83836369Y-25235837D01*
X83836366Y-25235838D01*
X83645055Y-25333317D01*
X83545949Y-25405322D01*
X83471349Y-25459523D01*
X83471347Y-25459525D01*
X83471346Y-25459525D01*
X83319525Y-25611346D01*
X83319525Y-25611347D01*
X83319523Y-25611349D01*
X83193318Y-25785055D01*
X83190453Y-25788998D01*
X83188562Y-25787624D01*
X83143848Y-25828030D01*
X83074911Y-25839411D01*
X83010765Y-25811715D01*
X82990488Y-25788314D01*
X82989547Y-25788998D01*
X82986682Y-25785055D01*
X82860477Y-25611349D01*
X82708651Y-25459523D01*
X82534944Y-25333317D01*
X82343633Y-25235838D01*
X82343630Y-25235837D01*
X82139428Y-25169489D01*
X82033392Y-25152694D01*
X81927357Y-25135900D01*
X81712643Y-25135900D01*
X81641953Y-25147096D01*
X81500571Y-25169489D01*
X81296369Y-25235837D01*
X81296366Y-25235838D01*
X81105055Y-25333317D01*
X81005949Y-25405322D01*
X80931349Y-25459523D01*
X80931347Y-25459525D01*
X80931346Y-25459525D01*
X80779525Y-25611346D01*
X80779525Y-25611347D01*
X80779523Y-25611349D01*
X80725322Y-25685949D01*
X80653317Y-25785055D01*
X80555838Y-25976366D01*
X80555837Y-25976369D01*
X80489489Y-26180571D01*
X80455900Y-26392643D01*
X80455900Y-26607356D01*
X80489489Y-26819428D01*
X80555837Y-27023630D01*
X80555838Y-27023633D01*
X80644133Y-27196919D01*
X80653317Y-27214944D01*
X80779523Y-27388651D01*
X80931349Y-27540477D01*
X81105055Y-27666682D01*
X81108998Y-27669547D01*
X81107624Y-27671437D01*
X81148030Y-27716152D01*
X81159411Y-27785089D01*
X81131715Y-27849235D01*
X81108314Y-27869511D01*
X81108998Y-27870453D01*
X81105056Y-27873316D01*
X81105056Y-27873317D01*
X80931349Y-27999523D01*
X80931347Y-27999525D01*
X80931346Y-27999525D01*
X80779525Y-28151346D01*
X80779525Y-28151347D01*
X80779523Y-28151349D01*
X80653318Y-28325055D01*
X80650453Y-28328998D01*
X80648562Y-28327624D01*
X80603848Y-28368030D01*
X80534911Y-28379411D01*
X80470765Y-28351715D01*
X80450488Y-28328314D01*
X80449547Y-28328998D01*
X80446682Y-28325055D01*
X80320477Y-28151349D01*
X80168651Y-27999523D01*
X79994944Y-27873317D01*
X79976855Y-27864100D01*
X79803633Y-27775838D01*
X79803630Y-27775837D01*
X79599428Y-27709489D01*
X79427821Y-27682309D01*
X79387357Y-27675900D01*
X79172643Y-27675900D01*
X79132179Y-27682309D01*
X78960571Y-27709489D01*
X78756369Y-27775837D01*
X78756366Y-27775838D01*
X78565055Y-27873317D01*
X78481433Y-27934073D01*
X78391349Y-27999523D01*
X78391347Y-27999525D01*
X78391346Y-27999525D01*
X78239525Y-28151346D01*
X78239525Y-28151347D01*
X78239523Y-28151349D01*
X78113318Y-28325055D01*
X78110453Y-28328998D01*
X78108562Y-28327624D01*
X78063848Y-28368030D01*
X77994911Y-28379411D01*
X77930765Y-28351715D01*
X77910488Y-28328314D01*
X77909547Y-28328998D01*
X77906682Y-28325055D01*
X77780477Y-28151349D01*
X77628651Y-27999523D01*
X77454944Y-27873317D01*
X77454943Y-27873316D01*
X77451002Y-27870453D01*
X77452405Y-27868521D01*
X77412078Y-27824073D01*
X77400558Y-27755160D01*
X77428125Y-27690958D01*
X77451709Y-27670521D01*
X77451002Y-27669547D01*
X77454945Y-27666682D01*
X77628651Y-27540477D01*
X77780477Y-27388651D01*
X77906683Y-27214944D01*
X78004161Y-27023633D01*
X78070511Y-26819427D01*
X78104100Y-26607357D01*
X78104100Y-26392643D01*
X78070511Y-26180573D01*
X78004161Y-25976367D01*
X78004161Y-25976366D01*
X77920266Y-25811715D01*
X77906683Y-25785056D01*
X77780477Y-25611349D01*
X77628651Y-25459523D01*
X77454944Y-25333317D01*
X77263633Y-25235838D01*
X77263630Y-25235837D01*
X77059428Y-25169489D01*
X76953392Y-25152694D01*
X76847357Y-25135900D01*
X76632643Y-25135900D01*
X76561953Y-25147096D01*
X76420571Y-25169489D01*
X76216369Y-25235837D01*
X76216366Y-25235838D01*
X76025055Y-25333317D01*
X75925949Y-25405322D01*
X75851349Y-25459523D01*
X75851347Y-25459525D01*
X75851346Y-25459525D01*
X75699525Y-25611346D01*
X75699525Y-25611347D01*
X75699523Y-25611349D01*
X75645322Y-25685949D01*
X75573317Y-25785055D01*
X75475838Y-25976366D01*
X75475837Y-25976369D01*
X75409489Y-26180571D01*
X75375900Y-26392643D01*
X75375900Y-26607356D01*
X75409489Y-26819428D01*
X75475837Y-27023630D01*
X75475838Y-27023633D01*
X75564133Y-27196919D01*
X75573317Y-27214944D01*
X75699523Y-27388651D01*
X75851349Y-27540477D01*
X76025055Y-27666682D01*
X76028998Y-27669547D01*
X76027624Y-27671437D01*
X76068030Y-27716152D01*
X76079411Y-27785089D01*
X76051715Y-27849235D01*
X76028314Y-27869511D01*
X76028998Y-27870453D01*
X76025056Y-27873316D01*
X76025056Y-27873317D01*
X75851349Y-27999523D01*
X75851347Y-27999525D01*
X75851346Y-27999525D01*
X75699525Y-28151346D01*
X75699525Y-28151347D01*
X75699523Y-28151349D01*
X75573318Y-28325055D01*
X75570453Y-28328998D01*
X75568562Y-28327624D01*
X75523848Y-28368030D01*
X75454911Y-28379411D01*
X75390765Y-28351715D01*
X75370488Y-28328314D01*
X75369547Y-28328998D01*
X75366682Y-28325055D01*
X75240477Y-28151349D01*
X75088651Y-27999523D01*
X74914944Y-27873317D01*
X74896855Y-27864100D01*
X74723633Y-27775838D01*
X74723630Y-27775837D01*
X74519428Y-27709489D01*
X74347821Y-27682309D01*
X74307357Y-27675900D01*
X74092643Y-27675900D01*
X74052179Y-27682309D01*
X73880571Y-27709489D01*
X73676369Y-27775837D01*
X73676366Y-27775838D01*
X73485055Y-27873317D01*
X73401433Y-27934073D01*
X73311349Y-27999523D01*
X73311347Y-27999525D01*
X73311346Y-27999525D01*
X73159525Y-28151346D01*
X73159525Y-28151347D01*
X73159523Y-28151349D01*
X73033318Y-28325055D01*
X73030453Y-28328998D01*
X73028562Y-28327624D01*
X72983848Y-28368030D01*
X72914911Y-28379411D01*
X72850765Y-28351715D01*
X72830488Y-28328314D01*
X72829547Y-28328998D01*
X72826682Y-28325055D01*
X72700477Y-28151349D01*
X72548651Y-27999523D01*
X72374944Y-27873317D01*
X72374943Y-27873316D01*
X72371002Y-27870453D01*
X72372405Y-27868521D01*
X72332078Y-27824073D01*
X72320558Y-27755160D01*
X72348125Y-27690958D01*
X72371709Y-27670521D01*
X72371002Y-27669547D01*
X72374945Y-27666682D01*
X72548651Y-27540477D01*
X72700477Y-27388651D01*
X72826683Y-27214944D01*
X72924161Y-27023633D01*
X72990511Y-26819427D01*
X73024100Y-26607357D01*
X73024100Y-26392643D01*
X72990511Y-26180573D01*
X72924161Y-25976367D01*
X72924161Y-25976366D01*
X72840266Y-25811715D01*
X72826683Y-25785056D01*
X72700477Y-25611349D01*
X72548651Y-25459523D01*
X72374944Y-25333317D01*
X72183633Y-25235838D01*
X72183630Y-25235837D01*
X71979428Y-25169489D01*
X71873392Y-25152694D01*
X71767357Y-25135900D01*
X71552643Y-25135900D01*
X71481953Y-25147096D01*
X71340571Y-25169489D01*
X71136369Y-25235837D01*
X71136366Y-25235838D01*
X70945055Y-25333317D01*
X70845949Y-25405322D01*
X70771349Y-25459523D01*
X70771347Y-25459525D01*
X70771346Y-25459525D01*
X70619525Y-25611346D01*
X70619525Y-25611347D01*
X70619523Y-25611349D01*
X70493318Y-25785055D01*
X70490453Y-25788998D01*
X70488562Y-25787624D01*
X70443848Y-25828030D01*
X70374911Y-25839411D01*
X70310765Y-25811715D01*
X70290488Y-25788314D01*
X70289547Y-25788998D01*
X70286682Y-25785055D01*
X70160477Y-25611349D01*
X70008651Y-25459523D01*
X69834944Y-25333317D01*
X69643633Y-25235838D01*
X69643630Y-25235837D01*
X69439428Y-25169489D01*
X69333392Y-25152694D01*
X69227357Y-25135900D01*
X69012643Y-25135900D01*
X68941953Y-25147096D01*
X68800571Y-25169489D01*
X68596369Y-25235837D01*
X68596366Y-25235838D01*
X68405055Y-25333317D01*
X68305949Y-25405322D01*
X68231349Y-25459523D01*
X68231347Y-25459525D01*
X68231346Y-25459525D01*
X68079525Y-25611346D01*
X68079525Y-25611347D01*
X68079523Y-25611349D01*
X67953318Y-25785055D01*
X67950453Y-25788998D01*
X67948562Y-25787624D01*
X67903848Y-25828030D01*
X67834911Y-25839411D01*
X67770765Y-25811715D01*
X67750488Y-25788314D01*
X67749547Y-25788998D01*
X67746682Y-25785055D01*
X67620477Y-25611349D01*
X67468651Y-25459523D01*
X67294944Y-25333317D01*
X67103633Y-25235838D01*
X67103630Y-25235837D01*
X66899428Y-25169489D01*
X66793392Y-25152694D01*
X66687357Y-25135900D01*
X66472643Y-25135900D01*
X66401953Y-25147096D01*
X66260571Y-25169489D01*
X66056369Y-25235837D01*
X66056366Y-25235838D01*
X65865055Y-25333317D01*
X65765949Y-25405322D01*
X65691349Y-25459523D01*
X65691347Y-25459525D01*
X65691346Y-25459525D01*
X65539525Y-25611346D01*
X65539525Y-25611347D01*
X65539523Y-25611349D01*
X65413318Y-25785055D01*
X65410453Y-25788998D01*
X65408562Y-25787624D01*
X65363848Y-25828030D01*
X65294911Y-25839411D01*
X65230765Y-25811715D01*
X65210488Y-25788314D01*
X65209547Y-25788998D01*
X65206682Y-25785055D01*
X65080477Y-25611349D01*
X64928651Y-25459523D01*
X64754944Y-25333317D01*
X64563633Y-25235838D01*
X64563630Y-25235837D01*
X64359428Y-25169489D01*
X64253392Y-25152694D01*
X64147357Y-25135900D01*
X63932643Y-25135900D01*
X63861953Y-25147096D01*
X63720571Y-25169489D01*
X63516369Y-25235837D01*
X63516366Y-25235838D01*
X63325055Y-25333317D01*
X63225949Y-25405322D01*
X63151349Y-25459523D01*
X63151347Y-25459525D01*
X63151346Y-25459525D01*
X62999525Y-25611346D01*
X62999525Y-25611347D01*
X62999523Y-25611349D01*
X62945322Y-25685949D01*
X62873317Y-25785055D01*
X62775838Y-25976366D01*
X62775837Y-25976369D01*
X62709489Y-26180571D01*
X62675900Y-26392643D01*
X62675900Y-26607356D01*
X62709489Y-26819428D01*
X62775837Y-27023630D01*
X62775838Y-27023633D01*
X62864133Y-27196919D01*
X62873317Y-27214944D01*
X62981748Y-27364186D01*
X63005228Y-27429991D01*
X62989403Y-27498045D01*
X62969111Y-27524752D01*
X62524752Y-27969111D01*
X62463429Y-28002596D01*
X62393737Y-27997612D01*
X62364188Y-27981749D01*
X62214944Y-27873317D01*
X62196855Y-27864100D01*
X62023633Y-27775838D01*
X62023630Y-27775837D01*
X61819428Y-27709489D01*
X61647821Y-27682309D01*
X61607357Y-27675900D01*
X61392643Y-27675900D01*
X61352179Y-27682309D01*
X61180571Y-27709489D01*
X60976369Y-27775837D01*
X60976366Y-27775838D01*
X60785055Y-27873317D01*
X60701433Y-27934073D01*
X60611349Y-27999523D01*
X60611347Y-27999525D01*
X60611340Y-27999530D01*
X60610773Y-28000098D01*
X60610504Y-28000244D01*
X60607645Y-28002687D01*
X60607131Y-28002085D01*
X60549446Y-28033575D01*
X60479755Y-28028582D01*
X60435422Y-28000087D01*
X59999912Y-27564577D01*
X59966427Y-27503254D01*
X59971411Y-27433562D01*
X59997688Y-27392686D01*
X59997308Y-27392362D01*
X59999689Y-27389573D01*
X59999932Y-27389195D01*
X60000477Y-27388651D01*
X60126683Y-27214944D01*
X60224161Y-27023633D01*
X60290511Y-26819427D01*
X60324100Y-26607357D01*
X60324100Y-26392643D01*
X60290511Y-26180573D01*
X60224161Y-25976367D01*
X60224161Y-25976366D01*
X60140266Y-25811715D01*
X60126683Y-25785056D01*
X60000477Y-25611349D01*
X59848651Y-25459523D01*
X59674944Y-25333317D01*
X59483633Y-25235838D01*
X59483630Y-25235837D01*
X59279428Y-25169489D01*
X59173392Y-25152694D01*
X59067357Y-25135900D01*
X58852643Y-25135900D01*
X58781953Y-25147096D01*
X58640571Y-25169489D01*
X58436369Y-25235837D01*
X58436366Y-25235838D01*
X58245055Y-25333317D01*
X58145949Y-25405322D01*
X58071349Y-25459523D01*
X58071347Y-25459525D01*
X58071346Y-25459525D01*
X57919525Y-25611346D01*
X57919525Y-25611347D01*
X57919523Y-25611349D01*
X57793318Y-25785055D01*
X57790453Y-25788998D01*
X57788562Y-25787624D01*
X57743848Y-25828030D01*
X57674911Y-25839411D01*
X57610765Y-25811715D01*
X57590488Y-25788314D01*
X57589547Y-25788998D01*
X57586682Y-25785055D01*
X57460477Y-25611349D01*
X57308651Y-25459523D01*
X57134944Y-25333317D01*
X56943633Y-25235838D01*
X56943630Y-25235837D01*
X56739428Y-25169489D01*
X56633392Y-25152694D01*
X56527357Y-25135900D01*
X56312643Y-25135900D01*
X56241953Y-25147096D01*
X56100571Y-25169489D01*
X55896369Y-25235837D01*
X55896366Y-25235838D01*
X55705055Y-25333317D01*
X55605949Y-25405322D01*
X55531349Y-25459523D01*
X55531347Y-25459525D01*
X55531346Y-25459525D01*
X55379525Y-25611346D01*
X55379525Y-25611347D01*
X55379523Y-25611349D01*
X55325322Y-25685949D01*
X55253317Y-25785055D01*
X55155838Y-25976366D01*
X55155837Y-25976369D01*
X55089489Y-26180571D01*
X55055900Y-26392643D01*
X55055900Y-26607356D01*
X55089489Y-26819428D01*
X55155837Y-27023630D01*
X55155838Y-27023633D01*
X55244133Y-27196919D01*
X55253317Y-27214944D01*
X55361748Y-27364186D01*
X55385228Y-27429991D01*
X55369403Y-27498045D01*
X55349111Y-27524752D01*
X54904752Y-27969111D01*
X54843429Y-28002596D01*
X54773737Y-27997612D01*
X54744188Y-27981749D01*
X54594944Y-27873317D01*
X54576855Y-27864100D01*
X54403633Y-27775838D01*
X54403630Y-27775837D01*
X54199428Y-27709489D01*
X54027821Y-27682309D01*
X53987357Y-27675900D01*
X53772643Y-27675900D01*
X53732179Y-27682309D01*
X53560571Y-27709489D01*
X53356369Y-27775837D01*
X53356366Y-27775838D01*
X53165055Y-27873317D01*
X53081433Y-27934073D01*
X52991349Y-27999523D01*
X52991347Y-27999525D01*
X52991346Y-27999525D01*
X52839525Y-28151346D01*
X52839525Y-28151347D01*
X52839523Y-28151349D01*
X52713318Y-28325055D01*
X52710453Y-28328998D01*
X52708562Y-28327624D01*
X52663848Y-28368030D01*
X52594911Y-28379411D01*
X52530765Y-28351715D01*
X52510488Y-28328314D01*
X52509547Y-28328998D01*
X52506682Y-28325055D01*
X52380477Y-28151349D01*
X52228651Y-27999523D01*
X52054944Y-27873317D01*
X52054943Y-27873316D01*
X52051002Y-27870453D01*
X52052405Y-27868521D01*
X52012078Y-27824073D01*
X52000558Y-27755160D01*
X52028125Y-27690958D01*
X52051709Y-27670521D01*
X52051002Y-27669547D01*
X52054945Y-27666682D01*
X52228651Y-27540477D01*
X52380477Y-27388651D01*
X52506683Y-27214944D01*
X52604161Y-27023633D01*
X52670511Y-26819427D01*
X52704100Y-26607357D01*
X52704100Y-26392643D01*
X52670511Y-26180573D01*
X52604161Y-25976367D01*
X52604161Y-25976366D01*
X52520266Y-25811715D01*
X52506683Y-25785056D01*
X52380477Y-25611349D01*
X52228651Y-25459523D01*
X52054944Y-25333317D01*
X51863633Y-25235838D01*
X51863630Y-25235837D01*
X51659428Y-25169489D01*
X51553392Y-25152694D01*
X51447357Y-25135900D01*
X51232643Y-25135900D01*
X51161953Y-25147096D01*
X51020571Y-25169489D01*
X50816369Y-25235837D01*
X50816366Y-25235838D01*
X50625055Y-25333317D01*
X50525949Y-25405322D01*
X50451349Y-25459523D01*
X50451347Y-25459525D01*
X50451346Y-25459525D01*
X50299525Y-25611346D01*
X50299525Y-25611347D01*
X50299523Y-25611349D01*
X50173318Y-25785055D01*
X50170453Y-25788998D01*
X50168562Y-25787624D01*
X50123848Y-25828030D01*
X50054911Y-25839411D01*
X49990765Y-25811715D01*
X49970488Y-25788314D01*
X49969547Y-25788998D01*
X49966682Y-25785055D01*
X49840477Y-25611349D01*
X49688651Y-25459523D01*
X49514944Y-25333317D01*
X49323633Y-25235838D01*
X49323630Y-25235837D01*
X49119428Y-25169489D01*
X49013392Y-25152694D01*
X48907357Y-25135900D01*
X48692643Y-25135900D01*
X48621953Y-25147096D01*
X48480571Y-25169489D01*
X48276369Y-25235837D01*
X48276366Y-25235838D01*
X48085055Y-25333317D01*
X47985949Y-25405322D01*
X47911349Y-25459523D01*
X47911347Y-25459525D01*
X47911346Y-25459525D01*
X47759525Y-25611346D01*
X47759525Y-25611347D01*
X47759523Y-25611349D01*
X47633318Y-25785055D01*
X47630453Y-25788998D01*
X47628562Y-25787624D01*
X47583848Y-25828030D01*
X47514911Y-25839411D01*
X47450765Y-25811715D01*
X47430488Y-25788314D01*
X47429547Y-25788998D01*
X47426682Y-25785055D01*
X47300477Y-25611349D01*
X47148651Y-25459523D01*
X46974944Y-25333317D01*
X46783633Y-25235838D01*
X46783630Y-25235837D01*
X46579428Y-25169489D01*
X46473392Y-25152694D01*
X46367357Y-25135900D01*
X46152643Y-25135900D01*
X46081953Y-25147096D01*
X45940571Y-25169489D01*
X45736369Y-25235837D01*
X45736366Y-25235838D01*
X45545055Y-25333317D01*
X45445949Y-25405322D01*
X45371349Y-25459523D01*
X45371347Y-25459525D01*
X45371346Y-25459525D01*
X45219525Y-25611346D01*
X45219525Y-25611347D01*
X45219523Y-25611349D01*
X45165322Y-25685949D01*
X45093317Y-25785055D01*
X44995838Y-25976366D01*
X44995837Y-25976369D01*
X44929489Y-26180571D01*
X44895900Y-26392643D01*
X44895900Y-26607356D01*
X44929489Y-26819428D01*
X44995837Y-27023630D01*
X44995838Y-27023633D01*
X45084133Y-27196919D01*
X45093317Y-27214944D01*
X45219523Y-27388651D01*
X45371349Y-27540477D01*
X45545055Y-27666682D01*
X45548998Y-27669547D01*
X45547624Y-27671437D01*
X45588030Y-27716152D01*
X45599411Y-27785089D01*
X45571715Y-27849235D01*
X45548314Y-27869511D01*
X45548998Y-27870453D01*
X45545056Y-27873316D01*
X45545056Y-27873317D01*
X45371349Y-27999523D01*
X45371347Y-27999525D01*
X45371346Y-27999525D01*
X45219525Y-28151346D01*
X45219525Y-28151347D01*
X45219523Y-28151349D01*
X45093318Y-28325055D01*
X45090453Y-28328998D01*
X45088562Y-28327624D01*
X45043848Y-28368030D01*
X44974911Y-28379411D01*
X44910765Y-28351715D01*
X44890488Y-28328314D01*
X44889547Y-28328998D01*
X44886682Y-28325055D01*
X44760477Y-28151349D01*
X44608651Y-27999523D01*
X44434944Y-27873317D01*
X44416855Y-27864100D01*
X44243633Y-27775838D01*
X44243630Y-27775837D01*
X44039428Y-27709489D01*
X43867821Y-27682309D01*
X43827357Y-27675900D01*
X43612643Y-27675900D01*
X43572179Y-27682309D01*
X43400571Y-27709489D01*
X43196369Y-27775837D01*
X43196366Y-27775838D01*
X43005055Y-27873317D01*
X42921433Y-27934073D01*
X42831349Y-27999523D01*
X42831347Y-27999525D01*
X42831340Y-27999530D01*
X42830773Y-28000098D01*
X42830504Y-28000244D01*
X42827645Y-28002687D01*
X42827131Y-28002085D01*
X42769446Y-28033575D01*
X42699755Y-28028582D01*
X42655422Y-28000087D01*
X42219912Y-27564577D01*
X42186427Y-27503254D01*
X42191411Y-27433562D01*
X42217688Y-27392686D01*
X42217308Y-27392362D01*
X42219689Y-27389573D01*
X42219932Y-27389195D01*
X42220477Y-27388651D01*
X42346683Y-27214944D01*
X42444161Y-27023633D01*
X42510511Y-26819427D01*
X42544100Y-26607357D01*
X42544100Y-26392643D01*
X42510511Y-26180573D01*
X42444161Y-25976367D01*
X42444161Y-25976366D01*
X42360266Y-25811715D01*
X42346683Y-25785056D01*
X42220477Y-25611349D01*
X42068651Y-25459523D01*
X41894944Y-25333317D01*
X41703633Y-25235838D01*
X41703630Y-25235837D01*
X41499428Y-25169489D01*
X41393392Y-25152694D01*
X41287357Y-25135900D01*
X41072643Y-25135900D01*
X41001953Y-25147096D01*
X40860571Y-25169489D01*
X40656369Y-25235837D01*
X40656366Y-25235838D01*
X40465055Y-25333317D01*
X40365949Y-25405322D01*
X40291349Y-25459523D01*
X40291347Y-25459525D01*
X40291346Y-25459525D01*
X40139525Y-25611346D01*
X40139525Y-25611347D01*
X40139523Y-25611349D01*
X40013318Y-25785055D01*
X40010453Y-25788998D01*
X40008562Y-25787624D01*
X39963848Y-25828030D01*
X39894911Y-25839411D01*
X39830765Y-25811715D01*
X39810488Y-25788314D01*
X39809547Y-25788998D01*
X39806682Y-25785055D01*
X39680477Y-25611349D01*
X39528651Y-25459523D01*
X39354944Y-25333317D01*
X39163633Y-25235838D01*
X39163630Y-25235837D01*
X38959428Y-25169489D01*
X38853392Y-25152694D01*
X38747357Y-25135900D01*
X38532643Y-25135900D01*
X38461953Y-25147096D01*
X38320571Y-25169489D01*
X38116369Y-25235837D01*
X38116366Y-25235838D01*
X37925055Y-25333317D01*
X37825949Y-25405322D01*
X37751349Y-25459523D01*
X37751347Y-25459525D01*
X37751346Y-25459525D01*
X37599525Y-25611346D01*
X37599525Y-25611347D01*
X37599523Y-25611349D01*
X37545322Y-25685949D01*
X37473317Y-25785055D01*
X37375838Y-25976366D01*
X37375837Y-25976369D01*
X37309489Y-26180571D01*
X37275900Y-26392643D01*
X37275900Y-26607356D01*
X37309489Y-26819428D01*
X37375837Y-27023630D01*
X37375838Y-27023633D01*
X37464133Y-27196919D01*
X37473317Y-27214944D01*
X37599523Y-27388651D01*
X37599525Y-27388653D01*
X37695823Y-27484951D01*
X37729308Y-27546274D01*
X37724324Y-27615966D01*
X37682452Y-27671899D01*
X37651475Y-27688814D01*
X37534071Y-27732602D01*
X37534064Y-27732606D01*
X37418855Y-27818852D01*
X37418852Y-27818855D01*
X37332606Y-27934064D01*
X37332602Y-27934071D01*
X37282308Y-28068917D01*
X37275901Y-28128516D01*
X37275900Y-28128535D01*
X37275900Y-29951470D01*
X37275901Y-29951476D01*
X37282308Y-30011083D01*
X37332602Y-30145928D01*
X37332606Y-30145935D01*
X37418852Y-30261144D01*
X37418855Y-30261147D01*
X37534064Y-30347393D01*
X37534071Y-30347397D01*
X37579018Y-30364161D01*
X37668917Y-30397691D01*
X37728527Y-30404100D01*
X37989787Y-30404099D01*
X38056826Y-30423783D01*
X38097174Y-30466099D01*
X38159477Y-30574012D01*
X38159481Y-30574017D01*
X38278349Y-30692885D01*
X38278355Y-30692890D01*
X40809157Y-33223692D01*
X40842642Y-33285015D01*
X40837658Y-33354707D01*
X40827051Y-33375432D01*
X40827079Y-33375447D01*
X40826258Y-33376982D01*
X40824580Y-33380262D01*
X40824207Y-33380819D01*
X40824202Y-33380828D01*
X40763864Y-33526498D01*
X40763861Y-33526510D01*
X40733100Y-33681153D01*
X40733100Y-33838846D01*
X40763861Y-33993489D01*
X40763864Y-33993501D01*
X40824202Y-34139172D01*
X40824209Y-34139185D01*
X40911810Y-34270288D01*
X40911813Y-34270292D01*
X41023307Y-34381786D01*
X41023311Y-34381789D01*
X41154414Y-34469390D01*
X41154427Y-34469397D01*
X41300098Y-34529735D01*
X41300103Y-34529737D01*
X41454753Y-34560499D01*
X41454756Y-34560500D01*
X41454758Y-34560500D01*
X41612444Y-34560500D01*
X41612445Y-34560499D01*
X41767097Y-34529737D01*
X41912779Y-34469394D01*
X42043889Y-34381789D01*
X42155389Y-34270289D01*
X42242994Y-34139179D01*
X42303337Y-33993497D01*
X42334100Y-33838842D01*
X42334100Y-33681158D01*
X42334100Y-33681155D01*
X42334099Y-33681153D01*
X42303338Y-33526510D01*
X42303338Y-33526508D01*
X42303337Y-33526503D01*
X42263864Y-33431206D01*
X42242997Y-33380827D01*
X42242990Y-33380814D01*
X42154998Y-33249125D01*
X42134120Y-33182447D01*
X42134100Y-33180234D01*
X42134100Y-33019845D01*
X42134100Y-33019843D01*
X42093177Y-32867116D01*
X42074924Y-32835500D01*
X42014124Y-32730190D01*
X42014121Y-32730186D01*
X42014120Y-32730184D01*
X41902316Y-32618380D01*
X41902315Y-32618379D01*
X41897985Y-32614049D01*
X41897974Y-32614039D01*
X39781581Y-30497646D01*
X39748096Y-30436323D01*
X39753080Y-30366631D01*
X39794950Y-30310699D01*
X39861146Y-30261146D01*
X39947396Y-30145931D01*
X39991186Y-30028523D01*
X40033055Y-29972591D01*
X40098519Y-29948173D01*
X40166792Y-29963024D01*
X40195048Y-29984176D01*
X40291349Y-30080477D01*
X40465056Y-30206683D01*
X40531881Y-30240732D01*
X40656366Y-30304161D01*
X40656369Y-30304162D01*
X40758470Y-30337336D01*
X40860573Y-30370511D01*
X41072643Y-30404100D01*
X41072644Y-30404100D01*
X41287356Y-30404100D01*
X41287357Y-30404100D01*
X41499427Y-30370511D01*
X41703633Y-30304161D01*
X41894944Y-30206683D01*
X42068651Y-30080477D01*
X42076711Y-30072416D01*
X42138027Y-30038929D01*
X42207719Y-30043907D01*
X42252077Y-30072412D01*
X50772284Y-38592619D01*
X50805769Y-38653942D01*
X50800785Y-38723634D01*
X50758913Y-38779567D01*
X50693449Y-38803984D01*
X50684603Y-38804300D01*
X50613555Y-38804300D01*
X50458910Y-38835061D01*
X50458898Y-38835064D01*
X50313227Y-38895402D01*
X50313214Y-38895409D01*
X50182111Y-38983010D01*
X50182107Y-38983013D01*
X50070613Y-39094507D01*
X50070610Y-39094511D01*
X49983009Y-39225614D01*
X49983002Y-39225627D01*
X49922664Y-39371298D01*
X49922661Y-39371308D01*
X49891762Y-39526648D01*
X49859377Y-39588559D01*
X49857826Y-39590137D01*
X47404687Y-42043276D01*
X47404681Y-42043282D01*
X47401286Y-42046678D01*
X47401284Y-42046680D01*
X47289480Y-42158484D01*
X47260797Y-42208165D01*
X47255069Y-42218085D01*
X47255068Y-42218087D01*
X47210424Y-42295413D01*
X47210423Y-42295415D01*
X47169499Y-42448143D01*
X47169499Y-42448145D01*
X47169499Y-42616246D01*
X47169500Y-42616259D01*
X47169500Y-44444437D01*
X47149815Y-44511476D01*
X47097011Y-44557231D01*
X47027853Y-44567175D01*
X46976611Y-44547541D01*
X46967281Y-44541307D01*
X46967272Y-44541302D01*
X46821601Y-44480964D01*
X46821589Y-44480961D01*
X46666945Y-44450200D01*
X46666942Y-44450200D01*
X46509258Y-44450200D01*
X46509255Y-44450200D01*
X46354610Y-44480961D01*
X46354598Y-44480964D01*
X46208927Y-44541302D01*
X46208914Y-44541309D01*
X46077811Y-44628910D01*
X46077807Y-44628913D01*
X45966313Y-44740407D01*
X45966310Y-44740411D01*
X45878709Y-44871514D01*
X45878702Y-44871527D01*
X45818364Y-45017198D01*
X45818361Y-45017208D01*
X45787462Y-45172547D01*
X45778696Y-45189303D01*
X45774677Y-45207782D01*
X45755934Y-45232818D01*
X45755077Y-45234458D01*
X45753526Y-45236036D01*
X45711381Y-45278181D01*
X45650058Y-45311666D01*
X45623700Y-45314500D01*
X44102129Y-45314500D01*
X44102123Y-45314501D01*
X44042516Y-45320908D01*
X43907671Y-45371202D01*
X43907664Y-45371206D01*
X43792455Y-45457452D01*
X43792452Y-45457455D01*
X43706206Y-45572664D01*
X43706202Y-45572671D01*
X43655908Y-45707517D01*
X43649501Y-45767116D01*
X43649500Y-45767135D01*
X43649500Y-47562870D01*
X43649501Y-47562876D01*
X43655908Y-47622483D01*
X43706202Y-47757328D01*
X43706206Y-47757335D01*
X43792452Y-47872544D01*
X43792455Y-47872547D01*
X43907664Y-47958793D01*
X43907671Y-47958797D01*
X44039082Y-48007810D01*
X44095016Y-48049681D01*
X44119433Y-48115145D01*
X44104582Y-48183418D01*
X44083431Y-48211673D01*
X43969889Y-48325215D01*
X43844951Y-48497179D01*
X43748444Y-48686585D01*
X43682753Y-48888760D01*
X43649500Y-49098713D01*
X43649500Y-49311286D01*
X43682599Y-49520269D01*
X43682754Y-49521243D01*
X43730299Y-49667572D01*
X43748444Y-49723414D01*
X43844951Y-49912820D01*
X43969890Y-50084786D01*
X44120213Y-50235109D01*
X44292179Y-50360048D01*
X44292181Y-50360049D01*
X44292184Y-50360051D01*
X44481588Y-50456557D01*
X44683757Y-50522246D01*
X44893713Y-50555500D01*
X44893714Y-50555500D01*
X45106286Y-50555500D01*
X45106287Y-50555500D01*
X45316243Y-50522246D01*
X45518412Y-50456557D01*
X45707816Y-50360051D01*
X45776051Y-50310476D01*
X45879786Y-50235109D01*
X45879788Y-50235106D01*
X45879792Y-50235104D01*
X46030104Y-50084792D01*
X46030106Y-50084788D01*
X46030109Y-50084786D01*
X46155048Y-49912820D01*
X46155047Y-49912820D01*
X46155051Y-49912816D01*
X46251557Y-49723412D01*
X46317246Y-49521243D01*
X46350500Y-49311287D01*
X46350500Y-49098713D01*
X46317246Y-48888757D01*
X46251557Y-48686588D01*
X46155051Y-48497184D01*
X46155049Y-48497181D01*
X46155048Y-48497179D01*
X46030109Y-48325213D01*
X45916569Y-48211673D01*
X45883084Y-48150350D01*
X45888068Y-48080658D01*
X45929940Y-48024725D01*
X45960915Y-48007810D01*
X46092331Y-47958796D01*
X46207546Y-47872546D01*
X46293796Y-47757331D01*
X46344091Y-47622483D01*
X46350500Y-47562873D01*
X46350499Y-47315211D01*
X46370183Y-47248173D01*
X46412497Y-47207825D01*
X46520416Y-47145520D01*
X46632220Y-47033716D01*
X46711277Y-46896784D01*
X46752200Y-46744057D01*
X46752200Y-46132036D01*
X46757411Y-46114288D01*
X46757615Y-46095793D01*
X46767051Y-46081459D01*
X46771885Y-46064997D01*
X46785861Y-46052886D01*
X46796034Y-46037434D01*
X46821922Y-46021639D01*
X46824689Y-46019242D01*
X46825934Y-46018681D01*
X46827317Y-46018067D01*
X46967279Y-45960094D01*
X46985480Y-45947931D01*
X46995234Y-45943607D01*
X47019716Y-45940361D01*
X47043283Y-45932982D01*
X47053743Y-45935851D01*
X47064498Y-45934426D01*
X47086849Y-45944932D01*
X47110664Y-45951465D01*
X47117912Y-45959534D01*
X47127730Y-45964149D01*
X47140851Y-45985069D01*
X47157356Y-46003442D01*
X47160179Y-46015885D01*
X47164855Y-46023340D01*
X47164716Y-46035881D01*
X47169500Y-46056962D01*
X47169500Y-56098164D01*
X47149815Y-56165203D01*
X47101796Y-56208648D01*
X47035976Y-56242185D01*
X46857641Y-56371752D01*
X46857636Y-56371756D01*
X46807463Y-56421929D01*
X46746140Y-56455413D01*
X46676448Y-56450428D01*
X46620515Y-56408557D01*
X46603601Y-56377580D01*
X46573797Y-56297671D01*
X46573793Y-56297664D01*
X46487547Y-56182455D01*
X46487544Y-56182452D01*
X46372335Y-56096206D01*
X46372328Y-56096202D01*
X46237482Y-56045908D01*
X46237483Y-56045908D01*
X46177883Y-56039501D01*
X46177881Y-56039500D01*
X46177873Y-56039500D01*
X46177864Y-56039500D01*
X44282129Y-56039500D01*
X44282123Y-56039501D01*
X44222516Y-56045908D01*
X44087671Y-56096202D01*
X44087664Y-56096206D01*
X43972455Y-56182452D01*
X43972452Y-56182455D01*
X43886206Y-56297664D01*
X43886202Y-56297671D01*
X43835908Y-56432517D01*
X43829501Y-56492116D01*
X43829500Y-56492135D01*
X43829500Y-58387870D01*
X43829501Y-58387876D01*
X43835908Y-58447483D01*
X43886202Y-58582328D01*
X43886206Y-58582335D01*
X43972452Y-58697544D01*
X43972455Y-58697547D01*
X44087664Y-58783793D01*
X44087671Y-58783797D01*
X44222517Y-58834091D01*
X44222516Y-58834091D01*
X44229444Y-58834835D01*
X44282127Y-58840500D01*
X46177872Y-58840499D01*
X46237483Y-58834091D01*
X46372331Y-58783796D01*
X46487546Y-58697546D01*
X46573796Y-58582331D01*
X46577897Y-58571335D01*
X46603601Y-58502420D01*
X46645471Y-58446486D01*
X46710936Y-58422068D01*
X46779209Y-58436919D01*
X46807464Y-58458071D01*
X46857636Y-58508243D01*
X46857641Y-58508247D01*
X46985920Y-58601446D01*
X47035978Y-58637815D01*
X47164375Y-58703237D01*
X47232393Y-58737895D01*
X47232396Y-58737896D01*
X47288427Y-58756101D01*
X47442049Y-58806015D01*
X47659778Y-58840500D01*
X47659779Y-58840500D01*
X47880221Y-58840500D01*
X47880222Y-58840500D01*
X48097951Y-58806015D01*
X48307606Y-58737895D01*
X48504022Y-58637815D01*
X48682365Y-58508242D01*
X48838242Y-58352365D01*
X48967815Y-58174022D01*
X49067895Y-57977606D01*
X49136015Y-57767951D01*
X49170500Y-57550222D01*
X49170500Y-57329778D01*
X49136015Y-57112049D01*
X49067895Y-56902394D01*
X49067895Y-56902393D01*
X49022911Y-56814109D01*
X48967815Y-56705978D01*
X48909501Y-56625715D01*
X48838247Y-56527641D01*
X48838243Y-56527636D01*
X48682363Y-56371756D01*
X48682358Y-56371752D01*
X48504023Y-56242185D01*
X48438204Y-56208648D01*
X48387409Y-56160674D01*
X48370500Y-56098164D01*
X48370500Y-42827297D01*
X48390185Y-42760258D01*
X48406819Y-42739616D01*
X49544312Y-41602123D01*
X50707064Y-40439371D01*
X50768385Y-40405888D01*
X50770552Y-40405437D01*
X50771241Y-40405300D01*
X50771242Y-40405300D01*
X50925897Y-40374537D01*
X51071579Y-40314194D01*
X51202689Y-40226589D01*
X51314189Y-40115089D01*
X51401794Y-39983979D01*
X51462137Y-39838297D01*
X51492900Y-39683642D01*
X51492900Y-39612597D01*
X51512585Y-39545558D01*
X51565389Y-39499803D01*
X51634547Y-39489859D01*
X51698103Y-39518884D01*
X51704581Y-39524916D01*
X52772339Y-40592674D01*
X52772349Y-40592685D01*
X52776679Y-40597015D01*
X52776680Y-40597016D01*
X52888484Y-40708820D01*
X52975295Y-40758939D01*
X52975297Y-40758941D01*
X53013351Y-40780911D01*
X53025415Y-40787877D01*
X53178143Y-40828801D01*
X53178146Y-40828801D01*
X53343853Y-40828801D01*
X53343869Y-40828800D01*
X54009000Y-40828800D01*
X54076039Y-40848485D01*
X54121794Y-40901289D01*
X54133000Y-40952800D01*
X54133000Y-45565164D01*
X54113315Y-45632203D01*
X54060511Y-45677958D01*
X53991353Y-45687902D01*
X53927797Y-45658877D01*
X53921319Y-45652845D01*
X53814648Y-45546174D01*
X53814646Y-45546172D01*
X53655405Y-45430476D01*
X53603751Y-45404157D01*
X53480029Y-45341117D01*
X53292826Y-45280290D01*
X53098422Y-45249500D01*
X53098417Y-45249500D01*
X52901583Y-45249500D01*
X52901578Y-45249500D01*
X52707173Y-45280290D01*
X52519970Y-45341117D01*
X52344594Y-45430476D01*
X52253741Y-45496485D01*
X52185354Y-45546172D01*
X52185352Y-45546174D01*
X52185351Y-45546174D01*
X52046174Y-45685351D01*
X52046174Y-45685352D01*
X52046172Y-45685354D01*
X52044321Y-45687902D01*
X51930476Y-45844594D01*
X51841117Y-46019970D01*
X51780290Y-46207173D01*
X51749500Y-46401577D01*
X51749500Y-46598422D01*
X51780290Y-46792826D01*
X51841117Y-46980029D01*
X51917963Y-47130847D01*
X51930476Y-47155405D01*
X52046172Y-47314646D01*
X52185354Y-47453828D01*
X52344595Y-47569524D01*
X52427455Y-47611743D01*
X52519970Y-47658882D01*
X52519972Y-47658882D01*
X52519975Y-47658884D01*
X52604186Y-47686246D01*
X52707173Y-47719709D01*
X52901578Y-47750500D01*
X52901583Y-47750500D01*
X53098422Y-47750500D01*
X53292826Y-47719709D01*
X53480025Y-47658884D01*
X53655405Y-47569524D01*
X53814646Y-47453828D01*
X53921319Y-47347155D01*
X53982642Y-47313670D01*
X54052334Y-47318654D01*
X54108267Y-47360526D01*
X54132684Y-47425990D01*
X54133000Y-47434836D01*
X54133000Y-50445164D01*
X54113315Y-50512203D01*
X54060511Y-50557958D01*
X53991353Y-50567902D01*
X53927797Y-50538877D01*
X53921319Y-50532845D01*
X53814648Y-50426174D01*
X53814646Y-50426172D01*
X53655405Y-50310476D01*
X53480029Y-50221117D01*
X53292826Y-50160290D01*
X53098422Y-50129500D01*
X53098417Y-50129500D01*
X52901583Y-50129500D01*
X52901578Y-50129500D01*
X52707173Y-50160290D01*
X52519970Y-50221117D01*
X52344594Y-50310476D01*
X52299996Y-50342879D01*
X52185354Y-50426172D01*
X52185352Y-50426174D01*
X52185351Y-50426174D01*
X52046174Y-50565351D01*
X52046174Y-50565352D01*
X52046172Y-50565354D01*
X52031543Y-50585489D01*
X51930476Y-50724594D01*
X51841117Y-50899970D01*
X51780290Y-51087173D01*
X51749500Y-51281577D01*
X51749500Y-51478422D01*
X51780290Y-51672826D01*
X51841117Y-51860029D01*
X51920729Y-52016275D01*
X51930476Y-52035405D01*
X52046172Y-52194646D01*
X52185354Y-52333828D01*
X52344595Y-52449524D01*
X52365668Y-52460261D01*
X52519970Y-52538882D01*
X52519972Y-52538882D01*
X52519975Y-52538884D01*
X52620317Y-52571487D01*
X52707173Y-52599709D01*
X52901578Y-52630500D01*
X52901583Y-52630500D01*
X53098422Y-52630500D01*
X53292826Y-52599709D01*
X53306974Y-52595112D01*
X53480025Y-52538884D01*
X53655405Y-52449524D01*
X53814646Y-52333828D01*
X53921319Y-52227155D01*
X53982642Y-52193670D01*
X54052334Y-52198654D01*
X54108267Y-52240526D01*
X54132684Y-52305990D01*
X54133000Y-52314836D01*
X54133000Y-56836830D01*
X54132999Y-56836848D01*
X54132999Y-57002554D01*
X54132998Y-57002554D01*
X54173923Y-57155285D01*
X54202858Y-57205400D01*
X54202859Y-57205404D01*
X54202860Y-57205404D01*
X54251706Y-57290010D01*
X54252979Y-57292214D01*
X54252981Y-57292217D01*
X54371849Y-57411085D01*
X54371855Y-57411090D01*
X54498925Y-57538160D01*
X54532410Y-57599483D01*
X54532861Y-57601649D01*
X54563761Y-57756991D01*
X54563764Y-57757001D01*
X54624102Y-57902672D01*
X54624109Y-57902685D01*
X54711710Y-58033788D01*
X54711713Y-58033792D01*
X54823207Y-58145286D01*
X54823211Y-58145289D01*
X54954314Y-58232890D01*
X54954327Y-58232897D01*
X55090039Y-58289110D01*
X55100003Y-58293237D01*
X55254653Y-58323999D01*
X55254656Y-58324000D01*
X55254658Y-58324000D01*
X55412344Y-58324000D01*
X55412345Y-58323999D01*
X55566997Y-58293237D01*
X55712679Y-58232894D01*
X55843789Y-58145289D01*
X55955289Y-58033789D01*
X56042894Y-57902679D01*
X56103237Y-57756997D01*
X56134000Y-57602342D01*
X56134000Y-57444658D01*
X56134000Y-57444655D01*
X56133999Y-57444653D01*
X56125917Y-57404021D01*
X56103237Y-57290003D01*
X56103235Y-57289998D01*
X56042897Y-57144327D01*
X56042890Y-57144314D01*
X55955289Y-57013211D01*
X55955286Y-57013207D01*
X55843792Y-56901713D01*
X55843788Y-56901710D01*
X55712685Y-56814109D01*
X55712672Y-56814102D01*
X55567001Y-56753764D01*
X55566991Y-56753761D01*
X55433808Y-56727269D01*
X55371897Y-56694884D01*
X55337323Y-56634168D01*
X55334000Y-56605652D01*
X55334000Y-45329697D01*
X55353685Y-45262658D01*
X55406489Y-45216903D01*
X55475647Y-45206959D01*
X55539203Y-45235984D01*
X55545681Y-45242016D01*
X59918880Y-49615215D01*
X59952365Y-49676538D01*
X59947381Y-49746230D01*
X59905509Y-49802163D01*
X59863295Y-49822669D01*
X59834744Y-49830320D01*
X59807114Y-49837723D01*
X59807109Y-49837726D01*
X59670190Y-49916775D01*
X59670182Y-49916781D01*
X59558381Y-50028582D01*
X59558375Y-50028590D01*
X59479326Y-50165509D01*
X59479323Y-50165516D01*
X59438400Y-50318243D01*
X59438400Y-50476357D01*
X59467642Y-50585487D01*
X59479323Y-50629083D01*
X59479323Y-50629084D01*
X59534296Y-50724301D01*
X59537125Y-50735966D01*
X59544087Y-50745741D01*
X59545209Y-50769286D01*
X59550768Y-50792201D01*
X59546924Y-50805289D01*
X59547413Y-50815531D01*
X59534297Y-50848297D01*
X59523961Y-50866200D01*
X59479323Y-50943515D01*
X59438399Y-51096243D01*
X59438399Y-51096245D01*
X59438399Y-51264346D01*
X59438400Y-51264359D01*
X59438400Y-62043731D01*
X59418715Y-62110770D01*
X59383291Y-62146833D01*
X59257011Y-62231210D01*
X59257007Y-62231213D01*
X59145513Y-62342707D01*
X59145510Y-62342711D01*
X59057909Y-62473814D01*
X59057902Y-62473827D01*
X58997564Y-62619498D01*
X58997561Y-62619510D01*
X58966800Y-62774153D01*
X58966800Y-62821807D01*
X58957363Y-62869255D01*
X58955724Y-62873210D01*
X58955723Y-62873215D01*
X58914799Y-63025943D01*
X58914799Y-63025945D01*
X58914799Y-63184054D01*
X58914798Y-63184054D01*
X58938702Y-63273263D01*
X58955723Y-63336785D01*
X59034781Y-63473716D01*
X59034783Y-63473718D01*
X59130481Y-63569416D01*
X59163966Y-63630739D01*
X59166800Y-63657097D01*
X59166800Y-64891130D01*
X59166799Y-64891148D01*
X59166799Y-65056854D01*
X59166798Y-65056854D01*
X59207723Y-65209585D01*
X59236658Y-65259700D01*
X59236659Y-65259704D01*
X59236660Y-65259704D01*
X59286779Y-65346514D01*
X59286781Y-65346517D01*
X59405649Y-65465385D01*
X59405655Y-65465390D01*
X60812725Y-66872460D01*
X60846210Y-66933783D01*
X60846661Y-66935949D01*
X60877561Y-67091291D01*
X60877564Y-67091301D01*
X60937902Y-67236972D01*
X60937909Y-67236985D01*
X61025902Y-67368674D01*
X61046780Y-67435351D01*
X61046800Y-67437565D01*
X61046800Y-74875500D01*
X61027115Y-74942539D01*
X60974311Y-74988294D01*
X60922800Y-74999500D01*
X60881903Y-74999500D01*
X60648631Y-75036446D01*
X60424003Y-75109433D01*
X60213566Y-75216657D01*
X60140426Y-75269797D01*
X60022490Y-75355483D01*
X60022488Y-75355485D01*
X60022487Y-75355485D01*
X59855485Y-75522487D01*
X59855485Y-75522488D01*
X59855483Y-75522490D01*
X59823041Y-75567143D01*
X59716657Y-75713566D01*
X59609433Y-75924003D01*
X59536446Y-76148631D01*
X59499500Y-76381902D01*
X59499500Y-76618097D01*
X59536446Y-76851368D01*
X59609433Y-77075996D01*
X59661110Y-77177416D01*
X59716657Y-77286433D01*
X59855483Y-77477510D01*
X60022490Y-77644517D01*
X60213567Y-77783343D01*
X60312991Y-77834002D01*
X60424003Y-77890566D01*
X60424005Y-77890566D01*
X60424008Y-77890568D01*
X60544412Y-77929689D01*
X60648631Y-77963553D01*
X60881903Y-78000500D01*
X60881908Y-78000500D01*
X61118097Y-78000500D01*
X61351368Y-77963553D01*
X61381735Y-77953686D01*
X61575992Y-77890568D01*
X61786433Y-77783343D01*
X61977510Y-77644517D01*
X62144517Y-77477510D01*
X62283343Y-77286433D01*
X62390568Y-77075992D01*
X62463553Y-76851368D01*
X62484483Y-76719221D01*
X62500500Y-76618097D01*
X62500500Y-76381902D01*
X64499500Y-76381902D01*
X64499500Y-76618097D01*
X64536446Y-76851368D01*
X64609433Y-77075996D01*
X64661110Y-77177416D01*
X64716657Y-77286433D01*
X64855483Y-77477510D01*
X65022490Y-77644517D01*
X65213567Y-77783343D01*
X65312991Y-77834002D01*
X65424003Y-77890566D01*
X65424005Y-77890566D01*
X65424008Y-77890568D01*
X65544412Y-77929689D01*
X65648631Y-77963553D01*
X65881903Y-78000500D01*
X65881908Y-78000500D01*
X66118097Y-78000500D01*
X66351368Y-77963553D01*
X66381735Y-77953686D01*
X66575992Y-77890568D01*
X66786433Y-77783343D01*
X66977510Y-77644517D01*
X67144517Y-77477510D01*
X67283343Y-77286433D01*
X67390568Y-77075992D01*
X67463553Y-76851368D01*
X67484483Y-76719221D01*
X67500500Y-76618097D01*
X67500500Y-76381903D01*
X67499945Y-76378399D01*
X67499945Y-76378397D01*
X67497838Y-76365092D01*
X69239500Y-76365092D01*
X69239500Y-76514907D01*
X69268723Y-76661822D01*
X69268725Y-76661830D01*
X69326051Y-76800229D01*
X69326056Y-76800238D01*
X69409280Y-76924790D01*
X69409283Y-76924794D01*
X69515205Y-77030716D01*
X69515209Y-77030719D01*
X69639761Y-77113943D01*
X69639767Y-77113946D01*
X69639768Y-77113947D01*
X69778170Y-77171275D01*
X69925092Y-77200499D01*
X69925096Y-77200500D01*
X69925097Y-77200500D01*
X70074904Y-77200500D01*
X70074905Y-77200499D01*
X70221830Y-77171275D01*
X70360232Y-77113947D01*
X70484791Y-77030719D01*
X70590719Y-76924791D01*
X70673947Y-76800232D01*
X70731275Y-76661830D01*
X70760500Y-76514903D01*
X70760500Y-76365097D01*
X70731275Y-76218170D01*
X70673947Y-76079768D01*
X70673946Y-76079767D01*
X70673943Y-76079761D01*
X70590719Y-75955209D01*
X70590716Y-75955205D01*
X70484794Y-75849283D01*
X70484790Y-75849280D01*
X70360238Y-75766056D01*
X70360229Y-75766051D01*
X70221830Y-75708725D01*
X70221822Y-75708723D01*
X70074907Y-75679500D01*
X70074903Y-75679500D01*
X69925097Y-75679500D01*
X69925092Y-75679500D01*
X69778177Y-75708723D01*
X69778169Y-75708725D01*
X69639770Y-75766051D01*
X69639761Y-75766056D01*
X69515209Y-75849280D01*
X69515205Y-75849283D01*
X69409283Y-75955205D01*
X69409280Y-75955209D01*
X69326056Y-76079761D01*
X69326051Y-76079770D01*
X69268725Y-76218169D01*
X69268723Y-76218177D01*
X69239500Y-76365092D01*
X67497838Y-76365092D01*
X67463553Y-76148631D01*
X67429689Y-76044412D01*
X67390568Y-75924008D01*
X67390566Y-75924005D01*
X67390566Y-75924003D01*
X67283342Y-75713566D01*
X67279825Y-75708725D01*
X67144517Y-75522490D01*
X66977510Y-75355483D01*
X66786433Y-75216657D01*
X66758735Y-75202544D01*
X66575996Y-75109433D01*
X66351368Y-75036446D01*
X66118097Y-74999500D01*
X66118092Y-74999500D01*
X65881908Y-74999500D01*
X65881903Y-74999500D01*
X65648631Y-75036446D01*
X65424003Y-75109433D01*
X65213566Y-75216657D01*
X65140426Y-75269797D01*
X65022490Y-75355483D01*
X65022488Y-75355485D01*
X65022487Y-75355485D01*
X64855485Y-75522487D01*
X64855485Y-75522488D01*
X64855483Y-75522490D01*
X64823041Y-75567143D01*
X64716657Y-75713566D01*
X64609433Y-75924003D01*
X64536446Y-76148631D01*
X64499500Y-76381902D01*
X62500500Y-76381902D01*
X62463553Y-76148631D01*
X62429689Y-76044412D01*
X62390568Y-75924008D01*
X62390566Y-75924005D01*
X62390566Y-75924003D01*
X62283342Y-75713566D01*
X62279823Y-75708723D01*
X62271481Y-75697241D01*
X62248002Y-75631436D01*
X62247800Y-75624356D01*
X62247800Y-67437565D01*
X62267485Y-67370526D01*
X62268698Y-67368674D01*
X62356690Y-67236985D01*
X62356690Y-67236984D01*
X62356694Y-67236979D01*
X62417037Y-67091297D01*
X62447800Y-66936642D01*
X62447800Y-66778958D01*
X62447800Y-66778955D01*
X62447799Y-66778953D01*
X62417038Y-66624310D01*
X62417037Y-66624303D01*
X62368629Y-66507435D01*
X62356697Y-66478627D01*
X62356690Y-66478614D01*
X62269089Y-66347511D01*
X62269086Y-66347507D01*
X62157592Y-66236013D01*
X62157588Y-66236010D01*
X62026485Y-66148409D01*
X62026472Y-66148402D01*
X61880801Y-66088064D01*
X61880791Y-66088061D01*
X61725449Y-66057161D01*
X61663538Y-66024776D01*
X61661960Y-66023225D01*
X60404119Y-64765384D01*
X60370634Y-64704061D01*
X60367800Y-64677703D01*
X60367800Y-63751197D01*
X60387485Y-63684158D01*
X60440289Y-63638403D01*
X60509447Y-63628459D01*
X60573003Y-63657484D01*
X60579481Y-63663516D01*
X60846738Y-63930773D01*
X60880223Y-63992096D01*
X60875239Y-64061788D01*
X60866446Y-64080451D01*
X60853824Y-64102313D01*
X60853823Y-64102316D01*
X60812900Y-64255043D01*
X60812900Y-64413157D01*
X60815318Y-64422179D01*
X60853823Y-64565883D01*
X60853826Y-64565890D01*
X60932875Y-64702809D01*
X60932881Y-64702817D01*
X61049114Y-64819050D01*
X61064533Y-64837838D01*
X61068908Y-64844385D01*
X61068915Y-64844394D01*
X61180407Y-64955886D01*
X61180411Y-64955889D01*
X61311514Y-65043490D01*
X61311527Y-65043497D01*
X61457198Y-65103835D01*
X61457203Y-65103837D01*
X61611853Y-65134599D01*
X61611856Y-65134600D01*
X61611858Y-65134600D01*
X61769544Y-65134600D01*
X61769545Y-65134599D01*
X61924197Y-65103837D01*
X62069879Y-65043494D01*
X62200989Y-64955889D01*
X62312489Y-64844389D01*
X62400094Y-64713279D01*
X62404428Y-64702817D01*
X62460435Y-64567601D01*
X62460437Y-64567597D01*
X62491200Y-64412942D01*
X62491200Y-64255258D01*
X62491200Y-64255255D01*
X62491199Y-64255253D01*
X62478182Y-64189812D01*
X62460437Y-64100603D01*
X62452090Y-64080451D01*
X62400097Y-63954927D01*
X62400090Y-63954914D01*
X62312489Y-63823811D01*
X62312486Y-63823807D01*
X62298618Y-63809939D01*
X62272350Y-63771163D01*
X62268833Y-63762970D01*
X62250277Y-63693715D01*
X62210434Y-63624706D01*
X62171220Y-63556784D01*
X62059416Y-63444980D01*
X62059415Y-63444979D01*
X62055085Y-63440649D01*
X62055074Y-63440639D01*
X60675719Y-62061284D01*
X60642234Y-61999961D01*
X60639400Y-61973603D01*
X60639400Y-56112700D01*
X60659085Y-56045661D01*
X60711889Y-55999906D01*
X60763400Y-55988700D01*
X60767844Y-55988700D01*
X60767845Y-55988699D01*
X60922497Y-55957937D01*
X61068179Y-55897594D01*
X61199289Y-55809989D01*
X61310789Y-55698489D01*
X61398394Y-55567379D01*
X61458737Y-55421697D01*
X61478113Y-55324285D01*
X61489638Y-55266350D01*
X61522023Y-55204439D01*
X61523525Y-55202909D01*
X61781613Y-54944821D01*
X61781616Y-54944820D01*
X61893420Y-54833016D01*
X61943539Y-54746204D01*
X61972477Y-54696085D01*
X62013400Y-54543358D01*
X62013400Y-54385243D01*
X62013400Y-53319065D01*
X62033085Y-53252026D01*
X62034298Y-53250174D01*
X62122290Y-53118485D01*
X62122290Y-53118484D01*
X62122294Y-53118479D01*
X62182637Y-52972797D01*
X62213400Y-52818142D01*
X62213400Y-52660458D01*
X62213400Y-52660455D01*
X62213399Y-52660453D01*
X62185582Y-52520609D01*
X62182637Y-52505803D01*
X62182635Y-52505798D01*
X62122297Y-52360127D01*
X62122290Y-52360114D01*
X62034689Y-52229011D01*
X62034686Y-52229007D01*
X61923192Y-52117513D01*
X61923188Y-52117510D01*
X61792085Y-52029909D01*
X61792072Y-52029902D01*
X61646401Y-51969564D01*
X61646389Y-51969561D01*
X61491745Y-51938800D01*
X61491742Y-51938800D01*
X61334058Y-51938800D01*
X61334055Y-51938800D01*
X61179410Y-51969561D01*
X61179398Y-51969564D01*
X61033727Y-52029902D01*
X61033714Y-52029909D01*
X60902611Y-52117510D01*
X60902607Y-52117513D01*
X60851081Y-52169040D01*
X60789758Y-52202525D01*
X60720066Y-52197541D01*
X60664133Y-52155669D01*
X60639716Y-52090205D01*
X60639400Y-52081359D01*
X60639400Y-51475397D01*
X60648044Y-51445956D01*
X60654568Y-51415970D01*
X60658322Y-51410954D01*
X60659085Y-51408358D01*
X60675713Y-51387721D01*
X60831563Y-51231871D01*
X60892883Y-51198389D01*
X60895050Y-51197938D01*
X60952985Y-51186413D01*
X61050397Y-51167037D01*
X61196079Y-51106694D01*
X61239919Y-51077400D01*
X61306592Y-51056524D01*
X61373973Y-51075008D01*
X61396488Y-51092823D01*
X65144681Y-54841016D01*
X65178166Y-54902339D01*
X65181000Y-54928697D01*
X65181000Y-69116434D01*
X65161315Y-69183473D01*
X65160102Y-69185325D01*
X65072109Y-69317014D01*
X65072102Y-69317027D01*
X65011764Y-69462698D01*
X65011761Y-69462710D01*
X64981000Y-69617353D01*
X64981000Y-69775046D01*
X65011761Y-69929689D01*
X65011764Y-69929701D01*
X65072102Y-70075372D01*
X65072109Y-70075385D01*
X65159710Y-70206488D01*
X65159713Y-70206492D01*
X65271207Y-70317986D01*
X65271211Y-70317989D01*
X65402314Y-70405590D01*
X65402327Y-70405597D01*
X65513286Y-70451557D01*
X65548003Y-70465937D01*
X65702653Y-70496699D01*
X65702656Y-70496700D01*
X65702658Y-70496700D01*
X65860344Y-70496700D01*
X65860345Y-70496699D01*
X66014997Y-70465937D01*
X66160679Y-70405594D01*
X66291789Y-70317989D01*
X66403289Y-70206489D01*
X66490894Y-70075379D01*
X66551237Y-69929697D01*
X66582000Y-69775042D01*
X66582000Y-69617358D01*
X66582000Y-69617355D01*
X66581999Y-69617353D01*
X66551238Y-69462710D01*
X66551237Y-69462703D01*
X66551235Y-69462698D01*
X66490897Y-69317027D01*
X66490890Y-69317014D01*
X66402898Y-69185325D01*
X66382020Y-69118647D01*
X66382000Y-69116434D01*
X66382000Y-55692097D01*
X66401685Y-55625058D01*
X66454489Y-55579303D01*
X66523647Y-55569359D01*
X66587203Y-55598384D01*
X66593681Y-55604416D01*
X70423381Y-59434116D01*
X70456866Y-59495439D01*
X70459700Y-59521797D01*
X70459700Y-73473530D01*
X70459699Y-73473548D01*
X70459699Y-73639254D01*
X70459698Y-73639254D01*
X70500623Y-73791985D01*
X70529558Y-73842100D01*
X70529559Y-73842104D01*
X70529560Y-73842104D01*
X70579679Y-73928914D01*
X70579681Y-73928917D01*
X70698549Y-74047785D01*
X70698555Y-74047790D01*
X71746231Y-75095466D01*
X71779716Y-75156789D01*
X71781023Y-75202544D01*
X71749500Y-75401576D01*
X71749500Y-75598422D01*
X71780290Y-75792826D01*
X71841117Y-75980029D01*
X71891937Y-76079768D01*
X71930476Y-76155405D01*
X72046172Y-76314646D01*
X72185354Y-76453828D01*
X72344595Y-76569524D01*
X72427455Y-76611743D01*
X72519970Y-76658882D01*
X72519972Y-76658882D01*
X72519975Y-76658884D01*
X72620317Y-76691487D01*
X72707173Y-76719709D01*
X72901578Y-76750500D01*
X72901583Y-76750500D01*
X73098422Y-76750500D01*
X73292826Y-76719709D01*
X73294328Y-76719221D01*
X73480025Y-76658884D01*
X73655405Y-76569524D01*
X73814646Y-76453828D01*
X73953828Y-76314646D01*
X74069524Y-76155405D01*
X74158884Y-75980025D01*
X74219709Y-75792826D01*
X74223950Y-75766051D01*
X74250500Y-75598422D01*
X74250500Y-75401577D01*
X74219709Y-75207173D01*
X74187951Y-75109433D01*
X74158884Y-75019975D01*
X74158882Y-75019972D01*
X74158882Y-75019970D01*
X74095007Y-74894609D01*
X74069524Y-74844595D01*
X73953828Y-74685354D01*
X73814646Y-74546172D01*
X73655405Y-74430476D01*
X73480029Y-74341117D01*
X73292826Y-74280290D01*
X73098422Y-74249500D01*
X73098417Y-74249500D01*
X72901583Y-74249500D01*
X72901577Y-74249500D01*
X72702544Y-74281023D01*
X72633251Y-74272068D01*
X72595466Y-74246231D01*
X72306343Y-73957108D01*
X72272858Y-73895785D01*
X72277842Y-73826093D01*
X72319714Y-73770160D01*
X72385178Y-73745743D01*
X72406617Y-73746068D01*
X72449992Y-73750500D01*
X72449997Y-73750500D01*
X73550003Y-73750500D01*
X73550008Y-73750500D01*
X73652797Y-73739999D01*
X73819334Y-73684814D01*
X73857503Y-73661270D01*
X73924894Y-73642830D01*
X73991558Y-73663752D01*
X74036328Y-73717393D01*
X74046600Y-73766809D01*
X74046600Y-74060430D01*
X74046599Y-74060448D01*
X74046599Y-74226154D01*
X74046598Y-74226154D01*
X74046599Y-74226157D01*
X74087523Y-74378885D01*
X74087524Y-74378887D01*
X74087523Y-74378887D01*
X74095948Y-74393478D01*
X74095949Y-74393479D01*
X74166577Y-74515812D01*
X74166581Y-74515817D01*
X74285449Y-74634685D01*
X74285455Y-74634690D01*
X74746231Y-75095466D01*
X74779716Y-75156789D01*
X74781023Y-75202544D01*
X74749500Y-75401576D01*
X74749500Y-75598422D01*
X74780290Y-75792826D01*
X74841117Y-75980029D01*
X74891937Y-76079768D01*
X74930476Y-76155405D01*
X75046172Y-76314646D01*
X75185354Y-76453828D01*
X75344595Y-76569524D01*
X75427455Y-76611743D01*
X75519970Y-76658882D01*
X75519972Y-76658882D01*
X75519975Y-76658884D01*
X75620317Y-76691487D01*
X75707173Y-76719709D01*
X75901578Y-76750500D01*
X75901583Y-76750500D01*
X76098422Y-76750500D01*
X76292826Y-76719709D01*
X76294328Y-76719221D01*
X76480025Y-76658884D01*
X76655405Y-76569524D01*
X76814646Y-76453828D01*
X76953828Y-76314646D01*
X77069524Y-76155405D01*
X77158884Y-75980025D01*
X77219709Y-75792826D01*
X77223950Y-75766051D01*
X77250500Y-75598422D01*
X77250500Y-75401577D01*
X77219709Y-75207173D01*
X77187951Y-75109433D01*
X77158884Y-75019975D01*
X77158882Y-75019972D01*
X77158882Y-75019970D01*
X77095007Y-74894609D01*
X77069524Y-74844595D01*
X76953828Y-74685354D01*
X76814646Y-74546172D01*
X76655405Y-74430476D01*
X76480029Y-74341117D01*
X76292826Y-74280290D01*
X76098422Y-74249500D01*
X76098417Y-74249500D01*
X75901583Y-74249500D01*
X75901577Y-74249500D01*
X75702544Y-74281023D01*
X75633251Y-74272068D01*
X75595466Y-74246231D01*
X75283919Y-73934683D01*
X75269215Y-73907755D01*
X75252623Y-73881937D01*
X75251731Y-73875736D01*
X75250434Y-73873360D01*
X75247600Y-73847002D01*
X75247600Y-73722452D01*
X75267285Y-73655413D01*
X75320089Y-73609658D01*
X75389247Y-73599714D01*
X75427895Y-73611967D01*
X75519970Y-73658882D01*
X75519972Y-73658882D01*
X75519975Y-73658884D01*
X75599776Y-73684813D01*
X75707173Y-73719709D01*
X75901578Y-73750500D01*
X75901583Y-73750500D01*
X76098422Y-73750500D01*
X76292826Y-73719709D01*
X76299954Y-73717393D01*
X76480025Y-73658884D01*
X76553005Y-73621698D01*
X76621674Y-73608803D01*
X76686415Y-73635079D01*
X76726672Y-73692186D01*
X76733300Y-73732184D01*
X76733300Y-73912957D01*
X76769429Y-74047790D01*
X76774223Y-74065683D01*
X76774226Y-74065690D01*
X76853275Y-74202609D01*
X76853278Y-74202613D01*
X76853280Y-74202616D01*
X76922732Y-74272068D01*
X76970478Y-74319814D01*
X76971295Y-74320530D01*
X77746231Y-75095466D01*
X77779716Y-75156789D01*
X77781023Y-75202544D01*
X77749500Y-75401576D01*
X77749500Y-75598422D01*
X77780290Y-75792826D01*
X77841117Y-75980029D01*
X77891937Y-76079768D01*
X77930476Y-76155405D01*
X78046172Y-76314646D01*
X78185354Y-76453828D01*
X78344595Y-76569524D01*
X78427455Y-76611743D01*
X78519970Y-76658882D01*
X78519972Y-76658882D01*
X78519975Y-76658884D01*
X78620317Y-76691487D01*
X78707173Y-76719709D01*
X78901578Y-76750500D01*
X78901583Y-76750500D01*
X79098422Y-76750500D01*
X79292826Y-76719709D01*
X79294328Y-76719221D01*
X79480025Y-76658884D01*
X79655405Y-76569524D01*
X79814646Y-76453828D01*
X79953828Y-76314646D01*
X80069524Y-76155405D01*
X80158884Y-75980025D01*
X80219709Y-75792826D01*
X80223950Y-75766051D01*
X80250500Y-75598422D01*
X80250500Y-75401617D01*
X80750000Y-75401617D01*
X80750000Y-75598382D01*
X80780778Y-75792705D01*
X80841581Y-75979835D01*
X80930905Y-76155145D01*
X80956319Y-76190125D01*
X80956320Y-76190125D01*
X81508871Y-75637574D01*
X81524755Y-75696853D01*
X81591898Y-75813147D01*
X81686853Y-75908102D01*
X81803147Y-75975245D01*
X81862424Y-75991128D01*
X81309873Y-76543677D01*
X81309873Y-76543678D01*
X81344858Y-76569096D01*
X81520164Y-76658418D01*
X81707294Y-76719221D01*
X81901618Y-76750000D01*
X82098382Y-76750000D01*
X82292705Y-76719221D01*
X82479835Y-76658418D01*
X82655143Y-76569095D01*
X82690125Y-76543678D01*
X82690126Y-76543678D01*
X82511540Y-76365092D01*
X84239500Y-76365092D01*
X84239500Y-76514907D01*
X84268723Y-76661822D01*
X84268725Y-76661830D01*
X84326051Y-76800229D01*
X84326056Y-76800238D01*
X84409280Y-76924790D01*
X84409283Y-76924794D01*
X84515205Y-77030716D01*
X84515209Y-77030719D01*
X84639761Y-77113943D01*
X84639767Y-77113946D01*
X84639768Y-77113947D01*
X84778170Y-77171275D01*
X84925092Y-77200499D01*
X84925096Y-77200500D01*
X84925097Y-77200500D01*
X85074904Y-77200500D01*
X85074905Y-77200499D01*
X85221830Y-77171275D01*
X85360232Y-77113947D01*
X85484791Y-77030719D01*
X85590719Y-76924791D01*
X85673947Y-76800232D01*
X85731275Y-76661830D01*
X85760500Y-76514903D01*
X85760500Y-76365097D01*
X85731275Y-76218170D01*
X85673947Y-76079768D01*
X85673946Y-76079767D01*
X85673943Y-76079761D01*
X85590719Y-75955209D01*
X85590716Y-75955205D01*
X85484794Y-75849283D01*
X85484790Y-75849280D01*
X85360238Y-75766056D01*
X85360229Y-75766051D01*
X85221830Y-75708725D01*
X85221822Y-75708723D01*
X85074907Y-75679500D01*
X85074903Y-75679500D01*
X84925097Y-75679500D01*
X84925092Y-75679500D01*
X84778177Y-75708723D01*
X84778169Y-75708725D01*
X84639770Y-75766051D01*
X84639761Y-75766056D01*
X84515209Y-75849280D01*
X84515205Y-75849283D01*
X84409283Y-75955205D01*
X84409280Y-75955209D01*
X84326056Y-76079761D01*
X84326051Y-76079770D01*
X84268725Y-76218169D01*
X84268723Y-76218177D01*
X84239500Y-76365092D01*
X82511540Y-76365092D01*
X82137575Y-75991127D01*
X82196853Y-75975245D01*
X82313147Y-75908102D01*
X82408102Y-75813147D01*
X82475245Y-75696853D01*
X82491127Y-75637575D01*
X83043678Y-76190126D01*
X83043678Y-76190125D01*
X83069095Y-76155143D01*
X83158418Y-75979835D01*
X83219221Y-75792705D01*
X83250000Y-75598382D01*
X83250000Y-75401617D01*
X83219221Y-75207294D01*
X83158418Y-75020164D01*
X83069096Y-74844858D01*
X83043678Y-74809873D01*
X83043677Y-74809873D01*
X82491127Y-75362423D01*
X82475245Y-75303147D01*
X82408102Y-75186853D01*
X82313147Y-75091898D01*
X82196853Y-75024755D01*
X82137574Y-75008871D01*
X82690125Y-74456320D01*
X82690125Y-74456319D01*
X82655145Y-74430905D01*
X82479835Y-74341581D01*
X82292705Y-74280778D01*
X82098382Y-74250000D01*
X81901618Y-74250000D01*
X81707294Y-74280778D01*
X81520161Y-74341582D01*
X81344863Y-74430899D01*
X81344859Y-74430902D01*
X81309873Y-74456320D01*
X81309872Y-74456320D01*
X81862425Y-75008871D01*
X81803147Y-75024755D01*
X81686853Y-75091898D01*
X81591898Y-75186853D01*
X81524755Y-75303147D01*
X81508871Y-75362424D01*
X80956320Y-74809872D01*
X80956320Y-74809873D01*
X80930902Y-74844859D01*
X80930899Y-74844863D01*
X80841582Y-75020161D01*
X80780778Y-75207294D01*
X80750000Y-75401617D01*
X80250500Y-75401617D01*
X80250500Y-75401577D01*
X80219709Y-75207173D01*
X80187951Y-75109433D01*
X80158884Y-75019975D01*
X80158882Y-75019972D01*
X80158882Y-75019970D01*
X80095007Y-74894609D01*
X80069524Y-74844595D01*
X79953828Y-74685354D01*
X79814646Y-74546172D01*
X79655405Y-74430476D01*
X79480029Y-74341117D01*
X79292826Y-74280290D01*
X79098422Y-74249500D01*
X79098417Y-74249500D01*
X78901583Y-74249500D01*
X78901577Y-74249500D01*
X78702544Y-74281023D01*
X78633251Y-74272068D01*
X78595466Y-74246231D01*
X77970619Y-73621384D01*
X77955915Y-73594456D01*
X77939323Y-73568638D01*
X77938431Y-73562437D01*
X77937134Y-73560061D01*
X77934300Y-73533703D01*
X77934300Y-73502136D01*
X77953985Y-73435097D01*
X78006789Y-73389342D01*
X78075947Y-73379398D01*
X78139503Y-73408423D01*
X78145981Y-73414455D01*
X78185354Y-73453828D01*
X78344595Y-73569524D01*
X78403847Y-73599714D01*
X78519970Y-73658882D01*
X78519972Y-73658882D01*
X78519975Y-73658884D01*
X78599776Y-73684813D01*
X78707173Y-73719709D01*
X78901578Y-73750500D01*
X78901583Y-73750500D01*
X79098422Y-73750500D01*
X79292826Y-73719709D01*
X79299954Y-73717393D01*
X79480025Y-73658884D01*
X79655405Y-73569524D01*
X79814646Y-73453828D01*
X79953828Y-73314646D01*
X80069524Y-73155405D01*
X80158884Y-72980025D01*
X80219709Y-72792826D01*
X80250500Y-72598422D01*
X80250500Y-72401577D01*
X80749500Y-72401577D01*
X80749500Y-72598422D01*
X80780290Y-72792826D01*
X80841117Y-72980029D01*
X80929147Y-73152797D01*
X80930476Y-73155405D01*
X81046172Y-73314646D01*
X81185354Y-73453828D01*
X81344595Y-73569524D01*
X81403847Y-73599714D01*
X81519970Y-73658882D01*
X81519972Y-73658882D01*
X81519975Y-73658884D01*
X81599776Y-73684813D01*
X81707173Y-73719709D01*
X81901578Y-73750500D01*
X81901583Y-73750500D01*
X82098422Y-73750500D01*
X82292826Y-73719709D01*
X82299954Y-73717393D01*
X82480025Y-73658884D01*
X82655405Y-73569524D01*
X82814646Y-73453828D01*
X82953828Y-73314646D01*
X83069524Y-73155405D01*
X83158884Y-72980025D01*
X83219709Y-72792826D01*
X83250500Y-72598422D01*
X83250500Y-72401577D01*
X83219709Y-72207173D01*
X83158882Y-72019970D01*
X83111743Y-71927455D01*
X83069524Y-71844595D01*
X82953828Y-71685354D01*
X82814646Y-71546172D01*
X82655405Y-71430476D01*
X82600499Y-71402500D01*
X82480029Y-71341117D01*
X82292826Y-71280290D01*
X82098422Y-71249500D01*
X82098417Y-71249500D01*
X81901583Y-71249500D01*
X81901578Y-71249500D01*
X81707173Y-71280290D01*
X81519970Y-71341117D01*
X81344594Y-71430476D01*
X81269227Y-71485234D01*
X81185354Y-71546172D01*
X81185352Y-71546174D01*
X81185351Y-71546174D01*
X81046174Y-71685351D01*
X81046174Y-71685352D01*
X81046172Y-71685354D01*
X80996485Y-71753741D01*
X80930476Y-71844594D01*
X80841117Y-72019970D01*
X80780290Y-72207173D01*
X80749500Y-72401577D01*
X80250500Y-72401577D01*
X80219709Y-72207173D01*
X80158882Y-72019970D01*
X80111743Y-71927455D01*
X80069524Y-71844595D01*
X79953828Y-71685354D01*
X79814646Y-71546172D01*
X79760332Y-71506710D01*
X79651614Y-71427721D01*
X79608949Y-71372390D01*
X79600500Y-71327403D01*
X79600500Y-58741442D01*
X79599553Y-58737906D01*
X79596876Y-58727916D01*
X79559577Y-58588715D01*
X79530639Y-58538595D01*
X79480520Y-58451784D01*
X79368716Y-58339980D01*
X79368715Y-58339979D01*
X79364385Y-58335649D01*
X79364374Y-58335639D01*
X78389888Y-57361153D01*
X80962700Y-57361153D01*
X80962700Y-57518846D01*
X80993461Y-57673489D01*
X80993464Y-57673501D01*
X81053802Y-57819172D01*
X81053809Y-57819185D01*
X81141410Y-57950288D01*
X81141413Y-57950292D01*
X81252907Y-58061786D01*
X81256158Y-58064454D01*
X81295493Y-58122199D01*
X81297364Y-58192044D01*
X81292056Y-58207759D01*
X81258363Y-58289103D01*
X81258361Y-58289110D01*
X81227600Y-58443753D01*
X81227600Y-58601446D01*
X81258361Y-58756089D01*
X81258364Y-58756101D01*
X81318702Y-58901772D01*
X81318709Y-58901785D01*
X81406310Y-59032888D01*
X81406313Y-59032892D01*
X81517807Y-59144386D01*
X81517811Y-59144389D01*
X81648914Y-59231990D01*
X81648927Y-59231997D01*
X81794598Y-59292335D01*
X81794603Y-59292337D01*
X81949253Y-59323099D01*
X81949256Y-59323100D01*
X81949258Y-59323100D01*
X82106944Y-59323100D01*
X82106945Y-59323099D01*
X82261597Y-59292337D01*
X82407279Y-59231994D01*
X82538389Y-59144389D01*
X82649889Y-59032889D01*
X82737494Y-58901779D01*
X82797837Y-58756097D01*
X82821366Y-58637812D01*
X82829789Y-58595468D01*
X82831593Y-58595826D01*
X82844095Y-58556883D01*
X82845518Y-58554417D01*
X82845520Y-58554416D01*
X82924577Y-58417484D01*
X82965501Y-58264757D01*
X82965501Y-58106642D01*
X82965501Y-58099047D01*
X82965500Y-58099029D01*
X82965500Y-53735982D01*
X82985185Y-53668943D01*
X82986398Y-53667091D01*
X83025094Y-53609179D01*
X83085437Y-53463497D01*
X83116200Y-53308842D01*
X83116200Y-53151158D01*
X83116200Y-53151155D01*
X83116199Y-53151153D01*
X83106024Y-53099999D01*
X83085437Y-52996503D01*
X83079436Y-52982014D01*
X83025097Y-52850827D01*
X83025090Y-52850814D01*
X82937489Y-52719711D01*
X82937486Y-52719707D01*
X82825992Y-52608213D01*
X82825988Y-52608210D01*
X82694885Y-52520609D01*
X82694872Y-52520602D01*
X82549201Y-52460264D01*
X82549191Y-52460261D01*
X82393908Y-52429373D01*
X82331997Y-52396988D01*
X82297423Y-52336272D01*
X82294100Y-52307756D01*
X82294100Y-50148984D01*
X82313785Y-50081945D01*
X82366589Y-50036190D01*
X82370648Y-50034423D01*
X82459073Y-49997797D01*
X82459076Y-49997795D01*
X82459079Y-49997794D01*
X82590189Y-49910189D01*
X82701689Y-49798689D01*
X82789294Y-49667579D01*
X82849637Y-49521897D01*
X82880400Y-49367242D01*
X82880400Y-49209558D01*
X82880400Y-49209555D01*
X82880399Y-49209553D01*
X82858351Y-49098713D01*
X82849637Y-49054903D01*
X82810411Y-48960202D01*
X82789297Y-48909227D01*
X82789290Y-48909214D01*
X82701689Y-48778111D01*
X82701686Y-48778107D01*
X82590192Y-48666613D01*
X82590188Y-48666610D01*
X82459085Y-48579009D01*
X82459072Y-48579002D01*
X82313401Y-48518664D01*
X82313389Y-48518661D01*
X82158745Y-48487900D01*
X82158742Y-48487900D01*
X82001058Y-48487900D01*
X82001055Y-48487900D01*
X81846410Y-48518661D01*
X81846398Y-48518664D01*
X81700727Y-48579002D01*
X81700714Y-48579009D01*
X81569611Y-48666610D01*
X81569607Y-48666613D01*
X81458113Y-48778107D01*
X81458110Y-48778111D01*
X81370509Y-48909214D01*
X81370502Y-48909227D01*
X81310164Y-49054898D01*
X81310161Y-49054908D01*
X81279262Y-49210248D01*
X81257673Y-49259339D01*
X81252050Y-49267013D01*
X81213080Y-49305984D01*
X81177713Y-49367242D01*
X81174342Y-49373081D01*
X81151769Y-49412179D01*
X81134023Y-49442915D01*
X81093099Y-49595643D01*
X81093099Y-49595645D01*
X81093099Y-49763746D01*
X81093100Y-49763759D01*
X81093100Y-56964398D01*
X81073415Y-57031437D01*
X81072203Y-57033288D01*
X81053808Y-57060817D01*
X81053802Y-57060828D01*
X80993464Y-57206498D01*
X80993461Y-57206510D01*
X80962700Y-57361153D01*
X78389888Y-57361153D01*
X75438419Y-54409684D01*
X75404934Y-54348361D01*
X75402100Y-54322003D01*
X75402100Y-44394916D01*
X75421785Y-44327877D01*
X75474589Y-44282122D01*
X75501909Y-44273299D01*
X75557904Y-44262160D01*
X75645497Y-44244737D01*
X75791179Y-44184394D01*
X75922289Y-44096789D01*
X76033789Y-43985289D01*
X76121394Y-43854179D01*
X76181737Y-43708497D01*
X76212500Y-43553842D01*
X76212500Y-43553840D01*
X76212637Y-43553152D01*
X76245021Y-43491241D01*
X76246573Y-43489661D01*
X76249513Y-43486721D01*
X76249516Y-43486720D01*
X76361320Y-43374916D01*
X76417771Y-43277139D01*
X76440377Y-43237985D01*
X76481300Y-43085258D01*
X76481300Y-42927143D01*
X76481300Y-40885053D01*
X78000600Y-40885053D01*
X78000600Y-41042746D01*
X78031361Y-41197389D01*
X78031364Y-41197401D01*
X78091702Y-41343072D01*
X78091709Y-41343085D01*
X78179310Y-41474188D01*
X78179313Y-41474192D01*
X78290807Y-41585686D01*
X78290811Y-41585689D01*
X78421914Y-41673290D01*
X78421927Y-41673297D01*
X78567598Y-41733635D01*
X78567603Y-41733637D01*
X78632247Y-41746495D01*
X78722949Y-41764538D01*
X78784860Y-41796923D01*
X78786439Y-41798474D01*
X78992481Y-42004516D01*
X79025966Y-42065839D01*
X79028800Y-42092197D01*
X79028800Y-47128634D01*
X79009115Y-47195673D01*
X79007902Y-47197525D01*
X78919909Y-47329214D01*
X78919902Y-47329227D01*
X78859564Y-47474898D01*
X78859561Y-47474910D01*
X78828800Y-47629553D01*
X78828800Y-47787246D01*
X78859561Y-47941889D01*
X78859564Y-47941901D01*
X78919902Y-48087572D01*
X78919909Y-48087585D01*
X79007510Y-48218688D01*
X79007513Y-48218692D01*
X79119007Y-48330186D01*
X79119011Y-48330189D01*
X79250114Y-48417790D01*
X79250127Y-48417797D01*
X79395798Y-48478135D01*
X79395803Y-48478137D01*
X79550453Y-48508899D01*
X79550456Y-48508900D01*
X79550458Y-48508900D01*
X79708144Y-48508900D01*
X79708145Y-48508899D01*
X79862797Y-48478137D01*
X80008479Y-48417794D01*
X80139589Y-48330189D01*
X80251089Y-48218689D01*
X80338694Y-48087579D01*
X80399037Y-47941897D01*
X80429800Y-47787242D01*
X80429800Y-47629558D01*
X80429800Y-47629555D01*
X80429799Y-47629553D01*
X80416535Y-47562870D01*
X80399037Y-47474903D01*
X80390306Y-47453825D01*
X80338697Y-47329227D01*
X80338690Y-47329214D01*
X80250698Y-47197525D01*
X80229820Y-47130847D01*
X80229800Y-47128634D01*
X80229800Y-41881160D01*
X80229801Y-41881147D01*
X80229801Y-41713044D01*
X80200598Y-41604060D01*
X80188877Y-41560316D01*
X80139152Y-41474189D01*
X80109824Y-41423390D01*
X80109818Y-41423382D01*
X79635673Y-40949237D01*
X79602188Y-40887914D01*
X79601737Y-40885747D01*
X79590410Y-40828801D01*
X79570837Y-40730403D01*
X79515587Y-40597016D01*
X79510497Y-40584727D01*
X79510490Y-40584714D01*
X79422889Y-40453611D01*
X79422886Y-40453607D01*
X79311392Y-40342113D01*
X79311388Y-40342110D01*
X79180285Y-40254509D01*
X79180272Y-40254502D01*
X79034601Y-40194164D01*
X79034589Y-40194161D01*
X78879945Y-40163400D01*
X78879942Y-40163400D01*
X78722258Y-40163400D01*
X78722255Y-40163400D01*
X78567610Y-40194161D01*
X78567598Y-40194164D01*
X78421927Y-40254502D01*
X78421914Y-40254509D01*
X78290811Y-40342110D01*
X78290807Y-40342113D01*
X78179313Y-40453607D01*
X78179310Y-40453611D01*
X78091709Y-40584714D01*
X78091702Y-40584727D01*
X78031364Y-40730398D01*
X78031361Y-40730410D01*
X78000600Y-40885053D01*
X76481300Y-40885053D01*
X76481300Y-35300265D01*
X76500985Y-35233226D01*
X76502198Y-35231374D01*
X76590190Y-35099685D01*
X76590190Y-35099684D01*
X76590194Y-35099679D01*
X76650537Y-34953997D01*
X76681300Y-34799342D01*
X76681300Y-34641658D01*
X76681300Y-34641655D01*
X76681299Y-34641653D01*
X76650537Y-34487003D01*
X76650535Y-34486998D01*
X76590197Y-34341327D01*
X76590190Y-34341314D01*
X76502589Y-34210211D01*
X76502586Y-34210207D01*
X76391092Y-34098713D01*
X76391088Y-34098710D01*
X76259985Y-34011109D01*
X76259972Y-34011102D01*
X76114301Y-33950764D01*
X76114289Y-33950761D01*
X75959645Y-33920000D01*
X75959642Y-33920000D01*
X75801958Y-33920000D01*
X75801955Y-33920000D01*
X75647310Y-33950761D01*
X75647298Y-33950764D01*
X75573552Y-33981311D01*
X75504083Y-33988780D01*
X75441604Y-33957505D01*
X75405952Y-33897415D01*
X75402100Y-33866750D01*
X75402100Y-30895959D01*
X75402101Y-30895946D01*
X75402101Y-30727845D01*
X75402101Y-30727843D01*
X75361177Y-30575115D01*
X75318098Y-30500500D01*
X75282120Y-30438184D01*
X75170316Y-30326380D01*
X75170315Y-30326379D01*
X75165985Y-30322049D01*
X75165974Y-30322039D01*
X75094212Y-30250277D01*
X75060727Y-30188954D01*
X75065711Y-30119262D01*
X75065712Y-30119261D01*
X75094208Y-30074919D01*
X75240477Y-29928651D01*
X75366683Y-29754944D01*
X75366683Y-29754943D01*
X75369547Y-29751002D01*
X75371478Y-29752405D01*
X75415927Y-29712078D01*
X75484840Y-29700558D01*
X75549042Y-29728125D01*
X75569478Y-29751709D01*
X75570453Y-29751002D01*
X75573316Y-29754943D01*
X75573317Y-29754944D01*
X75699523Y-29928651D01*
X75851349Y-30080477D01*
X76025056Y-30206683D01*
X76091881Y-30240732D01*
X76216366Y-30304161D01*
X76216369Y-30304162D01*
X76318470Y-30337336D01*
X76420573Y-30370511D01*
X76632643Y-30404100D01*
X76632644Y-30404100D01*
X76847356Y-30404100D01*
X76847357Y-30404100D01*
X77059427Y-30370511D01*
X77263633Y-30304161D01*
X77454944Y-30206683D01*
X77628651Y-30080477D01*
X77780477Y-29928651D01*
X77906683Y-29754944D01*
X77906683Y-29754943D01*
X77909547Y-29751002D01*
X77911478Y-29752405D01*
X77955927Y-29712078D01*
X78024840Y-29700558D01*
X78089042Y-29728125D01*
X78109478Y-29751709D01*
X78110453Y-29751002D01*
X78113316Y-29754943D01*
X78113317Y-29754944D01*
X78239523Y-29928651D01*
X78391349Y-30080477D01*
X78565056Y-30206683D01*
X78631881Y-30240732D01*
X78756366Y-30304161D01*
X78756369Y-30304162D01*
X78858470Y-30337336D01*
X78960573Y-30370511D01*
X79172643Y-30404100D01*
X79172644Y-30404100D01*
X79387356Y-30404100D01*
X79387357Y-30404100D01*
X79599427Y-30370511D01*
X79803633Y-30304161D01*
X79994944Y-30206683D01*
X80168651Y-30080477D01*
X80320477Y-29928651D01*
X80446683Y-29754944D01*
X80446683Y-29754943D01*
X80449547Y-29751002D01*
X80451478Y-29752405D01*
X80495927Y-29712078D01*
X80564840Y-29700558D01*
X80629042Y-29728125D01*
X80649478Y-29751709D01*
X80650453Y-29751002D01*
X80653316Y-29754943D01*
X80653317Y-29754944D01*
X80779523Y-29928651D01*
X80931349Y-30080477D01*
X81105056Y-30206683D01*
X81171881Y-30240732D01*
X81296366Y-30304161D01*
X81296369Y-30304162D01*
X81398470Y-30337336D01*
X81500573Y-30370511D01*
X81712643Y-30404100D01*
X81712644Y-30404100D01*
X81927356Y-30404100D01*
X81927357Y-30404100D01*
X82139427Y-30370511D01*
X82343633Y-30304161D01*
X82534944Y-30206683D01*
X82708651Y-30080477D01*
X82860477Y-29928651D01*
X82986683Y-29754944D01*
X82986683Y-29754943D01*
X82989547Y-29751002D01*
X82991478Y-29752405D01*
X83035927Y-29712078D01*
X83104840Y-29700558D01*
X83169042Y-29728125D01*
X83189478Y-29751709D01*
X83190453Y-29751002D01*
X83193316Y-29754943D01*
X83193317Y-29754944D01*
X83319523Y-29928651D01*
X83471349Y-30080477D01*
X83645056Y-30206683D01*
X83711881Y-30240732D01*
X83836366Y-30304161D01*
X83836369Y-30304162D01*
X83938470Y-30337336D01*
X84040573Y-30370511D01*
X84252643Y-30404100D01*
X84252644Y-30404100D01*
X84467356Y-30404100D01*
X84467357Y-30404100D01*
X84679427Y-30370511D01*
X84883633Y-30304161D01*
X84953904Y-30268355D01*
X85022573Y-30255459D01*
X85087314Y-30281735D01*
X85127571Y-30338841D01*
X85134200Y-30378840D01*
X85134200Y-35062818D01*
X85114515Y-35129857D01*
X85061711Y-35175612D01*
X84992553Y-35185556D01*
X84971883Y-35180749D01*
X84827954Y-35133985D01*
X84664654Y-35108121D01*
X84610222Y-35099500D01*
X84389778Y-35099500D01*
X84317201Y-35110995D01*
X84172047Y-35133985D01*
X83962396Y-35202103D01*
X83962393Y-35202104D01*
X83765974Y-35302187D01*
X83587641Y-35431752D01*
X83587636Y-35431756D01*
X83537075Y-35482317D01*
X83475752Y-35515801D01*
X83406060Y-35510816D01*
X83350127Y-35468945D01*
X83333213Y-35437968D01*
X83303354Y-35357913D01*
X83303350Y-35357906D01*
X83217190Y-35242812D01*
X83217187Y-35242809D01*
X83102093Y-35156649D01*
X83102086Y-35156645D01*
X82967379Y-35106403D01*
X82967372Y-35106401D01*
X82907844Y-35100000D01*
X82210000Y-35100000D01*
X82210000Y-36124722D01*
X82133694Y-36080667D01*
X82019244Y-36050000D01*
X81900756Y-36050000D01*
X81786306Y-36080667D01*
X81710000Y-36124722D01*
X81710000Y-35100000D01*
X81012155Y-35100000D01*
X80952627Y-35106401D01*
X80952620Y-35106403D01*
X80817913Y-35156645D01*
X80817906Y-35156649D01*
X80702812Y-35242809D01*
X80702809Y-35242812D01*
X80616649Y-35357906D01*
X80616645Y-35357913D01*
X80566403Y-35492620D01*
X80566401Y-35492627D01*
X80560000Y-35552155D01*
X80560000Y-36250000D01*
X81584722Y-36250000D01*
X81540667Y-36326306D01*
X81510000Y-36440756D01*
X81510000Y-36559244D01*
X81540667Y-36673694D01*
X81584722Y-36750000D01*
X80560000Y-36750000D01*
X80560000Y-37447844D01*
X80566401Y-37507372D01*
X80566403Y-37507379D01*
X80616645Y-37642086D01*
X80616649Y-37642093D01*
X80702809Y-37757187D01*
X80702812Y-37757190D01*
X80817906Y-37843350D01*
X80817913Y-37843354D01*
X80952620Y-37893596D01*
X80952627Y-37893598D01*
X81012155Y-37899999D01*
X81012172Y-37900000D01*
X81710000Y-37900000D01*
X81710000Y-36875277D01*
X81786306Y-36919333D01*
X81900756Y-36950000D01*
X82019244Y-36950000D01*
X82133694Y-36919333D01*
X82210000Y-36875277D01*
X82210000Y-37900000D01*
X82907828Y-37900000D01*
X82907844Y-37899999D01*
X82967372Y-37893598D01*
X82967379Y-37893596D01*
X83102086Y-37843354D01*
X83102093Y-37843350D01*
X83217187Y-37757190D01*
X83217190Y-37757187D01*
X83303350Y-37642093D01*
X83303354Y-37642086D01*
X83333213Y-37562031D01*
X83375084Y-37506097D01*
X83440548Y-37481680D01*
X83508821Y-37496531D01*
X83537076Y-37517683D01*
X83587636Y-37568243D01*
X83587641Y-37568247D01*
X83720948Y-37665099D01*
X83765978Y-37697815D01*
X83882501Y-37757187D01*
X83962393Y-37797895D01*
X83962396Y-37797896D01*
X84028119Y-37819250D01*
X84172049Y-37866015D01*
X84389778Y-37900500D01*
X84389779Y-37900500D01*
X84610221Y-37900500D01*
X84610222Y-37900500D01*
X84827951Y-37866015D01*
X84927236Y-37833755D01*
X84971882Y-37819250D01*
X85041724Y-37817255D01*
X85101556Y-37853336D01*
X85132384Y-37916037D01*
X85134200Y-37937181D01*
X85134200Y-55728030D01*
X85134199Y-55728048D01*
X85134199Y-55893754D01*
X85134198Y-55893754D01*
X85175123Y-56046485D01*
X85203827Y-56096200D01*
X85203828Y-56096204D01*
X85203829Y-56096204D01*
X85253623Y-56182452D01*
X85254179Y-56183414D01*
X85254181Y-56183417D01*
X85373049Y-56302285D01*
X85373055Y-56302290D01*
X90166241Y-61095476D01*
X90199726Y-61156799D01*
X90196492Y-61221473D01*
X90182753Y-61263757D01*
X90149500Y-61473713D01*
X90149500Y-61686287D01*
X90182754Y-61896243D01*
X90236379Y-62061284D01*
X90248444Y-62098414D01*
X90344951Y-62287820D01*
X90469890Y-62459786D01*
X90620213Y-62610109D01*
X90792182Y-62735050D01*
X90800946Y-62739516D01*
X90851742Y-62787491D01*
X90868536Y-62855312D01*
X90845998Y-62921447D01*
X90800946Y-62960484D01*
X90792182Y-62964949D01*
X90620213Y-63089890D01*
X90469890Y-63240213D01*
X90344951Y-63412179D01*
X90248444Y-63601585D01*
X90182753Y-63803760D01*
X90149500Y-64013713D01*
X90149500Y-64226286D01*
X90179097Y-64413157D01*
X90182754Y-64436243D01*
X90220784Y-64553288D01*
X90248444Y-64638414D01*
X90344951Y-64827820D01*
X90469890Y-64999786D01*
X90620213Y-65150109D01*
X90792182Y-65275050D01*
X90800946Y-65279516D01*
X90851742Y-65327491D01*
X90868536Y-65395312D01*
X90845998Y-65461447D01*
X90800946Y-65500484D01*
X90792182Y-65504949D01*
X90620213Y-65629890D01*
X90469890Y-65780213D01*
X90344951Y-65952179D01*
X90248444Y-66141585D01*
X90182753Y-66343760D01*
X90159313Y-66491758D01*
X90149500Y-66553713D01*
X90149500Y-66766287D01*
X90182754Y-66976243D01*
X90220137Y-67091297D01*
X90248444Y-67178414D01*
X90344951Y-67367820D01*
X90469890Y-67539786D01*
X90620213Y-67690109D01*
X90792182Y-67815050D01*
X90800946Y-67819516D01*
X90851742Y-67867491D01*
X90868536Y-67935312D01*
X90845998Y-68001447D01*
X90800946Y-68040484D01*
X90792182Y-68044949D01*
X90620213Y-68169890D01*
X90469890Y-68320213D01*
X90344951Y-68492179D01*
X90248444Y-68681585D01*
X90182753Y-68883760D01*
X90168733Y-68972279D01*
X90149500Y-69093713D01*
X90149500Y-69306287D01*
X90182754Y-69516243D01*
X90215608Y-69617358D01*
X90248444Y-69718414D01*
X90344951Y-69907820D01*
X90469890Y-70079786D01*
X90620213Y-70230109D01*
X90792179Y-70355048D01*
X90792181Y-70355049D01*
X90792184Y-70355051D01*
X90981588Y-70451557D01*
X91183757Y-70517246D01*
X91393713Y-70550500D01*
X91393714Y-70550500D01*
X91606286Y-70550500D01*
X91606287Y-70550500D01*
X91816243Y-70517246D01*
X92018412Y-70451557D01*
X92207816Y-70355051D01*
X92258832Y-70317986D01*
X92379786Y-70230109D01*
X92379788Y-70230106D01*
X92379792Y-70230104D01*
X92530104Y-70079792D01*
X92530106Y-70079788D01*
X92530109Y-70079786D01*
X92655048Y-69907820D01*
X92655047Y-69907820D01*
X92655051Y-69907816D01*
X92751557Y-69718412D01*
X92817246Y-69516243D01*
X92850500Y-69306287D01*
X92850500Y-69093713D01*
X92817246Y-68883757D01*
X92751557Y-68681588D01*
X92655051Y-68492184D01*
X92655049Y-68492181D01*
X92655048Y-68492179D01*
X92530109Y-68320213D01*
X92379786Y-68169890D01*
X92207820Y-68044951D01*
X92207115Y-68044591D01*
X92199054Y-68040485D01*
X92148259Y-67992512D01*
X92131463Y-67924692D01*
X92153999Y-67858556D01*
X92199054Y-67819515D01*
X92207816Y-67815051D01*
X92332315Y-67724598D01*
X92379786Y-67690109D01*
X92379788Y-67690106D01*
X92379792Y-67690104D01*
X92530104Y-67539792D01*
X92530106Y-67539788D01*
X92530109Y-67539786D01*
X92655048Y-67367820D01*
X92655047Y-67367820D01*
X92655051Y-67367816D01*
X92751557Y-67178412D01*
X92817246Y-66976243D01*
X92850500Y-66766287D01*
X92850500Y-66553713D01*
X92817246Y-66343757D01*
X92751557Y-66141588D01*
X92655051Y-65952184D01*
X92655049Y-65952181D01*
X92655048Y-65952179D01*
X92530109Y-65780213D01*
X92379786Y-65629890D01*
X92207820Y-65504951D01*
X92207115Y-65504591D01*
X92199054Y-65500485D01*
X92148259Y-65452512D01*
X92131463Y-65384692D01*
X92153999Y-65318556D01*
X92199054Y-65279515D01*
X92207816Y-65275051D01*
X92297923Y-65209585D01*
X92379786Y-65150109D01*
X92379788Y-65150106D01*
X92379792Y-65150104D01*
X92530104Y-64999792D01*
X92530106Y-64999788D01*
X92530109Y-64999786D01*
X92655048Y-64827820D01*
X92655047Y-64827820D01*
X92655051Y-64827816D01*
X92751557Y-64638412D01*
X92817246Y-64436243D01*
X92850500Y-64226287D01*
X92850500Y-64013713D01*
X92817246Y-63803757D01*
X92803506Y-63761473D01*
X92801512Y-63691635D01*
X92833755Y-63635478D01*
X94287820Y-62181413D01*
X94349142Y-62147930D01*
X94418834Y-62152914D01*
X94474767Y-62194786D01*
X94499184Y-62260250D01*
X94499500Y-62269096D01*
X94499500Y-75269797D01*
X94479815Y-75336836D01*
X94427011Y-75382591D01*
X94357853Y-75392535D01*
X94294297Y-75363510D01*
X94263780Y-75323599D01*
X94130247Y-75046316D01*
X94124045Y-75036446D01*
X93950946Y-74760961D01*
X93740825Y-74497477D01*
X93502523Y-74259175D01*
X93239039Y-74049054D01*
X92953686Y-73869754D01*
X92953683Y-73869752D01*
X92650054Y-73723532D01*
X92331965Y-73612227D01*
X92331953Y-73612223D01*
X92003397Y-73537233D01*
X92003381Y-73537231D01*
X91668508Y-73499500D01*
X91668504Y-73499500D01*
X91331496Y-73499500D01*
X91331491Y-73499500D01*
X90996618Y-73537231D01*
X90996602Y-73537233D01*
X90668046Y-73612223D01*
X90668034Y-73612227D01*
X90349945Y-73723532D01*
X90046316Y-73869752D01*
X89760962Y-74049053D01*
X89497477Y-74259174D01*
X89259174Y-74497477D01*
X89049053Y-74760962D01*
X88869752Y-75046316D01*
X88723532Y-75349945D01*
X88612227Y-75668034D01*
X88612223Y-75668046D01*
X88537233Y-75996602D01*
X88537231Y-75996618D01*
X88499500Y-76331491D01*
X88499500Y-76668508D01*
X88537231Y-77003381D01*
X88537233Y-77003397D01*
X88612223Y-77331953D01*
X88612227Y-77331965D01*
X88723532Y-77650054D01*
X88869752Y-77953683D01*
X88869754Y-77953686D01*
X89049054Y-78239039D01*
X89259175Y-78502523D01*
X89497477Y-78740825D01*
X89760961Y-78950946D01*
X90046314Y-79130246D01*
X90349949Y-79276469D01*
X90588848Y-79360063D01*
X90668034Y-79387772D01*
X90668046Y-79387776D01*
X90996606Y-79462767D01*
X91331492Y-79500499D01*
X91331493Y-79500500D01*
X91331496Y-79500500D01*
X91668507Y-79500500D01*
X91668507Y-79500499D01*
X92003394Y-79462767D01*
X92331954Y-79387776D01*
X92650051Y-79276469D01*
X92953686Y-79130246D01*
X93239039Y-78950946D01*
X93502523Y-78740825D01*
X93740825Y-78502523D01*
X93950946Y-78239039D01*
X94130246Y-77953686D01*
X94263780Y-77676400D01*
X94310602Y-77624541D01*
X94378029Y-77606228D01*
X94444653Y-77627276D01*
X94489322Y-77681002D01*
X94499500Y-77730202D01*
X94499500Y-81875500D01*
X94479815Y-81942539D01*
X94427011Y-81988294D01*
X94375500Y-81999500D01*
X30624500Y-81999500D01*
X30557461Y-81979815D01*
X30511706Y-81927011D01*
X30500500Y-81875500D01*
X30500500Y-77730202D01*
X30520185Y-77663163D01*
X30572989Y-77617408D01*
X30642147Y-77607464D01*
X30705703Y-77636489D01*
X30736220Y-77676400D01*
X30869752Y-77953683D01*
X30869754Y-77953686D01*
X31049054Y-78239039D01*
X31259175Y-78502523D01*
X31497477Y-78740825D01*
X31760961Y-78950946D01*
X32046314Y-79130246D01*
X32349949Y-79276469D01*
X32588848Y-79360063D01*
X32668034Y-79387772D01*
X32668046Y-79387776D01*
X32996606Y-79462767D01*
X33331492Y-79500499D01*
X33331493Y-79500500D01*
X33331496Y-79500500D01*
X33668507Y-79500500D01*
X33668507Y-79500499D01*
X34003394Y-79462767D01*
X34331954Y-79387776D01*
X34650051Y-79276469D01*
X34953686Y-79130246D01*
X35239039Y-78950946D01*
X35502523Y-78740825D01*
X35740825Y-78502523D01*
X35950946Y-78239039D01*
X36130246Y-77953686D01*
X36276469Y-77650051D01*
X36387776Y-77331954D01*
X36462767Y-77003394D01*
X36500500Y-76668504D01*
X36500500Y-76331496D01*
X36462767Y-75996606D01*
X36450296Y-75941966D01*
X44499500Y-75941966D01*
X44499500Y-77058028D01*
X44499501Y-77058034D01*
X44510113Y-77177415D01*
X44566089Y-77373045D01*
X44566090Y-77373048D01*
X44566091Y-77373049D01*
X44660302Y-77553407D01*
X44660304Y-77553409D01*
X44788890Y-77711109D01*
X44877478Y-77783342D01*
X44946593Y-77839698D01*
X45126951Y-77933909D01*
X45322582Y-77989886D01*
X45441963Y-78000500D01*
X46558036Y-78000499D01*
X46677418Y-77989886D01*
X46873049Y-77933909D01*
X47053407Y-77839698D01*
X47211109Y-77711109D01*
X47339698Y-77553407D01*
X47433909Y-77373049D01*
X47489886Y-77177418D01*
X47500500Y-77058037D01*
X47500499Y-75941966D01*
X49499500Y-75941966D01*
X49499500Y-77058028D01*
X49499501Y-77058034D01*
X49510113Y-77177415D01*
X49566089Y-77373045D01*
X49566090Y-77373048D01*
X49566091Y-77373049D01*
X49660302Y-77553407D01*
X49660304Y-77553409D01*
X49788890Y-77711109D01*
X49877478Y-77783342D01*
X49946593Y-77839698D01*
X50126951Y-77933909D01*
X50322582Y-77989886D01*
X50441963Y-78000500D01*
X51558036Y-78000499D01*
X51677418Y-77989886D01*
X51873049Y-77933909D01*
X52053407Y-77839698D01*
X52211109Y-77711109D01*
X52339698Y-77553407D01*
X52433909Y-77373049D01*
X52489886Y-77177418D01*
X52500500Y-77058037D01*
X52500499Y-75941964D01*
X52489886Y-75822582D01*
X52433909Y-75626951D01*
X52339698Y-75446593D01*
X52265408Y-75355483D01*
X52211109Y-75288890D01*
X52053409Y-75160304D01*
X52053410Y-75160304D01*
X52053407Y-75160302D01*
X51873049Y-75066091D01*
X51873048Y-75066090D01*
X51873045Y-75066089D01*
X51755829Y-75032550D01*
X51677418Y-75010114D01*
X51677415Y-75010113D01*
X51677413Y-75010113D01*
X51611102Y-75004217D01*
X51558037Y-74999500D01*
X51558032Y-74999500D01*
X50441971Y-74999500D01*
X50441965Y-74999500D01*
X50441964Y-74999501D01*
X50430316Y-75000536D01*
X50322584Y-75010113D01*
X50126954Y-75066089D01*
X50077546Y-75091898D01*
X49946593Y-75160302D01*
X49946591Y-75160303D01*
X49946590Y-75160304D01*
X49788890Y-75288890D01*
X49660304Y-75446590D01*
X49566089Y-75626954D01*
X49510114Y-75822583D01*
X49510113Y-75822586D01*
X49499500Y-75941966D01*
X47500499Y-75941966D01*
X47500499Y-75941964D01*
X47489886Y-75822582D01*
X47433909Y-75626951D01*
X47339698Y-75446593D01*
X47265408Y-75355483D01*
X47211109Y-75288890D01*
X47053409Y-75160304D01*
X47053410Y-75160304D01*
X47053407Y-75160302D01*
X46873049Y-75066091D01*
X46873046Y-75066090D01*
X46690388Y-75013825D01*
X46631350Y-74976457D01*
X46601887Y-74913104D01*
X46600500Y-74894609D01*
X46600500Y-66558797D01*
X46620185Y-66491758D01*
X46636819Y-66471116D01*
X47372935Y-65735000D01*
X48230362Y-64877572D01*
X48291683Y-64844089D01*
X48293850Y-64843638D01*
X48351785Y-64832113D01*
X48449197Y-64812737D01*
X48594879Y-64752394D01*
X48725989Y-64664789D01*
X48837489Y-64553289D01*
X48925094Y-64422179D01*
X48985437Y-64276497D01*
X49016200Y-64121842D01*
X49016200Y-63964158D01*
X49016200Y-63964155D01*
X49016199Y-63964153D01*
X48988282Y-63823807D01*
X48985437Y-63809503D01*
X48961286Y-63751197D01*
X48925097Y-63663827D01*
X48925090Y-63663814D01*
X48837489Y-63532711D01*
X48837486Y-63532707D01*
X48725992Y-63421213D01*
X48725988Y-63421210D01*
X48594885Y-63333609D01*
X48594872Y-63333602D01*
X48449201Y-63273264D01*
X48449189Y-63273261D01*
X48294545Y-63242500D01*
X48294542Y-63242500D01*
X48136858Y-63242500D01*
X48136855Y-63242500D01*
X47982210Y-63273261D01*
X47982198Y-63273264D01*
X47836527Y-63333602D01*
X47836514Y-63333609D01*
X47705411Y-63421210D01*
X47705407Y-63421213D01*
X47593913Y-63532707D01*
X47593910Y-63532711D01*
X47506309Y-63663814D01*
X47506302Y-63663827D01*
X47445964Y-63809498D01*
X47445961Y-63809508D01*
X47415061Y-63964850D01*
X47382676Y-64026761D01*
X47381125Y-64028339D01*
X45519481Y-65889982D01*
X45519480Y-65889984D01*
X45483569Y-65952184D01*
X45440423Y-66026915D01*
X45399499Y-66179643D01*
X45399499Y-66179645D01*
X45399499Y-66347746D01*
X45399500Y-66347759D01*
X45399500Y-74894609D01*
X45379815Y-74961648D01*
X45327011Y-75007403D01*
X45309612Y-75013825D01*
X45126953Y-75066090D01*
X45126951Y-75066090D01*
X45126951Y-75066091D01*
X44946593Y-75160302D01*
X44946591Y-75160303D01*
X44946590Y-75160304D01*
X44788890Y-75288890D01*
X44660304Y-75446590D01*
X44566089Y-75626954D01*
X44510114Y-75822583D01*
X44510113Y-75822586D01*
X44499500Y-75941966D01*
X36450296Y-75941966D01*
X36387776Y-75668046D01*
X36363413Y-75598422D01*
X36310285Y-75446590D01*
X36276469Y-75349949D01*
X36130246Y-75046314D01*
X35950946Y-74760961D01*
X35740825Y-74497477D01*
X35502523Y-74259175D01*
X35239039Y-74049054D01*
X34953686Y-73869754D01*
X34953683Y-73869752D01*
X34650054Y-73723532D01*
X34331965Y-73612227D01*
X34331953Y-73612223D01*
X34003397Y-73537233D01*
X34003381Y-73537231D01*
X33668508Y-73499500D01*
X33668504Y-73499500D01*
X33331496Y-73499500D01*
X33331491Y-73499500D01*
X32996618Y-73537231D01*
X32996602Y-73537233D01*
X32668046Y-73612223D01*
X32668034Y-73612227D01*
X32349945Y-73723532D01*
X32046316Y-73869752D01*
X31760962Y-74049053D01*
X31497477Y-74259174D01*
X31259174Y-74497477D01*
X31049053Y-74760962D01*
X30869752Y-75046316D01*
X30736220Y-75323599D01*
X30689398Y-75375458D01*
X30621970Y-75393771D01*
X30555347Y-75372723D01*
X30510678Y-75318997D01*
X30500500Y-75269797D01*
X30500500Y-67417014D01*
X35027500Y-67417014D01*
X35027500Y-67652985D01*
X35058299Y-67886914D01*
X35119370Y-68114837D01*
X35209660Y-68332819D01*
X35209665Y-68332828D01*
X35327644Y-68537171D01*
X35327645Y-68537172D01*
X35390221Y-68618723D01*
X36226458Y-67782487D01*
X36251478Y-67842890D01*
X36322612Y-67949351D01*
X36413149Y-68039888D01*
X36519610Y-68111022D01*
X36580011Y-68136041D01*
X35743775Y-68972277D01*
X35825327Y-69034854D01*
X35825328Y-69034855D01*
X36029671Y-69152834D01*
X36029680Y-69152839D01*
X36247663Y-69243129D01*
X36247661Y-69243129D01*
X36475585Y-69304200D01*
X36709514Y-69334999D01*
X36709529Y-69335000D01*
X36945471Y-69335000D01*
X36945485Y-69334999D01*
X37179414Y-69304200D01*
X37407337Y-69243129D01*
X37625319Y-69152839D01*
X37625328Y-69152834D01*
X37829681Y-69034850D01*
X37911223Y-68972279D01*
X37911223Y-68972276D01*
X37074987Y-68136041D01*
X37135390Y-68111022D01*
X37241851Y-68039888D01*
X37332388Y-67949351D01*
X37403522Y-67842890D01*
X37428541Y-67782487D01*
X38264776Y-68618723D01*
X38264779Y-68618723D01*
X38327350Y-68537181D01*
X38445334Y-68332828D01*
X38445339Y-68332819D01*
X38535629Y-68114837D01*
X38596700Y-67886914D01*
X38627499Y-67652985D01*
X38627500Y-67652971D01*
X38627500Y-67417028D01*
X38627499Y-67417014D01*
X38596700Y-67183085D01*
X38535629Y-66955162D01*
X38445339Y-66737180D01*
X38445334Y-66737171D01*
X38327355Y-66532828D01*
X38327354Y-66532827D01*
X38264777Y-66451275D01*
X37428541Y-67287511D01*
X37403522Y-67227110D01*
X37332388Y-67120649D01*
X37241851Y-67030112D01*
X37135390Y-66958978D01*
X37074988Y-66933958D01*
X37911223Y-66097721D01*
X37829672Y-66035145D01*
X37829671Y-66035144D01*
X37625328Y-65917165D01*
X37625319Y-65917160D01*
X37407336Y-65826870D01*
X37407338Y-65826870D01*
X37179414Y-65765799D01*
X36945485Y-65735000D01*
X36709514Y-65735000D01*
X36475585Y-65765799D01*
X36247662Y-65826870D01*
X36029680Y-65917160D01*
X36029671Y-65917165D01*
X35825328Y-66035144D01*
X35825318Y-66035150D01*
X35743775Y-66097720D01*
X35743775Y-66097721D01*
X36580012Y-66933958D01*
X36519610Y-66958978D01*
X36413149Y-67030112D01*
X36322612Y-67120649D01*
X36251478Y-67227110D01*
X36226458Y-67287512D01*
X35390221Y-66451275D01*
X35390220Y-66451275D01*
X35327650Y-66532818D01*
X35327644Y-66532828D01*
X35209665Y-66737171D01*
X35209660Y-66737180D01*
X35119370Y-66955162D01*
X35058299Y-67183085D01*
X35027500Y-67417014D01*
X30500500Y-67417014D01*
X30500500Y-61354983D01*
X35027000Y-61354983D01*
X35027000Y-63555001D01*
X35027001Y-63555018D01*
X35037500Y-63657796D01*
X35037501Y-63657799D01*
X35071857Y-63761476D01*
X35092686Y-63824334D01*
X35184788Y-63973656D01*
X35308844Y-64097712D01*
X35458166Y-64189814D01*
X35624703Y-64244999D01*
X35727491Y-64255500D01*
X37927508Y-64255499D01*
X38030297Y-64244999D01*
X38196834Y-64189814D01*
X38346156Y-64097712D01*
X38470212Y-63973656D01*
X38562314Y-63824334D01*
X38617499Y-63657797D01*
X38628000Y-63555009D01*
X38627999Y-61354992D01*
X38617499Y-61252203D01*
X38562314Y-61085666D01*
X38470212Y-60936344D01*
X38346156Y-60812288D01*
X38196834Y-60720186D01*
X38030297Y-60665001D01*
X38030295Y-60665000D01*
X37927510Y-60654500D01*
X35727498Y-60654500D01*
X35727481Y-60654501D01*
X35624703Y-60665000D01*
X35624700Y-60665001D01*
X35458168Y-60720185D01*
X35458163Y-60720187D01*
X35308842Y-60812289D01*
X35184789Y-60936342D01*
X35092687Y-61085663D01*
X35092686Y-61085666D01*
X35037501Y-61252203D01*
X35037501Y-61252204D01*
X35037500Y-61252204D01*
X35027000Y-61354983D01*
X30500500Y-61354983D01*
X30500500Y-52982014D01*
X34700000Y-52982014D01*
X34700000Y-53217985D01*
X34730799Y-53451914D01*
X34791870Y-53679837D01*
X34882160Y-53897819D01*
X34882165Y-53897828D01*
X35000144Y-54102171D01*
X35000145Y-54102172D01*
X35062721Y-54183723D01*
X35898958Y-53347487D01*
X35923978Y-53407890D01*
X35995112Y-53514351D01*
X36085649Y-53604888D01*
X36192110Y-53676022D01*
X36252511Y-53701041D01*
X35416275Y-54537277D01*
X35497827Y-54599854D01*
X35497828Y-54599855D01*
X35702171Y-54717834D01*
X35702180Y-54717839D01*
X35920163Y-54808129D01*
X35920161Y-54808129D01*
X36148085Y-54869200D01*
X36382014Y-54899999D01*
X36382029Y-54900000D01*
X36617971Y-54900000D01*
X36617985Y-54899999D01*
X36851914Y-54869200D01*
X37079837Y-54808129D01*
X37297819Y-54717839D01*
X37297828Y-54717834D01*
X37502181Y-54599850D01*
X37583723Y-54537279D01*
X37583723Y-54537276D01*
X36747487Y-53701041D01*
X36807890Y-53676022D01*
X36914351Y-53604888D01*
X37004888Y-53514351D01*
X37076022Y-53407890D01*
X37101041Y-53347488D01*
X37937276Y-54183723D01*
X37937279Y-54183723D01*
X37999850Y-54102181D01*
X38117834Y-53897828D01*
X38117839Y-53897819D01*
X38208129Y-53679837D01*
X38269200Y-53451914D01*
X38299999Y-53217985D01*
X38300000Y-53217971D01*
X38300000Y-52982028D01*
X38299999Y-52982014D01*
X38269200Y-52748085D01*
X38208129Y-52520162D01*
X38117839Y-52302180D01*
X38117834Y-52302171D01*
X37999855Y-52097828D01*
X37999854Y-52097827D01*
X37937277Y-52016275D01*
X37101041Y-52852511D01*
X37076022Y-52792110D01*
X37004888Y-52685649D01*
X36914351Y-52595112D01*
X36807890Y-52523978D01*
X36747488Y-52498958D01*
X37583723Y-51662721D01*
X37502172Y-51600145D01*
X37502171Y-51600144D01*
X37297828Y-51482165D01*
X37297819Y-51482160D01*
X37079836Y-51391870D01*
X37079838Y-51391870D01*
X36851914Y-51330799D01*
X36617985Y-51300000D01*
X36382014Y-51300000D01*
X36148085Y-51330799D01*
X35920162Y-51391870D01*
X35702180Y-51482160D01*
X35702171Y-51482165D01*
X35497828Y-51600144D01*
X35497818Y-51600150D01*
X35416275Y-51662720D01*
X35416275Y-51662721D01*
X36252512Y-52498958D01*
X36192110Y-52523978D01*
X36085649Y-52595112D01*
X35995112Y-52685649D01*
X35923978Y-52792110D01*
X35898958Y-52852512D01*
X35062721Y-52016275D01*
X35062720Y-52016275D01*
X35000150Y-52097818D01*
X35000144Y-52097828D01*
X34882165Y-52302171D01*
X34882160Y-52302180D01*
X34791870Y-52520162D01*
X34730799Y-52748085D01*
X34700000Y-52982014D01*
X30500500Y-52982014D01*
X30500500Y-47901995D01*
X34699500Y-47901995D01*
X34699500Y-48138004D01*
X34699501Y-48138020D01*
X34730306Y-48372010D01*
X34791394Y-48599993D01*
X34881714Y-48818045D01*
X34881719Y-48818056D01*
X34936091Y-48912230D01*
X34999727Y-49022450D01*
X34999729Y-49022453D01*
X34999730Y-49022454D01*
X35143406Y-49209697D01*
X35143412Y-49209704D01*
X35310295Y-49376587D01*
X35310302Y-49376593D01*
X35356679Y-49412179D01*
X35497550Y-49520273D01*
X35608831Y-49584521D01*
X35701943Y-49638280D01*
X35701948Y-49638282D01*
X35701951Y-49638284D01*
X35920007Y-49728606D01*
X36147986Y-49789693D01*
X36381989Y-49820500D01*
X36381996Y-49820500D01*
X36618004Y-49820500D01*
X36618011Y-49820500D01*
X36852014Y-49789693D01*
X37079993Y-49728606D01*
X37298049Y-49638284D01*
X37502450Y-49520273D01*
X37689699Y-49376592D01*
X37856592Y-49209699D01*
X38000273Y-49022450D01*
X38118284Y-48818049D01*
X38208606Y-48599993D01*
X38269693Y-48372014D01*
X38300500Y-48138011D01*
X38300500Y-47901989D01*
X38269693Y-47667986D01*
X38208606Y-47440007D01*
X38118284Y-47221951D01*
X38118282Y-47221948D01*
X38118280Y-47221943D01*
X38064407Y-47128634D01*
X38000273Y-47017550D01*
X37918046Y-46910389D01*
X37856593Y-46830302D01*
X37856587Y-46830295D01*
X37689704Y-46663412D01*
X37689697Y-46663406D01*
X37502454Y-46519730D01*
X37502453Y-46519729D01*
X37502450Y-46519727D01*
X37404643Y-46463258D01*
X37298056Y-46401719D01*
X37298045Y-46401714D01*
X37079993Y-46311394D01*
X37028939Y-46297714D01*
X36852014Y-46250307D01*
X36852013Y-46250306D01*
X36852010Y-46250306D01*
X36618020Y-46219501D01*
X36618017Y-46219500D01*
X36618011Y-46219500D01*
X36381989Y-46219500D01*
X36381983Y-46219500D01*
X36381979Y-46219501D01*
X36147989Y-46250306D01*
X35920006Y-46311394D01*
X35701954Y-46401714D01*
X35701943Y-46401719D01*
X35497545Y-46519730D01*
X35310302Y-46663406D01*
X35310295Y-46663412D01*
X35143412Y-46830295D01*
X35143406Y-46830302D01*
X34999730Y-47017545D01*
X34881719Y-47221943D01*
X34881714Y-47221954D01*
X34791394Y-47440006D01*
X34730306Y-47667989D01*
X34699501Y-47901979D01*
X34699500Y-47901995D01*
X30500500Y-47901995D01*
X30500500Y-41839983D01*
X34699500Y-41839983D01*
X34699500Y-44040001D01*
X34699501Y-44040018D01*
X34710000Y-44142796D01*
X34710001Y-44142798D01*
X34756169Y-44282122D01*
X34765186Y-44309334D01*
X34857288Y-44458656D01*
X34981344Y-44582712D01*
X35130666Y-44674814D01*
X35297203Y-44729999D01*
X35399991Y-44740500D01*
X37600008Y-44740499D01*
X37600870Y-44740411D01*
X37617895Y-44738671D01*
X37702797Y-44729999D01*
X37869334Y-44674814D01*
X38018656Y-44582712D01*
X38142712Y-44458656D01*
X38234814Y-44309334D01*
X38289999Y-44142797D01*
X38300500Y-44040009D01*
X38300499Y-41839992D01*
X38296099Y-41796923D01*
X38289999Y-41737203D01*
X38289998Y-41737200D01*
X38281993Y-41713043D01*
X38234814Y-41570666D01*
X38142712Y-41421344D01*
X38018656Y-41297288D01*
X37870988Y-41206206D01*
X37869336Y-41205187D01*
X37869331Y-41205185D01*
X37845804Y-41197389D01*
X37702797Y-41150001D01*
X37702795Y-41150000D01*
X37600010Y-41139500D01*
X35399998Y-41139500D01*
X35399981Y-41139501D01*
X35297203Y-41150000D01*
X35297200Y-41150001D01*
X35130668Y-41205185D01*
X35130663Y-41205187D01*
X34981342Y-41297289D01*
X34857289Y-41421342D01*
X34765187Y-41570663D01*
X34765185Y-41570668D01*
X34754760Y-41602129D01*
X34710001Y-41737203D01*
X34710001Y-41737204D01*
X34710000Y-41737204D01*
X34699500Y-41839983D01*
X30500500Y-41839983D01*
X30500500Y-28730202D01*
X30520185Y-28663163D01*
X30572989Y-28617408D01*
X30642147Y-28607464D01*
X30705703Y-28636489D01*
X30736220Y-28676400D01*
X30869752Y-28953683D01*
X30869754Y-28953686D01*
X31049054Y-29239039D01*
X31259175Y-29502523D01*
X31497477Y-29740825D01*
X31760961Y-29950946D01*
X32046314Y-30130246D01*
X32046316Y-30130247D01*
X32083070Y-30147947D01*
X32349949Y-30276469D01*
X32588848Y-30360063D01*
X32668034Y-30387772D01*
X32668046Y-30387776D01*
X32996606Y-30462767D01*
X33331492Y-30500499D01*
X33331493Y-30500500D01*
X33331496Y-30500500D01*
X33668507Y-30500500D01*
X33668507Y-30500499D01*
X34003394Y-30462767D01*
X34331954Y-30387776D01*
X34650051Y-30276469D01*
X34953686Y-30130246D01*
X35239039Y-29950946D01*
X35502523Y-29740825D01*
X35740825Y-29502523D01*
X35950946Y-29239039D01*
X36130246Y-28953686D01*
X36276469Y-28650051D01*
X36387776Y-28331954D01*
X36462767Y-28003394D01*
X36500500Y-27668504D01*
X36500500Y-27331496D01*
X36462767Y-26996606D01*
X36387776Y-26668046D01*
X36276469Y-26349949D01*
X36130246Y-26046314D01*
X35950946Y-25760961D01*
X35740825Y-25497477D01*
X35502523Y-25259175D01*
X35239039Y-25049054D01*
X34953686Y-24869754D01*
X34953683Y-24869752D01*
X34650054Y-24723532D01*
X34331965Y-24612227D01*
X34331953Y-24612223D01*
X34003397Y-24537233D01*
X34003381Y-24537231D01*
X33668508Y-24499500D01*
X33668504Y-24499500D01*
X33331496Y-24499500D01*
X33331491Y-24499500D01*
X32996618Y-24537231D01*
X32996602Y-24537233D01*
X32668046Y-24612223D01*
X32668034Y-24612227D01*
X32349945Y-24723532D01*
X32046316Y-24869752D01*
X31760962Y-25049053D01*
X31497477Y-25259174D01*
X31259174Y-25497477D01*
X31049053Y-25760962D01*
X30869752Y-26046316D01*
X30736220Y-26323599D01*
X30689398Y-26375458D01*
X30621970Y-26393771D01*
X30555347Y-26372723D01*
X30510678Y-26318997D01*
X30500500Y-26269797D01*
X30500500Y-23624500D01*
X30520185Y-23557461D01*
X30572989Y-23511706D01*
X30624500Y-23500500D01*
X92611759Y-23500500D01*
X92678798Y-23520185D01*
G37*
%TD.AperFunction*%
%TA.AperFunction,Conductor*%
G36*
X88616527Y-28515574D02*
G01*
X88625618Y-28515905D01*
X88647280Y-28530967D01*
X88670874Y-28542777D01*
X88676378Y-28551199D01*
X88682983Y-28555792D01*
X88689187Y-28570799D01*
X88703420Y-28592578D01*
X88723528Y-28650044D01*
X88723534Y-28650058D01*
X88869752Y-28953683D01*
X88869754Y-28953686D01*
X89049054Y-29239039D01*
X89259175Y-29502523D01*
X89497477Y-29740825D01*
X89760961Y-29950946D01*
X90046314Y-30130246D01*
X90046316Y-30130247D01*
X90083070Y-30147947D01*
X90349949Y-30276469D01*
X90588848Y-30360063D01*
X90668034Y-30387772D01*
X90668046Y-30387776D01*
X90996606Y-30462767D01*
X91331492Y-30500499D01*
X91331493Y-30500500D01*
X91331496Y-30500500D01*
X91668507Y-30500500D01*
X91668507Y-30500499D01*
X92003394Y-30462767D01*
X92331954Y-30387776D01*
X92650051Y-30276469D01*
X92953686Y-30130246D01*
X93239039Y-29950946D01*
X93502523Y-29740825D01*
X93503219Y-29740129D01*
X93503432Y-29740012D01*
X93505110Y-29738513D01*
X93505239Y-29738658D01*
X93505243Y-29738656D01*
X93505285Y-29738709D01*
X93505460Y-29738905D01*
X93564542Y-29706644D01*
X93634234Y-29711628D01*
X93690167Y-29753500D01*
X93714584Y-29818964D01*
X93714900Y-29827810D01*
X93714900Y-61004502D01*
X93695215Y-61071541D01*
X93678581Y-61092183D01*
X93062181Y-61708583D01*
X93000858Y-61742068D01*
X92931166Y-61737084D01*
X92875233Y-61695212D01*
X92850816Y-61629748D01*
X92850500Y-61620902D01*
X92850500Y-61473713D01*
X92831695Y-61354983D01*
X92817246Y-61263757D01*
X92751557Y-61061588D01*
X92655051Y-60872184D01*
X92655049Y-60872181D01*
X92655048Y-60872179D01*
X92530109Y-60700213D01*
X92379786Y-60549890D01*
X92207817Y-60424949D01*
X92198504Y-60420204D01*
X92147707Y-60372230D01*
X92130912Y-60304409D01*
X92153449Y-60238274D01*
X92198507Y-60199232D01*
X92207555Y-60194622D01*
X92261716Y-60155270D01*
X92261717Y-60155270D01*
X91629408Y-59522962D01*
X91692993Y-59505925D01*
X91807007Y-59440099D01*
X91900099Y-59347007D01*
X91965925Y-59232993D01*
X91982962Y-59169408D01*
X92615270Y-59801717D01*
X92615270Y-59801716D01*
X92654622Y-59747554D01*
X92751095Y-59558217D01*
X92816757Y-59356130D01*
X92816757Y-59356127D01*
X92850000Y-59146246D01*
X92850000Y-58933753D01*
X92816757Y-58723872D01*
X92816757Y-58723869D01*
X92751095Y-58521782D01*
X92654624Y-58332449D01*
X92615270Y-58278282D01*
X92615269Y-58278282D01*
X91982962Y-58910590D01*
X91965925Y-58847007D01*
X91900099Y-58732993D01*
X91807007Y-58639901D01*
X91692993Y-58574075D01*
X91629409Y-58557037D01*
X92299627Y-57886818D01*
X92360950Y-57853333D01*
X92387307Y-57850499D01*
X92397872Y-57850499D01*
X92457483Y-57844091D01*
X92592331Y-57793796D01*
X92707546Y-57707546D01*
X92793796Y-57592331D01*
X92844091Y-57457483D01*
X92850500Y-57397873D01*
X92850499Y-55602128D01*
X92844091Y-55542517D01*
X92793796Y-55407669D01*
X92793795Y-55407668D01*
X92793793Y-55407664D01*
X92707547Y-55292455D01*
X92707544Y-55292452D01*
X92592335Y-55206206D01*
X92592328Y-55206202D01*
X92457482Y-55155908D01*
X92457483Y-55155908D01*
X92397883Y-55149501D01*
X92397881Y-55149500D01*
X92397873Y-55149500D01*
X92397864Y-55149500D01*
X90602129Y-55149500D01*
X90602123Y-55149501D01*
X90542516Y-55155908D01*
X90407671Y-55206202D01*
X90407664Y-55206206D01*
X90292455Y-55292452D01*
X90292452Y-55292455D01*
X90206206Y-55407664D01*
X90206202Y-55407671D01*
X90155908Y-55542517D01*
X90149902Y-55598384D01*
X90149501Y-55602123D01*
X90149500Y-55602135D01*
X90149500Y-57397870D01*
X90149501Y-57397876D01*
X90155908Y-57457483D01*
X90206202Y-57592328D01*
X90206206Y-57592335D01*
X90292452Y-57707544D01*
X90292455Y-57707547D01*
X90407664Y-57793793D01*
X90407671Y-57793797D01*
X90452618Y-57810561D01*
X90542517Y-57844091D01*
X90602127Y-57850500D01*
X90612685Y-57850499D01*
X90679723Y-57870179D01*
X90700372Y-57886818D01*
X91370591Y-58557037D01*
X91307007Y-58574075D01*
X91192993Y-58639901D01*
X91099901Y-58732993D01*
X91034075Y-58847007D01*
X91017037Y-58910591D01*
X90384728Y-58278282D01*
X90384727Y-58278282D01*
X90345380Y-58332439D01*
X90248904Y-58521782D01*
X90183242Y-58723869D01*
X90183242Y-58723872D01*
X90150000Y-58933753D01*
X90150000Y-59081403D01*
X90130315Y-59148442D01*
X90077511Y-59194197D01*
X90008353Y-59204141D01*
X89944797Y-59175116D01*
X89938319Y-59169084D01*
X86371519Y-55602284D01*
X86338034Y-55540961D01*
X86335200Y-55514603D01*
X86335200Y-43967354D01*
X89747798Y-43967354D01*
X89747799Y-43967357D01*
X89788723Y-44120085D01*
X89788724Y-44120086D01*
X89801835Y-44142797D01*
X89801836Y-44142798D01*
X89867775Y-44257009D01*
X89867781Y-44257017D01*
X89986649Y-44375885D01*
X89986655Y-44375890D01*
X90166241Y-44555476D01*
X90199726Y-44616799D01*
X90196492Y-44681473D01*
X90182753Y-44723757D01*
X90149500Y-44933713D01*
X90149500Y-45146286D01*
X90177157Y-45320909D01*
X90182754Y-45356243D01*
X90198322Y-45404157D01*
X90248444Y-45558414D01*
X90344951Y-45747820D01*
X90469890Y-45919786D01*
X90620213Y-46070109D01*
X90792179Y-46195048D01*
X90792181Y-46195049D01*
X90792184Y-46195051D01*
X90801493Y-46199794D01*
X90852290Y-46247766D01*
X90869087Y-46315587D01*
X90846552Y-46381722D01*
X90801505Y-46420760D01*
X90792446Y-46425376D01*
X90792440Y-46425380D01*
X90738282Y-46464727D01*
X90738282Y-46464728D01*
X91370591Y-47097037D01*
X91307007Y-47114075D01*
X91192993Y-47179901D01*
X91099901Y-47272993D01*
X91034075Y-47387007D01*
X91017037Y-47450591D01*
X90384728Y-46818282D01*
X90384727Y-46818282D01*
X90345380Y-46872439D01*
X90248904Y-47061782D01*
X90183242Y-47263869D01*
X90183242Y-47263872D01*
X90150000Y-47473753D01*
X90150000Y-47686246D01*
X90183242Y-47896127D01*
X90183242Y-47896130D01*
X90248904Y-48098217D01*
X90345375Y-48287550D01*
X90384728Y-48341716D01*
X91017037Y-47709408D01*
X91034075Y-47772993D01*
X91099901Y-47887007D01*
X91192993Y-47980099D01*
X91307007Y-48045925D01*
X91370590Y-48062962D01*
X90738282Y-48695269D01*
X90738282Y-48695270D01*
X90792452Y-48734626D01*
X90792451Y-48734626D01*
X90801495Y-48739234D01*
X90852292Y-48787208D01*
X90869087Y-48855029D01*
X90846550Y-48921164D01*
X90801499Y-48960202D01*
X90792182Y-48964949D01*
X90620213Y-49089890D01*
X90469890Y-49240213D01*
X90344951Y-49412179D01*
X90248444Y-49601585D01*
X90248443Y-49601587D01*
X90248443Y-49601588D01*
X90185015Y-49796800D01*
X90182755Y-49803754D01*
X90182753Y-49803759D01*
X90155099Y-49978360D01*
X90149500Y-50013713D01*
X90149500Y-50226287D01*
X90150897Y-50235109D01*
X90164064Y-50318243D01*
X90182754Y-50436243D01*
X90231247Y-50585489D01*
X90248444Y-50638414D01*
X90344951Y-50827820D01*
X90469890Y-50999786D01*
X90620213Y-51150109D01*
X90792179Y-51275048D01*
X90792181Y-51275049D01*
X90792184Y-51275051D01*
X90981588Y-51371557D01*
X91183757Y-51437246D01*
X91393713Y-51470500D01*
X91393714Y-51470500D01*
X91606286Y-51470500D01*
X91606287Y-51470500D01*
X91816243Y-51437246D01*
X92018412Y-51371557D01*
X92207816Y-51275051D01*
X92236299Y-51254357D01*
X92379786Y-51150109D01*
X92379788Y-51150106D01*
X92379792Y-51150104D01*
X92530104Y-50999792D01*
X92530106Y-50999788D01*
X92530109Y-50999786D01*
X92655048Y-50827820D01*
X92655047Y-50827820D01*
X92655051Y-50827816D01*
X92751557Y-50638412D01*
X92817246Y-50436243D01*
X92850500Y-50226287D01*
X92850500Y-50013713D01*
X92817246Y-49803757D01*
X92751557Y-49601588D01*
X92655051Y-49412184D01*
X92655049Y-49412181D01*
X92655048Y-49412179D01*
X92530109Y-49240213D01*
X92379786Y-49089890D01*
X92207817Y-48964949D01*
X92198504Y-48960204D01*
X92147707Y-48912230D01*
X92130912Y-48844409D01*
X92153449Y-48778274D01*
X92198507Y-48739232D01*
X92207555Y-48734622D01*
X92261716Y-48695270D01*
X92261717Y-48695270D01*
X91629408Y-48062962D01*
X91692993Y-48045925D01*
X91807007Y-47980099D01*
X91900099Y-47887007D01*
X91965925Y-47772993D01*
X91982962Y-47709408D01*
X92615270Y-48341717D01*
X92615270Y-48341716D01*
X92654622Y-48287554D01*
X92751095Y-48098217D01*
X92816757Y-47896130D01*
X92816757Y-47896127D01*
X92850000Y-47686246D01*
X92850000Y-47473753D01*
X92816757Y-47263872D01*
X92816757Y-47263869D01*
X92751095Y-47061782D01*
X92654624Y-46872449D01*
X92615270Y-46818282D01*
X92615269Y-46818282D01*
X91982962Y-47450590D01*
X91965925Y-47387007D01*
X91900099Y-47272993D01*
X91807007Y-47179901D01*
X91692993Y-47114075D01*
X91629409Y-47097037D01*
X92261716Y-46464728D01*
X92207547Y-46425373D01*
X92207547Y-46425372D01*
X92198500Y-46420763D01*
X92147706Y-46372788D01*
X92130912Y-46304966D01*
X92153451Y-46238832D01*
X92198508Y-46199793D01*
X92207816Y-46195051D01*
X92320525Y-46113164D01*
X92379786Y-46070109D01*
X92379788Y-46070106D01*
X92379792Y-46070104D01*
X92530104Y-45919792D01*
X92530106Y-45919788D01*
X92530109Y-45919786D01*
X92655048Y-45747820D01*
X92655047Y-45747820D01*
X92655051Y-45747816D01*
X92751557Y-45558412D01*
X92817246Y-45356243D01*
X92850500Y-45146287D01*
X92850500Y-44933713D01*
X92817246Y-44723757D01*
X92751557Y-44521588D01*
X92655051Y-44332184D01*
X92655049Y-44332181D01*
X92655048Y-44332179D01*
X92530109Y-44160213D01*
X92416569Y-44046673D01*
X92383084Y-43985350D01*
X92388068Y-43915658D01*
X92429940Y-43859725D01*
X92460915Y-43842810D01*
X92592331Y-43793796D01*
X92707546Y-43707546D01*
X92793796Y-43592331D01*
X92844091Y-43457483D01*
X92850500Y-43397873D01*
X92850499Y-41602128D01*
X92844091Y-41542517D01*
X92818607Y-41474192D01*
X92793797Y-41407671D01*
X92793793Y-41407664D01*
X92707547Y-41292455D01*
X92707544Y-41292452D01*
X92592335Y-41206206D01*
X92592328Y-41206202D01*
X92457482Y-41155908D01*
X92457483Y-41155908D01*
X92397883Y-41149501D01*
X92397881Y-41149500D01*
X92397873Y-41149500D01*
X92397865Y-41149500D01*
X91872396Y-41149500D01*
X91805357Y-41129815D01*
X91759602Y-41077011D01*
X91749658Y-41007853D01*
X91778683Y-40944297D01*
X91784715Y-40937819D01*
X91934659Y-40787875D01*
X93132220Y-39590316D01*
X93211277Y-39453384D01*
X93252201Y-39300657D01*
X93252201Y-39142542D01*
X93252201Y-39134947D01*
X93252200Y-39134929D01*
X93252200Y-36661345D01*
X93252200Y-36661343D01*
X93211277Y-36508616D01*
X93211277Y-36508615D01*
X93193139Y-36477200D01*
X93169512Y-36436276D01*
X93169511Y-36436275D01*
X93132221Y-36371686D01*
X93132220Y-36371684D01*
X93020416Y-36259880D01*
X93020415Y-36259879D01*
X93016085Y-36255549D01*
X93016074Y-36255539D01*
X92777330Y-36016795D01*
X92743845Y-35955472D01*
X92748829Y-35885780D01*
X92765745Y-35854802D01*
X92793796Y-35817331D01*
X92844091Y-35682483D01*
X92850500Y-35622873D01*
X92850499Y-33827128D01*
X92844091Y-33767517D01*
X92835818Y-33745337D01*
X92793797Y-33632671D01*
X92793793Y-33632664D01*
X92707547Y-33517455D01*
X92707544Y-33517452D01*
X92592335Y-33431206D01*
X92592328Y-33431202D01*
X92457482Y-33380908D01*
X92457483Y-33380908D01*
X92397883Y-33374501D01*
X92397881Y-33374500D01*
X92397873Y-33374500D01*
X92397864Y-33374500D01*
X90602129Y-33374500D01*
X90602123Y-33374501D01*
X90542516Y-33380908D01*
X90407671Y-33431202D01*
X90407664Y-33431206D01*
X90292455Y-33517452D01*
X90292452Y-33517455D01*
X90206206Y-33632664D01*
X90206202Y-33632671D01*
X90155908Y-33767517D01*
X90149501Y-33827116D01*
X90149501Y-33827123D01*
X90149500Y-33827135D01*
X90149500Y-35622870D01*
X90149501Y-35622876D01*
X90155908Y-35682483D01*
X90206202Y-35817328D01*
X90206206Y-35817335D01*
X90292452Y-35932544D01*
X90292455Y-35932547D01*
X90407664Y-36018793D01*
X90407671Y-36018797D01*
X90452618Y-36035561D01*
X90542517Y-36069091D01*
X90602127Y-36075500D01*
X90612685Y-36075499D01*
X90679723Y-36095179D01*
X90700372Y-36111818D01*
X91370591Y-36782037D01*
X91307007Y-36799075D01*
X91192993Y-36864901D01*
X91099901Y-36957993D01*
X91034075Y-37072007D01*
X91017037Y-37135591D01*
X90384728Y-36503282D01*
X90384727Y-36503282D01*
X90345380Y-36557439D01*
X90248904Y-36746782D01*
X90183242Y-36948869D01*
X90183242Y-36948872D01*
X90150000Y-37158753D01*
X90150000Y-37371246D01*
X90183242Y-37581127D01*
X90183242Y-37581130D01*
X90248904Y-37783217D01*
X90345375Y-37972550D01*
X90384728Y-38026716D01*
X91017037Y-37394408D01*
X91034075Y-37457993D01*
X91099901Y-37572007D01*
X91192993Y-37665099D01*
X91307007Y-37730925D01*
X91370589Y-37747962D01*
X90738282Y-38380269D01*
X90738282Y-38380270D01*
X90792449Y-38419624D01*
X90981782Y-38516095D01*
X91183870Y-38581757D01*
X91393754Y-38615000D01*
X91606246Y-38615000D01*
X91816126Y-38581758D01*
X91888881Y-38558118D01*
X91917005Y-38557314D01*
X91944847Y-38553311D01*
X91951456Y-38556329D01*
X91958722Y-38556122D01*
X91982815Y-38570650D01*
X92008403Y-38582336D01*
X92012331Y-38588449D01*
X92018555Y-38592202D01*
X92030968Y-38617448D01*
X92046177Y-38641114D01*
X92047653Y-38651383D01*
X92049384Y-38654903D01*
X92051200Y-38676049D01*
X92051200Y-38921502D01*
X92031515Y-38988541D01*
X92014881Y-39009183D01*
X89867781Y-41156282D01*
X89867777Y-41156287D01*
X89844045Y-41197395D01*
X89844044Y-41197397D01*
X89800414Y-41272964D01*
X89789164Y-41292452D01*
X89788723Y-41293215D01*
X89747799Y-41445943D01*
X89747799Y-41604057D01*
X89747799Y-41604059D01*
X89747800Y-41614053D01*
X89747800Y-43801630D01*
X89747799Y-43801648D01*
X89747799Y-43967354D01*
X89747798Y-43967354D01*
X86335200Y-43967354D01*
X86335200Y-30460931D01*
X86354885Y-30393892D01*
X86407689Y-30348137D01*
X86476847Y-30338193D01*
X86497519Y-30343000D01*
X86580683Y-30370022D01*
X86650000Y-30381000D01*
X86650000Y-29482251D01*
X86703919Y-29513381D01*
X86833120Y-29548000D01*
X86966880Y-29548000D01*
X87096081Y-29513381D01*
X87150000Y-29482251D01*
X87150000Y-30380999D01*
X87219316Y-30370022D01*
X87423445Y-30303696D01*
X87614682Y-30206255D01*
X87788327Y-30080093D01*
X87788328Y-30080093D01*
X87940093Y-29928328D01*
X87940093Y-29928327D01*
X88066255Y-29754682D01*
X88163696Y-29563443D01*
X88230024Y-29359307D01*
X88241002Y-29290000D01*
X87342251Y-29290000D01*
X87373381Y-29236081D01*
X87408000Y-29106880D01*
X87408000Y-28973120D01*
X87373381Y-28843919D01*
X87342251Y-28790000D01*
X88241002Y-28790000D01*
X88229262Y-28715877D01*
X88230770Y-28715638D01*
X88233920Y-28652610D01*
X88274581Y-28595790D01*
X88320420Y-28573270D01*
X88331303Y-28570500D01*
X88334142Y-28570500D01*
X88488797Y-28539737D01*
X88547166Y-28515559D01*
X88555794Y-28513364D01*
X88582160Y-28514323D01*
X88608394Y-28511503D01*
X88616527Y-28515574D01*
G37*
%TD.AperFunction*%
%TA.AperFunction,Conductor*%
G36*
X70469042Y-27188125D02*
G01*
X70489478Y-27211709D01*
X70490453Y-27211002D01*
X70493316Y-27214943D01*
X70493317Y-27214944D01*
X70619523Y-27388651D01*
X70771349Y-27540477D01*
X70945055Y-27666682D01*
X70948998Y-27669547D01*
X70947624Y-27671437D01*
X70988030Y-27716152D01*
X70999411Y-27785089D01*
X70971715Y-27849235D01*
X70948314Y-27869511D01*
X70948998Y-27870453D01*
X70945056Y-27873316D01*
X70945056Y-27873317D01*
X70771349Y-27999523D01*
X70771347Y-27999525D01*
X70771346Y-27999525D01*
X70619525Y-28151346D01*
X70619525Y-28151347D01*
X70619523Y-28151349D01*
X70565322Y-28225949D01*
X70493317Y-28325055D01*
X70395838Y-28516366D01*
X70395837Y-28516369D01*
X70329489Y-28720571D01*
X70295900Y-28932643D01*
X70295900Y-29147356D01*
X70329489Y-29359428D01*
X70395837Y-29563630D01*
X70395838Y-29563633D01*
X70473177Y-29715417D01*
X70493317Y-29754944D01*
X70619523Y-29928651D01*
X70771349Y-30080477D01*
X70945056Y-30206683D01*
X71011881Y-30240732D01*
X71136366Y-30304161D01*
X71136369Y-30304162D01*
X71238470Y-30337336D01*
X71340573Y-30370511D01*
X71552643Y-30404100D01*
X71552644Y-30404100D01*
X71767356Y-30404100D01*
X71767357Y-30404100D01*
X71979427Y-30370511D01*
X72183633Y-30304161D01*
X72374944Y-30206683D01*
X72548651Y-30080477D01*
X72700477Y-29928651D01*
X72826683Y-29754944D01*
X72826683Y-29754943D01*
X72829547Y-29751002D01*
X72831478Y-29752405D01*
X72875927Y-29712078D01*
X72944840Y-29700558D01*
X73009042Y-29728125D01*
X73029478Y-29751709D01*
X73030453Y-29751002D01*
X73033316Y-29754943D01*
X73033317Y-29754944D01*
X73159523Y-29928651D01*
X73311349Y-30080477D01*
X73485056Y-30206683D01*
X73544300Y-30236869D01*
X73567637Y-30258910D01*
X73592000Y-30279818D01*
X73593614Y-30283443D01*
X73595095Y-30284842D01*
X73606815Y-30311852D01*
X73607312Y-30313517D01*
X73640423Y-30437085D01*
X73641058Y-30438184D01*
X73648323Y-30450768D01*
X73648324Y-30450770D01*
X73719475Y-30574009D01*
X73719481Y-30574017D01*
X73838349Y-30692885D01*
X73838355Y-30692890D01*
X74164781Y-31019316D01*
X74198266Y-31080639D01*
X74201100Y-31106997D01*
X74201100Y-32835500D01*
X74181415Y-32902539D01*
X74128611Y-32948294D01*
X74077100Y-32959500D01*
X74070655Y-32959500D01*
X73916010Y-32990261D01*
X73915998Y-32990264D01*
X73770327Y-33050602D01*
X73770314Y-33050609D01*
X73639211Y-33138210D01*
X73639207Y-33138213D01*
X73527713Y-33249707D01*
X73527710Y-33249711D01*
X73440109Y-33380814D01*
X73440102Y-33380827D01*
X73379764Y-33526498D01*
X73379761Y-33526508D01*
X73348862Y-33681848D01*
X73316477Y-33743759D01*
X73314926Y-33745337D01*
X70562186Y-36498078D01*
X70450381Y-36609882D01*
X70450379Y-36609885D01*
X70400261Y-36696694D01*
X70400259Y-36696696D01*
X70371325Y-36746809D01*
X70371324Y-36746810D01*
X70366450Y-36765000D01*
X70330399Y-36899543D01*
X70330399Y-36899545D01*
X70330399Y-37067646D01*
X70330400Y-37067659D01*
X70330400Y-46097134D01*
X70310715Y-46164173D01*
X70309502Y-46166025D01*
X70221509Y-46297714D01*
X70221502Y-46297727D01*
X70161164Y-46443398D01*
X70161161Y-46443410D01*
X70130400Y-46598053D01*
X70130400Y-46755746D01*
X70161161Y-46910389D01*
X70161164Y-46910401D01*
X70221502Y-47056072D01*
X70221509Y-47056085D01*
X70309110Y-47187188D01*
X70309113Y-47187192D01*
X70420607Y-47298686D01*
X70420611Y-47298689D01*
X70551714Y-47386290D01*
X70551727Y-47386297D01*
X70697398Y-47446635D01*
X70697403Y-47446637D01*
X70762047Y-47459495D01*
X70852749Y-47477538D01*
X70914660Y-47509923D01*
X70916239Y-47511474D01*
X72061681Y-48656916D01*
X72095166Y-48718239D01*
X72098000Y-48744597D01*
X72098000Y-54013234D01*
X72078315Y-54080273D01*
X72077102Y-54082125D01*
X71989109Y-54213814D01*
X71989102Y-54213827D01*
X71928764Y-54359498D01*
X71928761Y-54359510D01*
X71898000Y-54514153D01*
X71898000Y-54671846D01*
X71928761Y-54826489D01*
X71928764Y-54826501D01*
X71989102Y-54972172D01*
X71989109Y-54972185D01*
X72076710Y-55103288D01*
X72076713Y-55103292D01*
X72188207Y-55214786D01*
X72188211Y-55214789D01*
X72319314Y-55302390D01*
X72319327Y-55302397D01*
X72464998Y-55362735D01*
X72465003Y-55362737D01*
X72529647Y-55375595D01*
X72620349Y-55393638D01*
X72682260Y-55426023D01*
X72683839Y-55427574D01*
X76696981Y-59440716D01*
X76730466Y-59502039D01*
X76733300Y-59528397D01*
X76733300Y-61083838D01*
X76713615Y-61150877D01*
X76660811Y-61196632D01*
X76591653Y-61206576D01*
X76528097Y-61177551D01*
X76516168Y-61165706D01*
X76508054Y-61156475D01*
X76480520Y-61108784D01*
X76368716Y-60996980D01*
X76368713Y-60996978D01*
X66216176Y-50844441D01*
X66182691Y-50783118D01*
X66187675Y-50713426D01*
X66229547Y-50657493D01*
X66234941Y-50653674D01*
X66336989Y-50585489D01*
X66448489Y-50473989D01*
X66536094Y-50342879D01*
X66546299Y-50318243D01*
X66580733Y-50235109D01*
X66596437Y-50197197D01*
X66627200Y-50042542D01*
X66627338Y-50041850D01*
X66659723Y-49979939D01*
X66661216Y-49978418D01*
X67575920Y-49063716D01*
X67654977Y-48926784D01*
X67695901Y-48774057D01*
X67695901Y-48615942D01*
X67695901Y-48608347D01*
X67695900Y-48608329D01*
X67695900Y-43156359D01*
X67695901Y-43156346D01*
X67695901Y-42988245D01*
X67695901Y-42988243D01*
X67654977Y-42835515D01*
X67599498Y-42739423D01*
X67575920Y-42698584D01*
X67464116Y-42586780D01*
X67464113Y-42586778D01*
X67347590Y-42470255D01*
X67347588Y-42470252D01*
X67330519Y-42453183D01*
X67297034Y-42391860D01*
X67294200Y-42365502D01*
X67294200Y-30270404D01*
X67313885Y-30203365D01*
X67345315Y-30170086D01*
X67373525Y-30149590D01*
X67468651Y-30080477D01*
X67620477Y-29928651D01*
X67746683Y-29754944D01*
X67844161Y-29563633D01*
X67910511Y-29359427D01*
X67944100Y-29147357D01*
X67944100Y-28932643D01*
X67910511Y-28720573D01*
X67852742Y-28542777D01*
X67844162Y-28516369D01*
X67844161Y-28516366D01*
X67760266Y-28351715D01*
X67746683Y-28325056D01*
X67620477Y-28151349D01*
X67468651Y-27999523D01*
X67294944Y-27873317D01*
X67294943Y-27873316D01*
X67291002Y-27870453D01*
X67292405Y-27868521D01*
X67252078Y-27824073D01*
X67240558Y-27755160D01*
X67268125Y-27690958D01*
X67291709Y-27670521D01*
X67291002Y-27669547D01*
X67294945Y-27666682D01*
X67468651Y-27540477D01*
X67620477Y-27388651D01*
X67746683Y-27214944D01*
X67746683Y-27214943D01*
X67749547Y-27211002D01*
X67751478Y-27212405D01*
X67795927Y-27172078D01*
X67864840Y-27160558D01*
X67929042Y-27188125D01*
X67949478Y-27211709D01*
X67950453Y-27211002D01*
X67953316Y-27214943D01*
X67953317Y-27214944D01*
X68079523Y-27388651D01*
X68231349Y-27540477D01*
X68405056Y-27666683D01*
X68489067Y-27709489D01*
X68596366Y-27764161D01*
X68596369Y-27764162D01*
X68632302Y-27775837D01*
X68800573Y-27830511D01*
X69012643Y-27864100D01*
X69012644Y-27864100D01*
X69227356Y-27864100D01*
X69227357Y-27864100D01*
X69439427Y-27830511D01*
X69643633Y-27764161D01*
X69834944Y-27666683D01*
X70008651Y-27540477D01*
X70160477Y-27388651D01*
X70286683Y-27214944D01*
X70286683Y-27214943D01*
X70289547Y-27211002D01*
X70291478Y-27212405D01*
X70335927Y-27172078D01*
X70404840Y-27160558D01*
X70469042Y-27188125D01*
G37*
%TD.AperFunction*%
%TA.AperFunction,Conductor*%
G36*
X50149042Y-27188125D02*
G01*
X50169478Y-27211709D01*
X50170453Y-27211002D01*
X50173316Y-27214943D01*
X50173317Y-27214944D01*
X50299523Y-27388651D01*
X50451349Y-27540477D01*
X50625055Y-27666682D01*
X50628998Y-27669547D01*
X50627624Y-27671437D01*
X50668030Y-27716152D01*
X50679411Y-27785089D01*
X50651715Y-27849235D01*
X50628314Y-27869511D01*
X50628998Y-27870453D01*
X50625056Y-27873316D01*
X50625056Y-27873317D01*
X50451349Y-27999523D01*
X50451347Y-27999525D01*
X50451346Y-27999525D01*
X50299525Y-28151346D01*
X50299525Y-28151347D01*
X50299523Y-28151349D01*
X50245322Y-28225949D01*
X50173317Y-28325055D01*
X50075838Y-28516366D01*
X50075837Y-28516369D01*
X50009489Y-28720571D01*
X49975900Y-28932643D01*
X49975900Y-29147356D01*
X50009489Y-29359428D01*
X50075837Y-29563630D01*
X50075838Y-29563633D01*
X50153177Y-29715417D01*
X50173317Y-29754944D01*
X50299523Y-29928651D01*
X50451349Y-30080477D01*
X50625056Y-30206683D01*
X50684300Y-30236869D01*
X50707637Y-30258910D01*
X50732000Y-30279818D01*
X50733614Y-30283443D01*
X50735095Y-30284842D01*
X50746815Y-30311852D01*
X50747312Y-30313517D01*
X50780423Y-30437085D01*
X50781058Y-30438184D01*
X50788323Y-30450768D01*
X50788324Y-30450770D01*
X50859475Y-30574009D01*
X50859481Y-30574017D01*
X50978349Y-30692885D01*
X50978355Y-30692890D01*
X54979781Y-34694316D01*
X55013266Y-34755639D01*
X55016100Y-34781997D01*
X55016100Y-39317235D01*
X54996415Y-39384274D01*
X54943611Y-39430029D01*
X54874453Y-39439973D01*
X54867909Y-39438852D01*
X54812346Y-39427800D01*
X54812342Y-39427800D01*
X54654658Y-39427800D01*
X54654655Y-39427800D01*
X54500010Y-39458561D01*
X54499998Y-39458564D01*
X54354327Y-39518902D01*
X54354314Y-39518909D01*
X54222625Y-39606902D01*
X54155947Y-39627780D01*
X54153734Y-39627800D01*
X53557297Y-39627800D01*
X53490258Y-39608115D01*
X53469616Y-39591481D01*
X44323682Y-30445547D01*
X44290197Y-30384224D01*
X44295181Y-30314532D01*
X44337053Y-30258599D01*
X44355065Y-30247383D01*
X44434944Y-30206683D01*
X44608651Y-30080477D01*
X44760477Y-29928651D01*
X44886683Y-29754944D01*
X44886683Y-29754943D01*
X44889547Y-29751002D01*
X44891478Y-29752405D01*
X44935927Y-29712078D01*
X45004840Y-29700558D01*
X45069042Y-29728125D01*
X45089478Y-29751709D01*
X45090453Y-29751002D01*
X45093316Y-29754943D01*
X45093317Y-29754944D01*
X45219523Y-29928651D01*
X45371349Y-30080477D01*
X45545056Y-30206683D01*
X45611881Y-30240732D01*
X45736366Y-30304161D01*
X45736369Y-30304162D01*
X45838470Y-30337336D01*
X45940573Y-30370511D01*
X46152643Y-30404100D01*
X46152644Y-30404100D01*
X46367356Y-30404100D01*
X46367357Y-30404100D01*
X46579427Y-30370511D01*
X46783633Y-30304161D01*
X46974944Y-30206683D01*
X47148651Y-30080477D01*
X47300477Y-29928651D01*
X47426683Y-29754944D01*
X47524161Y-29563633D01*
X47590511Y-29359427D01*
X47624100Y-29147357D01*
X47624100Y-28932643D01*
X47590511Y-28720573D01*
X47532742Y-28542777D01*
X47524162Y-28516369D01*
X47524161Y-28516366D01*
X47440266Y-28351715D01*
X47426683Y-28325056D01*
X47300477Y-28151349D01*
X47148651Y-27999523D01*
X46974944Y-27873317D01*
X46974943Y-27873316D01*
X46971002Y-27870453D01*
X46972405Y-27868521D01*
X46932078Y-27824073D01*
X46920558Y-27755160D01*
X46948125Y-27690958D01*
X46971709Y-27670521D01*
X46971002Y-27669547D01*
X46974945Y-27666682D01*
X47148651Y-27540477D01*
X47300477Y-27388651D01*
X47426683Y-27214944D01*
X47426683Y-27214943D01*
X47429547Y-27211002D01*
X47431478Y-27212405D01*
X47475927Y-27172078D01*
X47544840Y-27160558D01*
X47609042Y-27188125D01*
X47629478Y-27211709D01*
X47630453Y-27211002D01*
X47633316Y-27214943D01*
X47633317Y-27214944D01*
X47759523Y-27388651D01*
X47911349Y-27540477D01*
X48085056Y-27666683D01*
X48169067Y-27709489D01*
X48276366Y-27764161D01*
X48276369Y-27764162D01*
X48312302Y-27775837D01*
X48480573Y-27830511D01*
X48692643Y-27864100D01*
X48692644Y-27864100D01*
X48907356Y-27864100D01*
X48907357Y-27864100D01*
X49119427Y-27830511D01*
X49323633Y-27764161D01*
X49514944Y-27666683D01*
X49688651Y-27540477D01*
X49840477Y-27388651D01*
X49966683Y-27214944D01*
X49966683Y-27214943D01*
X49969547Y-27211002D01*
X49971478Y-27212405D01*
X50015927Y-27172078D01*
X50084840Y-27160558D01*
X50149042Y-27188125D01*
G37*
%TD.AperFunction*%
%TD*%
M02*
