%TF.GenerationSoftware,KiCad,Pcbnew,9.0.7*%
%TF.CreationDate,2026-03-09T20:46:40-05:00*%
%TF.ProjectId,fsae_pcb,66736165-5f70-4636-922e-6b696361645f,rev?*%
%TF.SameCoordinates,Original*%
%TF.FileFunction,Legend,Top*%
%TF.FilePolarity,Positive*%
%FSLAX46Y46*%
G04 Gerber Fmt 4.6, Leading zero omitted, Abs format (unit mm)*
G04 Created by KiCad (PCBNEW 9.0.7) date 2026-03-09 20:46:40*
%MOMM*%
%LPD*%
G01*
G04 APERTURE LIST*
%ADD10C,0.150000*%
%ADD11C,0.120000*%
%ADD12R,1.727200X1.727200*%
%ADD13O,1.727200X1.727200*%
G04 APERTURE END LIST*
D10*
X77333333Y-55704819D02*
X76857143Y-55704819D01*
X76857143Y-55704819D02*
X76857143Y-54704819D01*
X78190476Y-55704819D02*
X77619048Y-55704819D01*
X77904762Y-55704819D02*
X77904762Y-54704819D01*
X77904762Y-54704819D02*
X77809524Y-54847676D01*
X77809524Y-54847676D02*
X77714286Y-54942914D01*
X77714286Y-54942914D02*
X77619048Y-54990533D01*
X56436309Y-59804819D02*
X56102976Y-59328628D01*
X55864881Y-59804819D02*
X55864881Y-58804819D01*
X55864881Y-58804819D02*
X56245833Y-58804819D01*
X56245833Y-58804819D02*
X56341071Y-58852438D01*
X56341071Y-58852438D02*
X56388690Y-58900057D01*
X56388690Y-58900057D02*
X56436309Y-58995295D01*
X56436309Y-58995295D02*
X56436309Y-59138152D01*
X56436309Y-59138152D02*
X56388690Y-59233390D01*
X56388690Y-59233390D02*
X56341071Y-59281009D01*
X56341071Y-59281009D02*
X56245833Y-59328628D01*
X56245833Y-59328628D02*
X55864881Y-59328628D01*
X56626786Y-59900057D02*
X57388690Y-59900057D01*
X57960119Y-59281009D02*
X57626786Y-59281009D01*
X57626786Y-59804819D02*
X57626786Y-58804819D01*
X57626786Y-58804819D02*
X58102976Y-58804819D01*
X58817262Y-59281009D02*
X58960119Y-59328628D01*
X58960119Y-59328628D02*
X59007738Y-59376247D01*
X59007738Y-59376247D02*
X59055357Y-59471485D01*
X59055357Y-59471485D02*
X59055357Y-59614342D01*
X59055357Y-59614342D02*
X59007738Y-59709580D01*
X59007738Y-59709580D02*
X58960119Y-59757200D01*
X58960119Y-59757200D02*
X58864881Y-59804819D01*
X58864881Y-59804819D02*
X58483929Y-59804819D01*
X58483929Y-59804819D02*
X58483929Y-58804819D01*
X58483929Y-58804819D02*
X58817262Y-58804819D01*
X58817262Y-58804819D02*
X58912500Y-58852438D01*
X58912500Y-58852438D02*
X58960119Y-58900057D01*
X58960119Y-58900057D02*
X59007738Y-58995295D01*
X59007738Y-58995295D02*
X59007738Y-59090533D01*
X59007738Y-59090533D02*
X58960119Y-59185771D01*
X58960119Y-59185771D02*
X58912500Y-59233390D01*
X58912500Y-59233390D02*
X58817262Y-59281009D01*
X58817262Y-59281009D02*
X58483929Y-59281009D01*
X59436310Y-58900057D02*
X59483929Y-58852438D01*
X59483929Y-58852438D02*
X59579167Y-58804819D01*
X59579167Y-58804819D02*
X59817262Y-58804819D01*
X59817262Y-58804819D02*
X59912500Y-58852438D01*
X59912500Y-58852438D02*
X59960119Y-58900057D01*
X59960119Y-58900057D02*
X60007738Y-58995295D01*
X60007738Y-58995295D02*
X60007738Y-59090533D01*
X60007738Y-59090533D02*
X59960119Y-59233390D01*
X59960119Y-59233390D02*
X59388691Y-59804819D01*
X59388691Y-59804819D02*
X60007738Y-59804819D01*
X44166666Y-43739819D02*
X44166666Y-44454104D01*
X44166666Y-44454104D02*
X44119047Y-44596961D01*
X44119047Y-44596961D02*
X44023809Y-44692200D01*
X44023809Y-44692200D02*
X43880952Y-44739819D01*
X43880952Y-44739819D02*
X43785714Y-44739819D01*
X44642857Y-44739819D02*
X44642857Y-43739819D01*
X44642857Y-43739819D02*
X45023809Y-43739819D01*
X45023809Y-43739819D02*
X45119047Y-43787438D01*
X45119047Y-43787438D02*
X45166666Y-43835057D01*
X45166666Y-43835057D02*
X45214285Y-43930295D01*
X45214285Y-43930295D02*
X45214285Y-44073152D01*
X45214285Y-44073152D02*
X45166666Y-44168390D01*
X45166666Y-44168390D02*
X45119047Y-44216009D01*
X45119047Y-44216009D02*
X45023809Y-44263628D01*
X45023809Y-44263628D02*
X44642857Y-44263628D01*
X46166666Y-44739819D02*
X45595238Y-44739819D01*
X45880952Y-44739819D02*
X45880952Y-43739819D01*
X45880952Y-43739819D02*
X45785714Y-43882676D01*
X45785714Y-43882676D02*
X45690476Y-43977914D01*
X45690476Y-43977914D02*
X45595238Y-44025533D01*
X90166667Y-31404819D02*
X90166667Y-30404819D01*
X90166667Y-30404819D02*
X90500000Y-31119104D01*
X90500000Y-31119104D02*
X90833333Y-30404819D01*
X90833333Y-30404819D02*
X90833333Y-31404819D01*
X91309524Y-31404819D02*
X91309524Y-30404819D01*
X91309524Y-30881009D02*
X91880952Y-30881009D01*
X91880952Y-31404819D02*
X91880952Y-30404819D01*
X92309524Y-30500057D02*
X92357143Y-30452438D01*
X92357143Y-30452438D02*
X92452381Y-30404819D01*
X92452381Y-30404819D02*
X92690476Y-30404819D01*
X92690476Y-30404819D02*
X92785714Y-30452438D01*
X92785714Y-30452438D02*
X92833333Y-30500057D01*
X92833333Y-30500057D02*
X92880952Y-30595295D01*
X92880952Y-30595295D02*
X92880952Y-30690533D01*
X92880952Y-30690533D02*
X92833333Y-30833390D01*
X92833333Y-30833390D02*
X92261905Y-31404819D01*
X92261905Y-31404819D02*
X92880952Y-31404819D01*
X56023809Y-56304819D02*
X55690476Y-55828628D01*
X55452381Y-56304819D02*
X55452381Y-55304819D01*
X55452381Y-55304819D02*
X55833333Y-55304819D01*
X55833333Y-55304819D02*
X55928571Y-55352438D01*
X55928571Y-55352438D02*
X55976190Y-55400057D01*
X55976190Y-55400057D02*
X56023809Y-55495295D01*
X56023809Y-55495295D02*
X56023809Y-55638152D01*
X56023809Y-55638152D02*
X55976190Y-55733390D01*
X55976190Y-55733390D02*
X55928571Y-55781009D01*
X55928571Y-55781009D02*
X55833333Y-55828628D01*
X55833333Y-55828628D02*
X55452381Y-55828628D01*
X56214286Y-56400057D02*
X56976190Y-56400057D01*
X57547619Y-55781009D02*
X57214286Y-55781009D01*
X57214286Y-56304819D02*
X57214286Y-55304819D01*
X57214286Y-55304819D02*
X57690476Y-55304819D01*
X58404762Y-55781009D02*
X58547619Y-55828628D01*
X58547619Y-55828628D02*
X58595238Y-55876247D01*
X58595238Y-55876247D02*
X58642857Y-55971485D01*
X58642857Y-55971485D02*
X58642857Y-56114342D01*
X58642857Y-56114342D02*
X58595238Y-56209580D01*
X58595238Y-56209580D02*
X58547619Y-56257200D01*
X58547619Y-56257200D02*
X58452381Y-56304819D01*
X58452381Y-56304819D02*
X58071429Y-56304819D01*
X58071429Y-56304819D02*
X58071429Y-55304819D01*
X58071429Y-55304819D02*
X58404762Y-55304819D01*
X58404762Y-55304819D02*
X58500000Y-55352438D01*
X58500000Y-55352438D02*
X58547619Y-55400057D01*
X58547619Y-55400057D02*
X58595238Y-55495295D01*
X58595238Y-55495295D02*
X58595238Y-55590533D01*
X58595238Y-55590533D02*
X58547619Y-55685771D01*
X58547619Y-55685771D02*
X58500000Y-55733390D01*
X58500000Y-55733390D02*
X58404762Y-55781009D01*
X58404762Y-55781009D02*
X58071429Y-55781009D01*
X59595238Y-56304819D02*
X59023810Y-56304819D01*
X59309524Y-56304819D02*
X59309524Y-55304819D01*
X59309524Y-55304819D02*
X59214286Y-55447676D01*
X59214286Y-55447676D02*
X59119048Y-55542914D01*
X59119048Y-55542914D02*
X59023810Y-55590533D01*
X45380952Y-54934819D02*
X44904762Y-54934819D01*
X44904762Y-54934819D02*
X44904762Y-53934819D01*
X45714286Y-54411009D02*
X46047619Y-54411009D01*
X46190476Y-54934819D02*
X45714286Y-54934819D01*
X45714286Y-54934819D02*
X45714286Y-53934819D01*
X45714286Y-53934819D02*
X46190476Y-53934819D01*
X46619048Y-54934819D02*
X46619048Y-53934819D01*
X46619048Y-53934819D02*
X46857143Y-53934819D01*
X46857143Y-53934819D02*
X47000000Y-53982438D01*
X47000000Y-53982438D02*
X47095238Y-54077676D01*
X47095238Y-54077676D02*
X47142857Y-54172914D01*
X47142857Y-54172914D02*
X47190476Y-54363390D01*
X47190476Y-54363390D02*
X47190476Y-54506247D01*
X47190476Y-54506247D02*
X47142857Y-54696723D01*
X47142857Y-54696723D02*
X47095238Y-54791961D01*
X47095238Y-54791961D02*
X47000000Y-54887200D01*
X47000000Y-54887200D02*
X46857143Y-54934819D01*
X46857143Y-54934819D02*
X46619048Y-54934819D01*
X47571429Y-54030057D02*
X47619048Y-53982438D01*
X47619048Y-53982438D02*
X47714286Y-53934819D01*
X47714286Y-53934819D02*
X47952381Y-53934819D01*
X47952381Y-53934819D02*
X48047619Y-53982438D01*
X48047619Y-53982438D02*
X48095238Y-54030057D01*
X48095238Y-54030057D02*
X48142857Y-54125295D01*
X48142857Y-54125295D02*
X48142857Y-54220533D01*
X48142857Y-54220533D02*
X48095238Y-54363390D01*
X48095238Y-54363390D02*
X47523810Y-54934819D01*
X47523810Y-54934819D02*
X48142857Y-54934819D01*
X55666666Y-72931009D02*
X55333333Y-72931009D01*
X55333333Y-73454819D02*
X55333333Y-72454819D01*
X55333333Y-72454819D02*
X55809523Y-72454819D01*
X56714285Y-73454819D02*
X56142857Y-73454819D01*
X56428571Y-73454819D02*
X56428571Y-72454819D01*
X56428571Y-72454819D02*
X56333333Y-72597676D01*
X56333333Y-72597676D02*
X56238095Y-72692914D01*
X56238095Y-72692914D02*
X56142857Y-72740533D01*
X36127319Y-48358333D02*
X36841604Y-48358333D01*
X36841604Y-48358333D02*
X36984461Y-48405952D01*
X36984461Y-48405952D02*
X37079700Y-48501190D01*
X37079700Y-48501190D02*
X37127319Y-48644047D01*
X37127319Y-48644047D02*
X37127319Y-48739285D01*
X36460652Y-47453571D02*
X37127319Y-47453571D01*
X36079700Y-47691666D02*
X36793985Y-47929761D01*
X36793985Y-47929761D02*
X36793985Y-47310714D01*
X59357142Y-32179580D02*
X59309523Y-32227200D01*
X59309523Y-32227200D02*
X59166666Y-32274819D01*
X59166666Y-32274819D02*
X59071428Y-32274819D01*
X59071428Y-32274819D02*
X58928571Y-32227200D01*
X58928571Y-32227200D02*
X58833333Y-32131961D01*
X58833333Y-32131961D02*
X58785714Y-32036723D01*
X58785714Y-32036723D02*
X58738095Y-31846247D01*
X58738095Y-31846247D02*
X58738095Y-31703390D01*
X58738095Y-31703390D02*
X58785714Y-31512914D01*
X58785714Y-31512914D02*
X58833333Y-31417676D01*
X58833333Y-31417676D02*
X58928571Y-31322438D01*
X58928571Y-31322438D02*
X59071428Y-31274819D01*
X59071428Y-31274819D02*
X59166666Y-31274819D01*
X59166666Y-31274819D02*
X59309523Y-31322438D01*
X59309523Y-31322438D02*
X59357142Y-31370057D01*
X60309523Y-32274819D02*
X59738095Y-32274819D01*
X60023809Y-32274819D02*
X60023809Y-31274819D01*
X60023809Y-31274819D02*
X59928571Y-31417676D01*
X59928571Y-31417676D02*
X59833333Y-31512914D01*
X59833333Y-31512914D02*
X59738095Y-31560533D01*
X61261904Y-32274819D02*
X60690476Y-32274819D01*
X60976190Y-32274819D02*
X60976190Y-31274819D01*
X60976190Y-31274819D02*
X60880952Y-31417676D01*
X60880952Y-31417676D02*
X60785714Y-31512914D01*
X60785714Y-31512914D02*
X60690476Y-31560533D01*
X66833333Y-56129580D02*
X66785714Y-56177200D01*
X66785714Y-56177200D02*
X66642857Y-56224819D01*
X66642857Y-56224819D02*
X66547619Y-56224819D01*
X66547619Y-56224819D02*
X66404762Y-56177200D01*
X66404762Y-56177200D02*
X66309524Y-56081961D01*
X66309524Y-56081961D02*
X66261905Y-55986723D01*
X66261905Y-55986723D02*
X66214286Y-55796247D01*
X66214286Y-55796247D02*
X66214286Y-55653390D01*
X66214286Y-55653390D02*
X66261905Y-55462914D01*
X66261905Y-55462914D02*
X66309524Y-55367676D01*
X66309524Y-55367676D02*
X66404762Y-55272438D01*
X66404762Y-55272438D02*
X66547619Y-55224819D01*
X66547619Y-55224819D02*
X66642857Y-55224819D01*
X66642857Y-55224819D02*
X66785714Y-55272438D01*
X66785714Y-55272438D02*
X66833333Y-55320057D01*
X67785714Y-56224819D02*
X67214286Y-56224819D01*
X67500000Y-56224819D02*
X67500000Y-55224819D01*
X67500000Y-55224819D02*
X67404762Y-55367676D01*
X67404762Y-55367676D02*
X67309524Y-55462914D01*
X67309524Y-55462914D02*
X67214286Y-55510533D01*
X52833333Y-55454819D02*
X52500000Y-54978628D01*
X52261905Y-55454819D02*
X52261905Y-54454819D01*
X52261905Y-54454819D02*
X52642857Y-54454819D01*
X52642857Y-54454819D02*
X52738095Y-54502438D01*
X52738095Y-54502438D02*
X52785714Y-54550057D01*
X52785714Y-54550057D02*
X52833333Y-54645295D01*
X52833333Y-54645295D02*
X52833333Y-54788152D01*
X52833333Y-54788152D02*
X52785714Y-54883390D01*
X52785714Y-54883390D02*
X52738095Y-54931009D01*
X52738095Y-54931009D02*
X52642857Y-54978628D01*
X52642857Y-54978628D02*
X52261905Y-54978628D01*
X53214286Y-54550057D02*
X53261905Y-54502438D01*
X53261905Y-54502438D02*
X53357143Y-54454819D01*
X53357143Y-54454819D02*
X53595238Y-54454819D01*
X53595238Y-54454819D02*
X53690476Y-54502438D01*
X53690476Y-54502438D02*
X53738095Y-54550057D01*
X53738095Y-54550057D02*
X53785714Y-54645295D01*
X53785714Y-54645295D02*
X53785714Y-54740533D01*
X53785714Y-54740533D02*
X53738095Y-54883390D01*
X53738095Y-54883390D02*
X53166667Y-55454819D01*
X53166667Y-55454819D02*
X53785714Y-55454819D01*
X66357142Y-59679580D02*
X66309523Y-59727200D01*
X66309523Y-59727200D02*
X66166666Y-59774819D01*
X66166666Y-59774819D02*
X66071428Y-59774819D01*
X66071428Y-59774819D02*
X65928571Y-59727200D01*
X65928571Y-59727200D02*
X65833333Y-59631961D01*
X65833333Y-59631961D02*
X65785714Y-59536723D01*
X65785714Y-59536723D02*
X65738095Y-59346247D01*
X65738095Y-59346247D02*
X65738095Y-59203390D01*
X65738095Y-59203390D02*
X65785714Y-59012914D01*
X65785714Y-59012914D02*
X65833333Y-58917676D01*
X65833333Y-58917676D02*
X65928571Y-58822438D01*
X65928571Y-58822438D02*
X66071428Y-58774819D01*
X66071428Y-58774819D02*
X66166666Y-58774819D01*
X66166666Y-58774819D02*
X66309523Y-58822438D01*
X66309523Y-58822438D02*
X66357142Y-58870057D01*
X66738095Y-58870057D02*
X66785714Y-58822438D01*
X66785714Y-58822438D02*
X66880952Y-58774819D01*
X66880952Y-58774819D02*
X67119047Y-58774819D01*
X67119047Y-58774819D02*
X67214285Y-58822438D01*
X67214285Y-58822438D02*
X67261904Y-58870057D01*
X67261904Y-58870057D02*
X67309523Y-58965295D01*
X67309523Y-58965295D02*
X67309523Y-59060533D01*
X67309523Y-59060533D02*
X67261904Y-59203390D01*
X67261904Y-59203390D02*
X66690476Y-59774819D01*
X66690476Y-59774819D02*
X67309523Y-59774819D01*
X68261904Y-59774819D02*
X67690476Y-59774819D01*
X67976190Y-59774819D02*
X67976190Y-58774819D01*
X67976190Y-58774819D02*
X67880952Y-58917676D01*
X67880952Y-58917676D02*
X67785714Y-59012914D01*
X67785714Y-59012914D02*
X67690476Y-59060533D01*
X56668095Y-62304819D02*
X56668095Y-63114342D01*
X56668095Y-63114342D02*
X56715714Y-63209580D01*
X56715714Y-63209580D02*
X56763333Y-63257200D01*
X56763333Y-63257200D02*
X56858571Y-63304819D01*
X56858571Y-63304819D02*
X57049047Y-63304819D01*
X57049047Y-63304819D02*
X57144285Y-63257200D01*
X57144285Y-63257200D02*
X57191904Y-63209580D01*
X57191904Y-63209580D02*
X57239523Y-63114342D01*
X57239523Y-63114342D02*
X57239523Y-62304819D01*
X57620476Y-62304819D02*
X58239523Y-62304819D01*
X58239523Y-62304819D02*
X57906190Y-62685771D01*
X57906190Y-62685771D02*
X58049047Y-62685771D01*
X58049047Y-62685771D02*
X58144285Y-62733390D01*
X58144285Y-62733390D02*
X58191904Y-62781009D01*
X58191904Y-62781009D02*
X58239523Y-62876247D01*
X58239523Y-62876247D02*
X58239523Y-63114342D01*
X58239523Y-63114342D02*
X58191904Y-63209580D01*
X58191904Y-63209580D02*
X58144285Y-63257200D01*
X58144285Y-63257200D02*
X58049047Y-63304819D01*
X58049047Y-63304819D02*
X57763333Y-63304819D01*
X57763333Y-63304819D02*
X57668095Y-63257200D01*
X57668095Y-63257200D02*
X57620476Y-63209580D01*
X53333333Y-60179580D02*
X53285714Y-60227200D01*
X53285714Y-60227200D02*
X53142857Y-60274819D01*
X53142857Y-60274819D02*
X53047619Y-60274819D01*
X53047619Y-60274819D02*
X52904762Y-60227200D01*
X52904762Y-60227200D02*
X52809524Y-60131961D01*
X52809524Y-60131961D02*
X52761905Y-60036723D01*
X52761905Y-60036723D02*
X52714286Y-59846247D01*
X52714286Y-59846247D02*
X52714286Y-59703390D01*
X52714286Y-59703390D02*
X52761905Y-59512914D01*
X52761905Y-59512914D02*
X52809524Y-59417676D01*
X52809524Y-59417676D02*
X52904762Y-59322438D01*
X52904762Y-59322438D02*
X53047619Y-59274819D01*
X53047619Y-59274819D02*
X53142857Y-59274819D01*
X53142857Y-59274819D02*
X53285714Y-59322438D01*
X53285714Y-59322438D02*
X53333333Y-59370057D01*
X54238095Y-59274819D02*
X53761905Y-59274819D01*
X53761905Y-59274819D02*
X53714286Y-59751009D01*
X53714286Y-59751009D02*
X53761905Y-59703390D01*
X53761905Y-59703390D02*
X53857143Y-59655771D01*
X53857143Y-59655771D02*
X54095238Y-59655771D01*
X54095238Y-59655771D02*
X54190476Y-59703390D01*
X54190476Y-59703390D02*
X54238095Y-59751009D01*
X54238095Y-59751009D02*
X54285714Y-59846247D01*
X54285714Y-59846247D02*
X54285714Y-60084342D01*
X54285714Y-60084342D02*
X54238095Y-60179580D01*
X54238095Y-60179580D02*
X54190476Y-60227200D01*
X54190476Y-60227200D02*
X54095238Y-60274819D01*
X54095238Y-60274819D02*
X53857143Y-60274819D01*
X53857143Y-60274819D02*
X53761905Y-60227200D01*
X53761905Y-60227200D02*
X53714286Y-60179580D01*
X62333333Y-56179580D02*
X62285714Y-56227200D01*
X62285714Y-56227200D02*
X62142857Y-56274819D01*
X62142857Y-56274819D02*
X62047619Y-56274819D01*
X62047619Y-56274819D02*
X61904762Y-56227200D01*
X61904762Y-56227200D02*
X61809524Y-56131961D01*
X61809524Y-56131961D02*
X61761905Y-56036723D01*
X61761905Y-56036723D02*
X61714286Y-55846247D01*
X61714286Y-55846247D02*
X61714286Y-55703390D01*
X61714286Y-55703390D02*
X61761905Y-55512914D01*
X61761905Y-55512914D02*
X61809524Y-55417676D01*
X61809524Y-55417676D02*
X61904762Y-55322438D01*
X61904762Y-55322438D02*
X62047619Y-55274819D01*
X62047619Y-55274819D02*
X62142857Y-55274819D01*
X62142857Y-55274819D02*
X62285714Y-55322438D01*
X62285714Y-55322438D02*
X62333333Y-55370057D01*
X63190476Y-55608152D02*
X63190476Y-56274819D01*
X62952381Y-55227200D02*
X62714286Y-55941485D01*
X62714286Y-55941485D02*
X63333333Y-55941485D01*
X71833333Y-50859580D02*
X71785714Y-50907200D01*
X71785714Y-50907200D02*
X71642857Y-50954819D01*
X71642857Y-50954819D02*
X71547619Y-50954819D01*
X71547619Y-50954819D02*
X71404762Y-50907200D01*
X71404762Y-50907200D02*
X71309524Y-50811961D01*
X71309524Y-50811961D02*
X71261905Y-50716723D01*
X71261905Y-50716723D02*
X71214286Y-50526247D01*
X71214286Y-50526247D02*
X71214286Y-50383390D01*
X71214286Y-50383390D02*
X71261905Y-50192914D01*
X71261905Y-50192914D02*
X71309524Y-50097676D01*
X71309524Y-50097676D02*
X71404762Y-50002438D01*
X71404762Y-50002438D02*
X71547619Y-49954819D01*
X71547619Y-49954819D02*
X71642857Y-49954819D01*
X71642857Y-49954819D02*
X71785714Y-50002438D01*
X71785714Y-50002438D02*
X71833333Y-50050057D01*
X72214286Y-50050057D02*
X72261905Y-50002438D01*
X72261905Y-50002438D02*
X72357143Y-49954819D01*
X72357143Y-49954819D02*
X72595238Y-49954819D01*
X72595238Y-49954819D02*
X72690476Y-50002438D01*
X72690476Y-50002438D02*
X72738095Y-50050057D01*
X72738095Y-50050057D02*
X72785714Y-50145295D01*
X72785714Y-50145295D02*
X72785714Y-50240533D01*
X72785714Y-50240533D02*
X72738095Y-50383390D01*
X72738095Y-50383390D02*
X72166667Y-50954819D01*
X72166667Y-50954819D02*
X72785714Y-50954819D01*
X56498628Y-49416190D02*
X56974819Y-49416190D01*
X55974819Y-49749523D02*
X56498628Y-49416190D01*
X56498628Y-49416190D02*
X55974819Y-49082857D01*
X56974819Y-48225714D02*
X56974819Y-48797142D01*
X56974819Y-48511428D02*
X55974819Y-48511428D01*
X55974819Y-48511428D02*
X56117676Y-48606666D01*
X56117676Y-48606666D02*
X56212914Y-48701904D01*
X56212914Y-48701904D02*
X56260533Y-48797142D01*
X62333333Y-59679580D02*
X62285714Y-59727200D01*
X62285714Y-59727200D02*
X62142857Y-59774819D01*
X62142857Y-59774819D02*
X62047619Y-59774819D01*
X62047619Y-59774819D02*
X61904762Y-59727200D01*
X61904762Y-59727200D02*
X61809524Y-59631961D01*
X61809524Y-59631961D02*
X61761905Y-59536723D01*
X61761905Y-59536723D02*
X61714286Y-59346247D01*
X61714286Y-59346247D02*
X61714286Y-59203390D01*
X61714286Y-59203390D02*
X61761905Y-59012914D01*
X61761905Y-59012914D02*
X61809524Y-58917676D01*
X61809524Y-58917676D02*
X61904762Y-58822438D01*
X61904762Y-58822438D02*
X62047619Y-58774819D01*
X62047619Y-58774819D02*
X62142857Y-58774819D01*
X62142857Y-58774819D02*
X62285714Y-58822438D01*
X62285714Y-58822438D02*
X62333333Y-58870057D01*
X62666667Y-58774819D02*
X63285714Y-58774819D01*
X63285714Y-58774819D02*
X62952381Y-59155771D01*
X62952381Y-59155771D02*
X63095238Y-59155771D01*
X63095238Y-59155771D02*
X63190476Y-59203390D01*
X63190476Y-59203390D02*
X63238095Y-59251009D01*
X63238095Y-59251009D02*
X63285714Y-59346247D01*
X63285714Y-59346247D02*
X63285714Y-59584342D01*
X63285714Y-59584342D02*
X63238095Y-59679580D01*
X63238095Y-59679580D02*
X63190476Y-59727200D01*
X63190476Y-59727200D02*
X63095238Y-59774819D01*
X63095238Y-59774819D02*
X62809524Y-59774819D01*
X62809524Y-59774819D02*
X62714286Y-59727200D01*
X62714286Y-59727200D02*
X62666667Y-59679580D01*
X62388095Y-41314819D02*
X62388095Y-42124342D01*
X62388095Y-42124342D02*
X62435714Y-42219580D01*
X62435714Y-42219580D02*
X62483333Y-42267200D01*
X62483333Y-42267200D02*
X62578571Y-42314819D01*
X62578571Y-42314819D02*
X62769047Y-42314819D01*
X62769047Y-42314819D02*
X62864285Y-42267200D01*
X62864285Y-42267200D02*
X62911904Y-42219580D01*
X62911904Y-42219580D02*
X62959523Y-42124342D01*
X62959523Y-42124342D02*
X62959523Y-41314819D01*
X63959523Y-42314819D02*
X63388095Y-42314819D01*
X63673809Y-42314819D02*
X63673809Y-41314819D01*
X63673809Y-41314819D02*
X63578571Y-41457676D01*
X63578571Y-41457676D02*
X63483333Y-41552914D01*
X63483333Y-41552914D02*
X63388095Y-41600533D01*
X74763095Y-41959819D02*
X74763095Y-42769342D01*
X74763095Y-42769342D02*
X74810714Y-42864580D01*
X74810714Y-42864580D02*
X74858333Y-42912200D01*
X74858333Y-42912200D02*
X74953571Y-42959819D01*
X74953571Y-42959819D02*
X75144047Y-42959819D01*
X75144047Y-42959819D02*
X75239285Y-42912200D01*
X75239285Y-42912200D02*
X75286904Y-42864580D01*
X75286904Y-42864580D02*
X75334523Y-42769342D01*
X75334523Y-42769342D02*
X75334523Y-41959819D01*
X75763095Y-42055057D02*
X75810714Y-42007438D01*
X75810714Y-42007438D02*
X75905952Y-41959819D01*
X75905952Y-41959819D02*
X76144047Y-41959819D01*
X76144047Y-41959819D02*
X76239285Y-42007438D01*
X76239285Y-42007438D02*
X76286904Y-42055057D01*
X76286904Y-42055057D02*
X76334523Y-42150295D01*
X76334523Y-42150295D02*
X76334523Y-42245533D01*
X76334523Y-42245533D02*
X76286904Y-42388390D01*
X76286904Y-42388390D02*
X75715476Y-42959819D01*
X75715476Y-42959819D02*
X76334523Y-42959819D01*
X32166667Y-31404819D02*
X32166667Y-30404819D01*
X32166667Y-30404819D02*
X32500000Y-31119104D01*
X32500000Y-31119104D02*
X32833333Y-30404819D01*
X32833333Y-30404819D02*
X32833333Y-31404819D01*
X33309524Y-31404819D02*
X33309524Y-30404819D01*
X33309524Y-30881009D02*
X33880952Y-30881009D01*
X33880952Y-31404819D02*
X33880952Y-30404819D01*
X34880952Y-31404819D02*
X34309524Y-31404819D01*
X34595238Y-31404819D02*
X34595238Y-30404819D01*
X34595238Y-30404819D02*
X34500000Y-30547676D01*
X34500000Y-30547676D02*
X34404762Y-30642914D01*
X34404762Y-30642914D02*
X34309524Y-30690533D01*
X67357142Y-32179580D02*
X67309523Y-32227200D01*
X67309523Y-32227200D02*
X67166666Y-32274819D01*
X67166666Y-32274819D02*
X67071428Y-32274819D01*
X67071428Y-32274819D02*
X66928571Y-32227200D01*
X66928571Y-32227200D02*
X66833333Y-32131961D01*
X66833333Y-32131961D02*
X66785714Y-32036723D01*
X66785714Y-32036723D02*
X66738095Y-31846247D01*
X66738095Y-31846247D02*
X66738095Y-31703390D01*
X66738095Y-31703390D02*
X66785714Y-31512914D01*
X66785714Y-31512914D02*
X66833333Y-31417676D01*
X66833333Y-31417676D02*
X66928571Y-31322438D01*
X66928571Y-31322438D02*
X67071428Y-31274819D01*
X67071428Y-31274819D02*
X67166666Y-31274819D01*
X67166666Y-31274819D02*
X67309523Y-31322438D01*
X67309523Y-31322438D02*
X67357142Y-31370057D01*
X68309523Y-32274819D02*
X67738095Y-32274819D01*
X68023809Y-32274819D02*
X68023809Y-31274819D01*
X68023809Y-31274819D02*
X67928571Y-31417676D01*
X67928571Y-31417676D02*
X67833333Y-31512914D01*
X67833333Y-31512914D02*
X67738095Y-31560533D01*
X68690476Y-31370057D02*
X68738095Y-31322438D01*
X68738095Y-31322438D02*
X68833333Y-31274819D01*
X68833333Y-31274819D02*
X69071428Y-31274819D01*
X69071428Y-31274819D02*
X69166666Y-31322438D01*
X69166666Y-31322438D02*
X69214285Y-31370057D01*
X69214285Y-31370057D02*
X69261904Y-31465295D01*
X69261904Y-31465295D02*
X69261904Y-31560533D01*
X69261904Y-31560533D02*
X69214285Y-31703390D01*
X69214285Y-31703390D02*
X68642857Y-32274819D01*
X68642857Y-32274819D02*
X69261904Y-32274819D01*
X47261905Y-69804819D02*
X47261905Y-68804819D01*
X47261905Y-68804819D02*
X47500000Y-68804819D01*
X47500000Y-68804819D02*
X47642857Y-68852438D01*
X47642857Y-68852438D02*
X47738095Y-68947676D01*
X47738095Y-68947676D02*
X47785714Y-69042914D01*
X47785714Y-69042914D02*
X47833333Y-69233390D01*
X47833333Y-69233390D02*
X47833333Y-69376247D01*
X47833333Y-69376247D02*
X47785714Y-69566723D01*
X47785714Y-69566723D02*
X47738095Y-69661961D01*
X47738095Y-69661961D02*
X47642857Y-69757200D01*
X47642857Y-69757200D02*
X47500000Y-69804819D01*
X47500000Y-69804819D02*
X47261905Y-69804819D01*
X48214286Y-68900057D02*
X48261905Y-68852438D01*
X48261905Y-68852438D02*
X48357143Y-68804819D01*
X48357143Y-68804819D02*
X48595238Y-68804819D01*
X48595238Y-68804819D02*
X48690476Y-68852438D01*
X48690476Y-68852438D02*
X48738095Y-68900057D01*
X48738095Y-68900057D02*
X48785714Y-68995295D01*
X48785714Y-68995295D02*
X48785714Y-69090533D01*
X48785714Y-69090533D02*
X48738095Y-69233390D01*
X48738095Y-69233390D02*
X48166667Y-69804819D01*
X48166667Y-69804819D02*
X48785714Y-69804819D01*
X50807142Y-32359580D02*
X50759523Y-32407200D01*
X50759523Y-32407200D02*
X50616666Y-32454819D01*
X50616666Y-32454819D02*
X50521428Y-32454819D01*
X50521428Y-32454819D02*
X50378571Y-32407200D01*
X50378571Y-32407200D02*
X50283333Y-32311961D01*
X50283333Y-32311961D02*
X50235714Y-32216723D01*
X50235714Y-32216723D02*
X50188095Y-32026247D01*
X50188095Y-32026247D02*
X50188095Y-31883390D01*
X50188095Y-31883390D02*
X50235714Y-31692914D01*
X50235714Y-31692914D02*
X50283333Y-31597676D01*
X50283333Y-31597676D02*
X50378571Y-31502438D01*
X50378571Y-31502438D02*
X50521428Y-31454819D01*
X50521428Y-31454819D02*
X50616666Y-31454819D01*
X50616666Y-31454819D02*
X50759523Y-31502438D01*
X50759523Y-31502438D02*
X50807142Y-31550057D01*
X51759523Y-32454819D02*
X51188095Y-32454819D01*
X51473809Y-32454819D02*
X51473809Y-31454819D01*
X51473809Y-31454819D02*
X51378571Y-31597676D01*
X51378571Y-31597676D02*
X51283333Y-31692914D01*
X51283333Y-31692914D02*
X51188095Y-31740533D01*
X52616666Y-31788152D02*
X52616666Y-32454819D01*
X52378571Y-31407200D02*
X52140476Y-32121485D01*
X52140476Y-32121485D02*
X52759523Y-32121485D01*
X32166667Y-73504819D02*
X32166667Y-72504819D01*
X32166667Y-72504819D02*
X32500000Y-73219104D01*
X32500000Y-73219104D02*
X32833333Y-72504819D01*
X32833333Y-72504819D02*
X32833333Y-73504819D01*
X33309524Y-73504819D02*
X33309524Y-72504819D01*
X33309524Y-72981009D02*
X33880952Y-72981009D01*
X33880952Y-73504819D02*
X33880952Y-72504819D01*
X34261905Y-72504819D02*
X34880952Y-72504819D01*
X34880952Y-72504819D02*
X34547619Y-72885771D01*
X34547619Y-72885771D02*
X34690476Y-72885771D01*
X34690476Y-72885771D02*
X34785714Y-72933390D01*
X34785714Y-72933390D02*
X34833333Y-72981009D01*
X34833333Y-72981009D02*
X34880952Y-73076247D01*
X34880952Y-73076247D02*
X34880952Y-73314342D01*
X34880952Y-73314342D02*
X34833333Y-73409580D01*
X34833333Y-73409580D02*
X34785714Y-73457200D01*
X34785714Y-73457200D02*
X34690476Y-73504819D01*
X34690476Y-73504819D02*
X34404762Y-73504819D01*
X34404762Y-73504819D02*
X34309524Y-73457200D01*
X34309524Y-73457200D02*
X34261905Y-73409580D01*
X42602319Y-65328333D02*
X43316604Y-65328333D01*
X43316604Y-65328333D02*
X43459461Y-65375952D01*
X43459461Y-65375952D02*
X43554700Y-65471190D01*
X43554700Y-65471190D02*
X43602319Y-65614047D01*
X43602319Y-65614047D02*
X43602319Y-65709285D01*
X42602319Y-64375952D02*
X42602319Y-64852142D01*
X42602319Y-64852142D02*
X43078509Y-64899761D01*
X43078509Y-64899761D02*
X43030890Y-64852142D01*
X43030890Y-64852142D02*
X42983271Y-64756904D01*
X42983271Y-64756904D02*
X42983271Y-64518809D01*
X42983271Y-64518809D02*
X43030890Y-64423571D01*
X43030890Y-64423571D02*
X43078509Y-64375952D01*
X43078509Y-64375952D02*
X43173747Y-64328333D01*
X43173747Y-64328333D02*
X43411842Y-64328333D01*
X43411842Y-64328333D02*
X43507080Y-64375952D01*
X43507080Y-64375952D02*
X43554700Y-64423571D01*
X43554700Y-64423571D02*
X43602319Y-64518809D01*
X43602319Y-64518809D02*
X43602319Y-64756904D01*
X43602319Y-64756904D02*
X43554700Y-64852142D01*
X43554700Y-64852142D02*
X43507080Y-64899761D01*
X42857142Y-32179580D02*
X42809523Y-32227200D01*
X42809523Y-32227200D02*
X42666666Y-32274819D01*
X42666666Y-32274819D02*
X42571428Y-32274819D01*
X42571428Y-32274819D02*
X42428571Y-32227200D01*
X42428571Y-32227200D02*
X42333333Y-32131961D01*
X42333333Y-32131961D02*
X42285714Y-32036723D01*
X42285714Y-32036723D02*
X42238095Y-31846247D01*
X42238095Y-31846247D02*
X42238095Y-31703390D01*
X42238095Y-31703390D02*
X42285714Y-31512914D01*
X42285714Y-31512914D02*
X42333333Y-31417676D01*
X42333333Y-31417676D02*
X42428571Y-31322438D01*
X42428571Y-31322438D02*
X42571428Y-31274819D01*
X42571428Y-31274819D02*
X42666666Y-31274819D01*
X42666666Y-31274819D02*
X42809523Y-31322438D01*
X42809523Y-31322438D02*
X42857142Y-31370057D01*
X43809523Y-32274819D02*
X43238095Y-32274819D01*
X43523809Y-32274819D02*
X43523809Y-31274819D01*
X43523809Y-31274819D02*
X43428571Y-31417676D01*
X43428571Y-31417676D02*
X43333333Y-31512914D01*
X43333333Y-31512914D02*
X43238095Y-31560533D01*
X44428571Y-31274819D02*
X44523809Y-31274819D01*
X44523809Y-31274819D02*
X44619047Y-31322438D01*
X44619047Y-31322438D02*
X44666666Y-31370057D01*
X44666666Y-31370057D02*
X44714285Y-31465295D01*
X44714285Y-31465295D02*
X44761904Y-31655771D01*
X44761904Y-31655771D02*
X44761904Y-31893866D01*
X44761904Y-31893866D02*
X44714285Y-32084342D01*
X44714285Y-32084342D02*
X44666666Y-32179580D01*
X44666666Y-32179580D02*
X44619047Y-32227200D01*
X44619047Y-32227200D02*
X44523809Y-32274819D01*
X44523809Y-32274819D02*
X44428571Y-32274819D01*
X44428571Y-32274819D02*
X44333333Y-32227200D01*
X44333333Y-32227200D02*
X44285714Y-32179580D01*
X44285714Y-32179580D02*
X44238095Y-32084342D01*
X44238095Y-32084342D02*
X44190476Y-31893866D01*
X44190476Y-31893866D02*
X44190476Y-31655771D01*
X44190476Y-31655771D02*
X44238095Y-31465295D01*
X44238095Y-31465295D02*
X44285714Y-31370057D01*
X44285714Y-31370057D02*
X44333333Y-31322438D01*
X44333333Y-31322438D02*
X44428571Y-31274819D01*
X91166666Y-38954819D02*
X91166666Y-39669104D01*
X91166666Y-39669104D02*
X91119047Y-39811961D01*
X91119047Y-39811961D02*
X91023809Y-39907200D01*
X91023809Y-39907200D02*
X90880952Y-39954819D01*
X90880952Y-39954819D02*
X90785714Y-39954819D01*
X91547619Y-38954819D02*
X92214285Y-38954819D01*
X92214285Y-38954819D02*
X91785714Y-39954819D01*
X90166667Y-73504819D02*
X90166667Y-72504819D01*
X90166667Y-72504819D02*
X90500000Y-73219104D01*
X90500000Y-73219104D02*
X90833333Y-72504819D01*
X90833333Y-72504819D02*
X90833333Y-73504819D01*
X91309524Y-73504819D02*
X91309524Y-72504819D01*
X91309524Y-72981009D02*
X91880952Y-72981009D01*
X91880952Y-73504819D02*
X91880952Y-72504819D01*
X92785714Y-72838152D02*
X92785714Y-73504819D01*
X92547619Y-72457200D02*
X92309524Y-73171485D01*
X92309524Y-73171485D02*
X92928571Y-73171485D01*
X58833333Y-38179580D02*
X58785714Y-38227200D01*
X58785714Y-38227200D02*
X58642857Y-38274819D01*
X58642857Y-38274819D02*
X58547619Y-38274819D01*
X58547619Y-38274819D02*
X58404762Y-38227200D01*
X58404762Y-38227200D02*
X58309524Y-38131961D01*
X58309524Y-38131961D02*
X58261905Y-38036723D01*
X58261905Y-38036723D02*
X58214286Y-37846247D01*
X58214286Y-37846247D02*
X58214286Y-37703390D01*
X58214286Y-37703390D02*
X58261905Y-37512914D01*
X58261905Y-37512914D02*
X58309524Y-37417676D01*
X58309524Y-37417676D02*
X58404762Y-37322438D01*
X58404762Y-37322438D02*
X58547619Y-37274819D01*
X58547619Y-37274819D02*
X58642857Y-37274819D01*
X58642857Y-37274819D02*
X58785714Y-37322438D01*
X58785714Y-37322438D02*
X58833333Y-37370057D01*
X59690476Y-37274819D02*
X59500000Y-37274819D01*
X59500000Y-37274819D02*
X59404762Y-37322438D01*
X59404762Y-37322438D02*
X59357143Y-37370057D01*
X59357143Y-37370057D02*
X59261905Y-37512914D01*
X59261905Y-37512914D02*
X59214286Y-37703390D01*
X59214286Y-37703390D02*
X59214286Y-38084342D01*
X59214286Y-38084342D02*
X59261905Y-38179580D01*
X59261905Y-38179580D02*
X59309524Y-38227200D01*
X59309524Y-38227200D02*
X59404762Y-38274819D01*
X59404762Y-38274819D02*
X59595238Y-38274819D01*
X59595238Y-38274819D02*
X59690476Y-38227200D01*
X59690476Y-38227200D02*
X59738095Y-38179580D01*
X59738095Y-38179580D02*
X59785714Y-38084342D01*
X59785714Y-38084342D02*
X59785714Y-37846247D01*
X59785714Y-37846247D02*
X59738095Y-37751009D01*
X59738095Y-37751009D02*
X59690476Y-37703390D01*
X59690476Y-37703390D02*
X59595238Y-37655771D01*
X59595238Y-37655771D02*
X59404762Y-37655771D01*
X59404762Y-37655771D02*
X59309524Y-37703390D01*
X59309524Y-37703390D02*
X59261905Y-37751009D01*
X59261905Y-37751009D02*
X59214286Y-37846247D01*
X52333333Y-39304819D02*
X52000000Y-38828628D01*
X51761905Y-39304819D02*
X51761905Y-38304819D01*
X51761905Y-38304819D02*
X52142857Y-38304819D01*
X52142857Y-38304819D02*
X52238095Y-38352438D01*
X52238095Y-38352438D02*
X52285714Y-38400057D01*
X52285714Y-38400057D02*
X52333333Y-38495295D01*
X52333333Y-38495295D02*
X52333333Y-38638152D01*
X52333333Y-38638152D02*
X52285714Y-38733390D01*
X52285714Y-38733390D02*
X52238095Y-38781009D01*
X52238095Y-38781009D02*
X52142857Y-38828628D01*
X52142857Y-38828628D02*
X51761905Y-38828628D01*
X53285714Y-39304819D02*
X52714286Y-39304819D01*
X53000000Y-39304819D02*
X53000000Y-38304819D01*
X53000000Y-38304819D02*
X52904762Y-38447676D01*
X52904762Y-38447676D02*
X52809524Y-38542914D01*
X52809524Y-38542914D02*
X52714286Y-38590533D01*
X72333333Y-37059580D02*
X72285714Y-37107200D01*
X72285714Y-37107200D02*
X72142857Y-37154819D01*
X72142857Y-37154819D02*
X72047619Y-37154819D01*
X72047619Y-37154819D02*
X71904762Y-37107200D01*
X71904762Y-37107200D02*
X71809524Y-37011961D01*
X71809524Y-37011961D02*
X71761905Y-36916723D01*
X71761905Y-36916723D02*
X71714286Y-36726247D01*
X71714286Y-36726247D02*
X71714286Y-36583390D01*
X71714286Y-36583390D02*
X71761905Y-36392914D01*
X71761905Y-36392914D02*
X71809524Y-36297676D01*
X71809524Y-36297676D02*
X71904762Y-36202438D01*
X71904762Y-36202438D02*
X72047619Y-36154819D01*
X72047619Y-36154819D02*
X72142857Y-36154819D01*
X72142857Y-36154819D02*
X72285714Y-36202438D01*
X72285714Y-36202438D02*
X72333333Y-36250057D01*
X72904762Y-36583390D02*
X72809524Y-36535771D01*
X72809524Y-36535771D02*
X72761905Y-36488152D01*
X72761905Y-36488152D02*
X72714286Y-36392914D01*
X72714286Y-36392914D02*
X72714286Y-36345295D01*
X72714286Y-36345295D02*
X72761905Y-36250057D01*
X72761905Y-36250057D02*
X72809524Y-36202438D01*
X72809524Y-36202438D02*
X72904762Y-36154819D01*
X72904762Y-36154819D02*
X73095238Y-36154819D01*
X73095238Y-36154819D02*
X73190476Y-36202438D01*
X73190476Y-36202438D02*
X73238095Y-36250057D01*
X73238095Y-36250057D02*
X73285714Y-36345295D01*
X73285714Y-36345295D02*
X73285714Y-36392914D01*
X73285714Y-36392914D02*
X73238095Y-36488152D01*
X73238095Y-36488152D02*
X73190476Y-36535771D01*
X73190476Y-36535771D02*
X73095238Y-36583390D01*
X73095238Y-36583390D02*
X72904762Y-36583390D01*
X72904762Y-36583390D02*
X72809524Y-36631009D01*
X72809524Y-36631009D02*
X72761905Y-36678628D01*
X72761905Y-36678628D02*
X72714286Y-36773866D01*
X72714286Y-36773866D02*
X72714286Y-36964342D01*
X72714286Y-36964342D02*
X72761905Y-37059580D01*
X72761905Y-37059580D02*
X72809524Y-37107200D01*
X72809524Y-37107200D02*
X72904762Y-37154819D01*
X72904762Y-37154819D02*
X73095238Y-37154819D01*
X73095238Y-37154819D02*
X73190476Y-37107200D01*
X73190476Y-37107200D02*
X73238095Y-37059580D01*
X73238095Y-37059580D02*
X73285714Y-36964342D01*
X73285714Y-36964342D02*
X73285714Y-36773866D01*
X73285714Y-36773866D02*
X73238095Y-36678628D01*
X73238095Y-36678628D02*
X73190476Y-36631009D01*
X73190476Y-36631009D02*
X73095238Y-36583390D01*
X84283333Y-51359580D02*
X84235714Y-51407200D01*
X84235714Y-51407200D02*
X84092857Y-51454819D01*
X84092857Y-51454819D02*
X83997619Y-51454819D01*
X83997619Y-51454819D02*
X83854762Y-51407200D01*
X83854762Y-51407200D02*
X83759524Y-51311961D01*
X83759524Y-51311961D02*
X83711905Y-51216723D01*
X83711905Y-51216723D02*
X83664286Y-51026247D01*
X83664286Y-51026247D02*
X83664286Y-50883390D01*
X83664286Y-50883390D02*
X83711905Y-50692914D01*
X83711905Y-50692914D02*
X83759524Y-50597676D01*
X83759524Y-50597676D02*
X83854762Y-50502438D01*
X83854762Y-50502438D02*
X83997619Y-50454819D01*
X83997619Y-50454819D02*
X84092857Y-50454819D01*
X84092857Y-50454819D02*
X84235714Y-50502438D01*
X84235714Y-50502438D02*
X84283333Y-50550057D01*
X84759524Y-51454819D02*
X84950000Y-51454819D01*
X84950000Y-51454819D02*
X85045238Y-51407200D01*
X85045238Y-51407200D02*
X85092857Y-51359580D01*
X85092857Y-51359580D02*
X85188095Y-51216723D01*
X85188095Y-51216723D02*
X85235714Y-51026247D01*
X85235714Y-51026247D02*
X85235714Y-50645295D01*
X85235714Y-50645295D02*
X85188095Y-50550057D01*
X85188095Y-50550057D02*
X85140476Y-50502438D01*
X85140476Y-50502438D02*
X85045238Y-50454819D01*
X85045238Y-50454819D02*
X84854762Y-50454819D01*
X84854762Y-50454819D02*
X84759524Y-50502438D01*
X84759524Y-50502438D02*
X84711905Y-50550057D01*
X84711905Y-50550057D02*
X84664286Y-50645295D01*
X84664286Y-50645295D02*
X84664286Y-50883390D01*
X84664286Y-50883390D02*
X84711905Y-50978628D01*
X84711905Y-50978628D02*
X84759524Y-51026247D01*
X84759524Y-51026247D02*
X84854762Y-51073866D01*
X84854762Y-51073866D02*
X85045238Y-51073866D01*
X85045238Y-51073866D02*
X85140476Y-51026247D01*
X85140476Y-51026247D02*
X85188095Y-50978628D01*
X85188095Y-50978628D02*
X85235714Y-50883390D01*
X38094819Y-35103333D02*
X38809104Y-35103333D01*
X38809104Y-35103333D02*
X38951961Y-35150952D01*
X38951961Y-35150952D02*
X39047200Y-35246190D01*
X39047200Y-35246190D02*
X39094819Y-35389047D01*
X39094819Y-35389047D02*
X39094819Y-35484285D01*
X39094819Y-34103333D02*
X39094819Y-34674761D01*
X39094819Y-34389047D02*
X38094819Y-34389047D01*
X38094819Y-34389047D02*
X38237676Y-34484285D01*
X38237676Y-34484285D02*
X38332914Y-34579523D01*
X38332914Y-34579523D02*
X38380533Y-34674761D01*
X84333333Y-45954819D02*
X84000000Y-45478628D01*
X83761905Y-45954819D02*
X83761905Y-44954819D01*
X83761905Y-44954819D02*
X84142857Y-44954819D01*
X84142857Y-44954819D02*
X84238095Y-45002438D01*
X84238095Y-45002438D02*
X84285714Y-45050057D01*
X84285714Y-45050057D02*
X84333333Y-45145295D01*
X84333333Y-45145295D02*
X84333333Y-45288152D01*
X84333333Y-45288152D02*
X84285714Y-45383390D01*
X84285714Y-45383390D02*
X84238095Y-45431009D01*
X84238095Y-45431009D02*
X84142857Y-45478628D01*
X84142857Y-45478628D02*
X83761905Y-45478628D01*
X84666667Y-44954819D02*
X85285714Y-44954819D01*
X85285714Y-44954819D02*
X84952381Y-45335771D01*
X84952381Y-45335771D02*
X85095238Y-45335771D01*
X85095238Y-45335771D02*
X85190476Y-45383390D01*
X85190476Y-45383390D02*
X85238095Y-45431009D01*
X85238095Y-45431009D02*
X85285714Y-45526247D01*
X85285714Y-45526247D02*
X85285714Y-45764342D01*
X85285714Y-45764342D02*
X85238095Y-45859580D01*
X85238095Y-45859580D02*
X85190476Y-45907200D01*
X85190476Y-45907200D02*
X85095238Y-45954819D01*
X85095238Y-45954819D02*
X84809524Y-45954819D01*
X84809524Y-45954819D02*
X84714286Y-45907200D01*
X84714286Y-45907200D02*
X84666667Y-45859580D01*
X65833333Y-64559580D02*
X65785714Y-64607200D01*
X65785714Y-64607200D02*
X65642857Y-64654819D01*
X65642857Y-64654819D02*
X65547619Y-64654819D01*
X65547619Y-64654819D02*
X65404762Y-64607200D01*
X65404762Y-64607200D02*
X65309524Y-64511961D01*
X65309524Y-64511961D02*
X65261905Y-64416723D01*
X65261905Y-64416723D02*
X65214286Y-64226247D01*
X65214286Y-64226247D02*
X65214286Y-64083390D01*
X65214286Y-64083390D02*
X65261905Y-63892914D01*
X65261905Y-63892914D02*
X65309524Y-63797676D01*
X65309524Y-63797676D02*
X65404762Y-63702438D01*
X65404762Y-63702438D02*
X65547619Y-63654819D01*
X65547619Y-63654819D02*
X65642857Y-63654819D01*
X65642857Y-63654819D02*
X65785714Y-63702438D01*
X65785714Y-63702438D02*
X65833333Y-63750057D01*
X66166667Y-63654819D02*
X66833333Y-63654819D01*
X66833333Y-63654819D02*
X66404762Y-64654819D01*
X82110952Y-33994819D02*
X81634762Y-33994819D01*
X81634762Y-33994819D02*
X81634762Y-32994819D01*
X82444286Y-33471009D02*
X82777619Y-33471009D01*
X82920476Y-33994819D02*
X82444286Y-33994819D01*
X82444286Y-33994819D02*
X82444286Y-32994819D01*
X82444286Y-32994819D02*
X82920476Y-32994819D01*
X83349048Y-33994819D02*
X83349048Y-32994819D01*
X83349048Y-32994819D02*
X83587143Y-32994819D01*
X83587143Y-32994819D02*
X83730000Y-33042438D01*
X83730000Y-33042438D02*
X83825238Y-33137676D01*
X83825238Y-33137676D02*
X83872857Y-33232914D01*
X83872857Y-33232914D02*
X83920476Y-33423390D01*
X83920476Y-33423390D02*
X83920476Y-33566247D01*
X83920476Y-33566247D02*
X83872857Y-33756723D01*
X83872857Y-33756723D02*
X83825238Y-33851961D01*
X83825238Y-33851961D02*
X83730000Y-33947200D01*
X83730000Y-33947200D02*
X83587143Y-33994819D01*
X83587143Y-33994819D02*
X83349048Y-33994819D01*
X84872857Y-33994819D02*
X84301429Y-33994819D01*
X84587143Y-33994819D02*
X84587143Y-32994819D01*
X84587143Y-32994819D02*
X84491905Y-33137676D01*
X84491905Y-33137676D02*
X84396667Y-33232914D01*
X84396667Y-33232914D02*
X84301429Y-33280533D01*
X75920833Y-32304819D02*
X75587500Y-31828628D01*
X75349405Y-32304819D02*
X75349405Y-31304819D01*
X75349405Y-31304819D02*
X75730357Y-31304819D01*
X75730357Y-31304819D02*
X75825595Y-31352438D01*
X75825595Y-31352438D02*
X75873214Y-31400057D01*
X75873214Y-31400057D02*
X75920833Y-31495295D01*
X75920833Y-31495295D02*
X75920833Y-31638152D01*
X75920833Y-31638152D02*
X75873214Y-31733390D01*
X75873214Y-31733390D02*
X75825595Y-31781009D01*
X75825595Y-31781009D02*
X75730357Y-31828628D01*
X75730357Y-31828628D02*
X75349405Y-31828628D01*
X76777976Y-31638152D02*
X76777976Y-32304819D01*
X76539881Y-31257200D02*
X76301786Y-31971485D01*
X76301786Y-31971485D02*
X76920833Y-31971485D01*
X77166666Y-67954819D02*
X77166666Y-68669104D01*
X77166666Y-68669104D02*
X77119047Y-68811961D01*
X77119047Y-68811961D02*
X77023809Y-68907200D01*
X77023809Y-68907200D02*
X76880952Y-68954819D01*
X76880952Y-68954819D02*
X76785714Y-68954819D01*
X77595238Y-68050057D02*
X77642857Y-68002438D01*
X77642857Y-68002438D02*
X77738095Y-67954819D01*
X77738095Y-67954819D02*
X77976190Y-67954819D01*
X77976190Y-67954819D02*
X78071428Y-68002438D01*
X78071428Y-68002438D02*
X78119047Y-68050057D01*
X78119047Y-68050057D02*
X78166666Y-68145295D01*
X78166666Y-68145295D02*
X78166666Y-68240533D01*
X78166666Y-68240533D02*
X78119047Y-68383390D01*
X78119047Y-68383390D02*
X77547619Y-68954819D01*
X77547619Y-68954819D02*
X78166666Y-68954819D01*
X91166666Y-31799819D02*
X91166666Y-32514104D01*
X91166666Y-32514104D02*
X91119047Y-32656961D01*
X91119047Y-32656961D02*
X91023809Y-32752200D01*
X91023809Y-32752200D02*
X90880952Y-32799819D01*
X90880952Y-32799819D02*
X90785714Y-32799819D01*
X92071428Y-31799819D02*
X91880952Y-31799819D01*
X91880952Y-31799819D02*
X91785714Y-31847438D01*
X91785714Y-31847438D02*
X91738095Y-31895057D01*
X91738095Y-31895057D02*
X91642857Y-32037914D01*
X91642857Y-32037914D02*
X91595238Y-32228390D01*
X91595238Y-32228390D02*
X91595238Y-32609342D01*
X91595238Y-32609342D02*
X91642857Y-32704580D01*
X91642857Y-32704580D02*
X91690476Y-32752200D01*
X91690476Y-32752200D02*
X91785714Y-32799819D01*
X91785714Y-32799819D02*
X91976190Y-32799819D01*
X91976190Y-32799819D02*
X92071428Y-32752200D01*
X92071428Y-32752200D02*
X92119047Y-32704580D01*
X92119047Y-32704580D02*
X92166666Y-32609342D01*
X92166666Y-32609342D02*
X92166666Y-32371247D01*
X92166666Y-32371247D02*
X92119047Y-32276009D01*
X92119047Y-32276009D02*
X92071428Y-32228390D01*
X92071428Y-32228390D02*
X91976190Y-32180771D01*
X91976190Y-32180771D02*
X91785714Y-32180771D01*
X91785714Y-32180771D02*
X91690476Y-32228390D01*
X91690476Y-32228390D02*
X91642857Y-32276009D01*
X91642857Y-32276009D02*
X91595238Y-32371247D01*
X47261905Y-61954819D02*
X47261905Y-60954819D01*
X47261905Y-60954819D02*
X47500000Y-60954819D01*
X47500000Y-60954819D02*
X47642857Y-61002438D01*
X47642857Y-61002438D02*
X47738095Y-61097676D01*
X47738095Y-61097676D02*
X47785714Y-61192914D01*
X47785714Y-61192914D02*
X47833333Y-61383390D01*
X47833333Y-61383390D02*
X47833333Y-61526247D01*
X47833333Y-61526247D02*
X47785714Y-61716723D01*
X47785714Y-61716723D02*
X47738095Y-61811961D01*
X47738095Y-61811961D02*
X47642857Y-61907200D01*
X47642857Y-61907200D02*
X47500000Y-61954819D01*
X47500000Y-61954819D02*
X47261905Y-61954819D01*
X48785714Y-61954819D02*
X48214286Y-61954819D01*
X48500000Y-61954819D02*
X48500000Y-60954819D01*
X48500000Y-60954819D02*
X48404762Y-61097676D01*
X48404762Y-61097676D02*
X48309524Y-61192914D01*
X48309524Y-61192914D02*
X48214286Y-61240533D01*
X91166666Y-53574819D02*
X91166666Y-54289104D01*
X91166666Y-54289104D02*
X91119047Y-54431961D01*
X91119047Y-54431961D02*
X91023809Y-54527200D01*
X91023809Y-54527200D02*
X90880952Y-54574819D01*
X90880952Y-54574819D02*
X90785714Y-54574819D01*
X91547619Y-53574819D02*
X92166666Y-53574819D01*
X92166666Y-53574819D02*
X91833333Y-53955771D01*
X91833333Y-53955771D02*
X91976190Y-53955771D01*
X91976190Y-53955771D02*
X92071428Y-54003390D01*
X92071428Y-54003390D02*
X92119047Y-54051009D01*
X92119047Y-54051009D02*
X92166666Y-54146247D01*
X92166666Y-54146247D02*
X92166666Y-54384342D01*
X92166666Y-54384342D02*
X92119047Y-54479580D01*
X92119047Y-54479580D02*
X92071428Y-54527200D01*
X92071428Y-54527200D02*
X91976190Y-54574819D01*
X91976190Y-54574819D02*
X91690476Y-54574819D01*
X91690476Y-54574819D02*
X91595238Y-54527200D01*
X91595238Y-54527200D02*
X91547619Y-54479580D01*
X77357142Y-51179580D02*
X77309523Y-51227200D01*
X77309523Y-51227200D02*
X77166666Y-51274819D01*
X77166666Y-51274819D02*
X77071428Y-51274819D01*
X77071428Y-51274819D02*
X76928571Y-51227200D01*
X76928571Y-51227200D02*
X76833333Y-51131961D01*
X76833333Y-51131961D02*
X76785714Y-51036723D01*
X76785714Y-51036723D02*
X76738095Y-50846247D01*
X76738095Y-50846247D02*
X76738095Y-50703390D01*
X76738095Y-50703390D02*
X76785714Y-50512914D01*
X76785714Y-50512914D02*
X76833333Y-50417676D01*
X76833333Y-50417676D02*
X76928571Y-50322438D01*
X76928571Y-50322438D02*
X77071428Y-50274819D01*
X77071428Y-50274819D02*
X77166666Y-50274819D01*
X77166666Y-50274819D02*
X77309523Y-50322438D01*
X77309523Y-50322438D02*
X77357142Y-50370057D01*
X78309523Y-51274819D02*
X77738095Y-51274819D01*
X78023809Y-51274819D02*
X78023809Y-50274819D01*
X78023809Y-50274819D02*
X77928571Y-50417676D01*
X77928571Y-50417676D02*
X77833333Y-50512914D01*
X77833333Y-50512914D02*
X77738095Y-50560533D01*
X78642857Y-50274819D02*
X79261904Y-50274819D01*
X79261904Y-50274819D02*
X78928571Y-50655771D01*
X78928571Y-50655771D02*
X79071428Y-50655771D01*
X79071428Y-50655771D02*
X79166666Y-50703390D01*
X79166666Y-50703390D02*
X79214285Y-50751009D01*
X79214285Y-50751009D02*
X79261904Y-50846247D01*
X79261904Y-50846247D02*
X79261904Y-51084342D01*
X79261904Y-51084342D02*
X79214285Y-51179580D01*
X79214285Y-51179580D02*
X79166666Y-51227200D01*
X79166666Y-51227200D02*
X79071428Y-51274819D01*
X79071428Y-51274819D02*
X78785714Y-51274819D01*
X78785714Y-51274819D02*
X78690476Y-51227200D01*
X78690476Y-51227200D02*
X78642857Y-51179580D01*
D11*
%TO.C,L1*%
X71100000Y-56750000D02*
X71100000Y-59500000D01*
X71100000Y-65500000D02*
X71100000Y-68250000D01*
X71750000Y-56100000D02*
X83250000Y-56100000D01*
X83250000Y-68900000D02*
X71750000Y-68900000D01*
X83900000Y-56750000D02*
X83900000Y-59500000D01*
X83900000Y-65500000D02*
X83900000Y-68250000D01*
X71100000Y-56750000D02*
G75*
G02*
X71750000Y-56100000I650001J-1D01*
G01*
X71750000Y-68900000D02*
G75*
G02*
X71100000Y-68250000I1J650001D01*
G01*
X83250000Y-56100000D02*
G75*
G02*
X83900000Y-56750000I0J-650000D01*
G01*
X83900000Y-68250000D02*
G75*
G02*
X83250000Y-68900000I-650000J0D01*
G01*
%TO.C,R_FB2*%
X57685436Y-60265000D02*
X58139564Y-60265000D01*
X57685436Y-61735000D02*
X58139564Y-61735000D01*
%TO.C,JP1*%
X43620000Y-45285000D02*
X45000000Y-45285000D01*
X43620000Y-46665000D02*
X43620000Y-45285000D01*
X43620000Y-47935000D02*
X43620000Y-50585000D01*
X43620000Y-47935000D02*
X46380000Y-47935000D01*
X43620000Y-50585000D02*
X46380000Y-50585000D01*
X46380000Y-47935000D02*
X46380000Y-50585000D01*
%TO.C,R_FB1*%
X57272936Y-56765000D02*
X57727064Y-56765000D01*
X57272936Y-58235000D02*
X57727064Y-58235000D01*
%TO.C,LED2*%
X44940000Y-56204000D02*
X44940000Y-56360000D01*
X44940000Y-58520000D02*
X44940000Y-58676000D01*
X44940000Y-56204484D02*
G75*
G02*
X48171437Y-56360000I1560000J-1235516D01*
G01*
X45459039Y-56360000D02*
G75*
G02*
X47540961Y-56360000I1040961J-1080000D01*
G01*
X47540961Y-58520000D02*
G75*
G02*
X45459039Y-58520000I-1040961J1080000D01*
G01*
X48171437Y-58520000D02*
G75*
G02*
X44940000Y-58675516I-1671437J1080000D01*
G01*
%TO.C,F1*%
X45500000Y-73850000D02*
X45500000Y-75400000D01*
X45500000Y-79150000D02*
X45500000Y-77600000D01*
X51500000Y-73850000D02*
X45500000Y-73850000D01*
X51500000Y-73850000D02*
X51500000Y-75400000D01*
X51500000Y-79150000D02*
X45500000Y-79150000D01*
X51500000Y-79150000D02*
X51500000Y-77600000D01*
X60500000Y-73850000D02*
X60500000Y-75400000D01*
X60500000Y-74000000D02*
X51500000Y-74000000D01*
X60500000Y-79000000D02*
X51500000Y-79000000D01*
X60500000Y-79150000D02*
X60500000Y-77600000D01*
X60500000Y-79150000D02*
X66500000Y-79150000D01*
X66500000Y-73850000D02*
X60500000Y-73850000D01*
X66500000Y-75400000D02*
X66500000Y-73850000D01*
X66500000Y-77600000D02*
X66500000Y-79150000D01*
%TO.C,J4*%
X31780000Y-40280000D02*
X41820000Y-40280000D01*
X31780000Y-42640000D02*
X31780000Y-40280000D01*
X31780000Y-55760000D02*
X31780000Y-43240000D01*
X32400000Y-40280000D02*
X32400000Y-55760000D01*
X33900000Y-40280000D02*
X33900000Y-55760000D01*
X38800000Y-40280000D02*
X38800000Y-55760000D01*
X41820000Y-40280000D02*
X41820000Y-55760000D01*
X41820000Y-55760000D02*
X31780000Y-55760000D01*
X31780000Y-42940000D02*
X31170000Y-43380000D01*
X31170000Y-42500000D01*
X31780000Y-42940000D01*
G36*
X31780000Y-42940000D02*
G01*
X31170000Y-43380000D01*
X31170000Y-42500000D01*
X31780000Y-42940000D01*
G37*
%TO.C,C11*%
X59738748Y-32765000D02*
X60261252Y-32765000D01*
X59738748Y-34235000D02*
X60261252Y-34235000D01*
%TO.C,C1*%
X66738748Y-56765000D02*
X67261252Y-56765000D01*
X66738748Y-58235000D02*
X67261252Y-58235000D01*
%TO.C,R2*%
X52772936Y-56265000D02*
X53227064Y-56265000D01*
X52772936Y-57735000D02*
X53227064Y-57735000D01*
%TO.C,C21*%
X66738748Y-60265000D02*
X67261252Y-60265000D01*
X66738748Y-61735000D02*
X67261252Y-61735000D01*
%TO.C,U3*%
X55370000Y-63690000D02*
X59490000Y-63690000D01*
X55370000Y-63785000D02*
X55370000Y-63690000D01*
X55370000Y-68810000D02*
X55370000Y-68715000D01*
X59490000Y-63690000D02*
X59490000Y-63785000D01*
X59490000Y-68715000D02*
X59490000Y-68810000D01*
X59490000Y-68810000D02*
X55370000Y-68810000D01*
X54830000Y-63780000D02*
X54590000Y-63450000D01*
X55070000Y-63450000D01*
X54830000Y-63780000D01*
G36*
X54830000Y-63780000D02*
G01*
X54590000Y-63450000D01*
X55070000Y-63450000D01*
X54830000Y-63780000D01*
G37*
%TO.C,C5*%
X53238748Y-60765000D02*
X53761252Y-60765000D01*
X53238748Y-62235000D02*
X53761252Y-62235000D01*
%TO.C,C4*%
X62238748Y-56765000D02*
X62761252Y-56765000D01*
X62238748Y-58235000D02*
X62761252Y-58235000D01*
%TO.C,C2*%
X71788748Y-51765000D02*
X72311252Y-51765000D01*
X71788748Y-53235000D02*
X72311252Y-53235000D01*
%TO.C,Y1*%
X50565000Y-52140000D02*
X50565000Y-45740000D01*
X55435000Y-45740000D02*
X55435000Y-52140000D01*
X50565000Y-45740000D02*
G75*
G02*
X55435000Y-45740000I2435000J0D01*
G01*
X55435000Y-52140000D02*
G75*
G02*
X50565000Y-52140000I-2435000J0D01*
G01*
%TO.C,C3*%
X62238748Y-60265000D02*
X62761252Y-60265000D01*
X62238748Y-61735000D02*
X62761252Y-61735000D01*
%TO.C,U1*%
X59140000Y-42555000D02*
X66860000Y-42555000D01*
X59140000Y-42800000D02*
X59140000Y-42555000D01*
X59140000Y-54325000D02*
X59140000Y-54080000D01*
X66860000Y-42555000D02*
X66860000Y-42800000D01*
X66860000Y-54080000D02*
X66860000Y-54325000D01*
X66860000Y-54325000D02*
X59140000Y-54325000D01*
X58350000Y-42800000D02*
X58010000Y-42330000D01*
X58690000Y-42330000D01*
X58350000Y-42800000D01*
G36*
X58350000Y-42800000D02*
G01*
X58010000Y-42330000D01*
X58690000Y-42330000D01*
X58350000Y-42800000D01*
G37*
%TO.C,U2*%
X73465000Y-43345000D02*
X77585000Y-43345000D01*
X73465000Y-43440000D02*
X73465000Y-43345000D01*
X73465000Y-48465000D02*
X73465000Y-48370000D01*
X77585000Y-43345000D02*
X77585000Y-43440000D01*
X77585000Y-48370000D02*
X77585000Y-48465000D01*
X77585000Y-48465000D02*
X73465000Y-48465000D01*
X72925000Y-43435000D02*
X72685000Y-43105000D01*
X73165000Y-43105000D01*
X72925000Y-43435000D01*
G36*
X72925000Y-43435000D02*
G01*
X72685000Y-43105000D01*
X73165000Y-43105000D01*
X72925000Y-43435000D01*
G37*
%TO.C,C12*%
X67738748Y-32765000D02*
X68261252Y-32765000D01*
X67738748Y-34235000D02*
X68261252Y-34235000D01*
%TO.C,D2*%
X44490000Y-67850000D02*
X44490000Y-71150000D01*
X44490000Y-67850000D02*
X50000000Y-67850000D01*
X44490000Y-71150000D02*
X50000000Y-71150000D01*
%TO.C,C14*%
X51238748Y-32765000D02*
X51761252Y-32765000D01*
X51238748Y-34235000D02*
X51761252Y-34235000D01*
%TO.C,J5*%
X32107500Y-59795000D02*
X42147500Y-59795000D01*
X32107500Y-62155000D02*
X32107500Y-59795000D01*
X32107500Y-70195000D02*
X32107500Y-62755000D01*
X32727500Y-59795000D02*
X32727500Y-70195000D01*
X34227500Y-59795000D02*
X34227500Y-70195000D01*
X39127500Y-59795000D02*
X39127500Y-70195000D01*
X42147500Y-59795000D02*
X42147500Y-70195000D01*
X42147500Y-70195000D02*
X32107500Y-70195000D01*
X32107500Y-62455000D02*
X31497500Y-62895000D01*
X31497500Y-62015000D01*
X32107500Y-62455000D01*
G36*
X32107500Y-62455000D02*
G01*
X31497500Y-62895000D01*
X31497500Y-62015000D01*
X32107500Y-62455000D01*
G37*
%TO.C,C10*%
X43238748Y-32765000D02*
X43761252Y-32765000D01*
X43238748Y-34235000D02*
X43761252Y-34235000D01*
%TO.C,J7*%
X90120000Y-41120000D02*
X91500000Y-41120000D01*
X90120000Y-42500000D02*
X90120000Y-41120000D01*
X90120000Y-43770000D02*
X90120000Y-51500000D01*
X90120000Y-43770000D02*
X92880000Y-43770000D01*
X90120000Y-51500000D02*
X92880000Y-51500000D01*
X92880000Y-43770000D02*
X92880000Y-51500000D01*
%TO.C,C6*%
X58738748Y-38765000D02*
X59261252Y-38765000D01*
X58738748Y-40235000D02*
X59261252Y-40235000D01*
%TO.C,R1*%
X52272936Y-39765000D02*
X52727064Y-39765000D01*
X52272936Y-41235000D02*
X52727064Y-41235000D01*
%TO.C,C8*%
X71788748Y-37640000D02*
X73211252Y-37640000D01*
X71788748Y-40360000D02*
X73211252Y-40360000D01*
%TO.C,C9*%
X84238748Y-51765000D02*
X84761252Y-51765000D01*
X84238748Y-53235000D02*
X84761252Y-53235000D01*
D10*
%TO.C,J1*%
X37090000Y-29040000D02*
X37090000Y-30590000D01*
X37090000Y-30590000D02*
X38640000Y-30590000D01*
X37370000Y-25230000D02*
X37370000Y-27770000D01*
X37370000Y-27770000D02*
X39910000Y-27770000D01*
X39910000Y-27770000D02*
X39910000Y-30310000D01*
X39910000Y-30310000D02*
X88170000Y-30310000D01*
X88170000Y-25230000D02*
X37370000Y-25230000D01*
X88170000Y-25230000D02*
X88170000Y-30310000D01*
D11*
%TO.C,R3*%
X84272936Y-46265000D02*
X84727064Y-46265000D01*
X84272936Y-47735000D02*
X84727064Y-47735000D01*
%TO.C,C7*%
X65288748Y-65140000D02*
X66711252Y-65140000D01*
X65288748Y-67860000D02*
X66711252Y-67860000D01*
%TO.C,LED1*%
X81670000Y-35264000D02*
X81670000Y-35420000D01*
X81670000Y-37580000D02*
X81670000Y-37736000D01*
X81670000Y-35264484D02*
G75*
G02*
X84901437Y-35420000I1560000J-1235516D01*
G01*
X82189039Y-35420000D02*
G75*
G02*
X84270961Y-35420000I1040961J-1080000D01*
G01*
X84270961Y-37580000D02*
G75*
G02*
X82189039Y-37580000I-1040961J1080000D01*
G01*
X84901437Y-37580000D02*
G75*
G02*
X81670000Y-37735516I-1671437J1080000D01*
G01*
%TO.C,R4*%
X75860436Y-32765000D02*
X76314564Y-32765000D01*
X75860436Y-34235000D02*
X76314564Y-34235000D01*
%TO.C,J2*%
X69315000Y-69920000D02*
X70735000Y-69920000D01*
X69315000Y-75670000D02*
X69315000Y-69920000D01*
X69315000Y-77210000D02*
X69315000Y-77510000D01*
X69315000Y-77510000D02*
X85685000Y-77510000D01*
X70735000Y-69920000D02*
X70735000Y-70420000D01*
X70735000Y-70420000D02*
X84265000Y-70420000D01*
X84265000Y-69920000D02*
X85685000Y-69920000D01*
X84265000Y-70420000D02*
X84265000Y-69920000D01*
X85685000Y-69920000D02*
X85685000Y-75670000D01*
X85685000Y-77510000D02*
X85685000Y-77210000D01*
%TO.C,J6*%
X90120000Y-33345000D02*
X91500000Y-33345000D01*
X90120000Y-34725000D02*
X90120000Y-33345000D01*
X90120000Y-35995000D02*
X90120000Y-38645000D01*
X90120000Y-35995000D02*
X92880000Y-35995000D01*
X90120000Y-38645000D02*
X92880000Y-38645000D01*
X92880000Y-35995000D02*
X92880000Y-38645000D01*
%TO.C,D1*%
X44490000Y-62350000D02*
X44490000Y-65650000D01*
X44490000Y-62350000D02*
X50000000Y-62350000D01*
X44490000Y-65650000D02*
X50000000Y-65650000D01*
%TO.C,J3*%
X90120000Y-55120000D02*
X91500000Y-55120000D01*
X90120000Y-56500000D02*
X90120000Y-55120000D01*
X90120000Y-57770000D02*
X90120000Y-70580000D01*
X90120000Y-57770000D02*
X92880000Y-57770000D01*
X90120000Y-70580000D02*
X92880000Y-70580000D01*
X92880000Y-57770000D02*
X92880000Y-70580000D01*
%TO.C,C13*%
X77738748Y-51765000D02*
X78261252Y-51765000D01*
X77738748Y-53235000D02*
X78261252Y-53235000D01*
%TD*%
D12*
%TO.C,J1*%
X38640000Y-29040000D03*
D13*
X38640000Y-26500000D03*
X41180000Y-29040000D03*
X41180000Y-26500000D03*
X43720000Y-29040000D03*
X43720000Y-26500000D03*
X46260000Y-29040000D03*
X46260000Y-26500000D03*
X48800000Y-29040000D03*
X48800000Y-26500000D03*
X51340000Y-29040000D03*
X51340000Y-26500000D03*
X53880000Y-29040000D03*
X53880000Y-26500000D03*
X56420000Y-29040000D03*
X56420000Y-26500000D03*
X58960000Y-29040000D03*
X58960000Y-26500000D03*
X61500000Y-29040000D03*
X61500000Y-26500000D03*
X64040000Y-29040000D03*
X64040000Y-26500000D03*
X66580000Y-29040000D03*
X66580000Y-26500000D03*
X69120000Y-29040000D03*
X69120000Y-26500000D03*
X71660000Y-29040000D03*
X71660000Y-26500000D03*
X74200000Y-29040000D03*
X74200000Y-26500000D03*
X76740000Y-29040000D03*
X76740000Y-26500000D03*
X79280000Y-29040000D03*
X79280000Y-26500000D03*
X81820000Y-29040000D03*
X81820000Y-26500000D03*
X84360000Y-29040000D03*
X84360000Y-26500000D03*
X86900000Y-29040000D03*
X86900000Y-26500000D03*
%TD*%
M02*
