%TF.GenerationSoftware,KiCad,Pcbnew,9.0.7*%
%TF.CreationDate,2026-03-09T20:46:40-05:00*%
%TF.ProjectId,fsae_pcb,66736165-5f70-4636-922e-6b696361645f,rev?*%
%TF.SameCoordinates,Original*%
%TF.FileFunction,Soldermask,Top*%
%TF.FilePolarity,Negative*%
%FSLAX46Y46*%
G04 Gerber Fmt 4.6, Leading zero omitted, Abs format (unit mm)*
G04 Created by KiCad (PCBNEW 9.0.7) date 2026-03-09 20:46:40*
%MOMM*%
%LPD*%
G01*
G04 APERTURE LIST*
G04 Aperture macros list*
%AMRoundRect*
0 Rectangle with rounded corners*
0 $1 Rounding radius*
0 $2 $3 $4 $5 $6 $7 $8 $9 X,Y pos of 4 corners*
0 Add a 4 corners polygon primitive as box body*
4,1,4,$2,$3,$4,$5,$6,$7,$8,$9,$2,$3,0*
0 Add four circle primitives for the rounded corners*
1,1,$1+$1,$2,$3*
1,1,$1+$1,$4,$5*
1,1,$1+$1,$6,$7*
1,1,$1+$1,$8,$9*
0 Add four rect primitives between the rounded corners*
20,1,$1+$1,$2,$3,$4,$5,0*
20,1,$1+$1,$4,$5,$6,$7,0*
20,1,$1+$1,$6,$7,$8,$9,0*
20,1,$1+$1,$8,$9,$2,$3,0*%
G04 Aperture macros list end*
%ADD10R,2.900000X5.400000*%
%ADD11RoundRect,0.250000X-0.262500X-0.450000X0.262500X-0.450000X0.262500X0.450000X-0.262500X0.450000X0*%
%ADD12R,1.700000X1.700000*%
%ADD13C,1.700000*%
%ADD14C,5.000000*%
%ADD15R,1.800000X1.800000*%
%ADD16C,1.800000*%
%ADD17RoundRect,0.500000X-0.500000X-0.500000X0.500000X-0.500000X0.500000X0.500000X-0.500000X0.500000X0*%
%ADD18C,2.000000*%
%ADD19RoundRect,0.250000X-1.050000X1.050000X-1.050000X-1.050000X1.050000X-1.050000X1.050000X1.050000X0*%
%ADD20C,2.600000*%
%ADD21RoundRect,0.250000X-0.250000X-0.475000X0.250000X-0.475000X0.250000X0.475000X-0.250000X0.475000X0*%
%ADD22RoundRect,0.150000X-0.825000X-0.150000X0.825000X-0.150000X0.825000X0.150000X-0.825000X0.150000X0*%
%ADD23R,2.290000X3.000000*%
%ADD24C,1.500000*%
%ADD25RoundRect,0.150000X-0.875000X-0.150000X0.875000X-0.150000X0.875000X0.150000X-0.875000X0.150000X0*%
%ADD26RoundRect,0.250000X-1.000000X-0.650000X1.000000X-0.650000X1.000000X0.650000X-1.000000X0.650000X0*%
%ADD27RoundRect,0.250000X-0.325000X-1.100000X0.325000X-1.100000X0.325000X1.100000X-0.325000X1.100000X0*%
%ADD28R,1.727200X1.727200*%
%ADD29O,1.727200X1.727200*%
%ADD30C,1.020000*%
%ADD31RoundRect,0.250001X-0.499999X-0.499999X0.499999X-0.499999X0.499999X0.499999X-0.499999X0.499999X0*%
G04 APERTURE END LIST*
D10*
%TO.C,L1*%
X72650000Y-62500000D03*
X82350000Y-62500000D03*
%TD*%
D11*
%TO.C,R_FB2*%
X57000000Y-61000000D03*
X58825000Y-61000000D03*
%TD*%
D12*
%TO.C,JP1*%
X45000000Y-46665000D03*
D13*
X45000000Y-49205000D03*
%TD*%
D14*
%TO.C,MH2*%
X91500000Y-27500000D03*
%TD*%
D11*
%TO.C,R_FB1*%
X56587500Y-57500000D03*
X58412500Y-57500000D03*
%TD*%
D15*
%TO.C,LED2*%
X45230000Y-57440000D03*
D16*
X47770000Y-57440000D03*
%TD*%
D17*
%TO.C,F1*%
X46000000Y-76500000D03*
X51000000Y-76500000D03*
D18*
X61000000Y-76500000D03*
X66000000Y-76500000D03*
%TD*%
D19*
%TO.C,J4*%
X36500000Y-42940000D03*
D20*
X36500000Y-48020000D03*
X36500000Y-53100000D03*
%TD*%
D21*
%TO.C,C11*%
X59050000Y-33500000D03*
X60950000Y-33500000D03*
%TD*%
%TO.C,C1*%
X66050000Y-57500000D03*
X67950000Y-57500000D03*
%TD*%
D11*
%TO.C,R2*%
X52087500Y-57000000D03*
X53912500Y-57000000D03*
%TD*%
D21*
%TO.C,C21*%
X66050000Y-61000000D03*
X67950000Y-61000000D03*
%TD*%
D22*
%TO.C,U3*%
X54955000Y-64345000D03*
X54955000Y-65615000D03*
X54955000Y-66885000D03*
X54955000Y-68155000D03*
X59905000Y-68155000D03*
X59905000Y-66885000D03*
X59905000Y-65615000D03*
X59905000Y-64345000D03*
D23*
X57430000Y-66250000D03*
%TD*%
D21*
%TO.C,C5*%
X52550000Y-61500000D03*
X54450000Y-61500000D03*
%TD*%
%TO.C,C4*%
X61550000Y-57500000D03*
X63450000Y-57500000D03*
%TD*%
%TO.C,C2*%
X71100000Y-52500000D03*
X73000000Y-52500000D03*
%TD*%
D24*
%TO.C,Y1*%
X53000000Y-46500000D03*
X53000000Y-51380000D03*
%TD*%
D21*
%TO.C,C3*%
X61550000Y-61000000D03*
X63450000Y-61000000D03*
%TD*%
D25*
%TO.C,U1*%
X58350000Y-43360000D03*
X58350000Y-44630000D03*
X58350000Y-45900000D03*
X58350000Y-47170000D03*
X58350000Y-48440000D03*
X58350000Y-49710000D03*
X58350000Y-50980000D03*
X58350000Y-52250000D03*
X58350000Y-53520000D03*
X67650000Y-53520000D03*
X67650000Y-52250000D03*
X67650000Y-50980000D03*
X67650000Y-49710000D03*
X67650000Y-48440000D03*
X67650000Y-47170000D03*
X67650000Y-45900000D03*
X67650000Y-44630000D03*
X67650000Y-43360000D03*
%TD*%
D22*
%TO.C,U2*%
X73050000Y-44000000D03*
X73050000Y-45270000D03*
X73050000Y-46540000D03*
X73050000Y-47810000D03*
X78000000Y-47810000D03*
X78000000Y-46540000D03*
X78000000Y-45270000D03*
X78000000Y-44000000D03*
%TD*%
D14*
%TO.C,MH1*%
X33500000Y-27500000D03*
%TD*%
D21*
%TO.C,C12*%
X67050000Y-33500000D03*
X68950000Y-33500000D03*
%TD*%
D26*
%TO.C,D2*%
X46000000Y-69500000D03*
X50000000Y-69500000D03*
%TD*%
D21*
%TO.C,C14*%
X50550000Y-33500000D03*
X52450000Y-33500000D03*
%TD*%
D14*
%TO.C,MH3*%
X33500000Y-76500000D03*
%TD*%
D19*
%TO.C,J5*%
X36827500Y-62455000D03*
D20*
X36827500Y-67535000D03*
%TD*%
D21*
%TO.C,C10*%
X42550000Y-33500000D03*
X44450000Y-33500000D03*
%TD*%
D12*
%TO.C,J7*%
X91500000Y-42500000D03*
D13*
X91500000Y-45040000D03*
X91500000Y-47580000D03*
X91500000Y-50120000D03*
%TD*%
D14*
%TO.C,MH4*%
X91500000Y-76500000D03*
%TD*%
D21*
%TO.C,C6*%
X58050000Y-39500000D03*
X59950000Y-39500000D03*
%TD*%
D11*
%TO.C,R1*%
X51587500Y-40500000D03*
X53412500Y-40500000D03*
%TD*%
D27*
%TO.C,C8*%
X71025000Y-39000000D03*
X73975000Y-39000000D03*
%TD*%
D21*
%TO.C,C9*%
X83550000Y-52500000D03*
X85450000Y-52500000D03*
%TD*%
D28*
%TO.C,J1*%
X38640000Y-29040000D03*
D29*
X38640000Y-26500000D03*
X41180000Y-29040000D03*
X41180000Y-26500000D03*
X43720000Y-29040000D03*
X43720000Y-26500000D03*
X46260000Y-29040000D03*
X46260000Y-26500000D03*
X48800000Y-29040000D03*
X48800000Y-26500000D03*
X51340000Y-29040000D03*
X51340000Y-26500000D03*
X53880000Y-29040000D03*
X53880000Y-26500000D03*
X56420000Y-29040000D03*
X56420000Y-26500000D03*
X58960000Y-29040000D03*
X58960000Y-26500000D03*
X61500000Y-29040000D03*
X61500000Y-26500000D03*
X64040000Y-29040000D03*
X64040000Y-26500000D03*
X66580000Y-29040000D03*
X66580000Y-26500000D03*
X69120000Y-29040000D03*
X69120000Y-26500000D03*
X71660000Y-29040000D03*
X71660000Y-26500000D03*
X74200000Y-29040000D03*
X74200000Y-26500000D03*
X76740000Y-29040000D03*
X76740000Y-26500000D03*
X79280000Y-29040000D03*
X79280000Y-26500000D03*
X81820000Y-29040000D03*
X81820000Y-26500000D03*
X84360000Y-29040000D03*
X84360000Y-26500000D03*
X86900000Y-29040000D03*
X86900000Y-26500000D03*
%TD*%
D11*
%TO.C,R3*%
X83587500Y-47000000D03*
X85412500Y-47000000D03*
%TD*%
D27*
%TO.C,C7*%
X64525000Y-66500000D03*
X67475000Y-66500000D03*
%TD*%
D15*
%TO.C,LED1*%
X81960000Y-36500000D03*
D16*
X84500000Y-36500000D03*
%TD*%
D11*
%TO.C,R4*%
X75175000Y-33500000D03*
X77000000Y-33500000D03*
%TD*%
D30*
%TO.C,J2*%
X70000000Y-76440000D03*
X85000000Y-76440000D03*
D31*
X73000000Y-72500000D03*
D24*
X76000000Y-72500000D03*
X79000000Y-72500000D03*
X82000000Y-72500000D03*
X73000000Y-75500000D03*
X76000000Y-75500000D03*
X79000000Y-75500000D03*
X82000000Y-75500000D03*
%TD*%
D12*
%TO.C,J6*%
X91500000Y-34725000D03*
D13*
X91500000Y-37265000D03*
%TD*%
D26*
%TO.C,D1*%
X46000000Y-64000000D03*
X50000000Y-64000000D03*
%TD*%
D12*
%TO.C,J3*%
X91500000Y-56500000D03*
D13*
X91500000Y-59040000D03*
X91500000Y-61580000D03*
X91500000Y-64120000D03*
X91500000Y-66660000D03*
X91500000Y-69200000D03*
%TD*%
D21*
%TO.C,C13*%
X77050000Y-52500000D03*
X78950000Y-52500000D03*
%TD*%
M02*
