M48
; DRILL file {KiCad 9.0.7} date 2026-03-09T20:46:43-0500
; FORMAT={-:-/ absolute / metric / decimal}
; #@! TF.CreationDate,2026-03-09T20:46:43-05:00
; #@! TF.GenerationSoftware,Kicad,Pcbnew,9.0.7
; #@! TF.FileFunction,Plated,1,2,PTH
FMAT,2
METRIC
; #@! TA.AperFunction,Plated,PTH,ViaDrill
T1C0.300
; #@! TA.AperFunction,Plated,PTH,ComponentDrill
T2C0.800
; #@! TA.AperFunction,Plated,PTH,ComponentDrill
T3C0.900
; #@! TA.AperFunction,Plated,PTH,ComponentDrill
T4C1.000
; #@! TA.AperFunction,Plated,PTH,ComponentDrill
T5C1.016
; #@! TA.AperFunction,Plated,PTH,ComponentDrill
T6C1.020
; #@! TA.AperFunction,Plated,PTH,ComponentDrill
T7C1.050
; #@! TA.AperFunction,Plated,PTH,ComponentDrill
T8C1.300
; #@! TA.AperFunction,Plated,PTH,ComponentDrill
T9C2.500
%
G90
G05
T1
X41.534Y-33.76
X46.588Y-45.251
X48.216Y-64.043
X50.692Y-39.605
X54.733Y-40.228
X55.334Y-57.523
X59.767Y-62.853
X60.689Y-55.188
X60.817Y-50.397
X61.413Y-52.739
X61.647Y-66.858
X61.691Y-64.334
X64.153Y-48.19
X65.036Y-47.014
X65.781Y-69.696
X65.827Y-49.964
X66.007Y-33.359
X66.029Y-47.821
X66.062Y-45.983
X66.068Y-48.671
X70.931Y-46.677
X72.698Y-54.593
X74.15Y-33.76
X75.412Y-43.475
X75.453Y-51.462
X75.46Y-45.27
X75.881Y-34.721
X78.801Y-40.964
X79.629Y-47.708
X81.763Y-57.44
X82.028Y-58.523
X82.08Y-49.288
X82.316Y-53.23
X88.255Y-27.77
X93.289Y-24.255
T2
X53.0Y-46.5
X53.0Y-51.38
T3
X45.23Y-57.44
X47.77Y-57.44
X81.96Y-36.5
X84.5Y-36.5
T4
X45.0Y-46.665
X45.0Y-49.205
X91.5Y-34.725
X91.5Y-37.265
X91.5Y-42.5
X91.5Y-45.04
X91.5Y-47.58
X91.5Y-50.12
X91.5Y-56.5
X91.5Y-59.04
X91.5Y-61.58
X91.5Y-64.12
X91.5Y-66.66
X91.5Y-69.2
T5
X38.64Y-26.5
X38.64Y-29.04
X41.18Y-26.5
X41.18Y-29.04
X43.72Y-26.5
X43.72Y-29.04
X46.26Y-26.5
X46.26Y-29.04
X48.8Y-26.5
X48.8Y-29.04
X51.34Y-26.5
X51.34Y-29.04
X53.88Y-26.5
X53.88Y-29.04
X56.42Y-26.5
X56.42Y-29.04
X58.96Y-26.5
X58.96Y-29.04
X61.5Y-26.5
X61.5Y-29.04
X64.04Y-26.5
X64.04Y-29.04
X66.58Y-26.5
X66.58Y-29.04
X69.12Y-26.5
X69.12Y-29.04
X71.66Y-26.5
X71.66Y-29.04
X74.2Y-26.5
X74.2Y-29.04
X76.74Y-26.5
X76.74Y-29.04
X79.28Y-26.5
X79.28Y-29.04
X81.82Y-26.5
X81.82Y-29.04
X84.36Y-26.5
X84.36Y-29.04
X86.9Y-26.5
X86.9Y-29.04
T6
X73.0Y-72.5
X73.0Y-75.5
X76.0Y-72.5
X76.0Y-75.5
X79.0Y-72.5
X79.0Y-75.5
X82.0Y-72.5
X82.0Y-75.5
T7
X46.0Y-76.5
X51.0Y-76.5
X61.0Y-76.5
X66.0Y-76.5
T8
X36.5Y-42.94
X36.5Y-48.02
X36.5Y-53.1
X36.828Y-62.455
X36.828Y-67.535
T9
X33.5Y-27.5
X33.5Y-76.5
X91.5Y-27.5
X91.5Y-76.5
M30
