%TF.GenerationSoftware,KiCad,Pcbnew,9.0.7*%
%TF.CreationDate,2026-03-09T20:56:28-05:00*%
%TF.ProjectId,fsae_daughterboard,66736165-5f64-4617-9567-68746572626f,rev?*%
%TF.SameCoordinates,Original*%
%TF.FileFunction,Copper,L1,Top*%
%TF.FilePolarity,Positive*%
%FSLAX46Y46*%
G04 Gerber Fmt 4.6, Leading zero omitted, Abs format (unit mm)*
G04 Created by KiCad (PCBNEW 9.0.7) date 2026-03-09 20:56:28*
%MOMM*%
%LPD*%
G01*
G04 APERTURE LIST*
G04 Aperture macros list*
%AMRoundRect*
0 Rectangle with rounded corners*
0 $1 Rounding radius*
0 $2 $3 $4 $5 $6 $7 $8 $9 X,Y pos of 4 corners*
0 Add a 4 corners polygon primitive as box body*
4,1,4,$2,$3,$4,$5,$6,$7,$8,$9,$2,$3,0*
0 Add four circle primitives for the rounded corners*
1,1,$1+$1,$2,$3*
1,1,$1+$1,$4,$5*
1,1,$1+$1,$6,$7*
1,1,$1+$1,$8,$9*
0 Add four rect primitives between the rounded corners*
20,1,$1+$1,$2,$3,$4,$5,0*
20,1,$1+$1,$4,$5,$6,$7,0*
20,1,$1+$1,$6,$7,$8,$9,0*
20,1,$1+$1,$8,$9,$2,$3,0*%
G04 Aperture macros list end*
%TA.AperFunction,ComponentPad*%
%ADD10C,2.000000*%
%TD*%
%TA.AperFunction,ComponentPad*%
%ADD11R,1.800000X1.800000*%
%TD*%
%TA.AperFunction,ComponentPad*%
%ADD12C,1.800000*%
%TD*%
%TA.AperFunction,ComponentPad*%
%ADD13RoundRect,0.250001X0.499999X0.499999X-0.499999X0.499999X-0.499999X-0.499999X0.499999X-0.499999X0*%
%TD*%
%TA.AperFunction,ComponentPad*%
%ADD14C,1.500000*%
%TD*%
%TA.AperFunction,ViaPad*%
%ADD15C,0.600000*%
%TD*%
%TA.AperFunction,Conductor*%
%ADD16C,0.300000*%
%TD*%
G04 APERTURE END LIST*
D10*
%TO.P,SW2,1,1*%
%TO.N,/BTN2*%
X75000000Y-51000000D03*
X81500000Y-51000000D03*
%TO.P,SW2,2,2*%
%TO.N,GND*%
X75000000Y-55500000D03*
X81500000Y-55500000D03*
%TD*%
D11*
%TO.P,LED3,1,K*%
%TO.N,GND*%
X94460000Y-50500000D03*
D12*
%TO.P,LED3,2,A*%
%TO.N,Net-(LED3-A)*%
X97000000Y-50500000D03*
%TD*%
D11*
%TO.P,LED4,1,K*%
%TO.N,GND*%
X94225000Y-59500000D03*
D12*
%TO.P,LED4,2,A*%
%TO.N,Net-(LED4-A)*%
X96765000Y-59500000D03*
%TD*%
D10*
%TO.P,SW1,1,1*%
%TO.N,/BTN1*%
X75000000Y-38500000D03*
X81500000Y-38500000D03*
%TO.P,SW1,2,2*%
%TO.N,GND*%
X75000000Y-43000000D03*
X81500000Y-43000000D03*
%TD*%
%TO.P,SW3,1,1*%
%TO.N,/BTN3*%
X75000000Y-64000000D03*
X81500000Y-64000000D03*
%TO.P,SW3,2,2*%
%TO.N,GND*%
X75000000Y-68500000D03*
X81500000Y-68500000D03*
%TD*%
D11*
%TO.P,LED5,1,K*%
%TO.N,GND*%
X94225000Y-68500000D03*
D12*
%TO.P,LED5,2,A*%
%TO.N,Net-(LED5-A)*%
X96765000Y-68500000D03*
%TD*%
D13*
%TO.P,J6,1,Pin_1*%
%TO.N,/LED_DB1*%
X102500000Y-38000000D03*
D14*
%TO.P,J6,2,Pin_2*%
%TO.N,/LED_DB2*%
X99500000Y-38000000D03*
%TO.P,J6,3,Pin_3*%
%TO.N,/LED_DB3*%
X96500000Y-38000000D03*
%TO.P,J6,4,Pin_4*%
%TO.N,/BTN1*%
X93500000Y-38000000D03*
%TO.P,J6,5,Pin_5*%
%TO.N,/BTN2*%
X102500000Y-41000000D03*
%TO.P,J6,6,Pin_6*%
%TO.N,/BTN3*%
X99500000Y-41000000D03*
%TO.P,J6,7,Pin_7*%
%TO.N,+3V3*%
X96500000Y-41000000D03*
%TO.P,J6,8,Pin_8*%
%TO.N,GND*%
X93500000Y-41000000D03*
%TD*%
D15*
%TO.N,GND*%
X82908800Y-50174800D03*
%TO.N,/BTN2*%
X88184800Y-63549700D03*
%TO.N,/BTN3*%
X99667400Y-54935200D03*
%TO.N,+3V3*%
X85161600Y-65916400D03*
%TO.N,/LED_DB2*%
X103542600Y-60678200D03*
%TO.N,/LED_DB3*%
X103542700Y-69292700D03*
%TD*%
D16*
%TO.N,GND*%
X73618000Y-67118000D02*
X75000000Y-68500000D01*
X73618000Y-56882000D02*
X73618000Y-67118000D01*
X93500000Y-41000000D02*
X94460000Y-41960000D01*
X82908800Y-50174800D02*
X82908800Y-44408800D01*
X94225000Y-59500000D02*
X94225000Y-58248300D01*
X94460000Y-41960000D02*
X94460000Y-50500000D01*
X75000000Y-55500000D02*
X73618000Y-56882000D01*
X94225000Y-58248300D02*
X94460000Y-58013300D01*
X94460000Y-58013300D02*
X94460000Y-50500000D01*
X82908800Y-44408800D02*
X81500000Y-43000000D01*
X94225000Y-68500000D02*
X94225000Y-59500000D01*
%TO.N,/BTN2*%
X88184800Y-57684800D02*
X81500000Y-51000000D01*
X88184800Y-63549700D02*
X88184800Y-57684800D01*
%TO.N,/BTN3*%
X99667400Y-41167400D02*
X99667400Y-54935200D01*
X99500000Y-41000000D02*
X99667400Y-41167400D01*
%TO.N,+3V3*%
X95376400Y-39876400D02*
X93043500Y-39876400D01*
X96500000Y-41000000D02*
X95376400Y-39876400D01*
X92254000Y-40665900D02*
X92254000Y-60456700D01*
X92254000Y-60456700D02*
X86794300Y-65916400D01*
X93043500Y-39876400D02*
X92254000Y-40665900D01*
X86794300Y-65916400D02*
X85161600Y-65916400D01*
%TO.N,/LED_DB2*%
X101000100Y-57426400D02*
X101000100Y-39500100D01*
X103542600Y-60678200D02*
X102477900Y-59613400D01*
X103542600Y-60678200D02*
X102477900Y-59613400D01*
X102477900Y-58904200D02*
X101000100Y-57426400D01*
X102477900Y-59613400D02*
X102477900Y-58904200D01*
X102477900Y-59613400D02*
X103542600Y-60678200D01*
X101000100Y-39500100D02*
X99500000Y-38000000D01*
%TO.N,/LED_DB3*%
X98399800Y-49249800D02*
X98000100Y-48850100D01*
X98000100Y-48850100D02*
X98000100Y-39500100D01*
X103542700Y-69292700D02*
X98399800Y-64149800D01*
X98000100Y-39500100D02*
X96500000Y-38000000D01*
X98399800Y-64149800D02*
X98399800Y-49249800D01*
%TD*%
M02*
