%TF.GenerationSoftware,KiCad,Pcbnew,9.0.7*%
%TF.CreationDate,2026-03-09T20:56:28-05:00*%
%TF.ProjectId,fsae_daughterboard,66736165-5f64-4617-9567-68746572626f,rev?*%
%TF.SameCoordinates,Original*%
%TF.FileFunction,Soldermask,Bot*%
%TF.FilePolarity,Negative*%
%FSLAX46Y46*%
G04 Gerber Fmt 4.6, Leading zero omitted, Abs format (unit mm)*
G04 Created by KiCad (PCBNEW 9.0.7) date 2026-03-09 20:56:28*
%MOMM*%
%LPD*%
G01*
G04 APERTURE LIST*
G04 Aperture macros list*
%AMRoundRect*
0 Rectangle with rounded corners*
0 $1 Rounding radius*
0 $2 $3 $4 $5 $6 $7 $8 $9 X,Y pos of 4 corners*
0 Add a 4 corners polygon primitive as box body*
4,1,4,$2,$3,$4,$5,$6,$7,$8,$9,$2,$3,0*
0 Add four circle primitives for the rounded corners*
1,1,$1+$1,$2,$3*
1,1,$1+$1,$4,$5*
1,1,$1+$1,$6,$7*
1,1,$1+$1,$8,$9*
0 Add four rect primitives between the rounded corners*
20,1,$1+$1,$2,$3,$4,$5,0*
20,1,$1+$1,$4,$5,$6,$7,0*
20,1,$1+$1,$6,$7,$8,$9,0*
20,1,$1+$1,$8,$9,$2,$3,0*%
G04 Aperture macros list end*
%ADD10C,2.000000*%
%ADD11R,1.800000X1.800000*%
%ADD12C,1.800000*%
%ADD13RoundRect,0.250000X0.262500X0.450000X-0.262500X0.450000X-0.262500X-0.450000X0.262500X-0.450000X0*%
%ADD14RoundRect,0.250000X0.250000X0.475000X-0.250000X0.475000X-0.250000X-0.475000X0.250000X-0.475000X0*%
%ADD15C,1.020000*%
%ADD16RoundRect,0.250001X0.499999X0.499999X-0.499999X0.499999X-0.499999X-0.499999X0.499999X-0.499999X0*%
%ADD17C,1.500000*%
G04 APERTURE END LIST*
D10*
%TO.C,SW2*%
X75000000Y-51000000D03*
X81500000Y-51000000D03*
X75000000Y-55500000D03*
X81500000Y-55500000D03*
%TD*%
D11*
%TO.C,LED3*%
X94460000Y-50500000D03*
D12*
X97000000Y-50500000D03*
%TD*%
D11*
%TO.C,LED4*%
X94225000Y-59500000D03*
D12*
X96765000Y-59500000D03*
%TD*%
D10*
%TO.C,SW1*%
X75000000Y-38500000D03*
X81500000Y-38500000D03*
X75000000Y-43000000D03*
X81500000Y-43000000D03*
%TD*%
%TO.C,SW3*%
X75000000Y-64000000D03*
X81500000Y-64000000D03*
X75000000Y-68500000D03*
X81500000Y-68500000D03*
%TD*%
D11*
%TO.C,LED5*%
X94225000Y-68500000D03*
D12*
X96765000Y-68500000D03*
%TD*%
D13*
%TO.C,R6*%
X102500000Y-60500000D03*
X100675000Y-60500000D03*
%TD*%
D14*
%TO.C,C13*%
X86500000Y-50500000D03*
X84600000Y-50500000D03*
%TD*%
D13*
%TO.C,R8*%
X86912500Y-43500000D03*
X85087500Y-43500000D03*
%TD*%
%TO.C,R7*%
X102500000Y-69000000D03*
X100675000Y-69000000D03*
%TD*%
D15*
%TO.C,J6*%
X105500000Y-41940000D03*
X90500000Y-41940000D03*
D16*
X102500000Y-38000000D03*
D17*
X99500000Y-38000000D03*
X96500000Y-38000000D03*
X93500000Y-38000000D03*
X102500000Y-41000000D03*
X99500000Y-41000000D03*
X96500000Y-41000000D03*
X93500000Y-41000000D03*
%TD*%
D14*
%TO.C,C14*%
X86500000Y-55500000D03*
X84600000Y-55500000D03*
%TD*%
%TO.C,C12*%
X86950000Y-39000000D03*
X85050000Y-39000000D03*
%TD*%
D13*
%TO.C,R10*%
X86912500Y-68500000D03*
X85087500Y-68500000D03*
%TD*%
%TO.C,R5*%
X102500000Y-51000000D03*
X100675000Y-51000000D03*
%TD*%
%TO.C,R9*%
X86825000Y-64000000D03*
X85000000Y-64000000D03*
%TD*%
M02*
