%TF.GenerationSoftware,KiCad,Pcbnew,9.0.7*%
%TF.CreationDate,2026-03-09T20:56:28-05:00*%
%TF.ProjectId,fsae_daughterboard,66736165-5f64-4617-9567-68746572626f,rev?*%
%TF.SameCoordinates,Original*%
%TF.FileFunction,Legend,Bot*%
%TF.FilePolarity,Positive*%
%FSLAX46Y46*%
G04 Gerber Fmt 4.6, Leading zero omitted, Abs format (unit mm)*
G04 Created by KiCad (PCBNEW 9.0.7) date 2026-03-09 20:56:28*
%MOMM*%
%LPD*%
G01*
G04 APERTURE LIST*
%ADD10C,0.150000*%
%ADD11C,0.120000*%
G04 APERTURE END LIST*
D10*
X101754166Y-59304819D02*
X102087499Y-58828628D01*
X102325594Y-59304819D02*
X102325594Y-58304819D01*
X102325594Y-58304819D02*
X101944642Y-58304819D01*
X101944642Y-58304819D02*
X101849404Y-58352438D01*
X101849404Y-58352438D02*
X101801785Y-58400057D01*
X101801785Y-58400057D02*
X101754166Y-58495295D01*
X101754166Y-58495295D02*
X101754166Y-58638152D01*
X101754166Y-58638152D02*
X101801785Y-58733390D01*
X101801785Y-58733390D02*
X101849404Y-58781009D01*
X101849404Y-58781009D02*
X101944642Y-58828628D01*
X101944642Y-58828628D02*
X102325594Y-58828628D01*
X100897023Y-58304819D02*
X101087499Y-58304819D01*
X101087499Y-58304819D02*
X101182737Y-58352438D01*
X101182737Y-58352438D02*
X101230356Y-58400057D01*
X101230356Y-58400057D02*
X101325594Y-58542914D01*
X101325594Y-58542914D02*
X101373213Y-58733390D01*
X101373213Y-58733390D02*
X101373213Y-59114342D01*
X101373213Y-59114342D02*
X101325594Y-59209580D01*
X101325594Y-59209580D02*
X101277975Y-59257200D01*
X101277975Y-59257200D02*
X101182737Y-59304819D01*
X101182737Y-59304819D02*
X100992261Y-59304819D01*
X100992261Y-59304819D02*
X100897023Y-59257200D01*
X100897023Y-59257200D02*
X100849404Y-59209580D01*
X100849404Y-59209580D02*
X100801785Y-59114342D01*
X100801785Y-59114342D02*
X100801785Y-58876247D01*
X100801785Y-58876247D02*
X100849404Y-58781009D01*
X100849404Y-58781009D02*
X100897023Y-58733390D01*
X100897023Y-58733390D02*
X100992261Y-58685771D01*
X100992261Y-58685771D02*
X101182737Y-58685771D01*
X101182737Y-58685771D02*
X101277975Y-58733390D01*
X101277975Y-58733390D02*
X101325594Y-58781009D01*
X101325594Y-58781009D02*
X101373213Y-58876247D01*
X86192857Y-49179580D02*
X86240476Y-49227200D01*
X86240476Y-49227200D02*
X86383333Y-49274819D01*
X86383333Y-49274819D02*
X86478571Y-49274819D01*
X86478571Y-49274819D02*
X86621428Y-49227200D01*
X86621428Y-49227200D02*
X86716666Y-49131961D01*
X86716666Y-49131961D02*
X86764285Y-49036723D01*
X86764285Y-49036723D02*
X86811904Y-48846247D01*
X86811904Y-48846247D02*
X86811904Y-48703390D01*
X86811904Y-48703390D02*
X86764285Y-48512914D01*
X86764285Y-48512914D02*
X86716666Y-48417676D01*
X86716666Y-48417676D02*
X86621428Y-48322438D01*
X86621428Y-48322438D02*
X86478571Y-48274819D01*
X86478571Y-48274819D02*
X86383333Y-48274819D01*
X86383333Y-48274819D02*
X86240476Y-48322438D01*
X86240476Y-48322438D02*
X86192857Y-48370057D01*
X85240476Y-49274819D02*
X85811904Y-49274819D01*
X85526190Y-49274819D02*
X85526190Y-48274819D01*
X85526190Y-48274819D02*
X85621428Y-48417676D01*
X85621428Y-48417676D02*
X85716666Y-48512914D01*
X85716666Y-48512914D02*
X85811904Y-48560533D01*
X84907142Y-48274819D02*
X84288095Y-48274819D01*
X84288095Y-48274819D02*
X84621428Y-48655771D01*
X84621428Y-48655771D02*
X84478571Y-48655771D01*
X84478571Y-48655771D02*
X84383333Y-48703390D01*
X84383333Y-48703390D02*
X84335714Y-48751009D01*
X84335714Y-48751009D02*
X84288095Y-48846247D01*
X84288095Y-48846247D02*
X84288095Y-49084342D01*
X84288095Y-49084342D02*
X84335714Y-49179580D01*
X84335714Y-49179580D02*
X84383333Y-49227200D01*
X84383333Y-49227200D02*
X84478571Y-49274819D01*
X84478571Y-49274819D02*
X84764285Y-49274819D01*
X84764285Y-49274819D02*
X84859523Y-49227200D01*
X84859523Y-49227200D02*
X84907142Y-49179580D01*
X86166666Y-42304819D02*
X86499999Y-41828628D01*
X86738094Y-42304819D02*
X86738094Y-41304819D01*
X86738094Y-41304819D02*
X86357142Y-41304819D01*
X86357142Y-41304819D02*
X86261904Y-41352438D01*
X86261904Y-41352438D02*
X86214285Y-41400057D01*
X86214285Y-41400057D02*
X86166666Y-41495295D01*
X86166666Y-41495295D02*
X86166666Y-41638152D01*
X86166666Y-41638152D02*
X86214285Y-41733390D01*
X86214285Y-41733390D02*
X86261904Y-41781009D01*
X86261904Y-41781009D02*
X86357142Y-41828628D01*
X86357142Y-41828628D02*
X86738094Y-41828628D01*
X85595237Y-41733390D02*
X85690475Y-41685771D01*
X85690475Y-41685771D02*
X85738094Y-41638152D01*
X85738094Y-41638152D02*
X85785713Y-41542914D01*
X85785713Y-41542914D02*
X85785713Y-41495295D01*
X85785713Y-41495295D02*
X85738094Y-41400057D01*
X85738094Y-41400057D02*
X85690475Y-41352438D01*
X85690475Y-41352438D02*
X85595237Y-41304819D01*
X85595237Y-41304819D02*
X85404761Y-41304819D01*
X85404761Y-41304819D02*
X85309523Y-41352438D01*
X85309523Y-41352438D02*
X85261904Y-41400057D01*
X85261904Y-41400057D02*
X85214285Y-41495295D01*
X85214285Y-41495295D02*
X85214285Y-41542914D01*
X85214285Y-41542914D02*
X85261904Y-41638152D01*
X85261904Y-41638152D02*
X85309523Y-41685771D01*
X85309523Y-41685771D02*
X85404761Y-41733390D01*
X85404761Y-41733390D02*
X85595237Y-41733390D01*
X85595237Y-41733390D02*
X85690475Y-41781009D01*
X85690475Y-41781009D02*
X85738094Y-41828628D01*
X85738094Y-41828628D02*
X85785713Y-41923866D01*
X85785713Y-41923866D02*
X85785713Y-42114342D01*
X85785713Y-42114342D02*
X85738094Y-42209580D01*
X85738094Y-42209580D02*
X85690475Y-42257200D01*
X85690475Y-42257200D02*
X85595237Y-42304819D01*
X85595237Y-42304819D02*
X85404761Y-42304819D01*
X85404761Y-42304819D02*
X85309523Y-42257200D01*
X85309523Y-42257200D02*
X85261904Y-42209580D01*
X85261904Y-42209580D02*
X85214285Y-42114342D01*
X85214285Y-42114342D02*
X85214285Y-41923866D01*
X85214285Y-41923866D02*
X85261904Y-41828628D01*
X85261904Y-41828628D02*
X85309523Y-41781009D01*
X85309523Y-41781009D02*
X85404761Y-41733390D01*
X101754166Y-67804819D02*
X102087499Y-67328628D01*
X102325594Y-67804819D02*
X102325594Y-66804819D01*
X102325594Y-66804819D02*
X101944642Y-66804819D01*
X101944642Y-66804819D02*
X101849404Y-66852438D01*
X101849404Y-66852438D02*
X101801785Y-66900057D01*
X101801785Y-66900057D02*
X101754166Y-66995295D01*
X101754166Y-66995295D02*
X101754166Y-67138152D01*
X101754166Y-67138152D02*
X101801785Y-67233390D01*
X101801785Y-67233390D02*
X101849404Y-67281009D01*
X101849404Y-67281009D02*
X101944642Y-67328628D01*
X101944642Y-67328628D02*
X102325594Y-67328628D01*
X101420832Y-66804819D02*
X100754166Y-66804819D01*
X100754166Y-66804819D02*
X101182737Y-67804819D01*
X98333333Y-33784819D02*
X98333333Y-34499104D01*
X98333333Y-34499104D02*
X98380952Y-34641961D01*
X98380952Y-34641961D02*
X98476190Y-34737200D01*
X98476190Y-34737200D02*
X98619047Y-34784819D01*
X98619047Y-34784819D02*
X98714285Y-34784819D01*
X97428571Y-33784819D02*
X97619047Y-33784819D01*
X97619047Y-33784819D02*
X97714285Y-33832438D01*
X97714285Y-33832438D02*
X97761904Y-33880057D01*
X97761904Y-33880057D02*
X97857142Y-34022914D01*
X97857142Y-34022914D02*
X97904761Y-34213390D01*
X97904761Y-34213390D02*
X97904761Y-34594342D01*
X97904761Y-34594342D02*
X97857142Y-34689580D01*
X97857142Y-34689580D02*
X97809523Y-34737200D01*
X97809523Y-34737200D02*
X97714285Y-34784819D01*
X97714285Y-34784819D02*
X97523809Y-34784819D01*
X97523809Y-34784819D02*
X97428571Y-34737200D01*
X97428571Y-34737200D02*
X97380952Y-34689580D01*
X97380952Y-34689580D02*
X97333333Y-34594342D01*
X97333333Y-34594342D02*
X97333333Y-34356247D01*
X97333333Y-34356247D02*
X97380952Y-34261009D01*
X97380952Y-34261009D02*
X97428571Y-34213390D01*
X97428571Y-34213390D02*
X97523809Y-34165771D01*
X97523809Y-34165771D02*
X97714285Y-34165771D01*
X97714285Y-34165771D02*
X97809523Y-34213390D01*
X97809523Y-34213390D02*
X97857142Y-34261009D01*
X97857142Y-34261009D02*
X97904761Y-34356247D01*
X86192857Y-54179580D02*
X86240476Y-54227200D01*
X86240476Y-54227200D02*
X86383333Y-54274819D01*
X86383333Y-54274819D02*
X86478571Y-54274819D01*
X86478571Y-54274819D02*
X86621428Y-54227200D01*
X86621428Y-54227200D02*
X86716666Y-54131961D01*
X86716666Y-54131961D02*
X86764285Y-54036723D01*
X86764285Y-54036723D02*
X86811904Y-53846247D01*
X86811904Y-53846247D02*
X86811904Y-53703390D01*
X86811904Y-53703390D02*
X86764285Y-53512914D01*
X86764285Y-53512914D02*
X86716666Y-53417676D01*
X86716666Y-53417676D02*
X86621428Y-53322438D01*
X86621428Y-53322438D02*
X86478571Y-53274819D01*
X86478571Y-53274819D02*
X86383333Y-53274819D01*
X86383333Y-53274819D02*
X86240476Y-53322438D01*
X86240476Y-53322438D02*
X86192857Y-53370057D01*
X85240476Y-54274819D02*
X85811904Y-54274819D01*
X85526190Y-54274819D02*
X85526190Y-53274819D01*
X85526190Y-53274819D02*
X85621428Y-53417676D01*
X85621428Y-53417676D02*
X85716666Y-53512914D01*
X85716666Y-53512914D02*
X85811904Y-53560533D01*
X84383333Y-53608152D02*
X84383333Y-54274819D01*
X84621428Y-53227200D02*
X84859523Y-53941485D01*
X84859523Y-53941485D02*
X84240476Y-53941485D01*
X86642857Y-37679580D02*
X86690476Y-37727200D01*
X86690476Y-37727200D02*
X86833333Y-37774819D01*
X86833333Y-37774819D02*
X86928571Y-37774819D01*
X86928571Y-37774819D02*
X87071428Y-37727200D01*
X87071428Y-37727200D02*
X87166666Y-37631961D01*
X87166666Y-37631961D02*
X87214285Y-37536723D01*
X87214285Y-37536723D02*
X87261904Y-37346247D01*
X87261904Y-37346247D02*
X87261904Y-37203390D01*
X87261904Y-37203390D02*
X87214285Y-37012914D01*
X87214285Y-37012914D02*
X87166666Y-36917676D01*
X87166666Y-36917676D02*
X87071428Y-36822438D01*
X87071428Y-36822438D02*
X86928571Y-36774819D01*
X86928571Y-36774819D02*
X86833333Y-36774819D01*
X86833333Y-36774819D02*
X86690476Y-36822438D01*
X86690476Y-36822438D02*
X86642857Y-36870057D01*
X85690476Y-37774819D02*
X86261904Y-37774819D01*
X85976190Y-37774819D02*
X85976190Y-36774819D01*
X85976190Y-36774819D02*
X86071428Y-36917676D01*
X86071428Y-36917676D02*
X86166666Y-37012914D01*
X86166666Y-37012914D02*
X86261904Y-37060533D01*
X85309523Y-36870057D02*
X85261904Y-36822438D01*
X85261904Y-36822438D02*
X85166666Y-36774819D01*
X85166666Y-36774819D02*
X84928571Y-36774819D01*
X84928571Y-36774819D02*
X84833333Y-36822438D01*
X84833333Y-36822438D02*
X84785714Y-36870057D01*
X84785714Y-36870057D02*
X84738095Y-36965295D01*
X84738095Y-36965295D02*
X84738095Y-37060533D01*
X84738095Y-37060533D02*
X84785714Y-37203390D01*
X84785714Y-37203390D02*
X85357142Y-37774819D01*
X85357142Y-37774819D02*
X84738095Y-37774819D01*
X86642857Y-67304819D02*
X86976190Y-66828628D01*
X87214285Y-67304819D02*
X87214285Y-66304819D01*
X87214285Y-66304819D02*
X86833333Y-66304819D01*
X86833333Y-66304819D02*
X86738095Y-66352438D01*
X86738095Y-66352438D02*
X86690476Y-66400057D01*
X86690476Y-66400057D02*
X86642857Y-66495295D01*
X86642857Y-66495295D02*
X86642857Y-66638152D01*
X86642857Y-66638152D02*
X86690476Y-66733390D01*
X86690476Y-66733390D02*
X86738095Y-66781009D01*
X86738095Y-66781009D02*
X86833333Y-66828628D01*
X86833333Y-66828628D02*
X87214285Y-66828628D01*
X85690476Y-67304819D02*
X86261904Y-67304819D01*
X85976190Y-67304819D02*
X85976190Y-66304819D01*
X85976190Y-66304819D02*
X86071428Y-66447676D01*
X86071428Y-66447676D02*
X86166666Y-66542914D01*
X86166666Y-66542914D02*
X86261904Y-66590533D01*
X85071428Y-66304819D02*
X84976190Y-66304819D01*
X84976190Y-66304819D02*
X84880952Y-66352438D01*
X84880952Y-66352438D02*
X84833333Y-66400057D01*
X84833333Y-66400057D02*
X84785714Y-66495295D01*
X84785714Y-66495295D02*
X84738095Y-66685771D01*
X84738095Y-66685771D02*
X84738095Y-66923866D01*
X84738095Y-66923866D02*
X84785714Y-67114342D01*
X84785714Y-67114342D02*
X84833333Y-67209580D01*
X84833333Y-67209580D02*
X84880952Y-67257200D01*
X84880952Y-67257200D02*
X84976190Y-67304819D01*
X84976190Y-67304819D02*
X85071428Y-67304819D01*
X85071428Y-67304819D02*
X85166666Y-67257200D01*
X85166666Y-67257200D02*
X85214285Y-67209580D01*
X85214285Y-67209580D02*
X85261904Y-67114342D01*
X85261904Y-67114342D02*
X85309523Y-66923866D01*
X85309523Y-66923866D02*
X85309523Y-66685771D01*
X85309523Y-66685771D02*
X85261904Y-66495295D01*
X85261904Y-66495295D02*
X85214285Y-66400057D01*
X85214285Y-66400057D02*
X85166666Y-66352438D01*
X85166666Y-66352438D02*
X85071428Y-66304819D01*
X101754166Y-49804819D02*
X102087499Y-49328628D01*
X102325594Y-49804819D02*
X102325594Y-48804819D01*
X102325594Y-48804819D02*
X101944642Y-48804819D01*
X101944642Y-48804819D02*
X101849404Y-48852438D01*
X101849404Y-48852438D02*
X101801785Y-48900057D01*
X101801785Y-48900057D02*
X101754166Y-48995295D01*
X101754166Y-48995295D02*
X101754166Y-49138152D01*
X101754166Y-49138152D02*
X101801785Y-49233390D01*
X101801785Y-49233390D02*
X101849404Y-49281009D01*
X101849404Y-49281009D02*
X101944642Y-49328628D01*
X101944642Y-49328628D02*
X102325594Y-49328628D01*
X100849404Y-48804819D02*
X101325594Y-48804819D01*
X101325594Y-48804819D02*
X101373213Y-49281009D01*
X101373213Y-49281009D02*
X101325594Y-49233390D01*
X101325594Y-49233390D02*
X101230356Y-49185771D01*
X101230356Y-49185771D02*
X100992261Y-49185771D01*
X100992261Y-49185771D02*
X100897023Y-49233390D01*
X100897023Y-49233390D02*
X100849404Y-49281009D01*
X100849404Y-49281009D02*
X100801785Y-49376247D01*
X100801785Y-49376247D02*
X100801785Y-49614342D01*
X100801785Y-49614342D02*
X100849404Y-49709580D01*
X100849404Y-49709580D02*
X100897023Y-49757200D01*
X100897023Y-49757200D02*
X100992261Y-49804819D01*
X100992261Y-49804819D02*
X101230356Y-49804819D01*
X101230356Y-49804819D02*
X101325594Y-49757200D01*
X101325594Y-49757200D02*
X101373213Y-49709580D01*
X86079166Y-62804819D02*
X86412499Y-62328628D01*
X86650594Y-62804819D02*
X86650594Y-61804819D01*
X86650594Y-61804819D02*
X86269642Y-61804819D01*
X86269642Y-61804819D02*
X86174404Y-61852438D01*
X86174404Y-61852438D02*
X86126785Y-61900057D01*
X86126785Y-61900057D02*
X86079166Y-61995295D01*
X86079166Y-61995295D02*
X86079166Y-62138152D01*
X86079166Y-62138152D02*
X86126785Y-62233390D01*
X86126785Y-62233390D02*
X86174404Y-62281009D01*
X86174404Y-62281009D02*
X86269642Y-62328628D01*
X86269642Y-62328628D02*
X86650594Y-62328628D01*
X85602975Y-62804819D02*
X85412499Y-62804819D01*
X85412499Y-62804819D02*
X85317261Y-62757200D01*
X85317261Y-62757200D02*
X85269642Y-62709580D01*
X85269642Y-62709580D02*
X85174404Y-62566723D01*
X85174404Y-62566723D02*
X85126785Y-62376247D01*
X85126785Y-62376247D02*
X85126785Y-61995295D01*
X85126785Y-61995295D02*
X85174404Y-61900057D01*
X85174404Y-61900057D02*
X85222023Y-61852438D01*
X85222023Y-61852438D02*
X85317261Y-61804819D01*
X85317261Y-61804819D02*
X85507737Y-61804819D01*
X85507737Y-61804819D02*
X85602975Y-61852438D01*
X85602975Y-61852438D02*
X85650594Y-61900057D01*
X85650594Y-61900057D02*
X85698213Y-61995295D01*
X85698213Y-61995295D02*
X85698213Y-62233390D01*
X85698213Y-62233390D02*
X85650594Y-62328628D01*
X85650594Y-62328628D02*
X85602975Y-62376247D01*
X85602975Y-62376247D02*
X85507737Y-62423866D01*
X85507737Y-62423866D02*
X85317261Y-62423866D01*
X85317261Y-62423866D02*
X85222023Y-62376247D01*
X85222023Y-62376247D02*
X85174404Y-62328628D01*
X85174404Y-62328628D02*
X85126785Y-62233390D01*
D11*
%TO.C,R6*%
X101814564Y-59765000D02*
X101360436Y-59765000D01*
X101814564Y-61235000D02*
X101360436Y-61235000D01*
%TO.C,C13*%
X85811252Y-49765000D02*
X85288748Y-49765000D01*
X85811252Y-51235000D02*
X85288748Y-51235000D01*
%TO.C,R8*%
X86227064Y-42765000D02*
X85772936Y-42765000D01*
X86227064Y-44235000D02*
X85772936Y-44235000D01*
%TO.C,R7*%
X101814564Y-68265000D02*
X101360436Y-68265000D01*
X101814564Y-69735000D02*
X101360436Y-69735000D01*
%TO.C,J6*%
X89815000Y-35420000D02*
X89815000Y-41170000D01*
X89815000Y-43010000D02*
X89815000Y-42710000D01*
X91235000Y-35420000D02*
X89815000Y-35420000D01*
X91235000Y-35920000D02*
X91235000Y-35420000D01*
X104765000Y-35420000D02*
X104765000Y-35920000D01*
X104765000Y-35920000D02*
X91235000Y-35920000D01*
X106185000Y-35420000D02*
X104765000Y-35420000D01*
X106185000Y-41170000D02*
X106185000Y-35420000D01*
X106185000Y-42710000D02*
X106185000Y-43010000D01*
X106185000Y-43010000D02*
X89815000Y-43010000D01*
%TO.C,C14*%
X85811252Y-54765000D02*
X85288748Y-54765000D01*
X85811252Y-56235000D02*
X85288748Y-56235000D01*
%TO.C,C12*%
X86261252Y-38265000D02*
X85738748Y-38265000D01*
X86261252Y-39735000D02*
X85738748Y-39735000D01*
%TO.C,R10*%
X86227064Y-67765000D02*
X85772936Y-67765000D01*
X86227064Y-69235000D02*
X85772936Y-69235000D01*
%TO.C,R5*%
X101814564Y-50265000D02*
X101360436Y-50265000D01*
X101814564Y-51735000D02*
X101360436Y-51735000D01*
%TO.C,R9*%
X86139564Y-63265000D02*
X85685436Y-63265000D01*
X86139564Y-64735000D02*
X85685436Y-64735000D01*
%TD*%
M02*
