%TF.GenerationSoftware,KiCad,Pcbnew,9.0.7*%
%TF.CreationDate,2026-03-09T20:56:28-05:00*%
%TF.ProjectId,fsae_daughterboard,66736165-5f64-4617-9567-68746572626f,rev?*%
%TF.SameCoordinates,Original*%
%TF.FileFunction,Copper,L2,Bot*%
%TF.FilePolarity,Positive*%
%FSLAX46Y46*%
G04 Gerber Fmt 4.6, Leading zero omitted, Abs format (unit mm)*
G04 Created by KiCad (PCBNEW 9.0.7) date 2026-03-09 20:56:28*
%MOMM*%
%LPD*%
G01*
G04 APERTURE LIST*
G04 Aperture macros list*
%AMRoundRect*
0 Rectangle with rounded corners*
0 $1 Rounding radius*
0 $2 $3 $4 $5 $6 $7 $8 $9 X,Y pos of 4 corners*
0 Add a 4 corners polygon primitive as box body*
4,1,4,$2,$3,$4,$5,$6,$7,$8,$9,$2,$3,0*
0 Add four circle primitives for the rounded corners*
1,1,$1+$1,$2,$3*
1,1,$1+$1,$4,$5*
1,1,$1+$1,$6,$7*
1,1,$1+$1,$8,$9*
0 Add four rect primitives between the rounded corners*
20,1,$1+$1,$2,$3,$4,$5,0*
20,1,$1+$1,$4,$5,$6,$7,0*
20,1,$1+$1,$6,$7,$8,$9,0*
20,1,$1+$1,$8,$9,$2,$3,0*%
G04 Aperture macros list end*
%TA.AperFunction,ComponentPad*%
%ADD10C,2.000000*%
%TD*%
%TA.AperFunction,ComponentPad*%
%ADD11R,1.800000X1.800000*%
%TD*%
%TA.AperFunction,ComponentPad*%
%ADD12C,1.800000*%
%TD*%
%TA.AperFunction,SMDPad,CuDef*%
%ADD13RoundRect,0.250000X0.262500X0.450000X-0.262500X0.450000X-0.262500X-0.450000X0.262500X-0.450000X0*%
%TD*%
%TA.AperFunction,SMDPad,CuDef*%
%ADD14RoundRect,0.250000X0.250000X0.475000X-0.250000X0.475000X-0.250000X-0.475000X0.250000X-0.475000X0*%
%TD*%
%TA.AperFunction,ComponentPad*%
%ADD15RoundRect,0.250001X0.499999X0.499999X-0.499999X0.499999X-0.499999X-0.499999X0.499999X-0.499999X0*%
%TD*%
%TA.AperFunction,ComponentPad*%
%ADD16C,1.500000*%
%TD*%
%TA.AperFunction,ViaPad*%
%ADD17C,0.600000*%
%TD*%
%TA.AperFunction,Conductor*%
%ADD18C,0.300000*%
%TD*%
G04 APERTURE END LIST*
D10*
%TO.P,SW2,1,1*%
%TO.N,/BTN2*%
X75000000Y-51000000D03*
X81500000Y-51000000D03*
%TO.P,SW2,2,2*%
%TO.N,GND*%
X75000000Y-55500000D03*
X81500000Y-55500000D03*
%TD*%
D11*
%TO.P,LED3,1,K*%
%TO.N,GND*%
X94460000Y-50500000D03*
D12*
%TO.P,LED3,2,A*%
%TO.N,Net-(LED3-A)*%
X97000000Y-50500000D03*
%TD*%
D11*
%TO.P,LED4,1,K*%
%TO.N,GND*%
X94225000Y-59500000D03*
D12*
%TO.P,LED4,2,A*%
%TO.N,Net-(LED4-A)*%
X96765000Y-59500000D03*
%TD*%
D10*
%TO.P,SW1,1,1*%
%TO.N,/BTN1*%
X75000000Y-38500000D03*
X81500000Y-38500000D03*
%TO.P,SW1,2,2*%
%TO.N,GND*%
X75000000Y-43000000D03*
X81500000Y-43000000D03*
%TD*%
%TO.P,SW3,1,1*%
%TO.N,/BTN3*%
X75000000Y-64000000D03*
X81500000Y-64000000D03*
%TO.P,SW3,2,2*%
%TO.N,GND*%
X75000000Y-68500000D03*
X81500000Y-68500000D03*
%TD*%
D11*
%TO.P,LED5,1,K*%
%TO.N,GND*%
X94225000Y-68500000D03*
D12*
%TO.P,LED5,2,A*%
%TO.N,Net-(LED5-A)*%
X96765000Y-68500000D03*
%TD*%
D13*
%TO.P,R6,1*%
%TO.N,/LED_DB2*%
X102500000Y-60500000D03*
%TO.P,R6,2*%
%TO.N,Net-(LED4-A)*%
X100675000Y-60500000D03*
%TD*%
D14*
%TO.P,C13,1*%
%TO.N,/BTN2*%
X86500000Y-50500000D03*
%TO.P,C13,2*%
%TO.N,GND*%
X84600000Y-50500000D03*
%TD*%
D13*
%TO.P,R8,1*%
%TO.N,/BTN1*%
X86912500Y-43500000D03*
%TO.P,R8,2*%
%TO.N,+3V3*%
X85087500Y-43500000D03*
%TD*%
%TO.P,R7,1*%
%TO.N,/LED_DB3*%
X102500000Y-69000000D03*
%TO.P,R7,2*%
%TO.N,Net-(LED5-A)*%
X100675000Y-69000000D03*
%TD*%
D15*
%TO.P,J6,1,Pin_1*%
%TO.N,/LED_DB1*%
X102500000Y-38000000D03*
D16*
%TO.P,J6,2,Pin_2*%
%TO.N,/LED_DB2*%
X99500000Y-38000000D03*
%TO.P,J6,3,Pin_3*%
%TO.N,/LED_DB3*%
X96500000Y-38000000D03*
%TO.P,J6,4,Pin_4*%
%TO.N,/BTN1*%
X93500000Y-38000000D03*
%TO.P,J6,5,Pin_5*%
%TO.N,/BTN2*%
X102500000Y-41000000D03*
%TO.P,J6,6,Pin_6*%
%TO.N,/BTN3*%
X99500000Y-41000000D03*
%TO.P,J6,7,Pin_7*%
%TO.N,+3V3*%
X96500000Y-41000000D03*
%TO.P,J6,8,Pin_8*%
%TO.N,GND*%
X93500000Y-41000000D03*
%TD*%
D14*
%TO.P,C14,1*%
%TO.N,/BTN3*%
X86500000Y-55500000D03*
%TO.P,C14,2*%
%TO.N,GND*%
X84600000Y-55500000D03*
%TD*%
%TO.P,C12,1*%
%TO.N,/BTN1*%
X86950000Y-39000000D03*
%TO.P,C12,2*%
%TO.N,GND*%
X85050000Y-39000000D03*
%TD*%
D13*
%TO.P,R10,1*%
%TO.N,/BTN3*%
X86912500Y-68500000D03*
%TO.P,R10,2*%
%TO.N,+3V3*%
X85087500Y-68500000D03*
%TD*%
%TO.P,R5,1*%
%TO.N,/LED_DB1*%
X102500000Y-51000000D03*
%TO.P,R5,2*%
%TO.N,Net-(LED3-A)*%
X100675000Y-51000000D03*
%TD*%
%TO.P,R9,1*%
%TO.N,/BTN2*%
X86825000Y-64000000D03*
%TO.P,R9,2*%
%TO.N,+3V3*%
X85000000Y-64000000D03*
%TD*%
D17*
%TO.N,GND*%
X82908800Y-50174800D03*
%TO.N,/BTN2*%
X88184800Y-63549700D03*
%TO.N,/BTN3*%
X99667400Y-54935200D03*
%TO.N,+3V3*%
X85161600Y-65916400D03*
%TO.N,/LED_DB2*%
X103542600Y-60678200D03*
%TO.N,/LED_DB3*%
X103542700Y-69292700D03*
%TD*%
D18*
%TO.N,GND*%
X81500000Y-43000000D02*
X75000000Y-43000000D01*
X84600000Y-55500000D02*
X84600000Y-51593700D01*
X81500000Y-43000000D02*
X85050000Y-39450000D01*
X84600000Y-51593700D02*
X84600000Y-50500000D01*
X75000000Y-68500000D02*
X81500000Y-68500000D01*
X92114600Y-51593700D02*
X84600000Y-51593700D01*
X93208300Y-50500000D02*
X92114600Y-51593700D01*
X75000000Y-55500000D02*
X81500000Y-55500000D01*
X82908800Y-50174800D02*
X83234000Y-50500000D01*
X83234000Y-50500000D02*
X84600000Y-50500000D01*
X94460000Y-50500000D02*
X93208300Y-50500000D01*
X85050000Y-39450000D02*
X85050000Y-39000000D01*
X81500000Y-55500000D02*
X84600000Y-55500000D01*
%TO.N,/BTN1*%
X86950000Y-39000000D02*
X85851000Y-37901000D01*
X86912500Y-39037500D02*
X86912500Y-43500000D01*
X93500000Y-38000000D02*
X87950000Y-38000000D01*
X81500000Y-38500000D02*
X75000000Y-38500000D01*
X87950000Y-38000000D02*
X86950000Y-39000000D01*
X85851000Y-37901000D02*
X82099000Y-37901000D01*
X82099000Y-37901000D02*
X81500000Y-38500000D01*
X86950000Y-39000000D02*
X86912500Y-39037500D01*
%TO.N,/BTN2*%
X89888100Y-47111900D02*
X86500000Y-50500000D01*
X82791600Y-49370500D02*
X81500000Y-50662100D01*
X88184800Y-63549700D02*
X87275300Y-63549700D01*
X102500000Y-41000000D02*
X96388100Y-47111900D01*
X81500000Y-50662100D02*
X81500000Y-51000000D01*
X85370500Y-49370500D02*
X82791600Y-49370500D01*
X96388100Y-47111900D02*
X89888100Y-47111900D01*
X81500000Y-51000000D02*
X75000000Y-51000000D01*
X86500000Y-50500000D02*
X85370500Y-49370500D01*
X87275300Y-63549700D02*
X86825000Y-64000000D01*
%TO.N,/BTN3*%
X86823700Y-68500000D02*
X86912500Y-68500000D01*
X87064800Y-54935200D02*
X86500000Y-55500000D01*
X82323700Y-59676300D02*
X82323700Y-64000000D01*
X99667400Y-54935200D02*
X87064800Y-54935200D01*
X81500000Y-64000000D02*
X82323700Y-64000000D01*
X86500000Y-55500000D02*
X82323700Y-59676300D01*
X75000000Y-64000000D02*
X81500000Y-64000000D01*
X82323700Y-64000000D02*
X86823700Y-68500000D01*
%TO.N,+3V3*%
X96500000Y-41000000D02*
X92915900Y-44584100D01*
X85545500Y-65532500D02*
X87786300Y-67773400D01*
X86162400Y-69574900D02*
X85087500Y-68500000D01*
X87786300Y-69211300D02*
X87422700Y-69574900D01*
X92915900Y-44584100D02*
X86171600Y-44584100D01*
X87422700Y-69574900D02*
X86162400Y-69574900D01*
X86171600Y-44584100D02*
X85087500Y-43500000D01*
X85545500Y-65532500D02*
X85545500Y-64545500D01*
X87786300Y-67773400D02*
X87786300Y-69211300D01*
X85161600Y-65916400D02*
X85545500Y-65532500D01*
X85545500Y-64545500D02*
X85000000Y-64000000D01*
%TO.N,/LED_DB1*%
X102500000Y-51000000D02*
X103646400Y-49853600D01*
X103646400Y-49853600D02*
X103646400Y-39146400D01*
X103646400Y-39146400D02*
X102500000Y-38000000D01*
%TO.N,/LED_DB2*%
X103542600Y-60678200D02*
X102678200Y-60678200D01*
X102678200Y-60678200D02*
X102500000Y-60500000D01*
%TO.N,/LED_DB3*%
X102792700Y-69292700D02*
X102500000Y-69000000D01*
X103542700Y-69292700D02*
X102792700Y-69292700D01*
%TO.N,Net-(LED3-A)*%
X97000000Y-50500000D02*
X100175000Y-50500000D01*
X100175000Y-50500000D02*
X100675000Y-51000000D01*
%TO.N,Net-(LED4-A)*%
X96765000Y-59500000D02*
X99675000Y-59500000D01*
X99675000Y-59500000D02*
X100675000Y-60500000D01*
%TO.N,Net-(LED5-A)*%
X96765000Y-68500000D02*
X100175000Y-68500000D01*
X100175000Y-68500000D02*
X100675000Y-69000000D01*
%TD*%
%TA.AperFunction,Conductor*%
%TO.N,GND*%
G36*
X108942539Y-34020185D02*
G01*
X108988294Y-34072989D01*
X108999500Y-34124500D01*
X108999500Y-72875500D01*
X108979815Y-72942539D01*
X108927011Y-72988294D01*
X108875500Y-72999500D01*
X72124500Y-72999500D01*
X72057461Y-72979815D01*
X72011706Y-72927011D01*
X72000500Y-72875500D01*
X72000500Y-68381947D01*
X73500000Y-68381947D01*
X73500000Y-68618052D01*
X73536934Y-68851247D01*
X73609897Y-69075802D01*
X73717087Y-69286174D01*
X73777338Y-69369104D01*
X73777340Y-69369105D01*
X74476212Y-68670233D01*
X74487482Y-68712292D01*
X74559890Y-68837708D01*
X74662292Y-68940110D01*
X74787708Y-69012518D01*
X74829765Y-69023787D01*
X74130893Y-69722658D01*
X74213828Y-69782914D01*
X74424197Y-69890102D01*
X74648752Y-69963065D01*
X74648751Y-69963065D01*
X74881948Y-70000000D01*
X75118052Y-70000000D01*
X75351247Y-69963065D01*
X75575802Y-69890102D01*
X75786163Y-69782918D01*
X75786169Y-69782914D01*
X75869104Y-69722658D01*
X75869105Y-69722658D01*
X75170233Y-69023787D01*
X75212292Y-69012518D01*
X75337708Y-68940110D01*
X75440110Y-68837708D01*
X75512518Y-68712292D01*
X75523787Y-68670234D01*
X76222658Y-69369105D01*
X76222658Y-69369104D01*
X76282914Y-69286169D01*
X76282918Y-69286163D01*
X76390102Y-69075802D01*
X76463065Y-68851247D01*
X76500000Y-68618052D01*
X76500000Y-68381947D01*
X80000000Y-68381947D01*
X80000000Y-68618052D01*
X80036934Y-68851247D01*
X80109897Y-69075802D01*
X80217087Y-69286174D01*
X80277338Y-69369104D01*
X80277340Y-69369105D01*
X80976212Y-68670233D01*
X80987482Y-68712292D01*
X81059890Y-68837708D01*
X81162292Y-68940110D01*
X81287708Y-69012518D01*
X81329765Y-69023787D01*
X80630893Y-69722658D01*
X80713828Y-69782914D01*
X80924197Y-69890102D01*
X81148752Y-69963065D01*
X81148751Y-69963065D01*
X81381948Y-70000000D01*
X81618052Y-70000000D01*
X81851247Y-69963065D01*
X82075802Y-69890102D01*
X82286163Y-69782918D01*
X82286169Y-69782914D01*
X82369104Y-69722658D01*
X82369105Y-69722658D01*
X81670233Y-69023787D01*
X81712292Y-69012518D01*
X81837708Y-68940110D01*
X81940110Y-68837708D01*
X82012518Y-68712292D01*
X82023787Y-68670234D01*
X82722658Y-69369105D01*
X82722658Y-69369104D01*
X82782914Y-69286169D01*
X82782918Y-69286163D01*
X82890102Y-69075802D01*
X82963065Y-68851247D01*
X83000000Y-68618052D01*
X83000000Y-68381947D01*
X82963065Y-68148752D01*
X82890102Y-67924197D01*
X82782914Y-67713828D01*
X82722658Y-67630894D01*
X82722658Y-67630893D01*
X82023787Y-68329765D01*
X82012518Y-68287708D01*
X81940110Y-68162292D01*
X81837708Y-68059890D01*
X81712292Y-67987482D01*
X81670234Y-67976212D01*
X82369105Y-67277340D01*
X82369104Y-67277338D01*
X82286174Y-67217087D01*
X82075802Y-67109897D01*
X81851247Y-67036934D01*
X81851248Y-67036934D01*
X81618052Y-67000000D01*
X81381948Y-67000000D01*
X81148752Y-67036934D01*
X80924197Y-67109897D01*
X80713830Y-67217084D01*
X80630894Y-67277340D01*
X81329766Y-67976212D01*
X81287708Y-67987482D01*
X81162292Y-68059890D01*
X81059890Y-68162292D01*
X80987482Y-68287708D01*
X80976212Y-68329766D01*
X80277340Y-67630894D01*
X80217084Y-67713830D01*
X80109897Y-67924197D01*
X80036934Y-68148752D01*
X80000000Y-68381947D01*
X76500000Y-68381947D01*
X76463065Y-68148752D01*
X76390102Y-67924197D01*
X76282914Y-67713828D01*
X76222658Y-67630894D01*
X76222658Y-67630893D01*
X75523787Y-68329765D01*
X75512518Y-68287708D01*
X75440110Y-68162292D01*
X75337708Y-68059890D01*
X75212292Y-67987482D01*
X75170234Y-67976212D01*
X75869105Y-67277340D01*
X75869104Y-67277339D01*
X75786174Y-67217087D01*
X75575802Y-67109897D01*
X75351247Y-67036934D01*
X75351248Y-67036934D01*
X75118052Y-67000000D01*
X74881948Y-67000000D01*
X74648752Y-67036934D01*
X74424197Y-67109897D01*
X74213830Y-67217084D01*
X74130894Y-67277340D01*
X74829766Y-67976212D01*
X74787708Y-67987482D01*
X74662292Y-68059890D01*
X74559890Y-68162292D01*
X74487482Y-68287708D01*
X74476212Y-68329766D01*
X73777340Y-67630894D01*
X73717084Y-67713830D01*
X73609897Y-67924197D01*
X73536934Y-68148752D01*
X73500000Y-68381947D01*
X72000500Y-68381947D01*
X72000500Y-63881902D01*
X73499500Y-63881902D01*
X73499500Y-64118097D01*
X73536446Y-64351368D01*
X73609433Y-64575996D01*
X73681893Y-64718205D01*
X73716657Y-64786433D01*
X73855483Y-64977510D01*
X74022490Y-65144517D01*
X74213567Y-65283343D01*
X74235682Y-65294611D01*
X74424003Y-65390566D01*
X74424005Y-65390566D01*
X74424008Y-65390568D01*
X74544412Y-65429689D01*
X74648631Y-65463553D01*
X74881903Y-65500500D01*
X74881908Y-65500500D01*
X75118097Y-65500500D01*
X75351368Y-65463553D01*
X75575992Y-65390568D01*
X75786433Y-65283343D01*
X75977510Y-65144517D01*
X76144517Y-64977510D01*
X76283343Y-64786433D01*
X76318107Y-64718205D01*
X76366082Y-64667409D01*
X76428592Y-64650500D01*
X80071408Y-64650500D01*
X80138447Y-64670185D01*
X80181893Y-64718205D01*
X80216657Y-64786433D01*
X80355483Y-64977510D01*
X80522490Y-65144517D01*
X80713567Y-65283343D01*
X80735682Y-65294611D01*
X80924003Y-65390566D01*
X80924005Y-65390566D01*
X80924008Y-65390568D01*
X81044412Y-65429689D01*
X81148631Y-65463553D01*
X81381903Y-65500500D01*
X81381908Y-65500500D01*
X81618097Y-65500500D01*
X81851368Y-65463553D01*
X82075992Y-65390568D01*
X82286433Y-65283343D01*
X82432815Y-65176989D01*
X82498620Y-65153510D01*
X82566674Y-65169335D01*
X82593381Y-65189627D01*
X84561261Y-67157507D01*
X84594746Y-67218830D01*
X84589762Y-67288522D01*
X84547890Y-67344455D01*
X84512588Y-67362891D01*
X84505666Y-67365186D01*
X84505663Y-67365187D01*
X84356342Y-67457289D01*
X84232289Y-67581342D01*
X84140187Y-67730663D01*
X84140186Y-67730666D01*
X84085001Y-67897203D01*
X84085001Y-67897204D01*
X84085000Y-67897204D01*
X84074500Y-67999983D01*
X84074500Y-69000001D01*
X84074501Y-69000019D01*
X84085000Y-69102796D01*
X84085001Y-69102799D01*
X84100808Y-69150500D01*
X84140186Y-69269334D01*
X84232288Y-69418656D01*
X84356344Y-69542712D01*
X84505666Y-69634814D01*
X84672203Y-69689999D01*
X84774991Y-69700500D01*
X85316691Y-69700499D01*
X85383730Y-69720183D01*
X85404372Y-69736818D01*
X85657124Y-69989569D01*
X85710265Y-70042710D01*
X85747732Y-70080177D01*
X85854266Y-70151361D01*
X85854272Y-70151364D01*
X85854273Y-70151365D01*
X85972656Y-70200401D01*
X85972660Y-70200401D01*
X85972661Y-70200402D01*
X86098328Y-70225400D01*
X86098331Y-70225400D01*
X87486771Y-70225400D01*
X87571315Y-70208582D01*
X87612444Y-70200401D01*
X87730827Y-70151365D01*
X87837369Y-70080177D01*
X88291577Y-69625969D01*
X88362765Y-69519427D01*
X88411801Y-69401044D01*
X88420608Y-69356769D01*
X88436800Y-69275369D01*
X88436800Y-67709331D01*
X88419398Y-67621848D01*
X88412669Y-67588013D01*
X88412056Y-67584226D01*
X88411914Y-67583611D01*
X88411738Y-67583147D01*
X88410130Y-67579622D01*
X88398753Y-67552155D01*
X92825000Y-67552155D01*
X92825000Y-68250000D01*
X93849722Y-68250000D01*
X93805667Y-68326306D01*
X93775000Y-68440756D01*
X93775000Y-68559244D01*
X93805667Y-68673694D01*
X93849722Y-68750000D01*
X92825000Y-68750000D01*
X92825000Y-69447844D01*
X92831401Y-69507372D01*
X92831403Y-69507379D01*
X92881645Y-69642086D01*
X92881649Y-69642093D01*
X92967809Y-69757187D01*
X92967812Y-69757190D01*
X93082906Y-69843350D01*
X93082913Y-69843354D01*
X93217620Y-69893596D01*
X93217627Y-69893598D01*
X93277155Y-69899999D01*
X93277172Y-69900000D01*
X93975000Y-69900000D01*
X93975000Y-68875277D01*
X94051306Y-68919333D01*
X94165756Y-68950000D01*
X94284244Y-68950000D01*
X94398694Y-68919333D01*
X94475000Y-68875277D01*
X94475000Y-69900000D01*
X95172828Y-69900000D01*
X95172844Y-69899999D01*
X95232372Y-69893598D01*
X95232379Y-69893596D01*
X95367086Y-69843354D01*
X95367093Y-69843350D01*
X95482187Y-69757190D01*
X95482190Y-69757187D01*
X95568350Y-69642093D01*
X95568354Y-69642086D01*
X95598213Y-69562031D01*
X95640084Y-69506097D01*
X95705548Y-69481680D01*
X95773821Y-69496531D01*
X95802076Y-69517683D01*
X95852636Y-69568243D01*
X95852641Y-69568247D01*
X95995270Y-69671872D01*
X96030978Y-69697815D01*
X96147501Y-69757187D01*
X96227393Y-69797895D01*
X96227396Y-69797896D01*
X96313204Y-69825776D01*
X96437049Y-69866015D01*
X96654778Y-69900500D01*
X96654779Y-69900500D01*
X96875221Y-69900500D01*
X96875222Y-69900500D01*
X97092951Y-69866015D01*
X97302606Y-69797895D01*
X97499022Y-69697815D01*
X97677365Y-69568242D01*
X97833242Y-69412365D01*
X97962815Y-69234022D01*
X97970874Y-69218204D01*
X98018848Y-69167409D01*
X98081359Y-69150500D01*
X99538001Y-69150500D01*
X99605040Y-69170185D01*
X99650795Y-69222989D01*
X99662001Y-69274500D01*
X99662001Y-69500018D01*
X99672500Y-69602796D01*
X99672501Y-69602799D01*
X99727685Y-69769331D01*
X99727687Y-69769336D01*
X99745302Y-69797895D01*
X99819788Y-69918656D01*
X99943844Y-70042712D01*
X100093166Y-70134814D01*
X100259703Y-70189999D01*
X100362491Y-70200500D01*
X100987508Y-70200499D01*
X100987516Y-70200498D01*
X100987519Y-70200498D01*
X101043802Y-70194748D01*
X101090297Y-70189999D01*
X101256834Y-70134814D01*
X101406156Y-70042712D01*
X101499819Y-69949049D01*
X101561142Y-69915564D01*
X101630834Y-69920548D01*
X101675181Y-69949049D01*
X101768844Y-70042712D01*
X101918166Y-70134814D01*
X102084703Y-70189999D01*
X102187491Y-70200500D01*
X102812508Y-70200499D01*
X102812516Y-70200498D01*
X102812519Y-70200498D01*
X102868802Y-70194748D01*
X102915297Y-70189999D01*
X103081834Y-70134814D01*
X103189412Y-70068459D01*
X103256803Y-70050019D01*
X103301959Y-70059436D01*
X103309203Y-70062437D01*
X103463853Y-70093199D01*
X103463856Y-70093200D01*
X103463858Y-70093200D01*
X103621544Y-70093200D01*
X103621545Y-70093199D01*
X103776197Y-70062437D01*
X103921879Y-70002094D01*
X104052989Y-69914489D01*
X104164489Y-69802989D01*
X104252094Y-69671879D01*
X104312437Y-69526197D01*
X104343200Y-69371542D01*
X104343200Y-69213858D01*
X104343200Y-69213855D01*
X104343199Y-69213853D01*
X104321108Y-69102796D01*
X104312437Y-69059203D01*
X104293100Y-69012518D01*
X104252097Y-68913527D01*
X104252090Y-68913514D01*
X104164489Y-68782411D01*
X104164486Y-68782407D01*
X104052992Y-68670913D01*
X104052988Y-68670910D01*
X103921885Y-68583309D01*
X103921872Y-68583302D01*
X103776201Y-68522964D01*
X103776189Y-68522961D01*
X103621546Y-68492200D01*
X103615482Y-68491603D01*
X103615638Y-68490009D01*
X103556061Y-68472515D01*
X103510306Y-68419711D01*
X103504948Y-68403524D01*
X103504629Y-68403630D01*
X103466216Y-68287708D01*
X103447314Y-68230666D01*
X103355212Y-68081344D01*
X103231156Y-67957288D01*
X103081834Y-67865186D01*
X102915297Y-67810001D01*
X102915295Y-67810000D01*
X102812510Y-67799500D01*
X102187498Y-67799500D01*
X102187480Y-67799501D01*
X102084703Y-67810000D01*
X102084700Y-67810001D01*
X101918168Y-67865185D01*
X101918163Y-67865187D01*
X101768842Y-67957289D01*
X101675181Y-68050951D01*
X101613858Y-68084436D01*
X101544166Y-68079452D01*
X101499819Y-68050951D01*
X101406157Y-67957289D01*
X101406156Y-67957288D01*
X101256834Y-67865186D01*
X101090297Y-67810001D01*
X101090295Y-67810000D01*
X100987510Y-67799500D01*
X100362498Y-67799500D01*
X100362480Y-67799501D01*
X100259703Y-67810000D01*
X100259700Y-67810001D01*
X100159497Y-67843206D01*
X100120493Y-67849500D01*
X98081359Y-67849500D01*
X98014320Y-67829815D01*
X97970874Y-67781795D01*
X97962812Y-67765973D01*
X97833244Y-67587637D01*
X97677363Y-67431756D01*
X97677358Y-67431752D01*
X97499025Y-67302187D01*
X97499024Y-67302186D01*
X97499022Y-67302185D01*
X97436096Y-67270122D01*
X97302606Y-67202104D01*
X97302603Y-67202103D01*
X97092952Y-67133985D01*
X96984086Y-67116742D01*
X96875222Y-67099500D01*
X96654778Y-67099500D01*
X96589134Y-67109897D01*
X96437047Y-67133985D01*
X96227396Y-67202103D01*
X96227393Y-67202104D01*
X96030974Y-67302187D01*
X95852641Y-67431752D01*
X95852636Y-67431756D01*
X95802075Y-67482317D01*
X95740752Y-67515801D01*
X95671060Y-67510816D01*
X95615127Y-67468945D01*
X95598213Y-67437968D01*
X95568354Y-67357913D01*
X95568350Y-67357906D01*
X95482190Y-67242812D01*
X95482187Y-67242809D01*
X95367093Y-67156649D01*
X95367086Y-67156645D01*
X95232379Y-67106403D01*
X95232372Y-67106401D01*
X95172844Y-67100000D01*
X94475000Y-67100000D01*
X94475000Y-68124722D01*
X94398694Y-68080667D01*
X94284244Y-68050000D01*
X94165756Y-68050000D01*
X94051306Y-68080667D01*
X93975000Y-68124722D01*
X93975000Y-67100000D01*
X93277155Y-67100000D01*
X93217627Y-67106401D01*
X93217620Y-67106403D01*
X93082913Y-67156645D01*
X93082906Y-67156649D01*
X92967812Y-67242809D01*
X92967809Y-67242812D01*
X92881649Y-67357906D01*
X92881645Y-67357913D01*
X92831403Y-67492620D01*
X92831401Y-67492627D01*
X92825000Y-67552155D01*
X88398753Y-67552155D01*
X88385968Y-67521289D01*
X88385967Y-67521288D01*
X88369826Y-67482317D01*
X88364435Y-67469303D01*
X88363141Y-67465834D01*
X88361747Y-67463748D01*
X88361727Y-67463719D01*
X88335089Y-67423853D01*
X88335087Y-67423849D01*
X88291589Y-67358745D01*
X88291584Y-67358739D01*
X88290751Y-67357906D01*
X88269168Y-67336323D01*
X87932860Y-67000000D01*
X86336761Y-65403829D01*
X86303277Y-65342505D01*
X86308263Y-65272814D01*
X86350136Y-65216881D01*
X86415601Y-65192466D01*
X86437041Y-65192791D01*
X86512491Y-65200500D01*
X87137508Y-65200499D01*
X87137516Y-65200498D01*
X87137519Y-65200498D01*
X87216146Y-65192466D01*
X87240297Y-65189999D01*
X87406834Y-65134814D01*
X87556156Y-65042712D01*
X87680212Y-64918656D01*
X87772314Y-64769334D01*
X87827499Y-64602797D01*
X87838000Y-64500009D01*
X87837999Y-64447993D01*
X87857682Y-64380956D01*
X87910485Y-64335201D01*
X87979644Y-64325256D01*
X87986191Y-64326377D01*
X88105955Y-64350200D01*
X88105958Y-64350200D01*
X88263644Y-64350200D01*
X88263645Y-64350199D01*
X88418297Y-64319437D01*
X88563979Y-64259094D01*
X88695089Y-64171489D01*
X88806589Y-64059989D01*
X88894194Y-63928879D01*
X88954537Y-63783197D01*
X88985300Y-63628542D01*
X88985300Y-63470858D01*
X88985300Y-63470855D01*
X88985299Y-63470853D01*
X88961160Y-63349500D01*
X88954537Y-63316203D01*
X88919107Y-63230666D01*
X88894197Y-63170527D01*
X88894190Y-63170514D01*
X88806589Y-63039411D01*
X88806586Y-63039407D01*
X88695092Y-62927913D01*
X88695088Y-62927910D01*
X88563985Y-62840309D01*
X88563972Y-62840302D01*
X88418301Y-62779964D01*
X88418289Y-62779961D01*
X88263645Y-62749200D01*
X88263642Y-62749200D01*
X88105958Y-62749200D01*
X88105955Y-62749200D01*
X87951310Y-62779961D01*
X87951298Y-62779964D01*
X87805627Y-62840302D01*
X87805620Y-62840306D01*
X87782907Y-62855483D01*
X87748755Y-62878302D01*
X87730708Y-62883953D01*
X87714800Y-62894177D01*
X87683840Y-62898628D01*
X87682079Y-62899180D01*
X87679865Y-62899200D01*
X87497146Y-62899200D01*
X87432050Y-62880739D01*
X87406840Y-62865189D01*
X87406835Y-62865187D01*
X87406834Y-62865186D01*
X87240297Y-62810001D01*
X87240295Y-62810000D01*
X87137510Y-62799500D01*
X86512498Y-62799500D01*
X86512480Y-62799501D01*
X86409703Y-62810000D01*
X86409700Y-62810001D01*
X86243168Y-62865185D01*
X86243163Y-62865187D01*
X86093842Y-62957289D01*
X86000181Y-63050951D01*
X85938858Y-63084436D01*
X85869166Y-63079452D01*
X85824819Y-63050951D01*
X85731157Y-62957289D01*
X85731156Y-62957288D01*
X85628836Y-62894177D01*
X85581836Y-62865187D01*
X85581831Y-62865185D01*
X85552552Y-62855483D01*
X85415297Y-62810001D01*
X85415295Y-62810000D01*
X85312510Y-62799500D01*
X84687498Y-62799500D01*
X84687480Y-62799501D01*
X84584703Y-62810000D01*
X84584700Y-62810001D01*
X84418168Y-62865185D01*
X84418163Y-62865187D01*
X84268842Y-62957289D01*
X84144789Y-63081342D01*
X84052687Y-63230663D01*
X84052686Y-63230666D01*
X83997501Y-63397203D01*
X83997501Y-63397204D01*
X83997500Y-63397204D01*
X83987000Y-63499983D01*
X83987000Y-64443992D01*
X83967315Y-64511031D01*
X83914511Y-64556786D01*
X83845353Y-64566730D01*
X83781797Y-64537705D01*
X83775319Y-64531673D01*
X83010519Y-63766873D01*
X82977034Y-63705550D01*
X82974200Y-63679192D01*
X82974200Y-59997107D01*
X82993885Y-59930068D01*
X83010514Y-59909431D01*
X84367790Y-58552155D01*
X92825000Y-58552155D01*
X92825000Y-59250000D01*
X93849722Y-59250000D01*
X93805667Y-59326306D01*
X93775000Y-59440756D01*
X93775000Y-59559244D01*
X93805667Y-59673694D01*
X93849722Y-59750000D01*
X92825000Y-59750000D01*
X92825000Y-60447844D01*
X92831401Y-60507372D01*
X92831403Y-60507379D01*
X92881645Y-60642086D01*
X92881649Y-60642093D01*
X92967809Y-60757187D01*
X92967812Y-60757190D01*
X93082906Y-60843350D01*
X93082913Y-60843354D01*
X93217620Y-60893596D01*
X93217627Y-60893598D01*
X93277155Y-60899999D01*
X93277172Y-60900000D01*
X93975000Y-60900000D01*
X93975000Y-59875277D01*
X94051306Y-59919333D01*
X94165756Y-59950000D01*
X94284244Y-59950000D01*
X94398694Y-59919333D01*
X94475000Y-59875277D01*
X94475000Y-60900000D01*
X95172828Y-60900000D01*
X95172844Y-60899999D01*
X95232372Y-60893598D01*
X95232379Y-60893596D01*
X95367086Y-60843354D01*
X95367093Y-60843350D01*
X95482187Y-60757190D01*
X95482190Y-60757187D01*
X95568350Y-60642093D01*
X95568354Y-60642086D01*
X95598213Y-60562031D01*
X95640084Y-60506097D01*
X95705548Y-60481680D01*
X95773821Y-60496531D01*
X95802076Y-60517683D01*
X95852636Y-60568243D01*
X95852641Y-60568247D01*
X96008192Y-60681260D01*
X96030978Y-60697815D01*
X96147216Y-60757042D01*
X96227393Y-60797895D01*
X96227396Y-60797896D01*
X96332221Y-60831955D01*
X96437049Y-60866015D01*
X96654778Y-60900500D01*
X96654779Y-60900500D01*
X96875221Y-60900500D01*
X96875222Y-60900500D01*
X97092951Y-60866015D01*
X97302606Y-60797895D01*
X97499022Y-60697815D01*
X97677365Y-60568242D01*
X97833242Y-60412365D01*
X97962815Y-60234022D01*
X97970874Y-60218204D01*
X98018848Y-60167409D01*
X98081359Y-60150500D01*
X99354192Y-60150500D01*
X99421231Y-60170185D01*
X99441873Y-60186819D01*
X99625681Y-60370627D01*
X99659166Y-60431950D01*
X99662000Y-60458308D01*
X99662000Y-61000001D01*
X99662001Y-61000019D01*
X99672500Y-61102796D01*
X99672501Y-61102799D01*
X99727685Y-61269331D01*
X99727686Y-61269334D01*
X99819788Y-61418656D01*
X99943844Y-61542712D01*
X100093166Y-61634814D01*
X100259703Y-61689999D01*
X100362491Y-61700500D01*
X100987508Y-61700499D01*
X100987516Y-61700498D01*
X100987519Y-61700498D01*
X101043802Y-61694748D01*
X101090297Y-61689999D01*
X101256834Y-61634814D01*
X101406156Y-61542712D01*
X101499819Y-61449049D01*
X101561142Y-61415564D01*
X101630834Y-61420548D01*
X101675181Y-61449049D01*
X101768844Y-61542712D01*
X101918166Y-61634814D01*
X102084703Y-61689999D01*
X102187491Y-61700500D01*
X102812508Y-61700499D01*
X102812516Y-61700498D01*
X102812519Y-61700498D01*
X102868802Y-61694748D01*
X102915297Y-61689999D01*
X103081834Y-61634814D01*
X103231156Y-61542712D01*
X103276272Y-61497596D01*
X103337595Y-61464110D01*
X103388144Y-61463659D01*
X103439574Y-61473889D01*
X103463757Y-61478700D01*
X103463758Y-61478700D01*
X103621444Y-61478700D01*
X103621445Y-61478699D01*
X103776097Y-61447937D01*
X103921779Y-61387594D01*
X104052889Y-61299989D01*
X104164389Y-61188489D01*
X104251994Y-61057379D01*
X104312337Y-60911697D01*
X104343100Y-60757042D01*
X104343100Y-60599358D01*
X104343100Y-60599355D01*
X104343099Y-60599353D01*
X104324804Y-60507379D01*
X104312337Y-60444703D01*
X104298942Y-60412365D01*
X104251997Y-60299027D01*
X104251990Y-60299014D01*
X104164389Y-60167911D01*
X104164386Y-60167907D01*
X104052892Y-60056413D01*
X104052888Y-60056410D01*
X103921785Y-59968809D01*
X103921772Y-59968802D01*
X103776101Y-59908464D01*
X103776089Y-59908461D01*
X103621445Y-59877700D01*
X103621442Y-59877700D01*
X103585577Y-59877700D01*
X103518538Y-59858015D01*
X103472783Y-59805211D01*
X103467871Y-59792704D01*
X103447314Y-59730666D01*
X103355212Y-59581344D01*
X103231156Y-59457288D01*
X103081834Y-59365186D01*
X102915297Y-59310001D01*
X102915295Y-59310000D01*
X102812510Y-59299500D01*
X102187498Y-59299500D01*
X102187480Y-59299501D01*
X102084703Y-59310000D01*
X102084700Y-59310001D01*
X101918168Y-59365185D01*
X101918163Y-59365187D01*
X101768842Y-59457289D01*
X101675181Y-59550951D01*
X101613858Y-59584436D01*
X101544166Y-59579452D01*
X101499819Y-59550951D01*
X101406157Y-59457289D01*
X101406156Y-59457288D01*
X101256834Y-59365186D01*
X101090297Y-59310001D01*
X101090295Y-59310000D01*
X100987516Y-59299500D01*
X100987509Y-59299500D01*
X100445808Y-59299500D01*
X100378769Y-59279815D01*
X100358127Y-59263181D01*
X100089674Y-58994727D01*
X100089673Y-58994726D01*
X100041284Y-58962394D01*
X99983127Y-58923535D01*
X99864744Y-58874499D01*
X99864738Y-58874497D01*
X99739071Y-58849500D01*
X99739069Y-58849500D01*
X98081359Y-58849500D01*
X98014320Y-58829815D01*
X97970874Y-58781795D01*
X97962812Y-58765973D01*
X97833247Y-58587641D01*
X97833243Y-58587636D01*
X97677363Y-58431756D01*
X97677358Y-58431752D01*
X97499025Y-58302187D01*
X97499024Y-58302186D01*
X97499022Y-58302185D01*
X97436096Y-58270122D01*
X97302606Y-58202104D01*
X97302603Y-58202103D01*
X97092952Y-58133985D01*
X96984086Y-58116742D01*
X96875222Y-58099500D01*
X96654778Y-58099500D01*
X96582201Y-58110995D01*
X96437047Y-58133985D01*
X96227396Y-58202103D01*
X96227393Y-58202104D01*
X96030974Y-58302187D01*
X95852641Y-58431752D01*
X95852636Y-58431756D01*
X95802075Y-58482317D01*
X95740752Y-58515801D01*
X95671060Y-58510816D01*
X95615127Y-58468945D01*
X95598213Y-58437968D01*
X95568354Y-58357913D01*
X95568350Y-58357906D01*
X95482190Y-58242812D01*
X95482187Y-58242809D01*
X95367093Y-58156649D01*
X95367086Y-58156645D01*
X95232379Y-58106403D01*
X95232372Y-58106401D01*
X95172844Y-58100000D01*
X94475000Y-58100000D01*
X94475000Y-59124722D01*
X94398694Y-59080667D01*
X94284244Y-59050000D01*
X94165756Y-59050000D01*
X94051306Y-59080667D01*
X93975000Y-59124722D01*
X93975000Y-58100000D01*
X93277155Y-58100000D01*
X93217627Y-58106401D01*
X93217620Y-58106403D01*
X93082913Y-58156645D01*
X93082906Y-58156649D01*
X92967812Y-58242809D01*
X92967809Y-58242812D01*
X92881649Y-58357906D01*
X92881645Y-58357913D01*
X92831403Y-58492620D01*
X92831401Y-58492627D01*
X92825000Y-58552155D01*
X84367790Y-58552155D01*
X86158128Y-56761816D01*
X86219449Y-56728333D01*
X86245798Y-56725499D01*
X86800008Y-56725499D01*
X86800016Y-56725498D01*
X86800019Y-56725498D01*
X86856302Y-56719748D01*
X86902797Y-56714999D01*
X87069334Y-56659814D01*
X87218656Y-56567712D01*
X87342712Y-56443656D01*
X87434814Y-56294334D01*
X87489999Y-56127797D01*
X87500500Y-56025009D01*
X87500500Y-55709700D01*
X87520185Y-55642661D01*
X87572989Y-55596906D01*
X87624500Y-55585700D01*
X99162465Y-55585700D01*
X99229504Y-55605385D01*
X99231309Y-55606566D01*
X99288221Y-55644594D01*
X99288223Y-55644595D01*
X99288227Y-55644597D01*
X99405178Y-55693039D01*
X99433903Y-55704937D01*
X99588553Y-55735699D01*
X99588556Y-55735700D01*
X99588558Y-55735700D01*
X99746244Y-55735700D01*
X99746245Y-55735699D01*
X99900897Y-55704937D01*
X100046579Y-55644594D01*
X100177689Y-55556989D01*
X100289189Y-55445489D01*
X100376794Y-55314379D01*
X100437137Y-55168697D01*
X100467900Y-55014042D01*
X100467900Y-54856358D01*
X100467900Y-54856355D01*
X100467899Y-54856353D01*
X100439549Y-54713830D01*
X100437137Y-54701703D01*
X100407807Y-54630893D01*
X100376797Y-54556027D01*
X100376790Y-54556014D01*
X100289189Y-54424911D01*
X100289186Y-54424907D01*
X100177692Y-54313413D01*
X100177688Y-54313410D01*
X100046585Y-54225809D01*
X100046572Y-54225802D01*
X99900901Y-54165464D01*
X99900889Y-54165461D01*
X99746245Y-54134700D01*
X99746242Y-54134700D01*
X99588558Y-54134700D01*
X99588555Y-54134700D01*
X99433910Y-54165461D01*
X99433898Y-54165464D01*
X99288227Y-54225802D01*
X99288220Y-54225806D01*
X99259328Y-54245111D01*
X99231355Y-54263802D01*
X99164679Y-54284680D01*
X99162465Y-54284700D01*
X87000730Y-54284700D01*
X86971075Y-54290598D01*
X86907890Y-54286688D01*
X86902804Y-54285003D01*
X86902800Y-54285002D01*
X86902797Y-54285001D01*
X86902794Y-54285000D01*
X86902791Y-54285000D01*
X86800010Y-54274500D01*
X86199998Y-54274500D01*
X86199980Y-54274501D01*
X86097203Y-54285000D01*
X86097200Y-54285001D01*
X85930668Y-54340185D01*
X85930663Y-54340187D01*
X85781342Y-54432289D01*
X85657288Y-54556343D01*
X85657283Y-54556349D01*
X85655241Y-54559661D01*
X85653247Y-54561453D01*
X85652807Y-54562011D01*
X85652711Y-54561935D01*
X85603291Y-54606383D01*
X85534328Y-54617602D01*
X85470247Y-54589755D01*
X85444168Y-54559656D01*
X85442319Y-54556659D01*
X85442316Y-54556655D01*
X85318345Y-54432684D01*
X85169124Y-54340643D01*
X85169119Y-54340641D01*
X85002697Y-54285494D01*
X85002690Y-54285493D01*
X84899986Y-54275000D01*
X84850000Y-54275000D01*
X84850000Y-55376000D01*
X84830315Y-55443039D01*
X84777511Y-55488794D01*
X84726000Y-55500000D01*
X84600000Y-55500000D01*
X84600000Y-55626000D01*
X84580315Y-55693039D01*
X84527511Y-55738794D01*
X84476000Y-55750000D01*
X83600001Y-55750000D01*
X83600001Y-56024986D01*
X83610494Y-56127697D01*
X83665641Y-56294119D01*
X83665643Y-56294124D01*
X83757684Y-56443345D01*
X83881654Y-56567315D01*
X84030875Y-56659356D01*
X84030880Y-56659358D01*
X84132842Y-56693145D01*
X84190287Y-56732917D01*
X84217110Y-56797433D01*
X84204795Y-56866209D01*
X84181519Y-56898532D01*
X81818427Y-59261625D01*
X81818426Y-59261626D01*
X81749234Y-59365182D01*
X81749232Y-59365184D01*
X81747238Y-59368167D01*
X81747235Y-59368173D01*
X81698199Y-59486555D01*
X81698197Y-59486561D01*
X81673200Y-59612228D01*
X81673200Y-62375500D01*
X81653515Y-62442539D01*
X81600711Y-62488294D01*
X81549200Y-62499500D01*
X81381903Y-62499500D01*
X81148631Y-62536446D01*
X80924003Y-62609433D01*
X80713566Y-62716657D01*
X80604550Y-62795862D01*
X80522490Y-62855483D01*
X80522488Y-62855485D01*
X80522487Y-62855485D01*
X80355485Y-63022487D01*
X80355485Y-63022488D01*
X80355483Y-63022490D01*
X80295862Y-63104550D01*
X80216657Y-63213566D01*
X80181893Y-63281795D01*
X80133918Y-63332591D01*
X80071408Y-63349500D01*
X76428592Y-63349500D01*
X76361553Y-63329815D01*
X76318107Y-63281795D01*
X76283342Y-63213566D01*
X76144517Y-63022490D01*
X75977510Y-62855483D01*
X75786433Y-62716657D01*
X75575996Y-62609433D01*
X75351368Y-62536446D01*
X75118097Y-62499500D01*
X75118092Y-62499500D01*
X74881908Y-62499500D01*
X74881903Y-62499500D01*
X74648631Y-62536446D01*
X74424003Y-62609433D01*
X74213566Y-62716657D01*
X74104550Y-62795862D01*
X74022490Y-62855483D01*
X74022488Y-62855485D01*
X74022487Y-62855485D01*
X73855485Y-63022487D01*
X73855485Y-63022488D01*
X73855483Y-63022490D01*
X73795862Y-63104550D01*
X73716657Y-63213566D01*
X73609433Y-63424003D01*
X73536446Y-63648631D01*
X73499500Y-63881902D01*
X72000500Y-63881902D01*
X72000500Y-55381947D01*
X80000000Y-55381947D01*
X80000000Y-55618052D01*
X80036934Y-55851247D01*
X80109897Y-56075802D01*
X80217087Y-56286174D01*
X80277338Y-56369104D01*
X80277340Y-56369105D01*
X80976212Y-55670233D01*
X80987482Y-55712292D01*
X81059890Y-55837708D01*
X81162292Y-55940110D01*
X81287708Y-56012518D01*
X81329765Y-56023787D01*
X80630893Y-56722658D01*
X80713828Y-56782914D01*
X80924197Y-56890102D01*
X81148752Y-56963065D01*
X81148751Y-56963065D01*
X81381948Y-57000000D01*
X81618052Y-57000000D01*
X81851247Y-56963065D01*
X82075802Y-56890102D01*
X82286163Y-56782918D01*
X82286169Y-56782914D01*
X82369104Y-56722658D01*
X82369105Y-56722658D01*
X81670233Y-56023787D01*
X81712292Y-56012518D01*
X81837708Y-55940110D01*
X81940110Y-55837708D01*
X82012518Y-55712292D01*
X82023787Y-55670233D01*
X82722658Y-56369105D01*
X82722658Y-56369104D01*
X82782914Y-56286169D01*
X82782918Y-56286163D01*
X82890102Y-56075802D01*
X82963065Y-55851247D01*
X83000000Y-55618052D01*
X83000000Y-55381947D01*
X82963065Y-55148752D01*
X82918041Y-55010182D01*
X82906614Y-54975013D01*
X83600000Y-54975013D01*
X83600000Y-55250000D01*
X84350000Y-55250000D01*
X84350000Y-54275000D01*
X84349999Y-54274999D01*
X84300029Y-54275000D01*
X84300011Y-54275001D01*
X84197302Y-54285494D01*
X84030880Y-54340641D01*
X84030875Y-54340643D01*
X83881654Y-54432684D01*
X83757684Y-54556654D01*
X83665643Y-54705875D01*
X83665641Y-54705880D01*
X83610494Y-54872302D01*
X83610493Y-54872309D01*
X83600000Y-54975013D01*
X82906614Y-54975013D01*
X82890102Y-54924197D01*
X82782914Y-54713828D01*
X82722658Y-54630894D01*
X82722658Y-54630893D01*
X82023787Y-55329765D01*
X82012518Y-55287708D01*
X81940110Y-55162292D01*
X81837708Y-55059890D01*
X81712292Y-54987482D01*
X81670234Y-54976212D01*
X82369105Y-54277340D01*
X82369104Y-54277338D01*
X82286174Y-54217087D01*
X82075802Y-54109897D01*
X81851247Y-54036934D01*
X81851248Y-54036934D01*
X81618052Y-54000000D01*
X81381948Y-54000000D01*
X81148752Y-54036934D01*
X80924197Y-54109897D01*
X80713830Y-54217084D01*
X80630894Y-54277340D01*
X81329766Y-54976212D01*
X81287708Y-54987482D01*
X81162292Y-55059890D01*
X81059890Y-55162292D01*
X80987482Y-55287708D01*
X80976212Y-55329766D01*
X80277340Y-54630894D01*
X80217084Y-54713830D01*
X80109897Y-54924197D01*
X80036934Y-55148752D01*
X80000000Y-55381947D01*
X72000500Y-55381947D01*
X72000500Y-50881902D01*
X73499500Y-50881902D01*
X73499500Y-51118097D01*
X73536446Y-51351368D01*
X73609433Y-51575996D01*
X73685610Y-51725500D01*
X73716657Y-51786433D01*
X73855483Y-51977510D01*
X74022490Y-52144517D01*
X74213567Y-52283343D01*
X74312991Y-52334002D01*
X74424003Y-52390566D01*
X74424005Y-52390566D01*
X74424008Y-52390568D01*
X74544412Y-52429689D01*
X74648631Y-52463553D01*
X74881903Y-52500500D01*
X74881908Y-52500500D01*
X75118097Y-52500500D01*
X75351368Y-52463553D01*
X75575992Y-52390568D01*
X75786433Y-52283343D01*
X75977510Y-52144517D01*
X76144517Y-51977510D01*
X76283343Y-51786433D01*
X76318107Y-51718205D01*
X76366082Y-51667409D01*
X76428592Y-51650500D01*
X80071408Y-51650500D01*
X80138447Y-51670185D01*
X80181893Y-51718205D01*
X80185610Y-51725500D01*
X80216657Y-51786433D01*
X80355483Y-51977510D01*
X80522490Y-52144517D01*
X80713567Y-52283343D01*
X80812991Y-52334002D01*
X80924003Y-52390566D01*
X80924005Y-52390566D01*
X80924008Y-52390568D01*
X81044412Y-52429689D01*
X81148631Y-52463553D01*
X81381903Y-52500500D01*
X81381908Y-52500500D01*
X81618097Y-52500500D01*
X81851368Y-52463553D01*
X82075992Y-52390568D01*
X82286433Y-52283343D01*
X82477510Y-52144517D01*
X82644517Y-51977510D01*
X82783343Y-51786433D01*
X82890568Y-51575992D01*
X82963553Y-51351368D01*
X82982139Y-51234022D01*
X83000500Y-51118097D01*
X83000500Y-50881902D01*
X82963553Y-50648631D01*
X82934509Y-50559244D01*
X82890568Y-50424008D01*
X82852978Y-50350235D01*
X82848416Y-50325944D01*
X82839780Y-50302787D01*
X82842081Y-50292208D01*
X82840083Y-50281568D01*
X82849377Y-50258666D01*
X82854632Y-50234514D01*
X82864566Y-50221242D01*
X82866359Y-50216827D01*
X82875764Y-50206280D01*
X83024728Y-50057316D01*
X83086051Y-50023834D01*
X83112408Y-50021000D01*
X85049692Y-50021000D01*
X85116731Y-50040685D01*
X85137373Y-50057319D01*
X85463181Y-50383126D01*
X85496666Y-50444449D01*
X85499500Y-50470807D01*
X85499500Y-51025001D01*
X85499501Y-51025019D01*
X85510000Y-51127796D01*
X85510001Y-51127799D01*
X85545202Y-51234026D01*
X85565186Y-51294334D01*
X85657288Y-51443656D01*
X85781344Y-51567712D01*
X85930666Y-51659814D01*
X86097203Y-51714999D01*
X86199991Y-51725500D01*
X86800008Y-51725499D01*
X86800016Y-51725498D01*
X86800019Y-51725498D01*
X86871412Y-51718205D01*
X86902797Y-51714999D01*
X87069334Y-51659814D01*
X87218656Y-51567712D01*
X87342712Y-51443656D01*
X87434814Y-51294334D01*
X87489999Y-51127797D01*
X87500500Y-51025009D01*
X87500499Y-50470806D01*
X87520184Y-50403768D01*
X87536813Y-50383131D01*
X90121227Y-47798719D01*
X90182550Y-47765234D01*
X90208908Y-47762400D01*
X96452171Y-47762400D01*
X96536715Y-47745582D01*
X96577844Y-47737401D01*
X96696227Y-47688365D01*
X96802769Y-47617177D01*
X102156510Y-42263434D01*
X102217831Y-42229951D01*
X102263587Y-42228644D01*
X102401578Y-42250500D01*
X102401583Y-42250500D01*
X102598422Y-42250500D01*
X102692666Y-42235572D01*
X102792826Y-42219709D01*
X102833580Y-42206466D01*
X102903420Y-42204470D01*
X102963254Y-42240549D01*
X102994083Y-42303249D01*
X102995900Y-42324397D01*
X102995900Y-49532791D01*
X102987255Y-49562231D01*
X102980732Y-49592218D01*
X102976977Y-49597233D01*
X102976215Y-49599830D01*
X102959581Y-49620472D01*
X102816872Y-49763181D01*
X102755549Y-49796666D01*
X102729191Y-49799500D01*
X102187498Y-49799500D01*
X102187480Y-49799501D01*
X102084703Y-49810000D01*
X102084700Y-49810001D01*
X101918168Y-49865185D01*
X101918163Y-49865187D01*
X101768842Y-49957289D01*
X101675181Y-50050951D01*
X101613858Y-50084436D01*
X101544166Y-50079452D01*
X101499819Y-50050951D01*
X101406157Y-49957289D01*
X101406156Y-49957288D01*
X101256834Y-49865186D01*
X101090297Y-49810001D01*
X101090295Y-49810000D01*
X100987510Y-49799500D01*
X100362498Y-49799500D01*
X100362480Y-49799501D01*
X100259703Y-49810000D01*
X100259700Y-49810001D01*
X100159497Y-49843206D01*
X100120493Y-49849500D01*
X98316359Y-49849500D01*
X98249320Y-49829815D01*
X98205874Y-49781795D01*
X98197812Y-49765973D01*
X98068247Y-49587641D01*
X98068243Y-49587636D01*
X97912363Y-49431756D01*
X97912358Y-49431752D01*
X97734025Y-49302187D01*
X97734024Y-49302186D01*
X97734022Y-49302185D01*
X97671096Y-49270122D01*
X97537606Y-49202104D01*
X97537603Y-49202103D01*
X97327952Y-49133985D01*
X97219086Y-49116742D01*
X97110222Y-49099500D01*
X96889778Y-49099500D01*
X96817201Y-49110995D01*
X96672047Y-49133985D01*
X96462396Y-49202103D01*
X96462393Y-49202104D01*
X96265974Y-49302187D01*
X96087641Y-49431752D01*
X96087636Y-49431756D01*
X96037075Y-49482317D01*
X95975752Y-49515801D01*
X95906060Y-49510816D01*
X95850127Y-49468945D01*
X95833213Y-49437968D01*
X95803354Y-49357913D01*
X95803350Y-49357906D01*
X95717190Y-49242812D01*
X95717187Y-49242809D01*
X95602093Y-49156649D01*
X95602086Y-49156645D01*
X95467379Y-49106403D01*
X95467372Y-49106401D01*
X95407844Y-49100000D01*
X94710000Y-49100000D01*
X94710000Y-50124722D01*
X94633694Y-50080667D01*
X94519244Y-50050000D01*
X94400756Y-50050000D01*
X94286306Y-50080667D01*
X94210000Y-50124722D01*
X94210000Y-49100000D01*
X93512155Y-49100000D01*
X93452627Y-49106401D01*
X93452620Y-49106403D01*
X93317913Y-49156645D01*
X93317906Y-49156649D01*
X93202812Y-49242809D01*
X93202809Y-49242812D01*
X93116649Y-49357906D01*
X93116645Y-49357913D01*
X93066403Y-49492620D01*
X93066401Y-49492627D01*
X93060000Y-49552155D01*
X93060000Y-50250000D01*
X94084722Y-50250000D01*
X94040667Y-50326306D01*
X94010000Y-50440756D01*
X94010000Y-50559244D01*
X94040667Y-50673694D01*
X94084722Y-50750000D01*
X93060000Y-50750000D01*
X93060000Y-51447844D01*
X93066401Y-51507372D01*
X93066403Y-51507379D01*
X93116645Y-51642086D01*
X93116649Y-51642093D01*
X93202809Y-51757187D01*
X93202812Y-51757190D01*
X93317906Y-51843350D01*
X93317913Y-51843354D01*
X93452620Y-51893596D01*
X93452627Y-51893598D01*
X93512155Y-51899999D01*
X93512172Y-51900000D01*
X94210000Y-51900000D01*
X94210000Y-50875277D01*
X94286306Y-50919333D01*
X94400756Y-50950000D01*
X94519244Y-50950000D01*
X94633694Y-50919333D01*
X94710000Y-50875277D01*
X94710000Y-51900000D01*
X95407828Y-51900000D01*
X95407844Y-51899999D01*
X95467372Y-51893598D01*
X95467379Y-51893596D01*
X95602086Y-51843354D01*
X95602093Y-51843350D01*
X95717187Y-51757190D01*
X95717190Y-51757187D01*
X95803350Y-51642093D01*
X95803354Y-51642086D01*
X95833213Y-51562031D01*
X95875084Y-51506097D01*
X95940548Y-51481680D01*
X96008821Y-51496531D01*
X96037076Y-51517683D01*
X96087636Y-51568243D01*
X96087641Y-51568247D01*
X96200854Y-51650500D01*
X96265978Y-51697815D01*
X96382501Y-51757187D01*
X96462393Y-51797895D01*
X96462396Y-51797896D01*
X96548204Y-51825776D01*
X96672049Y-51866015D01*
X96889778Y-51900500D01*
X96889779Y-51900500D01*
X97110221Y-51900500D01*
X97110222Y-51900500D01*
X97327951Y-51866015D01*
X97537606Y-51797895D01*
X97734022Y-51697815D01*
X97912365Y-51568242D01*
X98068242Y-51412365D01*
X98197815Y-51234022D01*
X98205874Y-51218204D01*
X98253848Y-51167409D01*
X98316359Y-51150500D01*
X99538001Y-51150500D01*
X99605040Y-51170185D01*
X99650795Y-51222989D01*
X99662001Y-51274500D01*
X99662001Y-51500018D01*
X99672500Y-51602796D01*
X99672501Y-51602799D01*
X99693911Y-51667409D01*
X99727686Y-51769334D01*
X99819788Y-51918656D01*
X99943844Y-52042712D01*
X100093166Y-52134814D01*
X100259703Y-52189999D01*
X100362491Y-52200500D01*
X100987508Y-52200499D01*
X100987516Y-52200498D01*
X100987519Y-52200498D01*
X101043802Y-52194748D01*
X101090297Y-52189999D01*
X101256834Y-52134814D01*
X101406156Y-52042712D01*
X101499819Y-51949049D01*
X101561142Y-51915564D01*
X101630834Y-51920548D01*
X101675181Y-51949049D01*
X101768844Y-52042712D01*
X101918166Y-52134814D01*
X102084703Y-52189999D01*
X102187491Y-52200500D01*
X102812508Y-52200499D01*
X102812516Y-52200498D01*
X102812519Y-52200498D01*
X102868802Y-52194748D01*
X102915297Y-52189999D01*
X103081834Y-52134814D01*
X103231156Y-52042712D01*
X103355212Y-51918656D01*
X103447314Y-51769334D01*
X103502499Y-51602797D01*
X103513000Y-51500009D01*
X103512999Y-50958307D01*
X103532683Y-50891269D01*
X103549318Y-50870627D01*
X104151671Y-50268275D01*
X104151671Y-50268274D01*
X104151676Y-50268270D01*
X104222865Y-50161727D01*
X104271901Y-50043344D01*
X104276049Y-50022490D01*
X104296900Y-49917669D01*
X104296900Y-41865092D01*
X104739500Y-41865092D01*
X104739500Y-42014907D01*
X104768723Y-42161822D01*
X104768725Y-42161830D01*
X104826051Y-42300229D01*
X104826056Y-42300238D01*
X104909280Y-42424790D01*
X104909283Y-42424794D01*
X105015205Y-42530716D01*
X105015209Y-42530719D01*
X105139761Y-42613943D01*
X105139767Y-42613946D01*
X105139768Y-42613947D01*
X105278170Y-42671275D01*
X105425092Y-42700499D01*
X105425096Y-42700500D01*
X105425097Y-42700500D01*
X105574904Y-42700500D01*
X105574905Y-42700499D01*
X105721830Y-42671275D01*
X105860232Y-42613947D01*
X105984791Y-42530719D01*
X106090719Y-42424791D01*
X106173947Y-42300232D01*
X106231275Y-42161830D01*
X106260500Y-42014903D01*
X106260500Y-41865097D01*
X106231275Y-41718170D01*
X106173947Y-41579768D01*
X106173946Y-41579767D01*
X106173943Y-41579761D01*
X106090719Y-41455209D01*
X106090716Y-41455205D01*
X105984794Y-41349283D01*
X105984790Y-41349280D01*
X105860238Y-41266056D01*
X105860229Y-41266051D01*
X105721830Y-41208725D01*
X105721822Y-41208723D01*
X105574907Y-41179500D01*
X105574903Y-41179500D01*
X105425097Y-41179500D01*
X105425092Y-41179500D01*
X105278177Y-41208723D01*
X105278169Y-41208725D01*
X105139770Y-41266051D01*
X105139761Y-41266056D01*
X105015209Y-41349280D01*
X105015205Y-41349283D01*
X104909283Y-41455205D01*
X104909280Y-41455209D01*
X104826056Y-41579761D01*
X104826051Y-41579770D01*
X104768725Y-41718169D01*
X104768723Y-41718177D01*
X104739500Y-41865092D01*
X104296900Y-41865092D01*
X104296900Y-39082331D01*
X104296900Y-39082328D01*
X104271902Y-38956661D01*
X104271901Y-38956660D01*
X104271901Y-38956656D01*
X104222865Y-38838273D01*
X104210212Y-38819337D01*
X104207079Y-38814647D01*
X104207078Y-38814645D01*
X104151677Y-38731731D01*
X104151671Y-38731724D01*
X103786819Y-38366872D01*
X103753334Y-38305549D01*
X103750500Y-38279191D01*
X103750500Y-37449997D01*
X103750499Y-37449984D01*
X103747797Y-37423540D01*
X103739999Y-37347203D01*
X103684814Y-37180666D01*
X103601856Y-37046172D01*
X103592713Y-37031348D01*
X103592710Y-37031344D01*
X103468655Y-36907289D01*
X103468651Y-36907286D01*
X103319337Y-36815187D01*
X103319335Y-36815186D01*
X103214025Y-36780290D01*
X103152797Y-36760001D01*
X103152795Y-36760000D01*
X103050015Y-36749500D01*
X103050008Y-36749500D01*
X101949992Y-36749500D01*
X101949984Y-36749500D01*
X101847204Y-36760000D01*
X101847203Y-36760001D01*
X101680664Y-36815186D01*
X101680662Y-36815187D01*
X101531348Y-36907286D01*
X101531344Y-36907289D01*
X101407289Y-37031344D01*
X101407286Y-37031348D01*
X101315187Y-37180662D01*
X101315186Y-37180664D01*
X101260001Y-37347203D01*
X101260000Y-37347204D01*
X101249500Y-37449984D01*
X101249500Y-38550015D01*
X101260000Y-38652795D01*
X101260001Y-38652797D01*
X101261096Y-38656102D01*
X101315186Y-38819335D01*
X101315187Y-38819337D01*
X101407286Y-38968651D01*
X101407289Y-38968655D01*
X101531344Y-39092710D01*
X101531348Y-39092713D01*
X101680662Y-39184812D01*
X101680664Y-39184813D01*
X101680666Y-39184814D01*
X101847203Y-39239999D01*
X101949992Y-39250500D01*
X102779192Y-39250500D01*
X102808632Y-39259144D01*
X102838619Y-39265668D01*
X102843634Y-39269422D01*
X102846231Y-39270185D01*
X102866873Y-39286819D01*
X102959581Y-39379527D01*
X102993066Y-39440850D01*
X102995900Y-39467208D01*
X102995900Y-39675601D01*
X102976215Y-39742640D01*
X102923411Y-39788395D01*
X102854253Y-39798339D01*
X102833584Y-39793533D01*
X102792827Y-39780291D01*
X102598422Y-39749500D01*
X102598417Y-39749500D01*
X102401583Y-39749500D01*
X102401578Y-39749500D01*
X102207173Y-39780290D01*
X102019970Y-39841117D01*
X101844594Y-39930476D01*
X101753741Y-39996485D01*
X101685354Y-40046172D01*
X101685352Y-40046174D01*
X101685351Y-40046174D01*
X101546174Y-40185351D01*
X101546174Y-40185352D01*
X101546172Y-40185354D01*
X101524992Y-40214506D01*
X101430476Y-40344594D01*
X101341117Y-40519970D01*
X101280290Y-40707173D01*
X101249500Y-40901577D01*
X101249500Y-41098422D01*
X101271355Y-41236410D01*
X101262400Y-41305704D01*
X101236563Y-41343489D01*
X100740098Y-41839955D01*
X100678775Y-41873440D01*
X100609084Y-41868456D01*
X100553150Y-41826585D01*
X100528733Y-41761120D01*
X100543585Y-41692847D01*
X100552099Y-41679388D01*
X100569524Y-41655405D01*
X100658884Y-41480025D01*
X100719709Y-41292826D01*
X100723950Y-41266051D01*
X100750500Y-41098422D01*
X100750500Y-40901577D01*
X100719709Y-40707173D01*
X100658882Y-40519970D01*
X100569523Y-40344594D01*
X100453828Y-40185354D01*
X100314646Y-40046172D01*
X100155405Y-39930476D01*
X100083073Y-39893621D01*
X99980029Y-39841117D01*
X99792826Y-39780290D01*
X99598422Y-39749500D01*
X99598417Y-39749500D01*
X99401583Y-39749500D01*
X99401578Y-39749500D01*
X99207173Y-39780290D01*
X99019970Y-39841117D01*
X98844594Y-39930476D01*
X98753741Y-39996485D01*
X98685354Y-40046172D01*
X98685352Y-40046174D01*
X98685351Y-40046174D01*
X98546174Y-40185351D01*
X98546174Y-40185352D01*
X98546172Y-40185354D01*
X98524992Y-40214506D01*
X98430476Y-40344594D01*
X98341117Y-40519970D01*
X98280290Y-40707173D01*
X98249500Y-40901577D01*
X98249500Y-41098422D01*
X98280290Y-41292826D01*
X98341117Y-41480029D01*
X98430476Y-41655405D01*
X98546172Y-41814646D01*
X98685354Y-41953828D01*
X98844595Y-42069524D01*
X98893704Y-42094546D01*
X99019970Y-42158882D01*
X99019972Y-42158882D01*
X99019975Y-42158884D01*
X99120317Y-42191487D01*
X99207173Y-42219709D01*
X99401578Y-42250500D01*
X99401583Y-42250500D01*
X99598422Y-42250500D01*
X99792826Y-42219709D01*
X99798064Y-42218007D01*
X99980025Y-42158884D01*
X100155405Y-42069524D01*
X100179387Y-42052099D01*
X100245191Y-42028618D01*
X100313246Y-42044442D01*
X100361942Y-42094546D01*
X100375819Y-42163024D01*
X100350472Y-42228133D01*
X100339955Y-42240097D01*
X96154973Y-46425081D01*
X96093650Y-46458566D01*
X96067292Y-46461400D01*
X89824029Y-46461400D01*
X89698361Y-46486397D01*
X89698355Y-46486399D01*
X89579974Y-46535434D01*
X89473426Y-46606626D01*
X86841871Y-49238181D01*
X86780548Y-49271666D01*
X86754190Y-49274500D01*
X86245809Y-49274500D01*
X86178770Y-49254815D01*
X86158128Y-49238181D01*
X85785173Y-48865226D01*
X85785169Y-48865223D01*
X85678627Y-48794035D01*
X85560244Y-48744999D01*
X85560238Y-48744997D01*
X85434571Y-48720000D01*
X85434569Y-48720000D01*
X82727531Y-48720000D01*
X82727529Y-48720000D01*
X82601861Y-48744997D01*
X82601855Y-48744999D01*
X82483470Y-48794035D01*
X82376931Y-48865222D01*
X82376924Y-48865228D01*
X81770298Y-49471854D01*
X81708975Y-49505339D01*
X81663220Y-49506647D01*
X81618092Y-49499500D01*
X81381908Y-49499500D01*
X81381903Y-49499500D01*
X81148631Y-49536446D01*
X80924003Y-49609433D01*
X80713566Y-49716657D01*
X80604550Y-49795862D01*
X80522490Y-49855483D01*
X80522488Y-49855485D01*
X80522487Y-49855485D01*
X80355485Y-50022487D01*
X80216657Y-50213566D01*
X80181893Y-50281795D01*
X80133918Y-50332591D01*
X80071408Y-50349500D01*
X76428592Y-50349500D01*
X76361553Y-50329815D01*
X76318107Y-50281795D01*
X76288503Y-50223694D01*
X76283343Y-50213567D01*
X76144517Y-50022490D01*
X75977510Y-49855483D01*
X75786433Y-49716657D01*
X75575996Y-49609433D01*
X75351368Y-49536446D01*
X75118097Y-49499500D01*
X75118092Y-49499500D01*
X74881908Y-49499500D01*
X74881903Y-49499500D01*
X74648631Y-49536446D01*
X74424003Y-49609433D01*
X74213566Y-49716657D01*
X74104550Y-49795862D01*
X74022490Y-49855483D01*
X74022488Y-49855485D01*
X74022487Y-49855485D01*
X73855485Y-50022487D01*
X73716657Y-50213566D01*
X73609433Y-50424003D01*
X73536446Y-50648631D01*
X73499500Y-50881902D01*
X72000500Y-50881902D01*
X72000500Y-42881947D01*
X73500000Y-42881947D01*
X73500000Y-43118052D01*
X73536934Y-43351247D01*
X73609897Y-43575802D01*
X73717087Y-43786174D01*
X73777338Y-43869104D01*
X73777340Y-43869105D01*
X74476212Y-43170233D01*
X74487482Y-43212292D01*
X74559890Y-43337708D01*
X74662292Y-43440110D01*
X74787708Y-43512518D01*
X74829765Y-43523787D01*
X74130893Y-44222658D01*
X74213828Y-44282914D01*
X74424197Y-44390102D01*
X74648752Y-44463065D01*
X74648751Y-44463065D01*
X74881948Y-44500000D01*
X75118052Y-44500000D01*
X75351247Y-44463065D01*
X75575802Y-44390102D01*
X75786163Y-44282918D01*
X75786169Y-44282914D01*
X75869104Y-44222658D01*
X75869105Y-44222658D01*
X75170233Y-43523787D01*
X75212292Y-43512518D01*
X75337708Y-43440110D01*
X75440110Y-43337708D01*
X75512518Y-43212292D01*
X75523787Y-43170234D01*
X76222658Y-43869105D01*
X76222658Y-43869104D01*
X76282914Y-43786169D01*
X76282918Y-43786163D01*
X76390102Y-43575802D01*
X76463065Y-43351247D01*
X76500000Y-43118052D01*
X76500000Y-42881947D01*
X80000000Y-42881947D01*
X80000000Y-43118052D01*
X80036934Y-43351247D01*
X80109897Y-43575802D01*
X80217087Y-43786174D01*
X80277338Y-43869104D01*
X80277340Y-43869105D01*
X80976212Y-43170233D01*
X80987482Y-43212292D01*
X81059890Y-43337708D01*
X81162292Y-43440110D01*
X81287708Y-43512518D01*
X81329765Y-43523787D01*
X80630893Y-44222658D01*
X80713828Y-44282914D01*
X80924197Y-44390102D01*
X81148752Y-44463065D01*
X81148751Y-44463065D01*
X81381948Y-44500000D01*
X81618052Y-44500000D01*
X81851247Y-44463065D01*
X82075802Y-44390102D01*
X82286163Y-44282918D01*
X82286169Y-44282914D01*
X82369104Y-44222658D01*
X82369105Y-44222658D01*
X81670233Y-43523787D01*
X81712292Y-43512518D01*
X81837708Y-43440110D01*
X81940110Y-43337708D01*
X82012518Y-43212292D01*
X82023787Y-43170233D01*
X82722658Y-43869105D01*
X82722658Y-43869104D01*
X82782914Y-43786169D01*
X82782918Y-43786163D01*
X82890102Y-43575802D01*
X82963065Y-43351247D01*
X83000000Y-43118052D01*
X83000000Y-42881947D01*
X82963065Y-42648752D01*
X82890102Y-42424197D01*
X82782914Y-42213828D01*
X82722658Y-42130894D01*
X82722658Y-42130893D01*
X82023787Y-42829765D01*
X82012518Y-42787708D01*
X81940110Y-42662292D01*
X81837708Y-42559890D01*
X81712292Y-42487482D01*
X81670234Y-42476212D01*
X82369105Y-41777340D01*
X82369104Y-41777338D01*
X82286174Y-41717087D01*
X82075802Y-41609897D01*
X81851247Y-41536934D01*
X81851248Y-41536934D01*
X81618052Y-41500000D01*
X81381948Y-41500000D01*
X81148752Y-41536934D01*
X80924197Y-41609897D01*
X80713830Y-41717084D01*
X80630894Y-41777340D01*
X81329766Y-42476212D01*
X81287708Y-42487482D01*
X81162292Y-42559890D01*
X81059890Y-42662292D01*
X80987482Y-42787708D01*
X80976212Y-42829766D01*
X80277340Y-42130894D01*
X80217084Y-42213830D01*
X80109897Y-42424197D01*
X80036934Y-42648752D01*
X80000000Y-42881947D01*
X76500000Y-42881947D01*
X76463065Y-42648752D01*
X76390102Y-42424197D01*
X76282914Y-42213828D01*
X76222658Y-42130894D01*
X76222658Y-42130893D01*
X75523787Y-42829765D01*
X75512518Y-42787708D01*
X75440110Y-42662292D01*
X75337708Y-42559890D01*
X75212292Y-42487482D01*
X75170234Y-42476212D01*
X75869105Y-41777340D01*
X75869104Y-41777339D01*
X75786174Y-41717087D01*
X75575802Y-41609897D01*
X75351247Y-41536934D01*
X75351248Y-41536934D01*
X75118052Y-41500000D01*
X74881948Y-41500000D01*
X74648752Y-41536934D01*
X74424197Y-41609897D01*
X74213830Y-41717084D01*
X74130894Y-41777340D01*
X74829766Y-42476212D01*
X74787708Y-42487482D01*
X74662292Y-42559890D01*
X74559890Y-42662292D01*
X74487482Y-42787708D01*
X74476212Y-42829766D01*
X73777340Y-42130894D01*
X73717084Y-42213830D01*
X73609897Y-42424197D01*
X73536934Y-42648752D01*
X73500000Y-42881947D01*
X72000500Y-42881947D01*
X72000500Y-38381902D01*
X73499500Y-38381902D01*
X73499500Y-38618097D01*
X73536446Y-38851368D01*
X73609433Y-39075996D01*
X73706077Y-39265668D01*
X73716657Y-39286433D01*
X73855483Y-39477510D01*
X74022490Y-39644517D01*
X74213567Y-39783343D01*
X74312991Y-39834002D01*
X74424003Y-39890566D01*
X74424005Y-39890566D01*
X74424008Y-39890568D01*
X74484540Y-39910236D01*
X74648631Y-39963553D01*
X74881903Y-40000500D01*
X74881908Y-40000500D01*
X75118097Y-40000500D01*
X75351368Y-39963553D01*
X75412604Y-39943656D01*
X75575992Y-39890568D01*
X75786433Y-39783343D01*
X75977510Y-39644517D01*
X76144517Y-39477510D01*
X76283343Y-39286433D01*
X76310939Y-39232271D01*
X76318107Y-39218205D01*
X76366082Y-39167409D01*
X76428592Y-39150500D01*
X80071408Y-39150500D01*
X80138447Y-39170185D01*
X80181893Y-39218205D01*
X80208378Y-39270185D01*
X80216657Y-39286433D01*
X80355483Y-39477510D01*
X80522490Y-39644517D01*
X80713567Y-39783343D01*
X80812991Y-39834002D01*
X80924003Y-39890566D01*
X80924005Y-39890566D01*
X80924008Y-39890568D01*
X80984540Y-39910236D01*
X81148631Y-39963553D01*
X81381903Y-40000500D01*
X81381908Y-40000500D01*
X81618097Y-40000500D01*
X81851368Y-39963553D01*
X81912604Y-39943656D01*
X82075992Y-39890568D01*
X82286433Y-39783343D01*
X82477510Y-39644517D01*
X82597041Y-39524986D01*
X84050001Y-39524986D01*
X84060494Y-39627697D01*
X84115641Y-39794119D01*
X84115643Y-39794124D01*
X84207684Y-39943345D01*
X84331654Y-40067315D01*
X84480875Y-40159356D01*
X84480880Y-40159358D01*
X84647302Y-40214505D01*
X84647309Y-40214506D01*
X84750019Y-40224999D01*
X84799999Y-40224998D01*
X84800000Y-40224998D01*
X84800000Y-39250000D01*
X84050001Y-39250000D01*
X84050001Y-39524986D01*
X82597041Y-39524986D01*
X82644517Y-39477510D01*
X82783343Y-39286433D01*
X82832000Y-39190937D01*
X82856761Y-39142343D01*
X82856762Y-39142341D01*
X82890565Y-39075999D01*
X82890565Y-39075995D01*
X82890568Y-39075992D01*
X82963553Y-38851368D01*
X82968626Y-38819337D01*
X82994481Y-38656102D01*
X83024410Y-38592967D01*
X83083722Y-38556036D01*
X83116954Y-38551500D01*
X83926000Y-38551500D01*
X83993039Y-38571185D01*
X84038794Y-38623989D01*
X84050000Y-38675500D01*
X84050000Y-38750000D01*
X84926000Y-38750000D01*
X84993039Y-38769685D01*
X85038794Y-38822489D01*
X85050000Y-38874000D01*
X85050000Y-39000000D01*
X85176000Y-39000000D01*
X85243039Y-39019685D01*
X85288794Y-39072489D01*
X85300000Y-39124000D01*
X85300000Y-40224999D01*
X85349972Y-40224999D01*
X85349986Y-40224998D01*
X85452697Y-40214505D01*
X85619119Y-40159358D01*
X85619124Y-40159356D01*
X85768345Y-40067315D01*
X85892318Y-39943342D01*
X85894165Y-39940348D01*
X85895969Y-39938724D01*
X85896798Y-39937677D01*
X85896976Y-39937818D01*
X85946110Y-39893621D01*
X86015073Y-39882396D01*
X86079156Y-39910236D01*
X86089228Y-39919639D01*
X86098335Y-39929140D01*
X86107288Y-39943656D01*
X86226622Y-40062990D01*
X86227522Y-40063929D01*
X86243036Y-40093833D01*
X86259166Y-40123372D01*
X86259376Y-40125327D01*
X86259698Y-40125948D01*
X86259579Y-40127220D01*
X86262000Y-40149730D01*
X86262000Y-42338331D01*
X86242315Y-42405370D01*
X86203100Y-42443868D01*
X86181343Y-42457288D01*
X86087681Y-42550951D01*
X86026358Y-42584436D01*
X85956666Y-42579452D01*
X85912319Y-42550951D01*
X85818657Y-42457289D01*
X85818656Y-42457288D01*
X85669334Y-42365186D01*
X85502797Y-42310001D01*
X85502795Y-42310000D01*
X85400010Y-42299500D01*
X84774998Y-42299500D01*
X84774980Y-42299501D01*
X84672203Y-42310000D01*
X84672200Y-42310001D01*
X84505668Y-42365185D01*
X84505663Y-42365187D01*
X84356342Y-42457289D01*
X84232289Y-42581342D01*
X84140187Y-42730663D01*
X84140186Y-42730666D01*
X84085001Y-42897203D01*
X84085001Y-42897204D01*
X84085000Y-42897204D01*
X84074500Y-42999983D01*
X84074500Y-44000001D01*
X84074501Y-44000019D01*
X84085000Y-44102796D01*
X84085001Y-44102799D01*
X84140185Y-44269331D01*
X84140187Y-44269336D01*
X84175069Y-44325888D01*
X84232288Y-44418656D01*
X84356344Y-44542712D01*
X84505666Y-44634814D01*
X84672203Y-44689999D01*
X84774991Y-44700500D01*
X85316690Y-44700499D01*
X85383729Y-44720183D01*
X85404371Y-44736818D01*
X85756926Y-45089373D01*
X85756929Y-45089375D01*
X85756931Y-45089377D01*
X85863473Y-45160565D01*
X85981856Y-45209601D01*
X85981860Y-45209601D01*
X85981861Y-45209602D01*
X86107528Y-45234600D01*
X86107531Y-45234600D01*
X92979971Y-45234600D01*
X93064515Y-45217782D01*
X93105644Y-45209601D01*
X93224027Y-45160565D01*
X93330569Y-45089377D01*
X96156510Y-42263434D01*
X96217831Y-42229951D01*
X96263587Y-42228644D01*
X96401578Y-42250500D01*
X96401583Y-42250500D01*
X96598422Y-42250500D01*
X96792826Y-42219709D01*
X96798064Y-42218007D01*
X96980025Y-42158884D01*
X97155405Y-42069524D01*
X97314646Y-41953828D01*
X97453828Y-41814646D01*
X97569524Y-41655405D01*
X97658884Y-41480025D01*
X97719709Y-41292826D01*
X97723950Y-41266051D01*
X97750500Y-41098422D01*
X97750500Y-40901577D01*
X97719709Y-40707173D01*
X97658882Y-40519970D01*
X97569523Y-40344594D01*
X97453828Y-40185354D01*
X97314646Y-40046172D01*
X97155405Y-39930476D01*
X97083073Y-39893621D01*
X96980029Y-39841117D01*
X96792826Y-39780290D01*
X96598422Y-39749500D01*
X96598417Y-39749500D01*
X96401583Y-39749500D01*
X96401578Y-39749500D01*
X96207173Y-39780290D01*
X96019970Y-39841117D01*
X95844594Y-39930476D01*
X95753741Y-39996485D01*
X95685354Y-40046172D01*
X95685352Y-40046174D01*
X95685351Y-40046174D01*
X95546174Y-40185351D01*
X95546174Y-40185352D01*
X95546172Y-40185354D01*
X95524992Y-40214506D01*
X95430476Y-40344594D01*
X95341117Y-40519970D01*
X95280290Y-40707173D01*
X95249500Y-40901577D01*
X95249500Y-41098422D01*
X95271355Y-41236410D01*
X95262400Y-41305704D01*
X95236563Y-41343489D01*
X92682773Y-43897281D01*
X92621450Y-43930766D01*
X92595092Y-43933600D01*
X88049500Y-43933600D01*
X87982461Y-43913915D01*
X87936706Y-43861111D01*
X87925500Y-43809600D01*
X87925499Y-42999998D01*
X87925498Y-42999980D01*
X87914999Y-42897203D01*
X87914998Y-42897200D01*
X87909944Y-42881947D01*
X87859814Y-42730666D01*
X87767712Y-42581344D01*
X87643656Y-42457288D01*
X87621900Y-42443868D01*
X87575177Y-42391918D01*
X87563000Y-42338331D01*
X87563000Y-41865092D01*
X89739500Y-41865092D01*
X89739500Y-42014907D01*
X89768723Y-42161822D01*
X89768725Y-42161830D01*
X89826051Y-42300229D01*
X89826056Y-42300238D01*
X89909280Y-42424790D01*
X89909283Y-42424794D01*
X90015205Y-42530716D01*
X90015209Y-42530719D01*
X90139761Y-42613943D01*
X90139767Y-42613946D01*
X90139768Y-42613947D01*
X90278170Y-42671275D01*
X90425092Y-42700499D01*
X90425096Y-42700500D01*
X90425097Y-42700500D01*
X90574904Y-42700500D01*
X90574905Y-42700499D01*
X90721830Y-42671275D01*
X90860232Y-42613947D01*
X90984791Y-42530719D01*
X91090719Y-42424791D01*
X91173947Y-42300232D01*
X91231275Y-42161830D01*
X91260500Y-42014903D01*
X91260500Y-41865097D01*
X91231275Y-41718170D01*
X91173947Y-41579768D01*
X91173946Y-41579767D01*
X91173943Y-41579761D01*
X91090719Y-41455209D01*
X91090716Y-41455205D01*
X90984794Y-41349283D01*
X90984790Y-41349280D01*
X90860238Y-41266056D01*
X90860229Y-41266051D01*
X90721830Y-41208725D01*
X90721822Y-41208723D01*
X90574907Y-41179500D01*
X90574903Y-41179500D01*
X90425097Y-41179500D01*
X90425092Y-41179500D01*
X90278177Y-41208723D01*
X90278169Y-41208725D01*
X90139770Y-41266051D01*
X90139761Y-41266056D01*
X90015209Y-41349280D01*
X90015205Y-41349283D01*
X89909283Y-41455205D01*
X89909280Y-41455209D01*
X89826056Y-41579761D01*
X89826051Y-41579770D01*
X89768725Y-41718169D01*
X89768723Y-41718177D01*
X89739500Y-41865092D01*
X87563000Y-41865092D01*
X87563000Y-40202087D01*
X87582685Y-40135048D01*
X87621902Y-40096548D01*
X87668656Y-40067712D01*
X87792712Y-39943656D01*
X87884814Y-39794334D01*
X87939999Y-39627797D01*
X87950500Y-39525009D01*
X87950499Y-38970807D01*
X87970183Y-38903769D01*
X87986818Y-38883127D01*
X88183127Y-38686819D01*
X88244450Y-38653334D01*
X88270808Y-38650500D01*
X92363732Y-38650500D01*
X92430771Y-38670185D01*
X92464049Y-38701614D01*
X92546172Y-38814646D01*
X92685354Y-38953828D01*
X92844595Y-39069524D01*
X92927455Y-39111743D01*
X93019970Y-39158882D01*
X93019972Y-39158882D01*
X93019975Y-39158884D01*
X93054756Y-39170185D01*
X93207173Y-39219709D01*
X93401578Y-39250500D01*
X93401583Y-39250500D01*
X93598422Y-39250500D01*
X93792826Y-39219709D01*
X93797455Y-39218205D01*
X93980025Y-39158884D01*
X94155405Y-39069524D01*
X94314646Y-38953828D01*
X94453828Y-38814646D01*
X94569524Y-38655405D01*
X94658884Y-38480025D01*
X94719709Y-38292826D01*
X94742547Y-38148632D01*
X94750500Y-38098422D01*
X94750500Y-37901577D01*
X95249500Y-37901577D01*
X95249500Y-38098422D01*
X95280290Y-38292826D01*
X95341117Y-38480029D01*
X95379845Y-38556036D01*
X95430476Y-38655405D01*
X95546172Y-38814646D01*
X95685354Y-38953828D01*
X95844595Y-39069524D01*
X95927455Y-39111743D01*
X96019970Y-39158882D01*
X96019972Y-39158882D01*
X96019975Y-39158884D01*
X96054756Y-39170185D01*
X96207173Y-39219709D01*
X96401578Y-39250500D01*
X96401583Y-39250500D01*
X96598422Y-39250500D01*
X96792826Y-39219709D01*
X96797455Y-39218205D01*
X96980025Y-39158884D01*
X97155405Y-39069524D01*
X97314646Y-38953828D01*
X97453828Y-38814646D01*
X97569524Y-38655405D01*
X97658884Y-38480025D01*
X97719709Y-38292826D01*
X97742547Y-38148632D01*
X97750500Y-38098422D01*
X97750500Y-37901577D01*
X98249500Y-37901577D01*
X98249500Y-38098422D01*
X98280290Y-38292826D01*
X98341117Y-38480029D01*
X98379845Y-38556036D01*
X98430476Y-38655405D01*
X98546172Y-38814646D01*
X98685354Y-38953828D01*
X98844595Y-39069524D01*
X98927455Y-39111743D01*
X99019970Y-39158882D01*
X99019972Y-39158882D01*
X99019975Y-39158884D01*
X99054756Y-39170185D01*
X99207173Y-39219709D01*
X99401578Y-39250500D01*
X99401583Y-39250500D01*
X99598422Y-39250500D01*
X99792826Y-39219709D01*
X99797455Y-39218205D01*
X99980025Y-39158884D01*
X100155405Y-39069524D01*
X100314646Y-38953828D01*
X100453828Y-38814646D01*
X100569524Y-38655405D01*
X100658884Y-38480025D01*
X100719709Y-38292826D01*
X100742547Y-38148632D01*
X100750500Y-38098422D01*
X100750500Y-37901577D01*
X100719709Y-37707173D01*
X100659701Y-37522490D01*
X100658884Y-37519975D01*
X100658882Y-37519972D01*
X100658882Y-37519970D01*
X100595575Y-37395723D01*
X100569524Y-37344595D01*
X100453828Y-37185354D01*
X100314646Y-37046172D01*
X100155405Y-36930476D01*
X100109892Y-36907286D01*
X99980029Y-36841117D01*
X99792826Y-36780290D01*
X99598422Y-36749500D01*
X99598417Y-36749500D01*
X99401583Y-36749500D01*
X99401578Y-36749500D01*
X99207173Y-36780290D01*
X99019970Y-36841117D01*
X98844594Y-36930476D01*
X98753741Y-36996485D01*
X98685354Y-37046172D01*
X98685352Y-37046174D01*
X98685351Y-37046174D01*
X98546174Y-37185351D01*
X98546174Y-37185352D01*
X98546172Y-37185354D01*
X98498840Y-37250500D01*
X98430476Y-37344594D01*
X98341117Y-37519970D01*
X98280290Y-37707173D01*
X98249500Y-37901577D01*
X97750500Y-37901577D01*
X97719709Y-37707173D01*
X97659701Y-37522490D01*
X97658884Y-37519975D01*
X97658882Y-37519972D01*
X97658882Y-37519970D01*
X97595575Y-37395723D01*
X97569524Y-37344595D01*
X97453828Y-37185354D01*
X97314646Y-37046172D01*
X97155405Y-36930476D01*
X97109892Y-36907286D01*
X96980029Y-36841117D01*
X96792826Y-36780290D01*
X96598422Y-36749500D01*
X96598417Y-36749500D01*
X96401583Y-36749500D01*
X96401578Y-36749500D01*
X96207173Y-36780290D01*
X96019970Y-36841117D01*
X95844594Y-36930476D01*
X95753741Y-36996485D01*
X95685354Y-37046172D01*
X95685352Y-37046174D01*
X95685351Y-37046174D01*
X95546174Y-37185351D01*
X95546174Y-37185352D01*
X95546172Y-37185354D01*
X95498840Y-37250500D01*
X95430476Y-37344594D01*
X95341117Y-37519970D01*
X95280290Y-37707173D01*
X95249500Y-37901577D01*
X94750500Y-37901577D01*
X94719709Y-37707173D01*
X94659701Y-37522490D01*
X94658884Y-37519975D01*
X94658882Y-37519972D01*
X94658882Y-37519970D01*
X94595575Y-37395723D01*
X94569524Y-37344595D01*
X94453828Y-37185354D01*
X94314646Y-37046172D01*
X94155405Y-36930476D01*
X94109892Y-36907286D01*
X93980029Y-36841117D01*
X93792826Y-36780290D01*
X93598422Y-36749500D01*
X93598417Y-36749500D01*
X93401583Y-36749500D01*
X93401578Y-36749500D01*
X93207173Y-36780290D01*
X93019970Y-36841117D01*
X92844594Y-36930476D01*
X92753741Y-36996485D01*
X92685354Y-37046172D01*
X92685352Y-37046174D01*
X92685351Y-37046174D01*
X92546174Y-37185351D01*
X92546169Y-37185357D01*
X92523427Y-37216659D01*
X92480678Y-37275499D01*
X92464050Y-37298385D01*
X92408720Y-37341051D01*
X92363732Y-37349500D01*
X87885929Y-37349500D01*
X87760261Y-37374497D01*
X87760251Y-37374500D01*
X87711220Y-37394810D01*
X87641881Y-37423530D01*
X87641863Y-37423540D01*
X87535332Y-37494721D01*
X87535325Y-37494727D01*
X87291871Y-37738181D01*
X87230548Y-37771666D01*
X87204190Y-37774500D01*
X86695809Y-37774500D01*
X86628770Y-37754815D01*
X86608128Y-37738181D01*
X86265673Y-37395726D01*
X86265669Y-37395723D01*
X86159127Y-37324535D01*
X86040744Y-37275499D01*
X86040738Y-37275497D01*
X85915071Y-37250500D01*
X85915069Y-37250500D01*
X82373304Y-37250500D01*
X82306265Y-37230815D01*
X82300418Y-37226817D01*
X82286437Y-37216659D01*
X82075996Y-37109433D01*
X81851368Y-37036446D01*
X81618097Y-36999500D01*
X81618092Y-36999500D01*
X81381908Y-36999500D01*
X81381903Y-36999500D01*
X81148631Y-37036446D01*
X80924003Y-37109433D01*
X80713566Y-37216657D01*
X80666986Y-37250500D01*
X80522490Y-37355483D01*
X80522488Y-37355485D01*
X80522487Y-37355485D01*
X80355485Y-37522487D01*
X80355485Y-37522488D01*
X80355483Y-37522490D01*
X80295862Y-37604550D01*
X80216657Y-37713566D01*
X80181893Y-37781795D01*
X80133918Y-37832591D01*
X80071408Y-37849500D01*
X76428592Y-37849500D01*
X76361553Y-37829815D01*
X76318107Y-37781795D01*
X76283342Y-37713566D01*
X76278697Y-37707173D01*
X76144517Y-37522490D01*
X75977510Y-37355483D01*
X75786433Y-37216657D01*
X75575996Y-37109433D01*
X75351368Y-37036446D01*
X75118097Y-36999500D01*
X75118092Y-36999500D01*
X74881908Y-36999500D01*
X74881903Y-36999500D01*
X74648631Y-37036446D01*
X74424003Y-37109433D01*
X74213566Y-37216657D01*
X74166986Y-37250500D01*
X74022490Y-37355483D01*
X74022488Y-37355485D01*
X74022487Y-37355485D01*
X73855485Y-37522487D01*
X73855485Y-37522488D01*
X73855483Y-37522490D01*
X73795862Y-37604550D01*
X73716657Y-37713566D01*
X73609433Y-37924003D01*
X73536446Y-38148631D01*
X73499500Y-38381902D01*
X72000500Y-38381902D01*
X72000500Y-34124500D01*
X72020185Y-34057461D01*
X72072989Y-34011706D01*
X72124500Y-34000500D01*
X108875500Y-34000500D01*
X108942539Y-34020185D01*
G37*
%TD.AperFunction*%
%TD*%
M02*
