M48
; DRILL file {KiCad 9.0.7} date 2026-03-09T20:56:30-0500
; FORMAT={-:-/ absolute / metric / decimal}
; #@! TF.CreationDate,2026-03-09T20:56:30-05:00
; #@! TF.GenerationSoftware,Kicad,Pcbnew,9.0.7
; #@! TF.FileFunction,Plated,1,2,PTH
FMAT,2
METRIC
; #@! TA.AperFunction,Plated,PTH,ViaDrill
T1C0.300
; #@! TA.AperFunction,Plated,PTH,ComponentDrill
T2C0.900
; #@! TA.AperFunction,Plated,PTH,ComponentDrill
T3C1.020
; #@! TA.AperFunction,Plated,PTH,ComponentDrill
T4C1.100
%
G90
G05
T1
X82.909Y-50.175
X85.162Y-65.916
X88.185Y-63.55
X99.667Y-54.935
X103.543Y-60.678
X103.543Y-69.293
T2
X94.225Y-59.5
X94.225Y-68.5
X94.46Y-50.5
X96.765Y-59.5
X96.765Y-68.5
X97.0Y-50.5
T3
X93.5Y-38.0
X93.5Y-41.0
X96.5Y-38.0
X96.5Y-41.0
X99.5Y-38.0
X99.5Y-41.0
X102.5Y-38.0
X102.5Y-41.0
T4
X75.0Y-38.5
X75.0Y-43.0
X75.0Y-51.0
X75.0Y-55.5
X75.0Y-64.0
X75.0Y-68.5
X81.5Y-38.5
X81.5Y-43.0
X81.5Y-51.0
X81.5Y-55.5
X81.5Y-64.0
X81.5Y-68.5
M30
